<?xml version="1.0" encoding="UTF-8" ?>
<!DOCTYPE svg PUBLIC "-//W3C//DTD SVG 1.1//EN" "http://www.w3.org/Graphics/SVG/1.1/DTD/svg11.dtd">
<svg width="240pt" height="48pt" viewBox="0 0 240 48" version="1.1" xmlns="http://www.w3.org/2000/svg">
<g id="#ffa000ff">
<path fill="#ffa000" opacity="1.00" d=" M 109.88 0.89 C 111.95 2.06 114.19 2.89 116.45 3.62 C 115.85 4.40 115.23 5.15 114.59 5.89 C 112.36 5.78 110.22 5.00 108.04 4.60 C 108.24 3.96 108.65 2.68 108.85 2.04 C 109.11 1.75 109.62 1.17 109.88 0.89 Z" />
<path fill="#ffa000" opacity="1.00" d=" M 123.43 0.91 C 124.32 1.81 125.20 2.72 126.09 3.62 C 125.34 4.29 124.59 4.96 123.84 5.63 C 121.14 5.61 118.46 6.13 115.76 6.01 C 117.02 4.66 118.59 1.56 120.61 3.91 C 121.55 2.91 122.49 1.91 123.43 0.91 Z" />
<path fill="#ffa000" opacity="1.00" d=" M 158.18 0.95 L 159.04 1.43 C 160.72 2.40 162.58 2.98 164.41 3.58 C 163.85 4.35 163.26 5.10 162.65 5.83 C 160.82 6.50 159.17 4.89 157.55 4.27 C 157.02 4.45 155.96 4.81 155.43 5.00 C 156.34 3.65 157.25 2.30 158.18 0.95 Z" />
<path fill="#ffa000" opacity="1.00" d=" M 171.38 0.95 C 172.28 1.76 173.18 2.58 174.08 3.39 C 173.26 4.28 172.44 5.16 171.63 6.05 C 171.37 5.83 170.84 5.37 170.58 5.14 C 168.52 6.69 165.88 5.99 163.56 5.63 C 165.06 4.37 166.67 2.15 168.80 3.71 C 169.73 2.86 170.54 1.89 171.38 0.95 Z" />
<path fill="#ffa000" opacity="1.00" d=" M 205.69 0.79 C 207.70 1.81 209.78 2.66 211.88 3.47 C 211.56 4.41 211.24 5.34 210.92 6.28 C 208.28 5.84 205.94 4.56 203.94 2.82 C 204.38 2.31 205.25 1.30 205.69 0.79 Z" />
<path fill="#ffa000" opacity="1.00" d=" M 219.29 1.01 C 220.26 1.71 221.23 2.42 222.21 3.13 C 221.44 3.96 220.68 4.79 219.92 5.62 C 217.19 6.00 214.43 6.19 211.68 5.89 C 212.65 4.81 213.71 3.80 214.81 2.85 C 215.31 3.09 216.32 3.59 216.82 3.84 C 217.64 2.89 218.46 1.95 219.29 1.01 Z" />
<path fill="#ffa000" opacity="1.00" d=" M 169.27 9.43 C 169.37 9.49 169.57 9.62 169.67 9.69 L 169.27 9.43 Z" />
<path fill="#ffa000" opacity="1.00" d=" M 124.43 10.33 C 124.48 10.41 124.58 10.58 124.63 10.67 C 124.58 10.58 124.48 10.41 124.43 10.33 Z" />
<path fill="#ffa000" opacity="1.00" d=" M 168.28 11.71 C 168.34 11.59 168.45 11.35 168.50 11.22 C 168.45 11.35 168.34 11.59 168.28 11.71 Z" />
<path fill="#ffa000" opacity="1.00" d=" M 171.48 11.36 C 171.51 11.41 171.59 11.51 171.63 11.56 C 171.59 11.51 171.51 11.41 171.48 11.36 Z" />
<path fill="#ffa000" opacity="1.00" d=" M 124.83 11.00 C 126.38 13.27 127.51 15.77 127.00 18.60 C 125.96 17.40 125.11 16.07 124.67 14.53 L 124.58 14.28 C 124.64 13.46 124.77 11.82 124.83 11.00 Z" />
<path fill="#ffa000" opacity="1.00" d=" M 116.56 15.55 C 117.62 14.36 118.93 13.43 120.17 12.42 C 119.91 14.20 118.86 16.34 116.72 16.08 L 116.56 15.55 Z" />
<path fill="#ffa000" opacity="1.00" d=" M 220.05 13.11 C 222.21 12.10 222.40 16.64 220.28 14.74 C 220.22 14.34 220.11 13.52 220.05 13.11 Z" />
<path fill="#ffa000" opacity="1.00" d=" M 27.45 15.78 C 27.57 14.21 29.88 16.01 30.65 16.35 C 30.78 17.50 28.92 18.17 27.99 17.77 L 27.71 17.25 L 27.79 16.47 L 27.45 15.78 Z" />
<path fill="#ffa000" opacity="1.00" d=" M 159.09 15.00 C 160.09 15.43 161.09 15.85 162.11 16.26 C 161.45 17.17 160.38 17.87 160.12 19.02 L 159.92 19.67 C 159.94 22.30 159.63 25.09 160.72 27.57 C 161.49 30.02 163.21 31.89 165.46 33.06 C 166.88 32.84 168.69 33.40 169.62 31.89 C 172.27 33.64 169.87 36.09 168.93 38.05 C 168.69 38.28 168.20 38.74 167.95 38.97 C 166.71 39.10 165.61 38.72 164.66 37.83 C 166.42 37.35 168.16 36.79 169.88 36.19 C 166.17 34.00 162.22 32.26 158.66 29.82 C 159.49 32.31 160.45 34.77 161.89 36.97 C 160.27 36.87 159.06 35.79 157.98 34.70 C 158.08 29.47 157.87 24.24 158.11 19.02 C 158.91 17.83 159.07 16.39 159.09 15.00 Z" />
<path fill="#ffa000" opacity="1.00" d=" M 163.24 15.25 C 163.85 15.85 163.85 15.85 163.24 15.25 Z" />
<path fill="#ffa000" opacity="1.00" d=" M 115.01 16.01 C 115.44 16.03 116.30 16.06 116.72 16.08 C 116.81 16.52 116.99 17.39 117.09 17.83 C 115.76 17.84 115.07 17.24 115.01 16.01 Z" />
<path fill="#ffa000" opacity="1.00" d=" M 156.38 17.37 C 156.44 17.15 156.56 16.72 156.62 16.51 L 156.92 17.16 L 156.38 17.37 Z" />
<path fill="#ffa000" opacity="1.00" d=" M 164.30 17.23 C 164.63 17.03 165.30 16.65 165.63 16.45 C 165.60 16.86 165.54 17.68 165.51 18.09 L 164.68 18.07 L 164.30 17.23 Z" />
<path fill="#ffa000" opacity="1.00" d=" M 210.63 15.94 C 211.49 16.63 211.49 18.36 210.63 19.07 C 209.10 18.77 209.08 16.23 210.63 15.94 Z" />
<path fill="#ffa000" opacity="1.00" d=" M 217.66 16.00 C 219.50 16.01 221.33 16.01 223.17 16.04 C 224.06 20.14 217.88 14.46 218.22 19.05 C 218.35 19.22 218.61 19.57 218.74 19.74 L 220.42 20.20 L 219.56 22.16 C 217.50 20.65 216.35 18.42 217.66 16.00 Z" />
<path fill="#ffa000" opacity="1.00" d=" M 212.53 17.58 C 213.10 17.44 214.24 17.15 214.81 17.01 C 215.86 18.16 216.17 19.87 214.93 21.02 C 214.81 20.89 214.55 20.65 214.42 20.52 C 214.40 20.24 214.35 19.66 214.32 19.38 C 213.87 18.93 212.98 18.03 212.53 17.58 Z" />
<path fill="#ffa000" opacity="1.00" d=" M 28.97 19.00 C 29.87 18.37 30.87 18.03 31.97 17.97 C 31.46 19.44 30.27 20.55 28.85 21.12 C 28.88 20.59 28.94 19.53 28.97 19.00 Z" />
<path fill="#ffa000" opacity="1.00" d=" M 110.93 19.01 C 112.05 18.61 113.17 18.22 114.31 17.84 C 113.65 18.62 112.33 20.17 111.68 20.95 C 112.15 20.91 113.08 20.83 113.55 20.79 C 113.09 23.27 112.77 25.86 113.78 28.26 L 112.58 27.73 C 114.15 29.62 115.84 31.41 117.49 33.23 C 118.97 32.91 120.45 32.59 121.92 32.23 C 122.24 32.64 122.87 33.45 123.19 33.86 C 122.39 35.33 121.60 36.80 120.74 38.23 C 120.53 38.38 120.09 38.68 119.88 38.83 C 118.69 38.66 117.53 38.39 116.39 37.99 C 118.26 37.51 120.06 36.85 121.85 36.13 C 118.34 34.27 114.78 32.44 111.82 29.75 C 111.91 32.38 111.96 35.24 114.17 37.06 C 112.71 36.34 111.28 35.59 109.85 34.82 C 111.49 29.70 111.02 24.30 110.93 19.01 Z" />
<path fill="#ffa000" opacity="1.00" d=" M 118.10 18.03 C 118.66 18.27 119.78 18.76 120.35 19.00 C 120.24 20.09 119.66 20.79 118.59 21.10 L 118.15 20.69 C 118.12 19.80 118.10 18.92 118.10 18.03 Z" />
<path fill="#ffa000" opacity="1.00" d=" M 121.11 19.33 L 121.62 19.06 C 122.94 19.43 123.71 20.20 123.91 21.39 C 122.72 21.91 121.01 20.60 121.11 19.33 Z" />
<path fill="#ffa000" opacity="1.00" d=" M 207.09 19.22 L 209.41 18.69 C 208.87 19.42 208.33 20.16 207.79 20.88 C 208.38 20.80 209.55 20.63 210.14 20.55 C 208.70 22.75 209.05 25.35 209.29 27.80 C 208.98 27.53 208.36 27.00 208.05 26.73 L 207.96 27.98 L 208.65 28.08 C 209.25 30.55 211.52 31.78 213.48 33.06 C 215.05 33.04 216.69 33.00 217.95 31.90 C 219.95 33.91 218.03 36.09 216.89 37.94 C 216.70 38.21 216.33 38.73 216.14 39.00 C 215.11 39.16 214.00 38.79 212.80 37.89 C 214.05 37.12 217.89 37.68 216.82 35.50 C 213.91 33.73 210.75 32.43 207.73 30.89 C 207.85 33.23 208.38 35.56 210.38 37.03 C 208.36 36.26 205.33 35.38 205.99 32.60 C 208.30 28.65 206.29 23.60 207.09 19.22 Z" />
<path fill="#ffa000" opacity="1.00" d=" M 22.29 21.41 C 22.39 21.48 22.59 21.60 22.69 21.67 L 22.48 21.52 L 22.29 21.41 Z" />
<path fill="#ffa000" opacity="1.00" d=" M 109.13 21.22 C 112.35 21.59 107.49 24.24 109.13 21.22 Z" />
<path fill="#ffa000" opacity="1.00" d=" M 17.99 21.76 C 18.87 21.88 20.64 22.11 21.52 22.22 C 19.96 22.98 18.39 23.71 16.82 24.44 L 17.73 25.24 C 17.92 25.45 18.29 25.87 18.48 26.08 C 17.80 29.00 17.92 32.02 19.98 34.37 C 19.37 33.93 18.16 33.06 17.55 32.63 C 18.37 34.82 19.94 36.58 21.36 38.39 C 18.71 37.40 16.17 36.16 13.71 34.76 C 14.03 33.66 14.36 32.56 14.69 31.47 C 15.22 29.14 15.79 26.83 16.25 24.49 C 16.84 23.59 17.42 22.68 17.99 21.76 Z" />
<path fill="#ffa000" opacity="1.00" d=" M 30.10 29.42 C 27.91 27.55 25.49 24.05 28.13 21.48 C 27.51 23.64 28.19 24.98 30.18 25.52 L 28.98 25.69 C 29.26 26.62 29.82 28.49 30.10 29.42 Z" />
<path fill="#ffa000" opacity="1.00" d=" M 173.50 23.74 L 173.68 23.47 L 173.86 23.97 L 173.45 24.07 L 173.50 23.74 Z" />
<path fill="#ffa000" opacity="1.00" d=" M 14.11 24.24 C 17.34 24.49 12.56 27.32 14.11 24.24 Z" />
<path fill="#ffa000" opacity="1.00" d=" M 125.50 24.83 C 125.57 24.67 125.70 24.34 125.77 24.18 L 125.73 24.55 L 125.50 24.83 Z" />
<path fill="#ffa000" opacity="1.00" d=" M 24.45 25.00 L 24.84 25.26 L 24.89 25.70 L 24.27 25.72 L 24.45 25.00 Z" />
<path fill="#ffa000" opacity="1.00" d=" M 168.15 25.18 L 168.84 25.20 L 168.84 25.79 L 168.15 25.81 L 168.15 25.18 Z" />
<path fill="#ffa000" opacity="1.00" d=" M 123.09 28.37 C 122.96 26.89 123.63 25.93 125.10 25.49 C 125.05 26.88 124.38 27.84 123.09 28.37 Z" />
<path fill="#ffa000" opacity="1.00" d=" M 126.34 26.12 L 126.86 26.16 L 126.90 26.68 L 126.35 26.63 L 126.34 26.12 Z" />
<path fill="#ffa000" opacity="1.00" d=" M 127.30 26.21 L 128.58 26.34 C 129.40 26.96 130.22 27.60 131.02 28.26 C 131.06 31.03 131.12 33.84 130.42 36.55 C 130.27 37.05 129.96 38.07 129.81 38.57 C 128.09 42.53 125.32 46.13 121.33 48.00 L 117.76 48.00 C 115.59 46.84 113.41 45.69 111.15 44.72 C 110.36 43.46 109.59 42.20 108.87 40.91 C 111.12 41.67 112.90 43.24 114.50 44.95 C 115.13 44.97 116.40 45.01 117.04 45.03 L 117.02 46.00 C 118.88 46.00 120.74 46.00 122.60 46.00 C 125.14 43.63 127.58 41.01 128.41 37.52 C 129.79 35.05 130.22 32.29 130.05 29.49 C 129.18 28.57 128.32 27.65 127.46 26.72 L 127.30 26.21 Z" />
<path fill="#ffa000" opacity="1.00" d=" M 174.36 26.11 L 174.88 26.15 L 174.91 26.69 L 174.36 26.63 L 174.36 26.11 Z" />
<path fill="#ffa000" opacity="1.00" d=" M 175.34 26.20 L 176.57 26.32 C 177.39 26.96 178.21 27.61 179.01 28.27 C 179.06 31.03 179.13 33.83 178.43 36.53 C 178.27 37.05 177.96 38.08 177.80 38.59 C 176.07 42.54 173.31 46.12 169.34 48.00 L 165.76 48.00 C 162.69 46.07 158.14 45.25 156.99 41.33 C 159.37 40.97 160.70 43.48 162.39 44.72 C 163.47 45.09 164.55 45.47 165.62 45.87 C 167.28 45.94 168.93 45.99 170.59 46.05 C 173.11 43.64 175.58 41.02 176.41 37.51 C 177.79 35.04 178.23 32.28 178.05 29.48 C 177.19 28.58 176.33 27.67 175.48 26.76 L 175.34 26.20 Z" />
<path fill="#ffa000" opacity="1.00" d=" M 220.53 26.66 C 220.56 26.61 220.61 26.51 220.64 26.46 C 220.61 26.51 220.56 26.61 220.53 26.66 Z" />
<path fill="#ffa000" opacity="1.00" d=" M 221.62 25.99 C 222.38 26.02 223.91 26.08 224.68 26.11 C 225.45 26.89 226.22 27.66 227.00 28.43 C 227.06 31.14 227.11 33.90 226.42 36.55 C 226.27 37.06 225.96 38.08 225.80 38.59 C 224.07 42.53 221.30 46.11 217.33 48.00 L 213.74 48.00 C 210.50 46.37 207.06 44.85 204.74 41.93 C 205.17 41.72 206.03 41.31 206.46 41.11 C 207.79 42.38 209.12 43.66 210.44 44.97 C 211.07 44.98 212.35 45.01 212.99 45.03 L 213.06 46.00 C 214.91 46.00 216.75 46.00 218.61 46.00 C 223.42 41.92 226.17 35.58 226.14 29.30 C 224.64 28.18 223.13 27.08 221.62 25.99 Z" />
<path fill="#ffa000" opacity="1.00" d=" M 171.72 27.52 C 171.81 27.42 171.98 27.21 172.07 27.10 C 171.98 27.21 171.81 27.42 171.72 27.52 Z" />
<path fill="#ffa000" opacity="1.00" d=" M 107.97 29.34 C 108.22 28.85 108.74 27.86 109.00 27.36 C 109.06 29.74 108.81 32.15 109.21 34.51 C 109.92 36.08 110.91 39.10 113.35 37.19 L 111.98 38.69 C 112.43 39.10 113.35 39.93 113.80 40.35 L 113.74 39.58 C 115.15 41.57 116.75 43.42 118.27 45.33 C 115.70 43.95 113.42 42.15 111.22 40.26 C 109.94 39.10 108.42 38.26 106.92 37.43 C 107.19 34.73 107.57 32.03 107.97 29.34 Z" />
<path fill="#ffa000" opacity="1.00" d=" M 210.00 27.88 C 211.06 28.01 211.84 28.59 212.35 29.60 C 210.73 30.16 209.95 29.59 210.00 27.88 Z" />
<path fill="#ffa000" opacity="1.00" d=" M 221.32 28.13 C 222.58 27.57 224.13 29.24 224.02 30.49 C 222.80 30.82 221.24 29.35 221.32 28.13 Z" />
<path fill="#ffa000" opacity="1.00" d=" M 116.35 29.50 C 116.49 29.58 116.77 29.72 116.91 29.80 L 116.58 29.63 L 116.35 29.50 Z" />
<path fill="#ffa000" opacity="1.00" d=" M 124.19 29.49 C 124.37 29.60 124.71 29.82 124.88 29.92 L 124.36 30.08 L 124.19 29.49 Z" />
<path fill="#ffa000" opacity="1.00" d=" M 163.37 29.52 L 163.47 29.59 L 163.58 29.64 C 163.53 29.61 163.42 29.55 163.37 29.52 Z" />
<path fill="#ffa000" opacity="1.00" d=" M 172.17 29.51 C 172.34 29.63 172.68 29.85 172.85 29.97 L 172.31 30.10 L 172.17 29.51 Z" />
<path fill="#ffa000" opacity="1.00" d=" M 103.65 33.09 C 103.51 31.50 104.88 30.65 105.86 29.64 C 105.91 30.34 106.02 31.73 106.07 32.42 L 105.01 32.00 C 104.99 34.14 104.95 36.28 104.88 38.43 C 105.25 38.71 105.98 39.29 106.34 39.58 C 106.18 40.98 106.02 42.39 105.86 43.79 C 104.79 44.89 103.73 45.99 102.67 47.09 C 102.38 46.79 101.81 46.19 101.53 45.89 L 102.56 44.86 C 103.18 44.24 103.82 43.64 104.48 43.06 C 105.62 41.90 105.45 41.31 103.98 41.28 C 104.06 38.55 103.97 35.81 103.65 33.09 Z" />
<path fill="#ffa000" opacity="1.00" d=" M 117.74 30.24 C 117.93 30.31 118.30 30.46 118.48 30.54 L 118.13 30.51 L 117.74 30.24 Z" />
<path fill="#ffa000" opacity="1.00" d=" M 120.40 30.73 C 120.44 30.71 120.53 30.68 120.57 30.67 L 120.49 30.74 L 120.40 30.73 Z" />
<path fill="#ffa000" opacity="1.00" d=" M 151.16 34.14 C 151.31 32.24 152.48 30.82 153.84 29.63 C 153.90 30.32 154.01 31.71 154.06 32.41 L 152.95 31.96 C 153.05 34.62 152.58 37.51 154.06 39.90 C 154.64 42.62 152.69 47.56 149.33 46.25 L 150.31 45.14 C 150.96 44.41 151.64 43.70 152.35 43.01 C 153.55 41.90 153.41 41.31 151.94 41.22 C 152.18 38.82 151.63 36.47 151.16 34.14 Z" />
<path fill="#ffa000" opacity="1.00" d=" M 165.35 30.53 C 165.40 30.56 165.51 30.60 165.56 30.62 C 165.51 30.60 165.40 30.56 165.35 30.53 Z" />
<path fill="#ffa000" opacity="1.00" d=" M 168.39 30.89 C 168.46 30.82 168.60 30.69 168.67 30.63 C 168.60 30.69 168.46 30.82 168.39 30.89 Z" />
<path fill="#ffa000" opacity="1.00" d=" M 199.65 33.10 C 199.50 31.50 200.88 30.65 201.86 29.64 C 201.91 30.34 202.01 31.73 202.06 32.43 L 201.01 31.93 C 200.98 34.10 200.94 36.27 200.89 38.44 C 201.29 38.73 202.10 39.32 202.50 39.61 C 202.74 43.13 200.72 45.81 197.85 47.54 C 197.86 47.00 197.90 45.90 197.91 45.36 C 198.73 44.55 199.58 43.78 200.45 43.03 C 201.60 41.89 201.44 41.30 199.97 41.26 C 200.05 38.54 199.96 35.81 199.65 33.10 Z" />
<path fill="#ffa000" opacity="1.00" d=" M 213.31 30.61 C 213.36 30.66 213.46 30.77 213.51 30.83 C 213.46 30.77 213.36 30.66 213.31 30.61 Z" />
<path fill="#ffa000" opacity="1.00" d=" M 217.44 30.84 C 217.50 30.79 217.61 30.69 217.66 30.64 C 217.61 30.69 217.50 30.79 217.44 30.84 Z" />
<path fill="#ffa000" opacity="1.00" d=" M 220.07 28.93 L 220.99 29.03 L 221.25 30.44 C 221.35 31.06 221.56 32.30 221.66 32.92 C 221.58 33.40 221.43 34.34 221.36 34.82 L 220.66 35.53 C 220.39 35.69 219.86 36.02 219.60 36.18 L 218.63 34.98 L 220.00 35.00 C 220.02 32.98 220.05 30.95 220.07 28.93 Z" />
<path fill="#ffa000" opacity="1.00" d=" M 124.57 30.67 L 125.05 30.50 C 125.59 31.89 125.90 33.49 125.29 34.91 L 124.72 35.39 C 124.44 35.50 123.90 35.73 123.63 35.84 C 123.57 34.29 124.07 32.27 124.57 30.67 Z" />
<path fill="#ffa000" opacity="1.00" d=" M 154.86 37.40 C 154.90 34.76 155.69 32.25 156.83 29.89 C 156.89 31.45 156.94 33.01 157.01 34.56 C 158.30 36.65 159.69 38.88 162.03 39.93 C 163.37 41.79 164.86 43.54 166.29 45.34 C 163.72 43.95 161.43 42.14 159.21 40.27 C 157.90 39.11 156.38 38.24 154.86 37.40 Z" />
<path fill="#ffa000" opacity="1.00" d=" M 172.50 30.71 L 173.00 30.56 C 173.54 31.93 173.93 33.52 173.27 34.92 L 172.71 35.40 C 172.44 35.51 171.90 35.72 171.63 35.83 C 171.56 34.28 172.03 32.30 172.50 30.71 Z" />
<path fill="#ffa000" opacity="1.00" d=" M 202.88 37.42 C 202.91 34.78 203.69 32.28 204.73 29.88 C 204.43 33.94 206.23 38.12 210.02 39.92 C 211.35 41.79 212.84 43.53 214.27 45.33 C 211.70 43.96 209.43 42.14 207.21 40.27 C 205.91 39.11 204.40 38.24 202.88 37.42 Z" />
<path fill="#ffa000" opacity="1.00" d=" M 30.08 34.95 C 30.57 34.98 31.55 35.03 32.04 35.06 C 32.00 35.66 31.92 36.87 31.88 37.47 C 31.58 38.09 30.98 39.32 30.67 39.93 L 30.01 40.04 C 30.01 40.53 30.00 41.50 30.00 41.99 L 28.85 42.02 C 29.85 39.79 30.14 37.37 30.08 34.95 Z" />
<path fill="#ffa000" opacity="1.00" d=" M 9.01 35.97 C 10.50 36.00 11.99 36.04 13.49 36.11 C 14.93 36.96 16.43 37.69 17.96 38.36 L 18.02 39.04 C 17.37 39.01 16.07 38.96 15.42 38.93 C 14.46 38.30 13.51 37.67 12.55 37.05 C 11.36 37.01 10.17 36.99 8.98 36.97 L 9.01 35.97 Z" />
<path fill="#ffa000" opacity="1.00" d=" M 27.50 36.69 L 27.81 36.51 L 27.56 36.76 L 27.18 36.78 L 27.50 36.69 Z" />
<path fill="#ffa000" opacity="1.00" d=" M 142.15 35.63 C 142.51 36.04 143.23 36.84 143.60 37.25 C 143.72 37.83 143.98 38.99 144.11 39.58 C 144.03 40.57 143.88 42.57 143.80 43.56 L 143.47 43.41 L 143.23 43.84 C 142.33 45.22 141.46 46.62 140.56 48.00 L 139.05 48.00 C 139.35 47.44 139.96 46.32 140.26 45.76 L 140.46 45.47 L 140.56 45.15 C 141.75 42.11 142.12 38.87 142.15 35.63 Z" />
<path fill="#ffa000" opacity="1.00" d=" M 189.88 36.00 C 190.49 36.17 191.12 36.32 191.75 36.47 C 191.81 37.27 191.92 38.88 191.98 39.68 C 191.95 40.62 191.88 42.49 191.85 43.43 C 191.75 43.51 191.56 43.69 191.46 43.78 C 190.17 44.84 189.67 46.50 189.12 48.00 L 186.20 48.00 C 186.72 47.38 187.75 46.15 188.27 45.53 L 188.52 45.25 L 188.63 44.88 C 189.73 42.05 190.28 39.04 189.88 36.00 Z" />
<path fill="#ffa000" opacity="1.00" d=" M 238.13 35.66 C 238.60 36.16 239.53 37.14 240.00 37.64 L 240.00 43.43 C 239.91 43.51 239.74 43.66 239.66 43.74 C 238.34 44.79 237.79 46.46 237.25 48.00 L 233.94 48.00 C 234.76 47.23 235.58 46.45 236.40 45.67 C 237.55 42.45 238.21 39.09 238.13 35.66 Z" />
<path fill="#ffa000" opacity="1.00" d=" M 98.27 38.32 C 98.81 38.81 98.81 38.81 98.27 38.32 Z" />
<path fill="#ffa000" opacity="1.00" d=" M 113.67 38.17 C 114.36 38.47 115.75 39.07 116.45 39.37 C 115.77 39.42 114.42 39.52 113.74 39.58 C 113.72 39.22 113.69 38.52 113.67 38.17 Z" />
<path fill="#ffa000" opacity="1.00" d=" M 161.64 38.33 C 162.34 38.59 163.74 39.11 164.44 39.37 C 163.84 39.51 162.63 39.79 162.03 39.93 C 161.93 39.53 161.74 38.73 161.64 38.33 Z" />
<path fill="#ffa000" opacity="1.00" d=" M 194.22 38.33 C 194.76 38.82 194.76 38.82 194.22 38.33 Z" />
<path fill="#ffa000" opacity="1.00" d=" M 209.63 38.33 C 210.33 38.59 211.72 39.10 212.42 39.35 C 211.82 39.49 210.62 39.78 210.02 39.92 C 209.92 39.52 209.73 38.73 209.63 38.33 Z" />
<path fill="#ffa000" opacity="1.00" d=" M 221.80 36.88 C 222.35 40.41 219.09 43.17 216.99 45.57 C 217.30 44.50 217.92 42.36 218.23 41.29 C 218.50 40.98 219.04 40.36 219.31 40.04 C 219.46 39.87 219.76 39.51 219.91 39.33 C 220.38 38.72 221.33 37.50 221.80 36.88 Z" />
<path fill="#ffa000" opacity="1.00" d=" M 26.23 39.24 C 26.85 39.83 26.85 39.83 26.23 39.24 Z" />
<path fill="#ffa000" opacity="1.00" d=" M 123.90 39.33 L 124.78 38.44 L 124.94 39.29 C 124.91 41.93 122.71 43.84 121.00 45.56 C 121.30 44.48 121.90 42.32 122.20 41.24 C 122.48 40.93 123.03 40.29 123.30 39.98 C 123.45 39.82 123.75 39.49 123.90 39.33 Z" />
<path fill="#ffa000" opacity="1.00" d=" M 171.90 39.33 L 172.95 38.32 L 173.17 39.25 C 172.71 41.84 170.86 43.83 169.02 45.55 C 169.31 44.48 169.89 42.34 170.19 41.27 C 170.46 40.94 171.02 40.30 171.30 39.97 C 171.45 39.81 171.75 39.49 171.90 39.33 Z" />
<path fill="#ffa000" opacity="1.00" d=" M 24.01 40.43 L 24.72 39.77 C 24.91 42.32 25.39 44.84 26.13 47.30 C 25.58 46.90 24.49 46.11 23.94 45.72 C 23.95 44.92 23.97 43.32 23.98 42.53 C 23.99 42.00 24.01 40.95 24.01 40.43 Z" />
<path fill="#ffa000" opacity="1.00" d=" M 26.74 41.13 L 27.56 41.11 L 28.05 41.81 C 27.76 42.16 27.19 42.85 26.90 43.20 L 26.28 42.90 L 26.13 41.99 C 26.28 41.78 26.59 41.35 26.74 41.13 Z" />
<path fill="#ffa000" opacity="1.00" d=" M 118.61 41.70 L 118.83 41.58 C 118.72 41.64 118.51 41.75 118.41 41.81 L 118.61 41.70 Z" />
<path fill="#ffa000" opacity="1.00" d=" M 166.40 41.91 C 166.46 41.90 166.56 41.89 166.61 41.88 C 166.56 41.89 166.46 41.90 166.40 41.91 Z" />
<path fill="#ffa000" opacity="1.00" d=" M 214.75 41.85 L 214.87 41.78 C 214.81 41.82 214.68 41.88 214.62 41.92 L 214.75 41.85 Z" />
<path fill="#ffa000" opacity="1.00" d=" M 118.32 43.26 C 119.05 42.50 119.90 42.20 120.88 42.35 C 122.08 44.40 117.84 45.91 118.32 43.26 Z" />
<path fill="#ffa000" opacity="1.00" d=" M 166.31 43.29 C 167.03 42.51 167.89 42.20 168.88 42.36 C 170.06 44.38 165.89 45.93 166.31 43.29 Z" />
<path fill="#ffa000" opacity="1.00" d=" M 214.30 43.28 C 215.04 42.51 215.89 42.21 216.88 42.36 C 218.07 44.40 213.86 45.92 214.30 43.28 Z" />
<path fill="#ffa000" opacity="1.00" d=" M 109.93 45.10 L 110.48 44.95 C 110.95 45.55 111.89 46.74 112.36 47.34 L 112.11 48.00 L 111.15 48.00 C 110.49 47.13 110.08 46.17 109.93 45.10 Z" />
<path fill="#ffa000" opacity="1.00" d=" M 157.91 45.11 L 158.45 44.96 C 158.91 45.55 159.83 46.74 160.28 47.33 L 160.02 48.00 L 159.05 48.00 C 158.40 47.14 158.02 46.18 157.91 45.11 Z" />
<path fill="#ffa000" opacity="1.00" d=" M 205.98 45.14 C 207.70 45.27 208.82 46.89 209.98 48.00 L 206.85 48.00 C 206.50 47.06 206.21 46.11 205.98 45.14 Z" />
<path fill="#ffa000" opacity="1.00" d=" M 142.43 48.00 C 142.75 47.57 143.40 46.70 143.72 46.26 L 143.92 47.31 L 143.52 48.00 L 142.43 48.00 Z" />
<path fill="#ffa000" opacity="1.00" d=" M 190.58 48.00 C 190.90 47.56 191.53 46.68 191.84 46.24 L 192.02 47.30 L 191.62 48.00 L 190.58 48.00 Z" />
<path fill="#ffa000" opacity="1.00" d=" M 238.85 48.00 C 239.14 47.52 239.71 46.55 240.00 46.06 L 240.00 48.00 L 238.85 48.00 Z" />
<path fill="#ffa000" opacity="1.00" d=" M 112.91 47.46 L 113.44 47.56 L 113.34 48.00 L 112.79 48.00 L 112.91 47.46 Z" />
<path fill="#ffa000" opacity="1.00" d=" M 160.84 47.44 L 161.38 47.55 L 161.27 48.00 L 160.71 48.00 L 160.84 47.44 Z" />
</g>
<g id="#000000ff">
<path fill="#000000" opacity="1.00" d=" M 13.39 0.00 L 14.38 0.00 C 11.22 2.71 10.44 7.03 9.96 10.95 C 9.66 13.48 10.45 16.15 12.33 17.92 C 14.19 17.83 15.79 16.50 17.54 15.91 C 16.03 17.48 14.32 18.84 12.62 20.19 C 14.72 20.07 16.85 19.79 18.62 18.53 C 17.28 20.08 15.91 21.60 14.56 23.15 C 15.70 22.68 16.85 22.22 17.99 21.76 C 17.42 22.68 16.84 23.59 16.25 24.49 C 15.79 26.83 15.22 29.14 14.69 31.47 C 14.36 32.56 14.03 33.66 13.71 34.76 C 16.17 36.16 18.71 37.40 21.36 38.39 C 19.94 36.58 18.37 34.82 17.55 32.63 C 18.16 33.06 19.37 33.93 19.98 34.37 C 20.33 34.62 21.04 35.13 21.39 35.39 C 21.52 35.48 21.78 35.66 21.91 35.74 L 22.70 36.25 L 23.09 36.71 L 23.53 36.73 C 24.44 36.74 26.27 36.76 27.18 36.78 L 27.56 36.76 L 27.81 36.51 C 28.69 35.61 29.55 34.68 30.37 33.72 L 30.56 33.52 L 30.68 33.26 C 31.29 32.04 31.88 30.82 32.40 29.56 C 33.13 27.30 33.05 24.92 32.91 22.59 L 33.99 23.11 C 34.00 21.71 34.02 20.31 34.04 18.91 C 33.23 19.28 31.61 20.00 30.80 20.36 C 31.34 20.88 32.44 21.91 32.98 22.43 C 32.38 22.60 31.19 22.95 30.59 23.12 C 30.25 23.11 29.57 23.10 29.22 23.10 C 29.54 23.91 29.86 24.72 30.18 25.52 C 28.19 24.98 27.51 23.64 28.13 21.48 C 28.31 21.39 28.67 21.21 28.85 21.12 C 30.27 20.55 31.46 19.44 31.97 17.97 C 30.87 18.03 29.87 18.37 28.97 19.00 C 28.33 19.23 27.06 19.70 26.42 19.93 C 25.63 19.91 24.04 19.88 23.25 19.87 C 23.84 19.63 25.02 19.15 25.61 18.91 L 26.15 18.72 L 26.09 18.25 L 25.55 18.25 C 25.21 16.35 25.94 14.50 26.22 12.64 C 28.39 13.83 30.45 15.90 33.13 15.39 C 33.53 16.33 33.93 17.27 34.31 18.21 C 34.64 17.82 35.30 17.05 35.63 16.66 C 35.81 17.36 36.18 18.76 36.36 19.46 C 37.00 17.35 38.14 15.28 38.01 13.02 C 37.17 7.96 34.50 3.25 30.50 0.00 L 31.50 0.00 C 34.29 2.23 36.34 5.18 37.81 8.42 C 37.96 8.93 38.26 9.93 38.40 10.44 C 39.12 12.42 39.11 14.54 38.45 16.53 C 38.26 17.01 37.87 17.97 37.67 18.45 C 37.44 19.17 36.97 20.63 36.74 21.35 L 36.10 21.28 C 36.08 20.69 36.03 19.53 36.01 18.95 L 35.20 19.02 C 34.83 22.49 34.02 25.91 33.91 29.42 C 41.01 32.50 40.08 41.62 40.00 48.00 L 39.28 48.00 C 38.55 46.89 37.90 45.74 37.27 44.58 C 36.66 43.54 36.00 42.53 35.34 41.52 L 34.76 40.61 C 34.37 40.00 33.97 39.39 33.58 38.78 C 32.84 40.25 31.94 41.64 30.75 42.79 C 29.14 44.38 27.62 46.07 26.43 48.00 L 23.89 48.00 C 23.65 47.67 23.18 47.01 22.95 46.68 C 23.13 45.45 22.82 44.34 22.04 43.35 L 21.66 42.75 C 21.57 42.60 21.38 42.31 21.29 42.17 L 20.81 41.44 C 21.88 41.77 22.93 42.15 23.98 42.53 C 23.97 43.32 23.95 44.92 23.94 45.72 C 24.49 46.11 25.58 46.90 26.13 47.30 C 25.39 44.84 24.91 42.32 24.72 39.77 L 24.67 39.14 C 23.27 38.78 21.02 38.45 20.34 40.11 C 17.56 40.24 14.82 39.81 12.46 38.25 C 10.87 37.94 9.30 37.61 7.72 37.28 L 7.28 37.51 C 4.03 38.82 1.65 41.55 0.00 44.56 L 0.00 42.55 C 3.79 38.09 8.94 35.10 12.86 30.74 C 12.44 29.66 12.03 28.59 11.61 27.51 C 9.94 24.05 9.65 20.18 8.60 16.52 C 7.68 13.58 7.86 10.45 8.44 7.46 C 9.48 4.61 11.03 1.96 13.39 0.00 M 27.45 15.78 C 25.99 16.57 26.08 17.06 27.71 17.25 L 27.99 17.77 C 28.92 18.17 30.78 17.50 30.65 16.35 C 29.88 16.01 27.57 14.21 27.45 15.78 M 12.24 21.25 C 12.85 21.82 12.85 21.82 12.24 21.25 M 14.11 24.24 C 12.56 27.32 17.34 24.49 14.11 24.24 M 33.19 29.90 C 32.89 31.23 31.90 32.48 32.09 33.89 C 33.28 36.04 34.62 38.30 36.92 39.41 L 36.70 40.04 C 34.84 40.65 37.33 43.34 38.49 43.71 C 40.01 43.36 38.44 41.41 37.77 40.91 C 39.16 40.48 39.43 39.60 38.59 38.26 L 39.15 37.90 C 37.61 34.84 36.99 31.00 33.19 29.90 M 11.26 32.96 C 10.94 33.29 10.30 33.94 9.97 34.26 C 10.02 36.68 13.70 32.96 11.26 32.96 M 30.08 34.95 C 30.14 37.37 29.85 39.79 28.85 42.02 L 30.00 41.99 C 30.00 41.50 30.01 40.53 30.01 40.04 L 30.67 39.93 C 30.98 39.32 31.58 38.09 31.88 37.47 C 31.92 36.87 32.00 35.66 32.04 35.06 C 31.55 35.03 30.57 34.98 30.08 34.95 M 9.01 35.97 L 8.98 36.97 C 10.17 36.99 11.36 37.01 12.55 37.05 C 13.51 37.67 14.46 38.30 15.42 38.93 C 16.07 38.96 17.37 39.01 18.02 39.04 L 17.96 38.36 C 16.43 37.69 14.93 36.96 13.49 36.11 C 11.99 36.04 10.50 36.00 9.01 35.97 M 26.23 39.24 C 26.85 39.83 26.85 39.83 26.23 39.24 M 26.13 41.99 L 26.28 42.90 C 26.37 43.10 26.54 43.51 26.63 43.72 L 26.90 43.20 C 27.19 42.85 27.76 42.16 28.05 41.81 L 27.56 41.11 L 26.74 41.13 C 26.59 41.35 26.28 41.78 26.13 41.99 Z" />
<path fill="#000000" opacity="1.00" d=" M 20.94 0.00 L 22.68 0.00 C 23.05 0.49 23.77 1.47 24.14 1.96 C 22.86 2.11 21.07 1.47 20.94 0.00 Z" />
<path fill="#000000" opacity="1.00" d=" M 109.40 0.00 L 110.08 0.00 L 109.88 0.89 C 109.62 1.17 109.11 1.75 108.85 2.04 C 106.08 4.52 104.85 8.37 104.98 12.01 C 105.30 15.39 106.46 18.61 107.19 21.90 C 110.53 18.60 114.15 15.53 116.97 11.75 C 117.07 12.41 117.27 13.73 117.37 14.40 L 115.90 13.70 C 116.07 14.16 116.40 15.09 116.56 15.55 L 116.72 16.08 C 116.30 16.06 115.44 16.03 115.01 16.01 C 115.07 17.24 115.76 17.84 117.09 17.83 L 118.10 18.03 C 118.10 18.92 118.12 19.80 118.15 20.69 C 117.53 20.14 116.29 19.03 115.68 18.48 C 116.03 19.13 116.73 20.43 117.08 21.08 L 114.50 20.86 C 114.58 20.47 114.73 19.69 114.81 19.30 C 114.43 19.49 113.67 19.88 113.29 20.08 L 113.55 20.79 C 113.08 20.83 112.15 20.91 111.68 20.95 C 112.33 20.17 113.65 18.62 114.31 17.84 C 113.17 18.22 112.05 18.61 110.93 19.01 C 111.02 24.30 111.49 29.70 109.85 34.82 C 111.28 35.59 112.71 36.34 114.17 37.06 C 114.89 37.43 115.63 37.74 116.39 37.99 C 117.53 38.39 118.69 38.66 119.88 38.83 C 118.49 39.78 117.05 40.65 115.70 41.66 C 116.37 41.69 117.73 41.77 118.41 41.81 C 118.51 41.75 118.72 41.64 118.83 41.58 C 120.20 40.80 121.43 39.81 122.62 38.77 C 122.15 38.63 121.21 38.37 120.74 38.23 C 121.60 36.80 122.39 35.33 123.19 33.86 C 122.87 33.45 122.24 32.64 121.92 32.23 C 120.45 32.59 118.97 32.91 117.49 33.23 C 115.84 31.41 114.15 29.62 112.58 27.73 L 113.78 28.26 C 114.42 28.57 115.70 29.19 116.35 29.50 L 116.58 29.63 L 116.91 29.80 L 117.74 30.24 L 118.13 30.51 L 118.48 30.54 L 120.40 30.73 L 120.49 30.74 L 120.57 30.67 C 121.42 29.92 122.26 29.15 123.09 28.37 C 124.38 27.84 125.05 26.88 125.10 25.49 L 125.50 24.83 L 125.73 24.55 L 125.77 24.18 C 126.00 21.91 126.01 19.62 126.00 17.34 L 124.83 19.25 C 124.44 18.82 124.04 18.38 123.65 17.94 C 123.15 18.22 122.13 18.78 121.62 19.06 L 121.11 19.33 L 121.11 18.51 C 122.28 17.16 123.50 15.87 124.67 14.53 C 125.11 16.07 125.96 17.40 127.00 18.60 C 127.51 15.77 126.38 13.27 124.83 11.00 L 124.63 10.67 C 124.58 10.58 124.48 10.41 124.43 10.33 C 124.12 9.85 123.52 8.91 123.22 8.43 L 123.18 7.46 C 125.33 9.77 127.07 12.41 128.66 15.13 C 129.92 12.84 130.25 10.28 129.19 7.85 C 129.41 7.35 129.85 6.36 130.07 5.87 C 128.64 3.89 127.23 1.88 125.66 0.00 L 126.65 0.00 C 127.71 1.28 128.67 2.64 129.73 3.92 C 130.55 3.60 131.36 3.25 132.16 2.87 C 131.41 4.52 130.54 6.16 130.26 7.97 C 130.64 10.20 131.37 12.35 132.05 14.51 C 131.69 14.08 130.96 13.22 130.60 12.79 C 127.98 16.26 126.24 20.23 126.95 24.68 C 127.60 24.93 128.90 25.45 129.55 25.71 C 135.92 26.08 139.17 32.29 143.52 36.06 C 144.51 32.79 147.76 31.59 150.47 30.12 C 151.02 30.08 152.12 30.00 152.67 29.96 C 154.00 28.92 155.77 28.17 156.39 26.47 C 157.89 23.88 156.47 20.94 155.65 18.38 C 154.72 14.34 153.47 10.21 154.09 6.03 C 154.69 3.56 156.60 1.74 158.33 0.00 L 158.80 0.00 L 159.04 1.43 L 158.18 0.95 C 157.25 2.30 156.34 3.65 155.43 5.00 L 155.00 5.27 C 155.00 8.02 154.98 10.77 155.03 13.52 C 156.11 10.99 157.01 8.29 159.05 6.35 C 158.02 8.78 156.95 11.23 156.75 13.90 C 160.11 13.87 163.47 14.16 166.69 15.14 C 167.03 12.25 168.47 9.53 168.25 6.58 C 169.70 8.19 171.23 9.73 172.76 11.27 C 172.98 10.56 173.44 9.13 173.67 8.42 C 174.45 10.73 174.99 13.11 175.39 15.51 C 177.41 13.08 178.36 10.10 178.19 6.94 L 176.97 7.09 L 177.00 5.92 L 179.35 7.12 C 177.80 4.44 175.82 2.04 173.49 0.00 L 174.52 0.00 C 177.55 2.37 179.55 5.68 181.20 9.09 L 180.11 8.98 L 179.69 7.41 C 178.95 11.12 177.66 14.77 175.07 17.62 C 175.01 20.03 174.98 22.44 174.97 24.85 C 177.53 25.66 180.31 25.97 182.66 27.35 C 185.40 29.48 187.70 32.10 189.90 34.76 C 190.41 34.87 191.43 35.08 191.93 35.19 C 191.89 35.51 191.79 36.15 191.75 36.47 C 191.12 36.32 190.49 36.17 189.88 36.00 C 190.28 39.04 189.73 42.05 188.63 44.88 C 188.54 45.04 188.36 45.37 188.27 45.53 C 187.75 46.15 186.72 47.38 186.20 48.00 L 183.26 48.00 C 183.98 47.77 185.42 47.30 186.15 47.06 C 187.38 44.31 189.08 41.61 189.01 38.48 C 188.99 36.92 189.34 35.07 188.16 33.83 C 185.71 30.82 182.77 28.16 179.21 26.53 C 181.95 34.48 177.85 43.07 171.53 48.00 L 169.34 48.00 C 173.31 46.12 176.07 42.54 177.80 38.59 C 177.96 38.08 178.27 37.05 178.43 36.53 C 179.13 33.83 179.06 31.03 179.01 28.27 C 178.21 27.61 177.39 26.96 176.57 26.32 L 175.34 26.20 L 174.88 26.15 L 174.36 26.11 L 174.36 26.63 L 174.91 26.69 L 175.48 26.76 C 176.33 27.67 177.19 28.58 178.05 29.48 C 178.23 32.28 177.79 35.04 176.41 37.51 C 175.58 41.02 173.11 43.64 170.59 46.05 C 168.93 45.99 167.28 45.94 165.62 45.87 C 164.55 45.47 163.47 45.09 162.39 44.72 C 160.70 43.48 159.37 40.97 156.99 41.33 C 158.14 45.25 162.69 46.07 165.76 48.00 L 161.27 48.00 L 161.38 47.55 L 160.84 47.44 L 160.28 47.33 C 159.83 46.74 158.91 45.55 158.45 44.96 L 157.91 45.11 C 156.37 45.27 155.49 46.66 155.06 48.00 L 152.45 48.00 C 153.64 46.87 154.78 45.70 155.95 44.55 C 155.83 43.32 155.74 42.10 155.57 40.89 C 155.20 40.64 154.44 40.14 154.06 39.90 C 152.58 37.51 153.05 34.62 152.95 31.96 L 154.06 32.41 C 154.01 34.58 153.99 36.75 154.00 38.92 C 154.61 38.98 155.82 39.11 156.42 39.18 C 157.12 39.45 158.51 39.99 159.21 40.27 C 161.43 42.14 163.72 43.95 166.29 45.34 C 164.86 43.54 163.37 41.79 162.03 39.93 C 162.63 39.79 163.84 39.51 164.44 39.37 C 163.74 39.11 162.34 38.59 161.64 38.33 C 161.74 38.73 161.93 39.53 162.03 39.93 C 159.69 38.88 158.30 36.65 157.01 34.56 C 156.94 33.01 156.89 31.45 156.83 29.89 C 156.88 29.33 156.98 28.23 157.02 27.68 C 156.01 29.24 155.05 30.83 154.06 32.41 C 154.01 31.71 153.90 30.32 153.84 29.63 C 152.48 30.82 151.31 32.24 151.16 34.14 C 151.05 33.13 151.03 32.11 151.00 31.10 C 148.09 32.53 144.81 33.96 143.60 37.25 C 143.23 36.84 142.51 36.04 142.15 35.63 C 142.12 38.87 141.75 42.11 140.56 45.15 C 140.49 45.30 140.34 45.61 140.26 45.76 C 139.96 46.32 139.35 47.44 139.05 48.00 L 137.34 48.00 L 136.41 47.99 C 139.04 45.57 141.05 42.31 141.11 38.64 C 140.92 37.03 141.39 35.10 140.18 33.80 C 137.69 30.83 134.81 28.08 131.19 26.55 C 133.98 34.49 129.83 43.07 123.53 48.00 L 121.33 48.00 C 125.32 46.13 128.09 42.53 129.81 38.57 C 129.96 38.07 130.27 37.05 130.42 36.55 C 131.12 33.84 131.06 31.03 131.02 28.26 C 130.22 27.60 129.40 26.96 128.58 26.34 L 127.30 26.21 L 126.86 26.16 L 126.34 26.12 L 126.35 26.63 L 126.90 26.68 L 127.46 26.72 C 128.32 27.65 129.18 28.57 130.05 29.49 C 130.22 32.29 129.79 35.05 128.41 37.52 C 127.58 41.01 125.14 43.63 122.60 46.00 C 120.74 46.00 118.88 46.00 117.02 46.00 L 117.04 45.03 C 116.40 45.01 115.13 44.97 114.50 44.95 C 112.90 43.24 111.12 41.67 108.87 40.91 C 109.59 42.20 110.36 43.46 111.15 44.72 C 113.41 45.69 115.59 46.84 117.76 48.00 L 113.34 48.00 L 113.44 47.56 L 112.91 47.46 L 112.36 47.34 C 111.89 46.74 110.95 45.55 110.48 44.95 L 109.93 45.10 C 108.41 45.29 107.60 46.71 107.11 48.00 L 104.63 48.00 C 106.80 46.20 108.88 43.81 107.82 40.78 C 107.45 40.48 106.71 39.88 106.34 39.58 C 105.98 39.29 105.25 38.71 104.88 38.43 C 104.95 36.28 104.99 34.14 105.01 32.00 L 106.07 32.42 C 106.01 34.58 106.00 36.74 106.00 38.91 C 106.60 38.97 107.82 39.11 108.42 39.18 C 109.12 39.45 110.52 39.99 111.22 40.26 C 113.42 42.15 115.70 43.95 118.27 45.33 C 116.75 43.42 115.15 41.57 113.74 39.58 C 114.42 39.52 115.77 39.42 116.45 39.37 C 115.75 39.07 114.36 38.47 113.67 38.17 C 113.69 38.52 113.72 39.22 113.74 39.58 L 113.80 40.35 C 113.35 39.93 112.43 39.10 111.98 38.69 L 113.35 37.19 C 110.91 39.10 109.92 36.08 109.21 34.51 C 108.81 32.15 109.06 29.74 109.00 27.36 C 108.74 27.86 108.22 28.85 107.97 29.34 C 107.35 30.38 106.72 31.40 106.07 32.42 C 106.02 31.73 105.91 30.34 105.86 29.64 C 104.88 30.65 103.51 31.50 103.65 33.09 C 103.43 32.65 103.00 31.75 102.79 31.30 C 100.33 32.36 98.07 33.81 95.96 35.44 L 95.98 34.31 C 97.83 32.52 100.13 31.35 102.42 30.25 C 103.93 29.80 105.42 29.31 106.91 28.83 C 107.00 28.27 107.19 27.14 107.28 26.57 C 107.55 25.60 107.81 24.61 108.06 23.63 C 107.54 24.08 106.50 24.99 105.98 25.44 C 107.27 23.48 106.39 21.41 105.68 19.44 C 105.29 18.16 104.93 16.87 104.56 15.58 C 103.79 12.91 103.72 10.07 104.63 7.42 C 104.74 6.90 104.98 5.86 105.10 5.34 C 106.30 3.38 107.73 1.57 109.40 0.00 M 169.27 9.43 L 168.50 11.22 C 168.45 11.35 168.34 11.59 168.28 11.71 C 168.02 13.51 168.00 15.32 168.00 17.13 C 167.60 16.87 166.81 16.34 166.42 16.07 L 165.63 16.45 C 165.30 16.65 164.63 17.03 164.30 17.23 L 164.68 18.07 L 165.51 18.09 C 165.63 18.59 165.86 19.58 165.97 20.07 L 165.00 19.99 L 165.00 19.00 L 163.99 19.00 L 164.15 17.47 C 164.15 18.10 164.14 19.37 164.14 20.00 L 161.65 19.98 L 161.68 19.14 C 161.29 19.11 160.51 19.05 160.12 19.02 C 160.38 17.87 161.45 17.17 162.11 16.26 C 161.09 15.85 160.09 15.43 159.09 15.00 C 159.07 16.39 158.91 17.83 158.11 19.02 C 157.87 24.24 158.08 29.47 157.98 34.70 C 159.06 35.79 160.27 36.87 161.89 36.97 C 162.57 37.19 163.92 37.63 164.59 37.85 L 164.66 37.83 C 165.61 38.72 166.71 39.10 167.95 38.97 C 167.83 39.24 167.58 39.77 167.46 40.04 C 165.33 38.82 161.44 43.66 166.40 41.91 C 166.46 41.90 166.56 41.89 166.61 41.88 C 168.74 41.50 169.68 39.27 170.53 37.59 C 170.13 37.70 169.33 37.93 168.93 38.05 C 169.87 36.09 172.27 33.64 169.62 31.89 C 168.69 33.40 166.88 32.84 165.46 33.06 C 163.21 31.89 161.49 30.02 160.72 27.57 C 161.38 28.06 162.71 29.03 163.37 29.52 C 163.42 29.55 163.53 29.61 163.58 29.64 L 165.35 30.53 C 165.40 30.56 165.51 30.60 165.56 30.62 C 166.27 30.69 167.68 30.82 168.39 30.89 C 168.46 30.82 168.60 30.69 168.67 30.63 C 169.77 29.68 170.79 28.64 171.72 27.52 C 171.81 27.42 171.98 27.21 172.07 27.10 C 172.15 26.98 172.32 26.75 172.40 26.63 L 173.36 24.56 C 173.48 24.41 173.73 24.11 173.86 23.97 L 173.68 23.47 C 173.79 22.30 174.03 19.97 174.15 18.80 C 173.62 19.12 172.56 19.75 172.03 20.07 L 170.82 19.32 C 170.78 19.29 170.68 19.23 170.64 19.20 L 169.47 18.44 C 169.87 18.17 170.68 17.63 171.08 17.36 L 169.48 16.65 L 170.58 15.35 C 171.40 16.01 172.21 16.69 173.02 17.38 C 174.40 16.17 173.79 15.02 172.68 13.98 L 173.88 13.33 C 173.89 12.64 173.91 11.26 173.92 10.57 C 173.64 11.25 173.09 12.60 172.82 13.28 C 172.52 12.85 171.92 11.99 171.63 11.56 C 171.59 11.51 171.51 11.41 171.48 11.36 C 171.03 10.94 170.12 10.11 169.67 9.69 C 169.57 9.62 169.37 9.49 169.27 9.43 M 156.62 16.51 C 156.56 16.72 156.44 17.15 156.38 17.37 L 156.92 17.16 C 159.44 17.78 157.22 13.72 156.62 16.51 M 163.24 15.25 C 163.85 15.85 163.85 15.85 163.24 15.25 M 172.19 18.17 C 172.87 18.87 172.87 18.87 172.19 18.17 M 109.13 21.22 C 107.49 24.24 112.35 21.59 109.13 21.22 M 109.07 24.28 C 107.52 27.25 112.39 24.45 109.07 24.28 M 125.81 28.34 C 125.81 29.71 126.53 30.44 127.96 30.51 C 127.92 29.09 127.20 28.37 125.81 28.34 M 173.69 28.25 C 173.77 29.64 174.53 30.40 175.97 30.52 C 175.88 29.08 175.12 28.33 173.69 28.25 M 124.19 29.49 L 124.36 30.08 L 124.57 30.67 C 124.07 32.27 123.57 34.29 123.63 35.84 C 122.85 37.19 122.74 38.56 123.30 39.98 C 123.03 40.29 122.48 40.93 122.20 41.24 C 121.90 42.32 121.30 44.48 121.00 45.56 C 122.71 43.84 124.91 41.93 124.94 39.29 C 127.24 40.29 125.72 35.93 124.78 38.44 L 123.90 39.33 C 124.44 38.04 124.72 36.72 124.72 35.39 L 125.29 34.91 C 125.79 34.65 126.79 34.14 127.29 33.88 C 125.24 35.04 129.14 36.87 128.03 34.42 L 128.86 34.20 C 128.68 33.85 128.30 33.15 128.12 32.80 C 127.49 31.77 126.61 30.98 125.47 30.45 L 125.05 30.50 L 124.88 29.92 C 124.71 29.82 124.37 29.60 124.19 29.49 M 172.17 29.51 L 172.31 30.10 L 172.50 30.71 C 172.03 32.30 171.56 34.28 171.63 35.83 C 170.85 37.18 170.74 38.56 171.30 39.97 C 171.02 40.30 170.46 40.94 170.19 41.27 C 169.89 42.34 169.31 44.48 169.02 45.55 C 170.86 43.83 172.71 41.84 173.17 39.25 L 173.89 39.36 C 173.93 38.93 173.99 38.09 174.02 37.66 L 173.32 37.54 L 172.95 38.32 L 171.90 39.33 C 172.45 38.04 172.72 36.73 172.71 35.40 L 173.27 34.92 C 173.69 34.74 174.54 34.38 174.96 34.20 C 176.64 32.83 175.04 30.90 173.45 30.45 L 173.00 30.56 L 172.85 29.97 C 172.68 29.85 172.34 29.63 172.17 29.51 M 127.96 30.51 C 128.70 31.21 128.70 31.21 127.96 30.51 M 175.97 30.52 C 176.71 31.21 176.71 31.21 175.97 30.52 M 174.96 34.20 L 174.73 35.12 C 175.26 38.01 177.29 33.88 174.96 34.20 M 118.32 43.26 C 117.84 45.91 122.08 44.40 120.88 42.35 C 119.90 42.20 119.05 42.50 118.32 43.26 M 166.31 43.29 C 165.89 45.93 170.06 44.38 168.88 42.36 C 167.89 42.20 167.03 42.51 166.31 43.29 Z" />
<path fill="#000000" opacity="1.00" d=" M 205.40 0.00 L 206.22 0.00 L 205.69 0.79 C 205.25 1.30 204.38 2.31 203.94 2.82 C 199.14 8.36 201.46 15.79 203.18 22.03 C 205.43 19.93 207.61 17.74 209.46 15.26 C 209.00 15.14 208.09 14.91 207.63 14.79 C 208.82 13.02 209.97 11.22 211.24 9.50 C 210.88 10.37 210.16 12.10 209.79 12.97 C 210.17 13.45 210.55 13.93 210.94 14.41 C 211.95 11.90 213.11 9.41 214.97 7.41 C 214.26 9.41 213.47 11.39 212.78 13.40 C 214.96 11.90 215.80 9.43 216.40 6.99 L 217.00 6.94 C 217.01 7.74 217.03 9.35 217.04 10.16 C 218.57 10.47 219.99 11.12 221.42 11.75 C 220.53 10.34 219.65 8.93 218.84 7.47 C 221.53 8.89 222.05 13.11 224.66 13.95 C 224.52 13.40 224.24 12.31 224.10 11.76 C 224.64 12.07 225.72 12.71 226.26 13.03 C 225.91 11.28 225.55 9.53 225.13 7.78 C 225.38 7.31 225.87 6.36 226.12 5.88 C 224.65 3.90 223.24 1.87 221.63 0.00 L 222.69 0.00 C 223.81 1.27 224.76 2.66 225.65 4.09 C 226.45 3.65 227.26 3.22 228.07 2.79 C 227.43 4.50 226.62 6.18 226.26 7.98 C 226.65 10.19 227.35 12.33 228.00 14.46 C 227.66 14.05 226.96 13.22 226.61 12.80 C 224.28 16.11 222.25 19.71 222.91 23.92 L 221.38 24.28 C 224.40 25.50 227.75 25.79 230.63 27.32 C 233.99 30.11 236.85 33.43 240.00 36.44 L 240.00 37.64 C 239.53 37.14 238.60 36.16 238.13 35.66 C 238.21 39.09 237.55 42.45 236.40 45.67 C 235.58 46.45 234.76 47.23 233.94 48.00 L 228.74 48.00 C 229.94 45.64 230.47 42.92 229.29 40.43 C 229.30 38.88 229.28 37.34 229.28 35.79 C 229.59 37.37 229.90 38.95 230.26 40.51 C 230.82 42.74 231.41 44.97 232.32 47.08 C 235.84 46.53 236.57 41.68 236.99 38.68 C 237.87 32.74 231.59 29.14 227.20 26.56 C 229.95 34.49 225.85 43.07 219.54 48.00 L 217.33 48.00 C 221.30 46.11 224.07 42.53 225.80 38.59 C 225.96 38.08 226.27 37.06 226.42 36.55 C 227.11 33.90 227.06 31.14 227.00 28.43 C 226.22 27.66 225.45 26.89 224.68 26.11 C 223.91 26.08 222.38 26.02 221.62 25.99 C 223.13 27.08 224.64 28.18 226.14 29.30 C 226.17 35.58 223.42 41.92 218.61 46.00 C 216.75 46.00 214.91 46.00 213.06 46.00 L 212.99 45.03 C 212.35 45.01 211.07 44.98 210.44 44.97 C 209.12 43.66 207.79 42.38 206.46 41.11 C 206.03 41.31 205.17 41.72 204.74 41.93 C 207.06 44.85 210.50 46.37 213.74 48.00 L 209.98 48.00 C 208.82 46.89 207.70 45.27 205.98 45.14 C 204.36 44.97 203.71 46.84 203.11 48.00 L 200.56 48.00 C 201.76 46.93 202.92 45.80 204.10 44.69 C 204.03 43.34 203.97 42.00 203.85 40.65 C 203.51 40.39 202.84 39.87 202.50 39.61 C 202.10 39.32 201.29 38.73 200.89 38.44 C 200.94 36.27 200.98 34.10 201.01 31.93 L 202.06 32.43 C 202.01 34.58 202.00 36.74 202.00 38.91 C 202.61 38.97 203.82 39.11 204.42 39.17 C 205.12 39.45 206.51 40.00 207.21 40.27 C 209.43 42.14 211.70 43.96 214.27 45.33 C 212.84 43.53 211.35 41.79 210.02 39.92 C 210.62 39.78 211.82 39.49 212.42 39.35 C 211.72 39.10 210.33 38.59 209.63 38.33 C 209.73 38.73 209.92 39.52 210.02 39.92 C 206.23 38.12 204.43 33.94 204.73 29.88 C 204.89 29.18 205.21 27.78 205.37 27.08 C 204.22 28.84 203.16 30.64 202.06 32.43 C 202.01 31.73 201.91 30.34 201.86 29.64 C 200.88 30.65 199.50 31.50 199.65 33.10 C 199.42 32.64 198.97 31.73 198.74 31.27 C 196.93 32.02 195.24 33.06 193.95 34.55 C 193.44 34.71 192.44 35.03 191.93 35.19 C 193.27 32.61 195.93 31.39 198.44 30.26 C 199.88 29.82 201.30 29.33 202.73 28.85 C 203.18 27.17 203.67 25.51 204.20 23.86 C 204.63 24.45 205.50 25.63 205.93 26.22 C 205.68 24.46 205.65 22.69 205.95 20.93 L 205.52 21.08 C 204.69 22.81 203.43 24.26 202.06 25.58 C 203.42 23.19 202.14 20.76 201.29 18.46 C 200.28 14.89 199.45 11.15 200.44 7.47 C 201.47 4.61 203.02 1.95 205.40 0.00 M 215.14 15.46 C 215.28 14.53 215.57 12.68 215.72 11.75 C 214.70 12.66 212.68 14.50 211.66 15.42 C 212.70 15.82 213.82 16.51 214.89 15.49 L 214.81 17.01 C 214.24 17.15 213.10 17.44 212.53 17.58 C 212.98 18.03 213.87 18.93 214.32 19.38 C 214.35 19.66 214.40 20.24 214.42 20.52 L 212.47 18.60 C 212.36 19.32 212.27 20.03 212.22 20.76 L 210.38 20.56 C 210.32 20.56 210.20 20.56 210.14 20.55 C 209.55 20.63 208.38 20.80 207.79 20.88 C 208.33 20.16 208.87 19.42 209.41 18.69 L 207.09 19.22 C 206.29 23.60 208.30 28.65 205.99 32.60 C 205.33 35.38 208.36 36.26 210.38 37.03 C 210.78 37.30 211.58 37.84 211.98 38.11 L 212.80 37.89 C 214.00 38.79 215.11 39.16 216.14 39.00 C 215.97 39.26 215.64 39.79 215.47 40.05 C 214.93 40.08 213.86 40.14 213.32 40.17 L 211.84 41.46 L 213.21 42.66 L 214.62 41.92 C 214.68 41.88 214.81 41.82 214.87 41.78 C 216.26 40.96 219.22 39.37 217.31 37.38 L 216.89 37.94 C 218.03 36.09 219.95 33.91 217.95 31.90 C 216.69 33.00 215.05 33.04 213.48 33.06 C 211.52 31.78 209.25 30.55 208.65 28.08 L 207.96 27.98 L 208.05 26.73 C 208.36 27.00 208.98 27.53 209.29 27.80 L 210.00 27.88 C 209.95 29.59 210.73 30.16 212.35 29.60 L 213.31 30.61 C 213.36 30.66 213.46 30.77 213.51 30.83 C 214.50 30.83 216.46 30.84 217.44 30.84 C 217.50 30.79 217.61 30.69 217.66 30.64 C 219.03 29.64 219.84 28.17 220.53 26.66 C 220.56 26.61 220.61 26.51 220.64 26.46 C 221.32 24.21 222.31 21.96 221.90 19.55 C 223.40 17.02 218.72 18.44 220.42 20.20 L 218.74 19.74 C 218.61 19.57 218.35 19.22 218.22 19.05 C 217.88 14.46 224.06 20.14 223.17 16.04 C 221.33 16.01 219.50 16.01 217.66 16.00 C 218.31 15.68 219.62 15.06 220.28 14.74 C 222.40 16.64 222.21 12.10 220.05 13.11 C 219.77 12.74 219.19 12.00 218.90 11.63 C 216.81 11.81 216.75 14.48 215.14 15.46 M 210.63 15.94 C 209.08 16.23 209.10 18.77 210.63 19.07 C 211.49 18.36 211.49 16.63 210.63 15.94 M 221.32 28.13 C 221.24 29.35 222.80 30.82 224.02 30.49 C 224.13 29.24 222.58 27.57 221.32 28.13 M 220.07 28.93 C 220.05 30.95 220.02 32.98 220.00 35.00 L 218.63 34.98 L 219.60 36.18 C 218.68 37.42 218.58 38.71 219.31 40.04 C 219.04 40.36 218.50 40.98 218.23 41.29 C 217.92 42.36 217.30 44.50 216.99 45.57 C 219.09 43.17 222.35 40.41 221.80 36.88 C 221.33 37.50 220.38 38.72 219.91 39.33 C 220.49 38.08 220.74 36.81 220.66 35.53 L 221.36 34.82 C 221.76 34.62 222.57 34.22 222.98 34.02 C 224.90 32.84 222.81 30.32 221.25 30.44 L 220.99 29.03 L 220.07 28.93 M 224.02 30.49 C 224.76 30.99 224.76 30.99 224.02 30.49 M 222.98 34.02 C 221.99 37.28 226.28 33.97 222.98 34.02 M 214.30 43.28 C 213.86 45.92 218.07 44.40 216.88 42.36 C 215.89 42.21 215.04 42.51 214.30 43.28 Z" />
<path fill="#000000" opacity="1.00" d=" M 59.26 7.34 C 60.83 3.45 65.34 0.59 69.52 1.34 C 75.81 -0.10 79.02 8.11 85.32 7.22 C 84.57 7.91 83.81 8.60 83.06 9.28 C 85.35 12.17 87.44 15.53 87.03 19.38 C 86.72 20.03 86.10 21.33 85.79 21.98 C 85.28 21.29 84.79 20.58 84.24 19.93 C 83.58 21.46 82.92 22.99 82.23 24.50 C 82.12 23.76 81.89 22.26 81.78 21.51 C 81.30 22.47 80.83 23.43 80.37 24.40 L 79.12 23.86 C 78.57 25.79 78.10 27.75 77.78 29.74 C 76.35 31.28 74.88 32.77 73.37 34.22 C 73.65 35.38 73.92 36.55 74.19 37.72 C 74.65 38.13 75.58 38.97 76.04 39.39 C 76.21 41.10 76.28 42.82 76.25 44.55 C 76.16 45.00 75.99 45.91 75.90 46.36 C 78.06 45.26 80.23 43.48 79.96 40.77 C 79.65 40.00 79.03 38.46 78.71 37.68 L 78.59 37.36 L 78.37 37.04 L 77.92 36.17 L 77.75 35.67 L 77.39 35.49 L 76.06 34.75 C 76.01 35.48 75.90 36.95 75.85 37.68 L 75.43 36.36 C 75.29 35.92 75.01 35.04 74.87 34.59 C 76.34 33.06 77.72 31.44 79.01 29.75 C 78.62 31.27 78.20 32.79 77.85 34.33 C 78.91 35.97 79.80 37.70 80.65 39.46 C 80.97 41.11 80.74 42.75 80.01 44.27 C 80.74 45.53 81.46 46.79 82.26 48.00 L 80.00 48.00 C 79.89 47.40 79.67 46.21 79.56 45.61 C 78.10 45.78 77.19 47.03 76.25 48.00 L 75.10 48.00 C 74.68 46.94 74.26 45.88 73.83 44.83 C 70.62 45.00 67.34 46.52 64.16 45.39 C 63.06 43.83 61.89 42.34 60.82 40.77 L 60.84 40.42 C 59.52 39.56 58.23 38.68 56.93 37.80 C 57.14 38.49 57.55 39.87 57.76 40.56 C 57.96 42.57 58.03 44.63 56.92 46.43 C 56.52 45.22 55.74 42.79 55.35 41.57 C 55.40 43.26 55.53 44.96 55.77 46.63 C 55.46 46.98 54.86 47.66 54.55 48.00 L 51.85 48.00 C 52.40 46.98 52.92 45.95 53.43 44.92 C 51.55 45.72 49.68 46.54 47.85 47.43 L 48.04 46.25 C 50.85 44.63 53.73 43.04 56.04 40.70 C 56.02 39.60 56.01 38.49 56.00 37.39 C 57.70 35.77 59.39 34.15 61.13 32.57 C 61.15 31.13 60.73 29.87 59.85 28.81 C 60.27 28.36 60.69 27.91 61.11 27.46 C 61.08 26.54 61.01 24.69 60.97 23.76 C 60.48 24.13 59.49 24.87 59.00 25.24 C 59.03 25.85 59.08 27.09 59.10 27.71 C 57.25 24.89 55.22 22.19 53.12 19.56 C 53.39 19.04 53.93 18.00 54.20 17.48 C 53.18 18.03 52.22 18.66 51.30 19.36 C 50.17 20.34 49.08 21.39 48.03 22.46 L 48.07 21.44 C 49.47 19.92 50.95 18.48 52.39 17.01 C 53.51 17.00 54.64 17.00 55.76 17.00 C 56.94 13.78 57.84 10.46 59.26 7.34 M 62.10 4.28 C 61.49 5.43 60.85 6.58 60.36 7.80 C 58.24 11.75 57.43 16.30 54.88 20.06 C 55.91 20.90 56.90 21.82 57.49 23.05 C 58.75 21.74 60.02 20.43 61.28 19.12 C 60.63 19.06 59.34 18.94 58.69 18.88 C 60.05 17.30 61.56 15.86 63.30 14.70 C 62.90 15.36 62.10 16.67 61.69 17.32 C 65.11 16.24 68.12 14.24 71.43 12.92 C 70.34 14.14 69.00 15.08 67.69 16.04 C 70.45 16.19 73.15 15.62 75.78 14.81 C 76.92 13.36 78.10 11.94 79.38 10.61 C 79.19 11.14 78.80 12.20 78.61 12.73 C 78.94 15.35 80.28 17.67 81.51 19.95 C 81.71 20.55 82.10 21.75 82.30 22.35 C 83.20 20.46 83.71 18.15 85.85 17.26 C 86.00 14.48 82.75 13.77 81.10 12.19 C 82.47 12.87 83.81 13.59 85.18 14.27 C 84.32 12.29 83.34 10.13 81.04 9.62 L 81.05 9.13 L 83.19 8.80 C 79.59 7.16 76.86 4.15 73.25 2.55 C 72.12 1.74 70.76 2.06 69.59 2.54 C 66.91 1.17 64.53 3.41 62.10 4.28 M 75.81 15.49 L 76.36 15.80 C 74.66 15.75 73.17 16.49 71.77 17.35 C 72.96 18.11 73.71 19.09 74.02 20.31 C 73.44 20.44 72.29 20.69 71.72 20.82 L 72.18 19.84 L 70.89 20.12 L 71.15 18.73 L 69.73 19.16 C 70.08 19.63 70.78 20.55 71.14 21.02 L 68.86 20.97 C 69.33 19.69 67.18 18.28 66.13 19.12 L 65.83 18.00 C 67.23 18.00 68.64 18.00 70.04 18.00 L 69.93 17.39 C 69.28 17.02 67.98 16.29 67.33 15.92 C 65.33 16.67 63.52 17.80 61.98 19.27 C 62.00 21.37 62.01 23.47 62.01 25.57 C 62.69 26.51 63.37 27.45 64.07 28.38 L 64.19 29.48 C 64.23 29.55 64.33 29.69 64.37 29.76 L 65.44 31.40 C 65.47 31.44 65.53 31.51 65.56 31.54 C 66.27 32.05 67.68 33.06 68.39 33.57 C 68.43 33.59 68.51 33.63 68.55 33.65 L 70.01 34.09 L 71.43 33.58 C 71.47 33.56 71.57 33.52 71.62 33.50 C 75.99 32.35 76.89 27.62 78.22 23.96 C 80.06 23.36 79.96 21.26 79.89 19.70 C 79.03 20.38 78.29 21.16 77.69 22.06 C 77.53 22.21 77.21 22.51 77.05 22.66 L 75.97 22.96 C 75.99 23.48 76.04 24.51 76.07 25.03 C 75.69 25.25 74.92 25.69 74.54 25.92 C 74.17 25.89 73.44 25.83 73.07 25.80 C 73.53 25.55 74.44 25.05 74.90 24.80 C 74.14 21.59 76.46 19.75 79.16 18.71 C 79.38 18.86 79.81 19.15 80.03 19.30 C 79.26 17.50 78.42 15.73 77.71 13.90 C 77.24 14.30 76.29 15.09 75.81 15.49 M 61.69 17.32 C 61.15 17.82 61.15 17.82 61.69 17.32 M 59.34 22.10 C 59.06 25.53 62.40 20.56 59.34 22.10 M 62.22 31.02 C 61.82 32.14 61.41 33.26 61.00 34.38 C 61.34 35.03 62.04 36.34 62.38 36.99 C 63.91 36.99 65.45 37.00 66.98 37.00 C 66.99 36.55 67.00 35.65 67.01 35.20 C 64.32 35.52 62.44 33.66 62.85 30.96 L 62.22 31.02 M 59.32 36.30 C 58.21 37.83 61.56 40.09 62.35 38.34 C 62.03 37.17 60.62 35.70 59.32 36.30 M 67.02 37.06 L 66.94 38.43 C 65.37 37.37 62.15 39.20 62.39 41.08 L 61.74 41.28 C 62.94 42.50 64.14 43.72 65.34 44.95 C 66.07 44.96 67.52 44.99 68.24 45.00 L 68.06 44.55 C 69.48 44.25 70.90 43.95 72.33 43.65 C 72.91 43.95 74.07 44.54 74.65 44.84 C 74.42 43.10 75.30 41.04 74.38 39.45 C 74.07 39.22 73.47 38.77 73.17 38.54 L 73.42 38.25 C 72.16 35.92 69.12 37.26 67.02 37.06 Z" />
<path fill="#000000" opacity="1.00" d=" M 120.53 11.54 C 120.58 11.59 120.70 11.71 120.76 11.77 L 120.44 11.76 L 120.53 11.54 Z" />
<path fill="#000000" opacity="1.00" d=" M 20.98 19.02 C 21.83 17.61 22.69 16.18 23.90 15.06 C 24.21 16.75 23.63 18.42 22.76 19.86 C 22.32 19.65 21.42 19.23 20.98 19.02 Z" />
<path fill="#000000" opacity="1.00" d=" M 120.20 16.21 C 120.85 16.86 120.85 16.86 120.20 16.21 Z" />
<path fill="#000000" opacity="1.00" d=" M 18.73 18.47 L 18.77 18.55 C 18.73 18.55 18.66 18.53 18.62 18.53 L 18.73 18.47 Z" />
<path fill="#000000" opacity="1.00" d=" M 17.99 21.76 C 18.58 21.22 19.17 20.68 19.77 20.15 C 20.40 20.46 21.66 21.10 22.29 21.41 L 22.48 21.52 L 22.69 21.67 C 24.15 22.32 24.75 23.76 24.84 25.26 L 24.45 25.00 C 24.08 24.79 23.36 24.37 23.00 24.16 C 23.08 24.57 23.26 25.37 23.35 25.78 C 22.51 25.84 20.83 25.98 20.00 26.05 L 20.04 23.90 C 19.47 24.24 18.31 24.90 17.73 25.24 L 16.82 24.44 C 18.39 23.71 19.96 22.98 21.52 22.22 C 20.64 22.11 18.87 21.88 17.99 21.76 M 21.17 24.18 C 21.86 24.87 21.86 24.87 21.17 24.18 Z" />
<path fill="#000000" opacity="1.00" d=" M 122.20 22.20 C 122.85 22.85 122.85 22.85 122.20 22.20 Z" />
<path fill="#000000" opacity="1.00" d=" M 169.36 22.11 C 170.61 22.67 170.52 23.34 169.07 24.11 C 167.82 23.58 167.91 22.91 169.36 22.11 Z" />
<path fill="#000000" opacity="1.00" d=" M 218.19 22.22 C 218.87 22.84 218.87 22.84 218.19 22.22 Z" />
<path fill="#000000" opacity="1.00" d=" M 122.19 24.21 C 122.86 24.85 122.86 24.85 122.19 24.21 Z" />
<path fill="#000000" opacity="1.00" d=" M 214.80 25.13 C 216.31 25.03 217.82 24.84 219.05 23.89 C 219.02 25.26 219.00 26.63 218.98 28.00 C 218.46 28.00 217.40 28.00 216.87 28.00 L 218.49 25.50 L 216.22 27.03 C 215.86 26.55 215.16 25.60 214.80 25.13 Z" />
<path fill="#000000" opacity="1.00" d=" M 118.33 25.12 C 118.75 25.13 119.58 25.16 120.00 25.18 L 120.00 25.82 C 119.58 25.84 118.75 25.86 118.33 25.88 L 118.33 25.12 Z" />
<path fill="#000000" opacity="1.00" d=" M 166.38 25.13 C 166.82 25.14 167.71 25.17 168.15 25.18 L 168.15 25.81 C 167.71 25.82 166.82 25.85 166.38 25.86 L 166.38 25.13 Z" />
<path fill="#000000" opacity="1.00" d=" M 168.84 25.20 C 169.00 25.35 169.32 25.65 169.48 25.80 L 168.84 25.79 L 168.84 25.20 Z" />
<path fill="#000000" opacity="1.00" d=" M 70.19 26.21 C 70.86 26.84 70.86 26.84 70.19 26.21 Z" />
<path fill="#000000" opacity="1.00" d=" M 73.03 27.25 L 73.62 27.21 C 73.48 27.35 73.20 27.65 73.06 27.79 L 73.03 27.25 Z" />
<path fill="#000000" opacity="1.00" d=" M 121.21 27.20 C 121.84 27.86 121.84 27.86 121.21 27.20 Z" />
<path fill="#000000" opacity="1.00" d=" M 167.23 27.12 C 170.33 25.57 167.51 30.32 167.23 27.12 Z" />
<path fill="#000000" opacity="1.00" d=" M 53.23 28.24 C 53.81 28.80 53.81 28.80 53.23 28.24 Z" />
<path fill="#000000" opacity="1.00" d=" M 28.21 29.19 C 28.85 29.86 28.85 29.86 28.21 29.19 Z" />
<path fill="#000000" opacity="1.00" d=" M 71.22 29.20 C 71.85 29.87 71.85 29.87 71.22 29.20 Z" />
<path fill="#000000" opacity="1.00" d=" M 54.08 29.20 C 54.96 30.67 55.82 32.14 56.75 33.59 L 57.86 33.62 C 57.60 33.85 57.07 34.32 56.81 34.55 C 56.31 34.38 55.32 34.02 54.82 33.85 C 54.74 33.32 54.58 32.28 54.50 31.76 C 54.39 31.12 54.18 29.84 54.08 29.20 Z" />
<path fill="#000000" opacity="1.00" d=" M 28.21 31.20 C 28.84 31.87 28.84 31.87 28.21 31.20 Z" />
<path fill="#000000" opacity="1.00" d=" M 25.30 32.12 C 28.41 30.55 25.64 35.31 25.30 32.12 Z" />
<path fill="#000000" opacity="1.00" d=" M 27.21 34.19 C 27.84 34.86 27.84 34.86 27.21 34.19 Z" />
<path fill="#000000" opacity="1.00" d=" M 2.18 43.95 C 3.36 43.94 4.53 43.94 5.71 43.94 C 9.18 43.53 12.34 45.14 14.99 47.21 L 15.01 48.00 L 12.87 48.00 C 10.35 46.37 7.47 45.53 4.47 46.14 L 3.83 46.95 C 3.63 47.21 3.23 47.74 3.03 48.00 L 0.00 48.00 L 0.00 47.68 C 0.70 46.42 1.44 45.19 2.18 43.95 Z" />
<path fill="#000000" opacity="1.00" d=" M 191.46 43.78 L 191.84 43.93 C 191.84 44.51 191.84 45.66 191.84 46.24 C 191.53 46.68 190.90 47.56 190.58 48.00 L 189.12 48.00 C 189.67 46.50 190.17 44.84 191.46 43.78 Z" />
<path fill="#000000" opacity="1.00" d=" M 239.66 43.74 L 240.00 43.88 L 240.00 46.06 C 239.71 46.55 239.14 47.52 238.85 48.00 L 237.25 48.00 C 237.79 46.46 238.34 44.79 239.66 43.74 Z" />
<path fill="#000000" opacity="1.00" d=" M 96.26 47.84 C 96.36 47.88 96.54 47.96 96.64 48.00 L 96.28 48.00 L 96.26 47.84 Z" />
<path fill="#000000" opacity="1.00" d=" M 143.92 47.31 C 143.95 47.48 144.00 47.83 144.03 48.00 L 143.52 48.00 L 143.92 47.31 Z" />
<path fill="#000000" opacity="1.00" d=" M 192.02 47.30 C 192.04 47.48 192.09 47.83 192.11 48.00 L 191.62 48.00 L 192.02 47.30 Z" />
</g>
<g id="#4060f8ff">
<path fill="#4060f8" opacity="1.00" d=" M 14.38 0.00 L 20.94 0.00 C 21.07 1.47 22.86 2.11 24.14 1.96 C 23.77 1.47 23.05 0.49 22.68 0.00 L 30.50 0.00 C 34.50 3.25 37.17 7.96 38.01 13.02 C 38.14 15.28 37.00 17.35 36.36 19.46 C 36.18 18.76 35.81 17.36 35.63 16.66 C 35.30 17.05 34.64 17.82 34.31 18.21 C 33.93 17.27 33.53 16.33 33.13 15.39 C 30.45 15.90 28.39 13.83 26.22 12.64 C 25.94 14.50 25.21 16.35 25.55 18.25 L 25.61 18.91 C 25.02 19.15 23.84 19.63 23.25 19.87 L 22.76 19.86 C 23.63 18.42 24.21 16.75 23.90 15.06 C 22.69 16.18 21.83 17.61 20.98 19.02 C 20.68 19.30 20.07 19.86 19.77 20.15 C 19.17 20.68 18.58 21.22 17.99 21.76 C 16.85 22.22 15.70 22.68 14.56 23.15 C 15.91 21.60 17.28 20.08 18.62 18.53 C 18.66 18.53 18.73 18.55 18.77 18.55 L 18.73 18.47 L 18.62 18.53 C 16.85 19.79 14.72 20.07 12.62 20.19 C 14.32 18.84 16.03 17.48 17.54 15.91 C 15.79 16.50 14.19 17.83 12.33 17.92 C 10.45 16.15 9.66 13.48 9.96 10.95 C 10.44 7.03 11.22 2.71 14.38 0.00 Z" />
<path fill="#4060f8" opacity="1.00" d=" M 12.24 21.25 C 12.85 21.82 12.85 21.82 12.24 21.25 Z" />
<path fill="#4060f8" opacity="1.00" d=" M 28.13 21.48 C 28.31 21.39 28.67 21.21 28.85 21.12 C 28.67 21.21 28.31 21.39 28.13 21.48 Z" />
<path fill="#4060f8" opacity="1.00" d=" M 36.10 21.28 L 36.74 21.35 L 36.59 21.85 L 36.11 21.79 L 36.10 21.28 Z" />
<path fill="#4060f8" opacity="1.00" d=" M 30.55 33.50 L 30.68 33.26 L 30.56 33.52 L 30.37 33.72 L 30.55 33.50 Z" />
<path fill="#4060f8" opacity="1.00" d=" M 21.39 35.39 L 21.63 35.55 L 21.91 35.74 C 21.78 35.66 21.52 35.48 21.39 35.39 Z" />
<path fill="#4060f8" opacity="1.00" d=" M 22.70 36.25 C 22.90 36.37 23.32 36.61 23.53 36.73 L 23.09 36.71 L 22.70 36.25 Z" />
</g>
<g id="#ff7830ff">
<path fill="#ff7830" opacity="1.00" d=" M 66.27 4.08 C 67.15 3.36 69.59 4.03 68.48 5.40 C 67.38 7.24 63.56 5.40 66.27 4.08 Z" />
<path fill="#ff7830" opacity="1.00" d=" M 66.80 7.38 C 68.03 6.82 69.30 6.32 70.59 5.87 C 71.01 6.35 71.85 7.30 72.27 7.78 C 73.01 7.89 74.51 8.13 75.25 8.25 C 73.02 11.67 69.18 9.20 66.80 7.38 Z" />
<path fill="#ff7830" opacity="1.00" d=" M 75.81 15.49 C 76.29 15.09 77.24 14.30 77.71 13.90 C 78.42 15.73 79.26 17.50 80.03 19.30 C 79.81 19.15 79.38 18.86 79.16 18.71 C 78.74 18.15 77.90 17.03 77.48 16.47 C 77.20 16.30 76.64 15.97 76.36 15.80 L 75.81 15.49 Z" />
<path fill="#ff7830" opacity="1.00" d=" M 61.98 19.27 C 63.52 17.80 65.33 16.67 67.33 15.92 C 67.98 16.29 69.28 17.02 69.93 17.39 L 70.04 18.00 C 68.64 18.00 67.23 18.00 65.83 18.00 L 66.13 19.12 C 66.44 19.58 67.06 20.50 67.37 20.95 C 62.98 20.54 63.90 25.59 64.07 28.38 C 63.37 27.45 62.69 26.51 62.01 25.57 C 62.01 23.47 62.00 21.37 61.98 19.27 Z" />
<path fill="#ff7830" opacity="1.00" d=" M 77.69 22.06 C 78.29 21.16 79.03 20.38 79.89 19.70 C 79.96 21.26 80.06 23.36 78.22 23.96 C 77.68 24.23 76.61 24.76 76.07 25.03 C 76.04 24.51 75.99 23.48 75.97 22.96 L 77.05 22.66 L 77.50 22.54 L 77.69 22.06 Z" />
<path fill="#ff7830" opacity="1.00" d=" M 73.06 27.79 C 73.05 27.66 73.04 27.38 73.03 27.25 L 73.06 27.79 Z" />
<path fill="#ff7830" opacity="1.00" d=" M 64.19 29.48 C 64.23 29.55 64.33 29.69 64.37 29.76 C 64.33 29.69 64.23 29.55 64.19 29.48 Z" />
<path fill="#ff7830" opacity="1.00" d=" M 62.22 31.02 L 62.85 30.96 C 62.44 33.66 64.32 35.52 67.01 35.20 C 67.00 35.65 66.99 36.55 66.98 37.00 C 65.45 37.00 63.91 36.99 62.38 36.99 C 62.04 36.34 61.34 35.03 61.00 34.38 C 61.41 33.26 61.82 32.14 62.22 31.02 Z" />
<path fill="#ff7830" opacity="1.00" d=" M 65.44 31.40 C 65.47 31.44 65.53 31.51 65.56 31.54 C 65.53 31.51 65.47 31.44 65.44 31.40 Z" />
<path fill="#ff7830" opacity="1.00" d=" M 68.39 33.57 C 68.43 33.59 68.51 33.63 68.55 33.65 C 68.51 33.63 68.43 33.59 68.39 33.57 Z" />
</g>
<g id="#48a810ff">
<path fill="#48a810" opacity="1.00" d=" M 110.08 0.00 L 125.66 0.00 C 127.23 1.88 128.64 3.89 130.07 5.87 C 129.85 6.36 129.41 7.35 129.19 7.85 C 130.25 10.28 129.92 12.84 128.66 15.13 C 127.07 12.41 125.33 9.77 123.18 7.46 L 123.22 8.43 C 123.02 11.14 123.45 14.19 121.28 16.33 C 121.15 15.19 120.89 12.91 120.76 11.77 C 120.70 11.71 120.58 11.59 120.53 11.54 L 120.44 11.76 L 120.17 12.42 C 118.93 13.43 117.62 14.36 116.56 15.55 C 116.40 15.09 116.07 14.16 115.90 13.70 L 117.37 14.40 C 117.27 13.73 117.07 12.41 116.97 11.75 C 114.15 15.53 110.53 18.60 107.19 21.90 C 106.46 18.61 105.30 15.39 104.98 12.01 C 104.85 8.37 106.08 4.52 108.85 2.04 C 108.65 2.68 108.24 3.96 108.04 4.60 C 110.22 5.00 112.36 5.78 114.59 5.89 C 115.23 5.15 115.85 4.40 116.45 3.62 C 114.19 2.89 111.95 2.06 109.88 0.89 L 110.08 0.00 M 123.43 0.91 C 122.49 1.91 121.55 2.91 120.61 3.91 C 118.59 1.56 117.02 4.66 115.76 6.01 C 118.46 6.13 121.14 5.61 123.84 5.63 C 124.59 4.96 125.34 4.29 126.09 3.62 C 125.20 2.72 124.32 1.81 123.43 0.91 Z" />
<path fill="#48a810" opacity="1.00" d=" M 120.00 25.18 L 120.58 25.20 C 120.44 25.36 120.14 25.67 120.00 25.82 L 120.00 25.18 Z" />
<path fill="#48a810" opacity="1.00" d=" M 126.86 26.16 L 127.30 26.21 L 127.46 26.72 L 126.90 26.68 L 126.86 26.16 Z" />
<path fill="#48a810" opacity="1.00" d=" M 124.36 30.08 L 124.88 29.92 L 125.05 30.50 L 124.57 30.67 L 124.36 30.08 Z" />
<path fill="#48a810" opacity="1.00" d=" M 230.26 40.51 C 231.17 38.57 231.96 36.39 234.06 35.42 C 234.29 38.45 233.57 41.39 232.09 44.03 C 232.54 44.28 233.44 44.79 233.89 45.05 C 234.94 42.94 236.03 40.84 236.99 38.68 C 236.57 41.68 235.84 46.53 232.32 47.08 C 231.41 44.97 230.82 42.74 230.26 40.51 Z" />
<path fill="#48a810" opacity="1.00" d=" M 229.29 40.43 C 230.47 42.92 229.94 45.64 228.74 48.00 L 225.78 48.00 C 227.80 45.96 229.14 43.33 229.29 40.43 Z" />
<path fill="#48a810" opacity="1.00" d=" M 239.66 43.74 C 239.74 43.66 239.91 43.51 240.00 43.43 L 240.00 43.88 L 239.66 43.74 Z" />
<path fill="#48a810" opacity="1.00" d=" M 112.36 47.34 L 112.91 47.46 L 112.79 48.00 L 112.11 48.00 L 112.36 47.34 Z" />
</g>
<g id="#d840c0ff">
<path fill="#d840c0" opacity="1.00" d=" M 158.80 0.00 L 173.49 0.00 C 175.82 2.04 177.80 4.44 179.35 7.12 L 177.00 5.92 L 176.97 7.09 L 178.19 6.94 C 178.36 10.10 177.41 13.08 175.39 15.51 C 174.99 13.11 174.45 10.73 173.67 8.42 C 173.44 9.13 172.98 10.56 172.76 11.27 C 171.23 9.73 169.70 8.19 168.25 6.58 C 168.47 9.53 167.03 12.25 166.69 15.14 C 163.47 14.16 160.11 13.87 156.75 13.90 C 156.95 11.23 158.02 8.78 159.05 6.35 C 157.01 8.29 156.11 10.99 155.03 13.52 C 154.98 10.77 155.00 8.02 155.00 5.27 L 155.43 5.00 C 155.96 4.81 157.02 4.45 157.55 4.27 C 159.17 4.89 160.82 6.50 162.65 5.83 C 163.26 5.10 163.85 4.35 164.41 3.58 C 162.58 2.98 160.72 2.40 159.04 1.43 L 158.80 0.00 M 171.38 0.95 C 170.54 1.89 169.73 2.86 168.80 3.71 C 166.67 2.15 165.06 4.37 163.56 5.63 C 165.88 5.99 168.52 6.69 170.58 5.14 C 170.84 5.37 171.37 5.83 171.63 6.05 C 172.44 5.16 173.26 4.28 174.08 3.39 C 173.18 2.58 172.28 1.76 171.38 0.95 Z" />
<path fill="#d840c0" opacity="1.00" d=" M 156.62 16.51 C 157.22 13.72 159.44 17.78 156.92 17.16 L 156.62 16.51 Z" />
<path fill="#d840c0" opacity="1.00" d=" M 173.45 24.07 L 173.86 23.97 C 173.73 24.11 173.48 24.41 173.36 24.56 L 173.45 24.07 Z" />
<path fill="#d840c0" opacity="1.00" d=" M 172.07 27.10 C 172.15 26.98 172.32 26.75 172.40 26.63 C 172.32 26.75 172.15 26.98 172.07 27.10 Z" />
<path fill="#d840c0" opacity="1.00" d=" M 174.88 26.15 L 175.34 26.20 L 175.48 26.76 L 174.91 26.69 L 174.88 26.15 Z" />
<path fill="#d840c0" opacity="1.00" d=" M 173.69 28.25 C 175.12 28.33 175.88 29.08 175.97 30.52 C 174.53 30.40 173.77 29.64 173.69 28.25 Z" />
<path fill="#d840c0" opacity="1.00" d=" M 172.31 30.10 L 172.85 29.97 L 173.00 30.56 L 172.50 30.71 L 172.31 30.10 Z" />
<path fill="#d840c0" opacity="1.00" d=" M 174.96 34.20 C 177.29 33.88 175.26 38.01 174.73 35.12 L 174.96 34.20 Z" />
<path fill="#d840c0" opacity="1.00" d=" M 173.32 37.54 L 174.02 37.66 C 173.99 38.09 173.93 38.93 173.89 39.36 L 173.17 39.25 L 172.95 38.32 L 173.32 37.54 Z" />
<path fill="#d840c0" opacity="1.00" d=" M 160.28 47.33 L 160.84 47.44 L 160.71 48.00 L 160.02 48.00 L 160.28 47.33 Z" />
</g>
<g id="#c07000ff">
<path fill="#c07000" opacity="1.00" d=" M 206.22 0.00 L 221.63 0.00 C 223.24 1.87 224.65 3.90 226.12 5.88 C 225.87 6.36 225.38 7.31 225.13 7.78 C 225.55 9.53 225.91 11.28 226.26 13.03 C 225.72 12.71 224.64 12.07 224.10 11.76 C 224.24 12.31 224.52 13.40 224.66 13.95 C 222.05 13.11 221.53 8.89 218.84 7.47 C 219.65 8.93 220.53 10.34 221.42 11.75 C 219.99 11.12 218.57 10.47 217.04 10.16 C 217.03 9.35 217.01 7.74 217.00 6.94 L 216.40 6.99 C 215.80 9.43 214.96 11.90 212.78 13.40 C 213.47 11.39 214.26 9.41 214.97 7.41 C 213.11 9.41 211.95 11.90 210.94 14.41 C 210.55 13.93 210.17 13.45 209.79 12.97 C 210.16 12.10 210.88 10.37 211.24 9.50 C 209.97 11.22 208.82 13.02 207.63 14.79 C 208.09 14.91 209.00 15.14 209.46 15.26 C 207.61 17.74 205.43 19.93 203.18 22.03 C 201.46 15.79 199.14 8.36 203.94 2.82 C 205.94 4.56 208.28 5.84 210.92 6.28 C 211.24 5.34 211.56 4.41 211.88 3.47 C 209.78 2.66 207.70 1.81 205.69 0.79 L 206.22 0.00 M 219.29 1.01 C 218.46 1.95 217.64 2.89 216.82 3.84 C 216.32 3.59 215.31 3.09 214.81 2.85 C 213.71 3.80 212.65 4.81 211.68 5.89 C 214.43 6.19 217.19 6.00 219.92 5.62 C 220.68 4.79 221.44 3.96 222.21 3.13 C 221.23 2.42 220.26 1.71 219.29 1.01 Z" />
<path fill="#c07000" opacity="1.00" d=" M 170.64 19.20 C 170.68 19.23 170.78 19.29 170.82 19.32 C 170.78 19.29 170.68 19.23 170.64 19.20 Z" />
<path fill="#c07000" opacity="1.00" d=" M 143.60 37.25 C 144.81 33.96 148.09 32.53 151.00 31.10 C 151.03 32.11 151.05 33.13 151.16 34.14 C 151.63 36.47 152.18 38.82 151.94 41.22 C 152.04 41.67 152.25 42.56 152.35 43.01 C 151.64 43.70 150.96 44.41 150.31 45.14 C 149.95 44.64 149.23 43.63 148.87 43.13 C 148.41 43.38 147.49 43.87 147.02 44.11 C 146.02 42.62 145.02 41.12 144.11 39.58 C 143.98 38.99 143.72 37.83 143.60 37.25 M 147.23 41.29 C 147.74 41.79 147.74 41.79 147.23 41.29 Z" />
<path fill="#c07000" opacity="1.00" d=" M 154.06 39.90 C 154.44 40.14 155.20 40.64 155.57 40.89 C 155.74 42.10 155.83 43.32 155.95 44.55 C 154.78 45.70 153.64 46.87 152.45 48.00 L 147.65 48.00 C 148.22 47.43 148.78 46.84 149.33 46.25 C 152.69 47.56 154.64 42.62 154.06 39.90 Z" />
</g>
<g id="#e05000ff">
<path fill="#e05000" opacity="1.00" d=" M 62.10 4.28 C 64.53 3.41 66.91 1.17 69.59 2.54 C 70.76 2.06 72.12 1.74 73.25 2.55 C 76.86 4.15 79.59 7.16 83.19 8.80 L 81.05 9.13 L 81.04 9.62 C 83.34 10.13 84.32 12.29 85.18 14.27 C 83.81 13.59 82.47 12.87 81.10 12.19 C 82.75 13.77 86.00 14.48 85.85 17.26 C 83.71 18.15 83.20 20.46 82.30 22.35 C 82.10 21.75 81.71 20.55 81.51 19.95 C 81.36 18.08 82.61 15.55 80.68 14.31 C 80.16 13.92 79.13 13.12 78.61 12.73 C 78.80 12.20 79.19 11.14 79.38 10.61 C 78.10 11.94 76.92 13.36 75.78 14.81 C 73.15 15.62 70.45 16.19 67.69 16.04 C 69.00 15.08 70.34 14.14 71.43 12.92 C 68.12 14.24 65.11 16.24 61.69 17.32 C 62.10 16.67 62.90 15.36 63.30 14.70 C 63.48 14.56 63.83 14.28 64.01 14.14 C 62.61 14.09 61.21 14.05 59.81 14.00 C 59.98 11.93 60.12 9.86 60.36 7.80 C 60.85 6.58 61.49 5.43 62.10 4.28 M 66.27 4.08 C 63.56 5.40 67.38 7.24 68.48 5.40 C 69.59 4.03 67.15 3.36 66.27 4.08 M 66.80 7.38 C 69.18 9.20 73.02 11.67 75.25 8.25 C 74.51 8.13 73.01 7.89 72.27 7.78 C 71.85 7.30 71.01 6.35 70.59 5.87 C 69.30 6.32 68.03 6.82 66.80 7.38 Z" />
<path fill="#e05000" opacity="1.00" d=" M 61.69 17.32 C 61.15 17.82 61.15 17.82 61.69 17.32 Z" />
<path fill="#e05000" opacity="1.00" d=" M 53.10 21.93 C 55.30 25.20 58.40 27.90 59.98 31.56 C 59.45 32.07 58.39 33.10 57.86 33.62 L 56.75 33.59 C 55.82 32.14 54.96 30.67 54.08 29.20 C 54.18 29.84 54.39 31.12 54.50 31.76 C 54.20 33.76 53.49 35.85 51.64 36.93 C 50.39 36.88 49.18 36.54 47.96 36.28 C 48.01 31.84 47.94 27.41 48.00 22.97 C 48.49 22.96 49.47 22.93 49.96 22.92 C 49.96 24.21 50.66 24.97 52.05 25.21 C 52.26 25.32 52.67 25.54 52.87 25.65 C 52.95 24.41 53.02 23.17 53.10 21.93 M 53.23 28.24 C 53.81 28.80 53.81 28.80 53.23 28.24 Z" />
<path fill="#e05000" opacity="1.00" d=" M 59.34 22.10 C 62.40 20.56 59.06 25.53 59.34 22.10 Z" />
<path fill="#e05000" opacity="1.00" d=" M 71.43 33.58 C 71.47 33.56 71.57 33.52 71.62 33.50 C 71.57 33.52 71.47 33.56 71.43 33.58 Z" />
<path fill="#e05000" opacity="1.00" d=" M 59.32 36.30 C 60.62 35.70 62.03 37.17 62.35 38.34 C 61.56 40.09 58.21 37.83 59.32 36.30 Z" />
<path fill="#e05000" opacity="1.00" d=" M 56.93 37.80 C 58.23 38.68 59.52 39.56 60.84 40.42 L 60.82 40.77 C 60.51 41.20 59.91 42.05 59.61 42.47 C 58.93 44.41 58.20 46.37 56.92 48.00 L 54.55 48.00 C 54.86 47.66 55.46 46.98 55.77 46.63 C 55.53 44.96 55.40 43.26 55.35 41.57 C 55.74 42.79 56.52 45.22 56.92 46.43 C 58.03 44.63 57.96 42.57 57.76 40.56 C 57.55 39.87 57.14 38.49 56.93 37.80 Z" />
<path fill="#e05000" opacity="1.00" d=" M 66.92 38.93 C 67.96 38.54 69.01 38.20 70.08 37.91 C 70.81 39.83 71.50 41.77 72.33 43.65 C 70.90 43.95 69.48 44.25 68.06 44.55 C 67.41 42.91 66.74 41.28 66.05 39.66 C 66.27 39.48 66.70 39.11 66.92 38.93 Z" />
<path fill="#e05000" opacity="1.00" d=" M 64.16 45.39 C 67.34 46.52 70.62 45.00 73.83 44.83 C 74.26 45.88 74.68 46.94 75.10 48.00 L 64.08 48.00 C 64.10 47.35 64.14 46.04 64.16 45.39 Z" />
<path fill="#e05000" opacity="1.00" d=" M 76.25 48.00 C 77.19 47.03 78.10 45.78 79.56 45.61 C 79.67 46.21 79.89 47.40 80.00 48.00 L 76.25 48.00 Z" />
</g>
<g id="#a03000ff">
<path fill="#a03000" opacity="1.00" d=" M 54.88 20.06 C 57.43 16.30 58.24 11.75 60.36 7.80 C 60.12 9.86 59.98 11.93 59.81 14.00 C 61.21 14.05 62.61 14.09 64.01 14.14 C 63.83 14.28 63.48 14.56 63.30 14.70 C 61.56 15.86 60.05 17.30 58.69 18.88 C 59.34 18.94 60.63 19.06 61.28 19.12 C 60.02 20.43 58.75 21.74 57.49 23.05 C 56.90 21.82 55.91 20.90 54.88 20.06 Z" />
<path fill="#a03000" opacity="1.00" d=" M 78.61 12.73 C 79.13 13.12 80.16 13.92 80.68 14.31 C 82.61 15.55 81.36 18.08 81.51 19.95 C 80.28 17.67 78.94 15.35 78.61 12.73 Z" />
<path fill="#a03000" opacity="1.00" d=" M 48.03 22.46 C 49.08 21.39 50.17 20.34 51.30 19.36 C 51.75 20.00 52.65 21.29 53.10 21.93 C 53.02 23.17 52.95 24.41 52.87 25.65 C 52.67 25.54 52.26 25.32 52.05 25.21 C 52.05 23.68 51.35 22.92 49.96 22.92 C 49.47 22.93 48.49 22.96 48.00 22.97 L 48.03 22.46 Z" />
<path fill="#a03000" opacity="1.00" d=" M 54.50 31.76 C 54.58 32.28 54.74 33.32 54.82 33.85 C 54.97 35.82 55.00 37.80 55.05 39.78 C 52.96 41.66 50.59 43.17 48.15 44.53 C 48.07 41.78 47.97 39.03 47.96 36.28 C 49.18 36.54 50.39 36.88 51.64 36.93 C 53.49 35.85 54.20 33.76 54.50 31.76 Z" />
<path fill="#a03000" opacity="1.00" d=" M 62.39 41.08 C 63.64 40.69 64.86 40.21 66.05 39.66 C 66.74 41.28 67.41 42.91 68.06 44.55 L 68.24 45.00 C 67.52 44.99 66.07 44.96 65.34 44.95 C 64.14 43.72 62.94 42.50 61.74 41.28 L 62.39 41.08 Z" />
<path fill="#a03000" opacity="1.00" d=" M 59.61 42.47 C 59.91 42.05 60.51 41.20 60.82 40.77 C 61.89 42.34 63.06 43.83 64.16 45.39 C 64.14 46.04 64.10 47.35 64.08 48.00 L 56.92 48.00 C 58.20 46.37 58.93 44.41 59.61 42.47 Z" />
<path fill="#a03000" opacity="1.00" d=" M 47.85 47.43 C 49.68 46.54 51.55 45.72 53.43 44.92 C 52.92 45.95 52.40 46.98 51.85 48.00 L 47.74 48.00 L 47.85 47.43 Z" />
</g>
<g id="#ffc8b8ff">
<path fill="#ffc8b8" opacity="1.00" d=" M 123.22 8.43 C 123.52 8.91 124.12 9.85 124.43 10.33 C 124.48 10.41 124.58 10.58 124.63 10.67 L 124.83 11.00 C 124.77 11.82 124.64 13.46 124.58 14.28 L 124.67 14.53 C 123.50 15.87 122.28 17.16 121.11 18.51 L 121.11 19.33 C 121.01 20.60 122.72 21.91 123.91 21.39 C 123.71 20.20 122.94 19.43 121.62 19.06 C 122.13 18.78 123.15 18.22 123.65 17.94 C 124.04 18.38 124.44 18.82 124.83 19.25 L 126.00 17.34 C 126.01 19.62 126.00 21.91 125.77 24.18 C 125.70 24.34 125.57 24.67 125.50 24.83 L 125.10 25.49 C 123.63 25.93 122.96 26.89 123.09 28.37 C 122.26 29.15 121.42 29.92 120.57 30.67 C 120.53 30.68 120.44 30.71 120.40 30.73 L 118.48 30.54 C 118.30 30.46 117.93 30.31 117.74 30.24 L 116.91 29.80 C 116.77 29.72 116.49 29.58 116.35 29.50 C 115.70 29.19 114.42 28.57 113.78 28.26 C 112.77 25.86 113.09 23.27 113.55 20.79 L 114.50 20.86 L 117.08 21.08 C 116.73 20.43 116.03 19.13 115.68 18.48 C 116.29 19.03 117.53 20.14 118.15 20.69 L 118.59 21.10 C 119.66 20.79 120.24 20.09 120.35 19.00 C 119.78 18.76 118.66 18.27 118.10 18.03 L 117.09 17.83 C 116.99 17.39 116.81 16.52 116.72 16.08 C 118.86 16.34 119.91 14.20 120.17 12.42 L 120.44 11.76 L 120.76 11.77 C 120.89 12.91 121.15 15.19 121.28 16.33 C 123.45 14.19 123.02 11.14 123.22 8.43 M 120.20 16.21 C 120.85 16.86 120.85 16.86 120.20 16.21 M 117.39 22.04 C 117.00 23.44 117.50 23.96 118.88 23.59 C 119.27 22.19 118.77 21.67 117.39 22.04 M 122.20 22.20 C 122.85 22.85 122.85 22.85 122.20 22.20 M 122.19 24.21 C 122.86 24.85 122.86 24.85 122.19 24.21 M 118.33 25.12 L 118.33 25.88 C 118.75 25.86 119.58 25.84 120.00 25.82 C 120.14 25.67 120.44 25.36 120.58 25.20 L 120.00 25.18 C 119.58 25.16 118.75 25.13 118.33 25.12 M 121.21 27.20 C 121.84 27.86 121.84 27.86 121.21 27.20 Z" />
<path fill="#ffc8b8" opacity="1.00" d=" M 169.27 9.43 L 169.67 9.69 C 170.12 10.11 171.03 10.94 171.48 11.36 C 171.51 11.41 171.59 11.51 171.63 11.56 C 171.92 11.99 172.52 12.85 172.82 13.28 C 173.09 12.60 173.64 11.25 173.92 10.57 C 173.91 11.26 173.89 12.64 173.88 13.33 L 172.68 13.98 C 173.79 15.02 174.40 16.17 173.02 17.38 C 172.21 16.69 171.40 16.01 170.58 15.35 L 169.48 16.65 L 171.08 17.36 C 170.68 17.63 169.87 18.17 169.47 18.44 L 170.64 19.20 C 170.68 19.23 170.78 19.29 170.82 19.32 L 172.03 20.07 C 172.56 19.75 173.62 19.12 174.15 18.80 C 174.03 19.97 173.79 22.30 173.68 23.47 L 173.50 23.74 L 173.45 24.07 L 173.36 24.56 L 172.40 26.63 C 172.32 26.75 172.15 26.98 172.07 27.10 C 171.98 27.21 171.81 27.42 171.72 27.52 C 170.79 28.64 169.77 29.68 168.67 30.63 C 168.60 30.69 168.46 30.82 168.39 30.89 C 167.68 30.82 166.27 30.69 165.56 30.62 C 165.51 30.60 165.40 30.56 165.35 30.53 L 163.58 29.64 L 163.47 29.59 L 163.37 29.52 C 162.71 29.03 161.38 28.06 160.72 27.57 C 159.63 25.09 159.94 22.30 159.92 19.67 C 160.36 19.75 161.22 19.91 161.65 19.98 L 164.14 20.00 C 164.14 19.37 164.15 18.10 164.15 17.47 L 163.99 19.00 L 165.00 19.00 L 165.00 19.99 L 165.97 20.07 C 165.86 19.58 165.63 18.59 165.51 18.09 C 165.54 17.68 165.60 16.86 165.63 16.45 L 166.42 16.07 C 166.81 16.34 167.60 16.87 168.00 17.13 C 168.00 15.32 168.02 13.51 168.28 11.71 C 168.34 11.59 168.45 11.35 168.50 11.22 L 169.27 9.43 M 169.36 22.11 C 167.91 22.91 167.82 23.58 169.07 24.11 C 170.52 23.34 170.61 22.67 169.36 22.11 M 166.38 25.13 L 166.38 25.86 C 166.82 25.85 167.71 25.82 168.15 25.81 L 168.84 25.79 L 169.48 25.80 C 169.32 25.65 169.00 25.35 168.84 25.20 L 168.15 25.18 C 167.71 25.17 166.82 25.14 166.38 25.13 M 167.23 27.12 C 167.51 30.32 170.33 25.57 167.23 27.12 Z" />
<path fill="#ffc8b8" opacity="1.00" d=" M 215.14 15.46 C 216.75 14.48 216.81 11.81 218.90 11.63 C 219.19 12.00 219.77 12.74 220.05 13.11 C 220.11 13.52 220.22 14.34 220.28 14.74 C 219.62 15.06 218.31 15.68 217.66 16.00 C 216.35 18.42 217.50 20.65 219.56 22.16 L 220.42 20.20 C 220.79 20.04 221.53 19.71 221.90 19.55 C 222.31 21.96 221.32 24.21 220.64 26.46 C 220.61 26.51 220.56 26.61 220.53 26.66 C 219.84 28.17 219.03 29.64 217.66 30.64 C 217.61 30.69 217.50 30.79 217.44 30.84 C 216.46 30.84 214.50 30.83 213.51 30.83 C 213.46 30.77 213.36 30.66 213.31 30.61 L 212.35 29.60 C 211.84 28.59 211.06 28.01 210.00 27.88 L 209.29 27.80 C 209.05 25.35 208.70 22.75 210.14 20.55 L 210.38 20.56 L 212.22 20.76 C 212.27 20.03 212.36 19.32 212.47 18.60 L 214.42 20.52 C 214.55 20.65 214.81 20.89 214.93 21.02 C 216.17 19.87 215.86 18.16 214.81 17.01 L 214.89 15.49 C 213.82 16.51 212.70 15.82 211.66 15.42 C 212.68 14.50 214.70 12.66 215.72 11.75 C 215.57 12.68 215.28 14.53 215.14 15.46 M 213.41 22.07 C 213.05 23.47 213.56 23.99 214.94 23.61 C 215.30 22.21 214.79 21.69 213.41 22.07 M 218.19 22.22 C 218.87 22.84 218.87 22.84 218.19 22.22 M 214.80 25.13 C 215.16 25.60 215.86 26.55 216.22 27.03 L 218.49 25.50 L 216.87 28.00 C 217.40 28.00 218.46 28.00 218.98 28.00 C 219.00 26.63 219.02 25.26 219.05 23.89 C 217.82 24.84 216.31 25.03 214.80 25.13 Z" />
<path fill="#ffc8b8" opacity="1.00" d=" M 71.77 17.35 C 73.17 16.49 74.66 15.75 76.36 15.80 C 76.64 15.97 77.20 16.30 77.48 16.47 C 77.90 17.03 78.74 18.15 79.16 18.71 C 76.46 19.75 74.14 21.59 74.90 24.80 C 74.44 25.05 73.53 25.55 73.07 25.80 C 73.44 25.83 74.17 25.89 74.54 25.92 C 74.92 25.69 75.69 25.25 76.07 25.03 C 76.61 24.76 77.68 24.23 78.22 23.96 C 76.89 27.62 75.99 32.35 71.62 33.50 C 71.57 33.52 71.47 33.56 71.43 33.58 L 70.01 34.09 L 68.55 33.65 C 68.51 33.63 68.43 33.59 68.39 33.57 C 67.68 33.06 66.27 32.05 65.56 31.54 C 65.53 31.51 65.47 31.44 65.44 31.40 L 64.37 29.76 C 64.33 29.69 64.23 29.55 64.19 29.48 L 64.07 28.38 C 63.90 25.59 62.98 20.54 67.37 20.95 C 67.74 20.96 68.48 20.96 68.86 20.97 L 71.14 21.02 C 70.78 20.55 70.08 19.63 69.73 19.16 L 71.15 18.73 L 70.89 20.12 L 72.18 19.84 L 71.72 20.82 C 71.63 21.14 71.46 21.78 71.37 22.10 C 72.44 22.71 74.31 21.57 74.02 20.31 C 73.71 19.09 72.96 18.11 71.77 17.35 M 70.19 26.21 C 70.86 26.84 70.86 26.84 70.19 26.21 M 73.06 27.79 C 73.20 27.65 73.48 27.35 73.62 27.21 L 73.03 27.25 C 73.04 27.38 73.05 27.66 73.06 27.79 M 71.22 29.20 C 71.85 29.87 71.85 29.87 71.22 29.20 Z" />
<path fill="#ffc8b8" opacity="1.00" d=" M 25.55 18.25 L 26.09 18.25 L 26.15 18.72 L 25.61 18.91 L 25.55 18.25 Z" />
<path fill="#ffc8b8" opacity="1.00" d=" M 20.98 19.02 C 21.42 19.23 22.32 19.65 22.76 19.86 L 23.25 19.87 C 24.04 19.88 25.63 19.91 26.42 19.93 C 27.06 19.70 28.33 19.23 28.97 19.00 C 28.94 19.53 28.88 20.59 28.85 21.12 C 28.67 21.21 28.31 21.39 28.13 21.48 C 25.49 24.05 27.91 27.55 30.10 29.42 C 29.82 28.49 29.26 26.62 28.98 25.69 L 30.18 25.52 C 29.86 24.72 29.54 23.91 29.22 23.10 C 29.57 23.10 30.25 23.11 30.59 23.12 C 31.71 25.10 32.14 27.33 32.40 29.56 C 31.88 30.82 31.29 32.04 30.68 33.26 L 30.55 33.50 L 30.37 33.72 C 29.55 34.68 28.69 35.61 27.81 36.51 L 27.50 36.69 L 27.18 36.78 C 26.27 36.76 24.44 36.74 23.53 36.73 C 23.32 36.61 22.90 36.37 22.70 36.25 L 21.91 35.74 L 21.63 35.55 L 21.39 35.39 C 21.04 35.13 20.33 34.62 19.98 34.37 C 17.92 32.02 17.80 29.00 18.48 26.08 C 18.29 25.87 17.92 25.45 17.73 25.24 C 18.31 24.90 19.47 24.24 20.04 23.90 L 20.00 26.05 C 20.83 25.98 22.51 25.84 23.35 25.78 L 24.27 25.72 L 24.89 25.70 L 24.84 25.26 C 24.75 23.76 24.15 22.32 22.69 21.67 C 22.59 21.60 22.39 21.48 22.29 21.41 C 21.66 21.10 20.40 20.46 19.77 20.15 C 20.07 19.86 20.68 19.30 20.98 19.02 M 28.21 29.19 C 28.85 29.86 28.85 29.86 28.21 29.19 M 28.21 31.20 C 28.84 31.87 28.84 31.87 28.21 31.20 M 25.30 32.12 C 25.64 35.31 28.41 30.55 25.30 32.12 M 27.21 34.19 C 27.84 34.86 27.84 34.86 27.21 34.19 Z" />
<path fill="#ffc8b8" opacity="1.00" d=" M 154.06 32.41 C 155.05 30.83 156.01 29.24 157.02 27.68 C 156.98 28.23 156.88 29.33 156.83 29.89 C 155.69 32.25 154.90 34.76 154.86 37.40 C 156.38 38.24 157.90 39.11 159.21 40.27 C 158.51 39.99 157.12 39.45 156.42 39.18 C 155.82 39.11 154.61 38.98 154.00 38.92 C 153.99 36.75 154.01 34.58 154.06 32.41 Z" />
<path fill="#ffc8b8" opacity="1.00" d=" M 202.06 32.43 C 203.16 30.64 204.22 28.84 205.37 27.08 C 205.21 27.78 204.89 29.18 204.73 29.88 C 203.69 32.28 202.91 34.78 202.88 37.42 C 204.40 38.24 205.91 39.11 207.21 40.27 C 206.51 40.00 205.12 39.45 204.42 39.17 C 203.82 39.11 202.61 38.97 202.00 38.91 C 202.00 36.74 202.01 34.58 202.06 32.43 Z" />
<path fill="#ffc8b8" opacity="1.00" d=" M 106.07 32.42 C 106.72 31.40 107.35 30.38 107.97 29.34 C 107.57 32.03 107.19 34.73 106.92 37.43 C 108.42 38.26 109.94 39.10 111.22 40.26 C 110.52 39.99 109.12 39.45 108.42 39.18 C 107.82 39.11 106.60 38.97 106.00 38.91 C 106.00 36.74 106.01 34.58 106.07 32.42 Z" />
<path fill="#ffc8b8" opacity="1.00" d=" M 111.82 29.75 C 114.78 32.44 118.34 34.27 121.85 36.13 C 120.06 36.85 118.26 37.51 116.39 37.99 C 115.63 37.74 114.89 37.43 114.17 37.06 C 111.96 35.24 111.91 32.38 111.82 29.75 Z" />
<path fill="#ffc8b8" opacity="1.00" d=" M 158.66 29.82 C 162.22 32.26 166.17 34.00 169.88 36.19 C 168.16 36.79 166.42 37.35 164.66 37.83 L 164.59 37.85 C 163.92 37.63 162.57 37.19 161.89 36.97 C 160.45 34.77 159.49 32.31 158.66 29.82 Z" />
<path fill="#ffc8b8" opacity="1.00" d=" M 125.05 30.50 L 125.47 30.45 C 126.61 30.98 127.49 31.77 128.12 32.80 C 127.91 33.07 127.50 33.61 127.29 33.88 C 126.79 34.14 125.79 34.65 125.29 34.91 C 125.90 33.49 125.59 31.89 125.05 30.50 Z" />
<path fill="#ffc8b8" opacity="1.00" d=" M 173.00 30.56 L 173.45 30.45 C 175.04 30.90 176.64 32.83 174.96 34.20 C 174.54 34.38 173.69 34.74 173.27 34.92 C 173.93 33.52 173.54 31.93 173.00 30.56 Z" />
<path fill="#ffc8b8" opacity="1.00" d=" M 207.73 30.89 C 210.75 32.43 213.91 33.73 216.82 35.50 C 217.89 37.68 214.05 37.12 212.80 37.89 L 211.98 38.11 C 211.58 37.84 210.78 37.30 210.38 37.03 C 208.38 35.56 207.85 33.23 207.73 30.89 Z" />
<path fill="#ffc8b8" opacity="1.00" d=" M 221.25 30.44 C 222.81 30.32 224.90 32.84 222.98 34.02 C 222.57 34.22 221.76 34.62 221.36 34.82 C 221.43 34.34 221.58 33.40 221.66 32.92 C 221.56 32.30 221.35 31.06 221.25 30.44 Z" />
<path fill="#ffc8b8" opacity="1.00" d=" M 77.39 35.49 L 77.75 35.67 L 77.92 36.17 C 77.79 36.00 77.52 35.66 77.39 35.49 Z" />
<path fill="#ffc8b8" opacity="1.00" d=" M 123.63 35.84 C 123.90 35.73 124.44 35.50 124.72 35.39 C 124.72 36.72 124.44 38.04 123.90 39.33 C 123.75 39.49 123.45 39.82 123.30 39.98 C 122.74 38.56 122.85 37.19 123.63 35.84 Z" />
<path fill="#ffc8b8" opacity="1.00" d=" M 171.63 35.83 C 171.90 35.72 172.44 35.51 172.71 35.40 C 172.72 36.73 172.45 38.04 171.90 39.33 C 171.75 39.49 171.45 39.81 171.30 39.97 C 170.74 38.56 170.85 37.18 171.63 35.83 Z" />
<path fill="#ffc8b8" opacity="1.00" d=" M 219.60 36.18 C 219.86 36.02 220.39 35.69 220.66 35.53 C 220.74 36.81 220.49 38.08 219.91 39.33 C 219.76 39.51 219.46 39.87 219.31 40.04 C 218.58 38.71 218.68 37.42 219.60 36.18 Z" />
<path fill="#ffc8b8" opacity="1.00" d=" M 78.37 37.04 L 78.59 37.36 L 78.71 37.68 C 78.63 37.52 78.45 37.20 78.37 37.04 Z" />
<path fill="#ffc8b8" opacity="1.00" d=" M 119.88 38.83 C 120.09 38.68 120.53 38.38 120.74 38.23 C 121.21 38.37 122.15 38.63 122.62 38.77 C 121.43 39.81 120.20 40.80 118.83 41.58 L 118.61 41.70 L 118.41 41.81 C 117.73 41.77 116.37 41.69 115.70 41.66 C 117.05 40.65 118.49 39.78 119.88 38.83 Z" />
<path fill="#ffc8b8" opacity="1.00" d=" M 167.95 38.97 C 168.20 38.74 168.69 38.28 168.93 38.05 C 169.33 37.93 170.13 37.70 170.53 37.59 C 169.68 39.27 168.74 41.50 166.61 41.88 C 166.56 41.89 166.46 41.90 166.40 41.91 C 161.44 43.66 165.33 38.82 167.46 40.04 C 167.58 39.77 167.83 39.24 167.95 38.97 Z" />
<path fill="#ffc8b8" opacity="1.00" d=" M 216.14 39.00 C 216.33 38.73 216.70 38.21 216.89 37.94 L 217.31 37.38 C 219.22 39.37 216.26 40.96 214.87 41.78 L 214.75 41.85 L 214.62 41.92 L 213.21 42.66 L 211.84 41.46 L 213.32 40.17 C 213.86 40.14 214.93 40.08 215.47 40.05 C 215.64 39.79 215.97 39.26 216.14 39.00 Z" />
</g>
<g id="#5080ffff">
<path fill="#5080ff" opacity="1.00" d=" M 27.71 17.25 C 26.08 17.06 25.99 16.57 27.45 15.78 L 27.79 16.47 L 27.71 17.25 Z" />
<path fill="#5080ff" opacity="1.00" d=" M 131.19 26.55 C 134.81 28.08 137.69 30.83 140.18 33.80 C 141.39 35.10 140.92 37.03 141.11 38.64 C 139.46 40.54 139.24 45.10 135.99 44.48 C 137.39 41.65 138.28 38.58 138.01 35.39 C 136.21 36.55 135.13 38.39 134.14 40.23 C 133.88 39.77 133.37 38.86 133.11 38.41 C 133.18 38.92 133.33 39.93 133.41 40.44 C 132.95 43.25 131.82 45.93 129.83 48.00 L 123.53 48.00 C 129.83 43.07 133.98 34.49 131.19 26.55 Z" />
<path fill="#5080ff" opacity="1.00" d=" M 127.96 30.51 C 128.70 31.21 128.70 31.21 127.96 30.51 Z" />
<path fill="#5080ff" opacity="1.00" d=" M 175.97 30.52 C 176.71 31.21 176.71 31.21 175.97 30.52 Z" />
<path fill="#5080ff" opacity="1.00" d=" M 127.29 33.88 C 127.50 33.61 127.91 33.07 128.12 32.80 C 128.30 33.15 128.68 33.85 128.86 34.20 L 128.03 34.42 L 127.29 33.88 Z" />
<path fill="#5080ff" opacity="1.00" d=" M 26.28 42.90 L 26.90 43.20 L 26.63 43.72 C 26.54 43.51 26.37 43.10 26.28 42.90 Z" />
</g>
<g id="#fb762fff">
<path fill="#fb762f" opacity="1.00" d=" M 51.30 19.36 C 52.22 18.66 53.18 18.03 54.20 17.48 C 53.93 18.00 53.39 19.04 53.12 19.56 C 55.22 22.19 57.25 24.89 59.10 27.71 C 59.08 27.09 59.03 25.85 59.00 25.24 C 59.49 24.87 60.48 24.13 60.97 23.76 C 61.01 24.69 61.08 26.54 61.11 27.46 C 60.69 27.91 60.27 28.36 59.85 28.81 C 60.73 29.87 61.15 31.13 61.13 32.57 C 59.39 34.15 57.70 35.77 56.00 37.39 C 56.01 38.49 56.02 39.60 56.04 40.70 C 53.73 43.04 50.85 44.63 48.04 46.25 C 48.06 45.82 48.12 44.96 48.15 44.53 C 50.59 43.17 52.96 41.66 55.05 39.78 C 55.00 37.80 54.97 35.82 54.82 33.85 C 55.32 34.02 56.31 34.38 56.81 34.55 C 57.07 34.32 57.60 33.85 57.86 33.62 C 58.39 33.10 59.45 32.07 59.98 31.56 C 58.40 27.90 55.30 25.20 53.10 21.93 C 52.65 21.29 51.75 20.00 51.30 19.36 Z" />
</g>
<g id="#ffffffff">
<path fill="#ffffff" opacity="1.00" d=" M 172.19 18.17 C 172.87 18.87 172.87 18.87 172.19 18.17 Z" />
<path fill="#ffffff" opacity="1.00" d=" M 160.12 19.02 C 160.51 19.05 161.29 19.11 161.68 19.14 L 161.65 19.98 C 161.22 19.91 160.36 19.75 159.92 19.67 L 160.12 19.02 Z" />
<path fill="#ffffff" opacity="1.00" d=" M 218.22 19.05 C 218.35 19.22 218.61 19.57 218.74 19.74 C 218.61 19.57 218.35 19.22 218.22 19.05 Z" />
<path fill="#ffffff" opacity="1.00" d=" M 210.14 20.55 C 210.20 20.56 210.32 20.56 210.38 20.56 L 210.14 20.55 Z" />
<path fill="#ffffff" opacity="1.00" d=" M 77.05 22.66 C 77.21 22.51 77.53 22.21 77.69 22.06 L 77.50 22.54 L 77.05 22.66 Z" />
<path fill="#ffffff" opacity="1.00" d=" M 117.39 22.04 C 118.77 21.67 119.27 22.19 118.88 23.59 C 117.50 23.96 117.00 23.44 117.39 22.04 Z" />
<path fill="#ffffff" opacity="1.00" d=" M 213.41 22.07 C 214.79 21.69 215.30 22.21 214.94 23.61 C 213.56 23.99 213.05 23.47 213.41 22.07 Z" />
<path fill="#ffffff" opacity="1.00" d=" M 21.17 24.18 C 21.86 24.87 21.86 24.87 21.17 24.18 Z" />
<path fill="#ffffff" opacity="1.00" d=" M 23.00 24.16 C 23.36 24.37 24.08 24.79 24.45 25.00 L 24.27 25.72 L 23.35 25.78 C 23.26 25.37 23.08 24.57 23.00 24.16 Z" />
<path fill="#ffffff" opacity="1.00" d=" M 11.24 41.33 C 11.79 41.80 11.79 41.80 11.24 41.33 Z" />
<path fill="#ffffff" opacity="1.00" d=" M 32.70 42.28 C 33.38 41.72 34.07 41.16 34.76 40.61 L 35.34 41.52 C 36.00 42.53 36.66 43.54 37.27 44.58 C 37.90 45.74 38.55 46.89 39.28 48.00 L 36.28 48.00 C 35.02 46.14 33.88 44.19 32.70 42.28 Z" />
</g>
<g id="#ffede7ff">
<path fill="#ffede7" opacity="1.00" d=" M 220.42 20.20 C 218.72 18.44 223.40 17.02 221.90 19.55 C 221.53 19.71 220.79 20.04 220.42 20.20 Z" />
</g>
<g id="#ef980cff">
<path fill="#ef980c" opacity="1.00" d=" M 30.80 20.36 C 31.61 20.00 33.23 19.28 34.04 18.91 C 34.02 20.31 34.00 21.71 33.99 23.11 L 32.91 22.59 C 33.05 24.92 33.13 27.30 32.40 29.56 C 32.14 27.33 31.71 25.10 30.59 23.12 C 31.19 22.95 32.38 22.60 32.98 22.43 C 32.44 21.91 31.34 20.88 30.80 20.36 Z" />
</g>
<g id="#fff1edff">
<path fill="#fff1ed" opacity="1.00" d=" M 66.13 19.12 C 67.18 18.28 69.33 19.69 68.86 20.97 C 68.48 20.96 67.74 20.96 67.37 20.95 C 67.06 20.50 66.44 19.58 66.13 19.12 Z" />
</g>
<g id="#ffe4dbff">
<path fill="#ffe4db" opacity="1.00" d=" M 113.29 20.08 C 113.67 19.88 114.43 19.49 114.81 19.30 C 114.73 19.69 114.58 20.47 114.50 20.86 L 113.55 20.79 L 113.29 20.08 Z" />
</g>
<g id="#ff8c52ff">
<path fill="#ff8c52" opacity="1.00" d=" M 71.72 20.82 C 72.29 20.69 73.44 20.44 74.02 20.31 C 74.31 21.57 72.44 22.71 71.37 22.10 C 71.46 21.78 71.63 21.14 71.72 20.82 Z" />
</g>
<g id="#351000ff">
<path fill="#351000" opacity="1.00" d=" M 49.96 22.92 C 51.35 22.92 52.05 23.68 52.05 25.21 C 50.66 24.97 49.96 24.21 49.96 22.92 Z" />
</g>
<g id="#98e800ff">
<path fill="#98e800" opacity="1.00" d=" M 109.07 24.28 C 112.39 24.45 107.52 27.25 109.07 24.28 Z" />
<path fill="#98e800" opacity="1.00" d=" M 227.20 26.56 C 231.59 29.14 237.87 32.74 236.99 38.68 C 236.03 40.84 234.94 42.94 233.89 45.05 C 233.44 44.79 232.54 44.28 232.09 44.03 C 233.57 41.39 234.29 38.45 234.06 35.42 C 231.96 36.39 231.17 38.57 230.26 40.51 C 229.90 38.95 229.59 37.37 229.28 35.79 C 229.28 37.34 229.30 38.88 229.29 40.43 C 229.14 43.33 227.80 45.96 225.78 48.00 L 219.54 48.00 C 225.85 43.07 229.95 34.49 227.20 26.56 Z" />
<path fill="#98e800" opacity="1.00" d=" M 125.81 28.34 C 127.20 28.37 127.92 29.09 127.96 30.51 C 126.53 30.44 125.81 29.71 125.81 28.34 Z" />
<path fill="#98e800" opacity="1.00" d=" M 224.02 30.49 C 224.76 30.99 224.76 30.99 224.02 30.49 Z" />
<path fill="#98e800" opacity="1.00" d=" M 127.29 33.88 L 128.03 34.42 C 129.14 36.87 125.24 35.04 127.29 33.88 Z" />
<path fill="#98e800" opacity="1.00" d=" M 124.78 38.44 C 125.72 35.93 127.24 40.29 124.94 39.29 L 124.78 38.44 Z" />
</g>
<g id="#70e090ff">
<path fill="#70e090" opacity="1.00" d=" M 179.21 26.53 C 182.77 28.16 185.71 30.82 188.16 33.83 C 189.34 35.07 188.99 36.92 189.01 38.48 C 188.00 40.68 186.91 42.83 185.86 45.01 C 185.44 44.75 184.61 44.22 184.19 43.95 C 185.58 41.30 186.27 38.38 186.05 35.37 C 184.10 36.45 183.12 38.44 182.19 40.37 C 182.07 40.00 181.85 39.27 181.73 38.90 C 182.74 38.08 181.85 34.85 180.77 36.87 C 180.83 37.32 180.95 38.22 181.01 38.67 C 181.12 39.13 181.34 40.05 181.45 40.51 C 181.02 43.33 179.78 45.96 177.78 48.00 L 171.53 48.00 C 177.85 43.07 181.95 34.48 179.21 26.53 Z" />
</g>
<g id="#a0fff0ff">
<path fill="#a0fff0" opacity="1.00" d=" M 33.19 29.90 C 36.99 31.00 37.61 34.84 39.15 37.90 L 38.59 38.26 C 38.17 38.55 37.34 39.12 36.92 39.41 C 34.62 38.30 33.28 36.04 32.09 33.89 C 31.90 32.48 32.89 31.23 33.19 29.90 Z" />
<path fill="#a0fff0" opacity="1.00" d=" M 11.26 32.96 C 13.70 32.96 10.02 36.68 9.97 34.26 C 10.30 33.94 10.94 33.29 11.26 32.96 Z" />
<path fill="#a0fff0" opacity="1.00" d=" M 7.28 37.51 L 7.72 37.28 C 9.30 37.61 10.87 37.94 12.46 38.25 C 14.82 39.81 17.56 40.24 20.34 40.11 L 20.22 40.65 C 19.47 43.04 18.42 45.32 17.13 47.47 C 17.42 45.08 18.03 42.76 18.69 40.46 C 16.93 42.38 15.56 44.64 14.99 47.21 C 12.34 45.14 9.18 43.53 5.71 43.94 C 4.42 41.56 5.62 39.33 7.28 37.51 M 11.24 41.33 C 11.79 41.80 11.79 41.80 11.24 41.33 Z" />
<path fill="#a0fff0" opacity="1.00" d=" M 33.58 38.78 C 33.97 39.39 34.37 40.00 34.76 40.61 C 34.07 41.16 33.38 41.72 32.70 42.28 C 33.88 44.19 35.02 46.14 36.28 48.00 L 29.81 48.00 C 30.57 46.90 31.29 45.77 32.01 44.65 C 31.70 44.19 31.07 43.26 30.75 42.79 C 31.94 41.64 32.84 40.25 33.58 38.78 Z" />
<path fill="#a0fff0" opacity="1.00" d=" M 38.49 43.71 C 37.33 43.34 34.84 40.65 36.70 40.04 C 36.97 40.25 37.50 40.69 37.77 40.91 C 38.44 41.41 40.01 43.36 38.49 43.71 Z" />
</g>
<g id="#888800ff">
<path fill="#888800" opacity="1.00" d=" M 95.96 35.44 C 98.07 33.81 100.33 32.36 102.79 31.30 C 103.00 31.75 103.43 32.65 103.65 33.09 C 103.97 35.81 104.06 38.55 103.98 41.28 C 104.11 41.72 104.35 42.61 104.48 43.06 C 103.82 43.64 103.18 44.24 102.56 44.86 C 101.44 44.14 100.23 43.61 98.89 43.50 C 97.89 42.28 96.92 41.03 95.96 39.78 C 95.95 38.33 95.95 36.88 95.96 35.44 M 100.15 35.18 C 98.43 35.48 99.44 37.77 100.88 37.13 C 102.61 36.89 101.52 34.57 100.15 35.18 M 98.27 38.32 C 98.81 38.81 98.81 38.81 98.27 38.32 Z" />
<path fill="#888800" opacity="1.00" d=" M 193.95 34.55 C 195.24 33.06 196.93 32.02 198.74 31.27 C 198.97 31.73 199.42 32.64 199.65 33.10 C 199.96 35.81 200.05 38.54 199.97 41.26 C 200.09 41.70 200.33 42.59 200.45 43.03 C 199.58 43.78 198.73 44.55 197.91 45.36 C 197.71 44.80 197.29 43.69 197.08 43.13 C 196.57 43.36 195.54 43.82 195.03 44.05 C 194.00 42.60 192.96 41.16 191.98 39.68 C 191.92 38.88 191.81 37.27 191.75 36.47 C 191.79 36.15 191.89 35.51 191.93 35.19 C 192.44 35.03 193.44 34.71 193.95 34.55 M 196.16 35.17 C 195.92 35.42 195.45 35.92 195.22 36.16 C 196.06 39.19 199.69 34.92 196.16 35.17 M 194.22 38.33 C 194.76 38.82 194.76 38.82 194.22 38.33 Z" />
<path fill="#888800" opacity="1.00" d=" M 222.98 34.02 C 226.28 33.97 221.99 37.28 222.98 34.02 Z" />
<path fill="#888800" opacity="1.00" d=" M 203.11 48.00 C 203.71 46.84 204.36 44.97 205.98 45.14 C 206.21 46.11 206.50 47.06 206.85 48.00 L 203.11 48.00 Z" />
</g>
<g id="#d74e05ff">
<path fill="#d74e05" opacity="1.00" d=" M 76.06 34.75 L 77.39 35.49 C 77.52 35.66 77.79 36.00 77.92 36.17 L 78.37 37.04 C 78.45 37.20 78.63 37.52 78.71 37.68 C 79.03 38.46 79.65 40.00 79.96 40.77 C 78.70 42.01 77.45 43.25 76.25 44.55 C 76.28 42.82 76.21 41.10 76.04 39.39 C 75.99 38.96 75.90 38.10 75.85 37.68 C 75.90 36.95 76.01 35.48 76.06 34.75 Z" />
</g>
<g id="#e19a00ff">
<path fill="#e19a00" opacity="1.00" d=" M 100.15 35.18 C 101.52 34.57 102.61 36.89 100.88 37.13 C 99.44 37.77 98.43 35.48 100.15 35.18 Z" />
<path fill="#e19a00" opacity="1.00" d=" M 196.16 35.17 C 199.69 34.92 196.06 39.19 195.22 36.16 C 195.45 35.92 195.92 35.42 196.16 35.17 Z" />
</g>
<g id="#3f42f8ff">
<path fill="#3f42f8" opacity="1.00" d=" M 134.14 40.23 C 135.13 38.39 136.21 36.55 138.01 35.39 C 138.28 38.58 137.39 41.65 135.99 44.48 C 139.24 45.10 139.46 40.54 141.11 38.64 C 141.05 42.31 139.04 45.57 136.41 47.99 L 137.34 48.00 L 134.59 48.00 C 134.97 47.59 135.73 46.78 136.11 46.37 C 135.44 44.33 134.90 42.24 134.14 40.23 Z" />
</g>
<g id="#4090c0ff">
<path fill="#4090c0" opacity="1.00" d=" M 180.77 36.87 C 181.85 34.85 182.74 38.08 181.73 38.90 L 181.01 38.67 C 180.95 38.22 180.83 37.32 180.77 36.87 Z" />
<path fill="#4090c0" opacity="1.00" d=" M 0.00 44.56 C 1.65 41.55 4.03 38.82 7.28 37.51 C 5.62 39.33 4.42 41.56 5.71 43.94 C 4.53 43.94 3.36 43.94 2.18 43.95 C 1.44 45.19 0.70 46.42 0.00 47.68 L 0.00 44.56 Z" />
<path fill="#4090c0" opacity="1.00" d=" M 36.92 39.41 C 37.34 39.12 38.17 38.55 38.59 38.26 C 39.43 39.60 39.16 40.48 37.77 40.91 C 37.50 40.69 36.97 40.25 36.70 40.04 L 36.92 39.41 Z" />
<path fill="#4090c0" opacity="1.00" d=" M 26.13 41.99 C 26.28 41.78 26.59 41.35 26.74 41.13 C 26.59 41.35 26.28 41.78 26.13 41.99 Z" />
<path fill="#4090c0" opacity="1.00" d=" M 181.45 40.51 C 182.29 43.04 182.03 45.71 180.63 48.00 L 177.78 48.00 C 179.78 45.96 181.02 43.33 181.45 40.51 Z" />
<path fill="#4090c0" opacity="1.00" d=" M 21.29 42.17 C 21.38 42.31 21.57 42.60 21.66 42.75 C 21.57 42.60 21.38 42.31 21.29 42.17 Z" />
<path fill="#4090c0" opacity="1.00" d=" M 191.46 43.78 C 191.56 43.69 191.75 43.51 191.85 43.43 L 191.84 43.93 L 191.46 43.78 Z" />
<path fill="#4090c0" opacity="1.00" d=" M 188.27 45.53 C 188.36 45.37 188.54 45.04 188.63 44.88 L 188.52 45.25 L 188.27 45.53 Z" />
<path fill="#4090c0" opacity="1.00" d=" M 4.47 46.14 C 7.47 45.53 10.35 46.37 12.87 48.00 L 7.75 48.00 C 7.27 46.39 5.09 46.27 3.83 46.95 L 4.47 46.14 Z" />
</g>
<g id="#4190b8ff">
<path fill="#4190b8" opacity="1.00" d=" M 182.19 40.37 C 183.12 38.44 184.10 36.45 186.05 35.37 C 186.27 38.38 185.58 41.30 184.19 43.95 C 184.61 44.22 185.44 44.75 185.86 45.01 C 186.91 42.83 188.00 40.68 189.01 38.48 C 189.08 41.61 187.38 44.31 186.15 47.06 C 185.42 47.30 183.98 47.77 183.26 48.00 L 182.58 48.00 C 182.96 47.57 183.73 46.72 184.11 46.29 C 183.43 44.33 182.82 42.34 182.19 40.37 Z" />
</g>
<g id="#ffbea7ff">
<path fill="#ffbea7" opacity="1.00" d=" M 67.02 37.06 C 69.12 37.26 72.16 35.92 73.42 38.25 L 73.17 38.54 C 72.14 38.32 71.11 38.11 70.08 37.91 C 69.01 38.20 67.96 38.54 66.92 38.93 L 66.94 38.43 L 67.02 37.06 Z" />
</g>
<g id="#f2671bff">
<path fill="#f2671b" opacity="1.00" d=" M 62.39 41.08 C 62.15 39.20 65.37 37.37 66.94 38.43 L 66.92 38.93 C 66.70 39.11 66.27 39.48 66.05 39.66 C 64.86 40.21 63.64 40.69 62.39 41.08 Z" />
</g>
<g id="#f97026ff">
<path fill="#f97026" opacity="1.00" d=" M 70.08 37.91 C 71.11 38.11 72.14 38.32 73.17 38.54 C 73.47 38.77 74.07 39.22 74.38 39.45 C 75.30 41.04 74.42 43.10 74.65 44.84 C 74.07 44.54 72.91 43.95 72.33 43.65 C 71.50 41.77 70.81 39.83 70.08 37.91 Z" />
</g>
<g id="#ffb86eff">
<path fill="#ffb86e" opacity="1.00" d=" M 20.34 40.11 C 21.02 38.45 23.27 38.78 24.67 39.14 L 24.72 39.77 L 24.01 40.43 C 22.79 40.25 21.57 40.15 20.34 40.11 Z" />
</g>
<g id="#050514ff">
<path fill="#050514" opacity="1.00" d=" M 133.11 38.41 C 133.37 38.86 133.88 39.77 134.14 40.23 C 134.90 42.24 135.44 44.33 136.11 46.37 C 135.73 46.78 134.97 47.59 134.59 48.00 L 132.62 48.00 C 134.08 45.69 134.22 43.00 133.41 40.44 C 133.33 39.93 133.18 38.92 133.11 38.41 Z" />
</g>
<g id="#050b0fff">
<path fill="#050b0f" opacity="1.00" d=" M 181.01 38.67 L 181.73 38.90 C 181.85 39.27 182.07 40.00 182.19 40.37 C 182.82 42.34 183.43 44.33 184.11 46.29 C 183.73 46.72 182.96 47.57 182.58 48.00 L 180.63 48.00 C 182.03 45.71 182.29 43.04 181.45 40.51 C 181.34 40.05 181.12 39.13 181.01 38.67 Z" />
</g>
<g id="#3578a0ff">
<path fill="#3578a0" opacity="1.00" d=" M 20.34 40.11 C 21.57 40.15 22.79 40.25 24.01 40.43 C 24.01 40.95 23.99 42.00 23.98 42.53 C 22.93 42.15 21.88 41.77 20.81 41.44 L 20.22 40.65 L 20.34 40.11 Z" />
</g>
<g id="#784000ff">
<path fill="#784000" opacity="1.00" d=" M 95.96 39.78 C 96.92 41.03 97.89 42.28 98.89 43.50 C 100.23 43.61 101.44 44.14 102.56 44.86 L 101.53 45.89 C 100.82 46.61 100.10 47.31 99.37 48.00 L 96.64 48.00 C 96.54 47.96 96.36 47.88 96.26 47.84 C 96.04 45.16 95.96 42.47 95.96 39.78 Z" />
<path fill="#784000" opacity="1.00" d=" M 144.11 39.58 C 145.02 41.12 146.02 42.62 147.02 44.11 C 147.49 43.87 148.41 43.38 148.87 43.13 C 149.23 43.63 149.95 44.64 150.31 45.14 L 149.33 46.25 C 148.78 46.84 148.22 47.43 147.65 48.00 L 144.03 48.00 C 144.00 47.83 143.95 47.48 143.92 47.31 L 143.72 46.26 C 143.73 45.72 143.74 44.64 143.75 44.11 L 143.80 43.56 C 143.88 42.57 144.03 40.57 144.11 39.58 Z" />
<path fill="#784000" opacity="1.00" d=" M 191.98 39.68 C 192.96 41.16 194.00 42.60 195.03 44.05 C 195.54 43.82 196.57 43.36 197.08 43.13 C 197.29 43.69 197.71 44.80 197.91 45.36 C 197.90 45.90 197.86 47.00 197.85 47.54 C 200.72 45.81 202.74 43.13 202.50 39.61 C 202.84 39.87 203.51 40.39 203.85 40.65 C 203.97 42.00 204.03 43.34 204.10 44.69 C 202.92 45.80 201.76 46.93 200.56 48.00 L 192.11 48.00 C 192.09 47.83 192.04 47.48 192.02 47.30 L 191.84 46.24 C 191.84 45.66 191.84 44.51 191.84 43.93 L 191.85 43.43 C 191.88 42.49 191.95 40.62 191.98 39.68 Z" />
<path fill="#784000" opacity="1.00" d=" M 103.98 41.28 C 105.45 41.31 105.62 41.90 104.48 43.06 C 104.35 42.61 104.11 41.72 103.98 41.28 Z" />
<path fill="#784000" opacity="1.00" d=" M 147.23 41.29 C 147.74 41.79 147.74 41.79 147.23 41.29 Z" />
<path fill="#784000" opacity="1.00" d=" M 151.94 41.22 C 153.41 41.31 153.55 41.90 152.35 43.01 C 152.25 42.56 152.04 41.67 151.94 41.22 Z" />
<path fill="#784000" opacity="1.00" d=" M 199.97 41.26 C 201.44 41.30 201.60 41.89 200.45 43.03 C 200.33 42.59 200.09 41.70 199.97 41.26 Z" />
<path fill="#784000" opacity="1.00" d=" M 155.06 48.00 C 155.49 46.66 156.37 45.27 157.91 45.11 C 158.02 46.18 158.40 47.14 159.05 48.00 L 155.06 48.00 Z" />
</g>
<g id="#806600ff">
<path fill="#806600" opacity="1.00" d=" M 106.34 39.58 C 106.71 39.88 107.45 40.48 107.82 40.78 C 108.88 43.81 106.80 46.20 104.63 48.00 L 99.37 48.00 C 100.10 47.31 100.82 46.61 101.53 45.89 C 101.81 46.19 102.38 46.79 102.67 47.09 C 103.73 45.99 104.79 44.89 105.86 43.79 C 106.02 42.39 106.18 40.98 106.34 39.58 Z" />
</g>
<g id="#fcfffeff">
<path fill="#fcfffe" opacity="1.00" d=" M 14.99 47.21 C 15.56 44.64 16.93 42.38 18.69 40.46 C 18.03 42.76 17.42 45.08 17.13 47.47 C 18.42 45.32 19.47 43.04 20.22 40.65 L 20.81 41.44 L 21.29 42.17 C 21.38 42.31 21.57 42.60 21.66 42.75 L 22.04 43.35 C 21.34 44.84 20.80 46.41 20.37 48.00 L 15.01 48.00 L 14.99 47.21 Z" />
</g>
<g id="#fb732aff">
<path fill="#fb732a" opacity="1.00" d=" M 79.96 40.77 C 80.23 43.48 78.06 45.26 75.90 46.36 C 75.99 45.91 76.16 45.00 76.25 44.55 C 77.45 43.25 78.70 42.01 79.96 40.77 Z" />
</g>
<g id="#4040ffff">
<path fill="#4040ff" opacity="1.00" d=" M 133.41 40.44 C 134.22 43.00 134.08 45.69 132.62 48.00 L 129.83 48.00 C 131.82 45.93 132.95 43.25 133.41 40.44 Z" />
<path fill="#4040ff" opacity="1.00" d=" M 143.47 43.41 L 143.80 43.56 L 143.75 44.11 L 143.23 43.84 L 143.47 43.41 Z" />
<path fill="#4040ff" opacity="1.00" d=" M 140.26 45.76 C 140.34 45.61 140.49 45.30 140.56 45.15 L 140.46 45.47 L 140.26 45.76 Z" />
</g>
<g id="#55a8caff">
<path fill="#55a8ca" opacity="1.00" d=" M 26.43 48.00 C 27.62 46.07 29.14 44.38 30.75 42.79 C 31.07 43.26 31.70 44.19 32.01 44.65 C 31.29 45.77 30.57 46.90 29.81 48.00 L 26.43 48.00 Z" />
</g>
<g id="#77cfdbff">
<path fill="#77cfdb" opacity="1.00" d=" M 22.04 43.35 C 22.82 44.34 23.13 45.45 22.95 46.68 C 22.71 47.01 22.23 47.67 21.99 48.00 L 20.37 48.00 C 20.80 46.41 21.34 44.84 22.04 43.35 Z" />
</g>
<g id="#35252bff">
<path fill="#35252b" opacity="1.00" d=" M 143.23 43.84 L 143.75 44.11 C 143.74 44.64 143.73 45.72 143.72 46.26 C 143.40 46.70 142.75 47.57 142.43 48.00 L 140.56 48.00 C 141.46 46.62 142.33 45.22 143.23 43.84 Z" />
</g>
<g id="#7f5f00ff">
<path fill="#7f5f00" opacity="1.00" d=" M 107.11 48.00 C 107.60 46.71 108.41 45.29 109.93 45.10 C 110.08 46.17 110.49 47.13 111.15 48.00 L 107.11 48.00 Z" />
</g>
<g id="#8de9e6ff">
<path fill="#8de9e6" opacity="1.00" d=" M 3.03 48.00 C 3.23 47.74 3.63 47.21 3.83 46.95 C 5.09 46.27 7.27 46.39 7.75 48.00 L 3.03 48.00 Z" />
</g>
<g id="#cffff8ff">
<path fill="#cffff8" opacity="1.00" d=" M 21.99 48.00 C 22.23 47.67 22.71 47.01 22.95 46.68 C 23.18 47.01 23.65 47.67 23.89 48.00 L 21.99 48.00 Z" />
</g>
</svg>
