<?xml version="1.0" encoding="UTF-8" ?>
<!DOCTYPE svg PUBLIC "-//W3C//DTD SVG 1.1//EN" "http://www.w3.org/Graphics/SVG/1.1/DTD/svg11.dtd">
<svg width="48pt" height="48pt" viewBox="0 0 48 48" version="1.1" xmlns="http://www.w3.org/2000/svg">
<g id="#010101ff">
<path fill="#010101" opacity="1.00" d=" M 0.00 0.00 L 0.99 0.00 C 0.88 8.11 0.88 16.21 1.14 24.32 C 2.32 23.95 3.51 23.60 4.70 23.26 C 3.65 24.01 2.58 24.73 1.51 25.45 C 2.11 25.94 3.30 26.92 3.90 27.41 C 3.16 27.14 1.70 26.59 0.97 26.32 C 0.97 27.25 0.97 29.11 0.97 30.04 L 2.81 29.99 C 2.54 29.39 2.00 28.20 1.74 27.60 C 2.19 27.96 3.11 28.66 3.56 29.01 C 5.31 28.30 7.06 27.61 8.79 26.87 C 7.05 26.35 5.30 25.87 3.56 25.35 C 4.62 25.37 6.75 25.42 7.81 25.45 C 6.87 24.43 5.93 23.41 4.99 22.40 C 8.48 20.61 12.38 20.47 16.15 21.27 C 14.48 20.21 12.79 19.17 11.09 18.15 C 11.67 14.76 12.00 11.35 12.48 7.95 C 12.72 8.95 13.20 10.96 13.44 11.96 C 13.74 11.45 14.35 10.43 14.66 9.92 C 13.90 8.91 13.14 7.91 12.37 6.90 C 12.90 4.55 13.54 2.22 14.48 0.00 L 15.40 0.00 C 14.69 1.04 15.10 4.51 16.70 3.64 C 16.75 3.16 16.86 2.21 16.92 1.73 C 16.87 1.30 16.77 0.43 16.72 0.00 L 19.00 0.00 C 18.39 2.12 18.43 4.30 20.12 5.92 C 20.84 3.96 21.41 1.94 22.19 0.00 L 26.89 0.00 C 26.53 1.79 25.76 3.72 26.58 5.49 C 27.78 8.39 30.22 10.54 31.54 13.37 C 32.69 15.65 32.90 18.23 33.41 20.69 C 34.68 20.79 35.94 20.90 37.21 21.00 C 36.31 22.54 35.38 24.06 34.35 25.51 C 36.48 25.91 38.61 26.29 40.71 26.86 C 42.93 25.83 45.15 24.78 47.39 23.78 C 46.69 15.87 47.04 7.92 47.35 0.00 L 48.00 0.00 L 48.00 27.25 C 47.63 27.00 46.88 26.49 46.51 26.24 L 47.49 24.56 C 43.95 26.26 40.30 27.80 37.10 30.14 L 39.02 33.27 C 38.31 33.24 36.89 33.20 36.18 33.18 L 37.12 31.92 C 36.36 32.00 34.84 32.18 34.08 32.26 C 34.86 32.96 35.61 33.67 36.38 34.38 L 36.75 34.44 C 39.06 34.07 38.48 37.25 39.09 38.60 C 39.61 38.24 40.12 37.88 40.63 37.52 C 41.89 38.43 43.16 39.32 44.39 40.27 C 43.07 39.64 41.76 38.96 40.48 38.25 C 38.96 41.68 41.91 44.53 43.56 47.24 C 43.63 46.25 43.76 44.27 43.83 43.28 C 44.31 44.85 44.75 46.43 45.24 48.00 L 43.60 48.00 C 42.45 46.97 41.35 45.88 40.24 44.80 C 39.15 45.88 38.06 46.96 36.93 48.00 L 35.52 48.00 C 37.00 46.67 38.38 45.23 39.77 43.81 C 37.97 41.46 36.12 39.14 34.32 36.79 C 32.42 38.04 30.57 39.38 28.73 40.72 C 28.92 43.14 29.09 45.58 29.33 48.00 L 28.34 48.00 C 28.08 45.78 27.99 43.56 27.88 41.33 C 25.67 43.70 23.46 46.11 20.81 48.00 L 8.35 48.00 C 9.87 43.71 11.55 39.47 12.93 35.14 C 12.72 34.37 12.28 32.83 12.07 32.06 C 10.13 37.28 9.50 42.89 7.24 48.00 L 5.12 48.00 C 4.72 44.55 3.78 41.10 4.41 37.62 C 3.19 37.72 1.98 37.83 0.77 37.95 C 0.81 39.95 0.71 41.97 0.93 43.97 C 1.98 45.46 3.34 46.70 4.60 48.00 L 2.05 48.00 C 2.02 47.60 1.95 46.79 1.92 46.38 L 1.23 46.19 C 1.23 46.64 1.24 47.55 1.24 48.00 L 0.00 48.00 L 0.00 0.00 M 14.21 3.00 C 14.87 3.67 14.87 3.67 14.21 3.00 M 25.65 10.82 C 23.87 8.31 22.86 5.43 22.21 2.45 C 21.00 5.74 22.61 9.22 25.65 10.82 M 14.48 7.71 C 14.68 8.93 15.31 9.86 16.36 10.53 C 17.70 10.19 16.88 7.92 16.16 7.24 C 15.74 7.36 14.90 7.59 14.48 7.71 M 18.12 8.68 C 16.55 11.68 21.35 8.94 18.12 8.68 M 19.85 16.86 C 18.95 17.03 17.17 17.39 16.27 17.57 C 17.49 17.84 18.71 18.03 19.96 18.12 C 20.51 17.20 21.03 16.25 21.52 15.29 C 21.93 15.98 22.73 17.35 23.13 18.03 C 24.71 17.96 26.30 17.89 27.89 17.84 C 27.18 16.13 27.17 14.38 27.90 12.67 C 26.90 11.92 25.84 11.26 24.81 10.56 L 24.34 12.05 L 23.81 10.31 C 21.53 11.84 19.46 13.84 19.85 16.86 M 26.19 21.19 C 24.95 20.49 23.71 19.81 22.46 19.13 C 22.88 19.98 23.72 21.70 24.14 22.55 C 22.89 23.50 21.95 25.67 20.11 24.78 C 19.68 23.37 19.81 21.90 19.81 20.45 C 19.33 20.70 18.37 21.19 17.88 21.44 C 18.40 23.16 18.88 24.90 19.59 26.56 C 23.21 25.15 26.50 27.29 29.24 29.38 C 30.18 25.93 30.60 22.32 30.20 18.76 C 28.88 19.58 27.54 20.40 26.19 21.19 M 21.09 20.38 C 19.56 23.34 24.39 20.54 21.09 20.38 M 33.91 25.05 C 35.02 24.30 35.43 23.37 35.15 22.26 C 33.07 21.43 30.78 25.92 33.91 25.05 M 12.19 24.37 C 12.87 25.04 12.87 25.04 12.19 24.37 M 12.83 25.16 C 13.88 28.26 11.94 32.78 15.28 34.74 C 13.35 31.60 15.66 27.90 12.83 25.16 M 16.07 28.72 C 17.15 29.90 18.62 27.56 17.56 26.76 C 17.19 27.25 16.44 28.23 16.07 28.72 M 20.39 27.53 C 19.45 28.11 15.91 28.87 17.98 30.07 C 20.67 29.50 23.97 27.64 26.18 30.44 C 26.54 30.00 26.89 29.54 27.24 29.09 C 25.03 28.35 22.83 26.84 20.39 27.53 M 32.76 26.24 C 32.77 28.53 33.21 30.71 35.82 31.23 C 35.37 30.51 34.47 29.07 34.02 28.35 L 33.97 27.38 C 34.84 28.19 35.71 29.00 36.59 29.81 C 37.56 29.09 38.30 28.24 38.83 27.24 C 36.82 26.86 34.78 26.60 32.76 26.24 M 0.84 31.46 C 0.78 33.47 0.73 35.49 0.74 37.50 C 4.51 37.34 6.74 34.40 9.22 32.00 C 8.48 33.51 7.56 34.92 6.75 36.39 C 10.18 34.89 12.38 30.86 9.70 27.64 C 6.77 28.97 3.87 30.38 0.84 31.46 M 16.24 33.80 C 17.87 33.95 18.46 31.34 17.98 30.07 C 16.32 29.99 15.25 32.50 16.24 33.80 M 17.96 32.66 L 20.76 31.83 C 19.38 34.06 17.63 36.34 18.85 39.06 L 19.70 39.17 C 19.90 38.44 20.30 36.97 20.50 36.23 C 21.23 37.12 21.86 38.07 22.38 39.09 C 23.22 36.95 24.64 36.76 26.44 38.13 C 27.82 36.13 28.35 33.72 29.01 31.42 C 28.34 31.54 27.00 31.79 26.33 31.91 C 24.14 29.04 19.62 29.40 17.96 32.66 Z" />
<path fill="#010101" opacity="1.00" d=" M 39.90 22.09 C 41.22 21.71 44.14 22.30 44.26 23.78 C 42.92 24.15 39.75 23.93 39.90 22.09 Z" />
<path fill="#010101" opacity="1.00" d=" M 45.61 27.56 C 46.21 27.58 47.40 27.64 48.00 27.66 L 48.00 48.00 L 47.04 48.00 C 47.06 41.16 47.54 34.22 45.61 27.56 Z" />
<path fill="#010101" opacity="1.00" d=" M 8.48 30.24 C 8.77 30.56 8.77 30.56 8.48 30.24 Z" />
</g>
<g id="#fdfdfdff">
<path fill="#fdfdfd" opacity="1.00" d=" M 0.99 0.00 L 14.48 0.00 C 13.54 2.22 12.90 4.55 12.37 6.90 C 13.14 7.91 13.90 8.91 14.66 9.92 C 14.35 10.43 13.74 11.45 13.44 11.96 C 13.20 10.96 12.72 8.95 12.48 7.95 C 12.00 11.35 11.67 14.76 11.09 18.15 C 12.79 19.17 14.48 20.21 16.15 21.27 C 12.38 20.47 8.48 20.61 4.99 22.40 C 5.93 23.41 6.87 24.43 7.81 25.45 C 6.75 25.42 4.62 25.37 3.56 25.35 C 5.30 25.87 7.05 26.35 8.79 26.87 C 7.06 27.61 5.31 28.30 3.56 29.01 C 3.11 28.66 2.19 27.96 1.74 27.60 C 2.00 28.20 2.54 29.39 2.81 29.99 L 0.97 30.04 C 0.97 29.11 0.97 27.25 0.97 26.32 C 1.70 26.59 3.16 27.14 3.90 27.41 C 3.30 26.92 2.11 25.94 1.51 25.45 C 2.58 24.73 3.65 24.01 4.70 23.26 C 3.51 23.60 2.32 23.95 1.14 24.32 C 0.88 16.21 0.88 8.11 0.99 0.00 Z" />
<path fill="#fdfdfd" opacity="1.00" d=" M 15.40 0.00 L 16.72 0.00 C 16.77 0.43 16.87 1.30 16.92 1.73 C 16.86 2.21 16.75 3.16 16.70 3.64 C 15.10 4.51 14.69 1.04 15.40 0.00 Z" />
<path fill="#fdfdfd" opacity="1.00" d=" M 19.00 0.00 L 22.19 0.00 C 21.41 1.94 20.84 3.96 20.12 5.92 C 18.43 4.30 18.39 2.12 19.00 0.00 Z" />
<path fill="#fdfdfd" opacity="1.00" d=" M 26.89 0.00 L 47.35 0.00 C 47.04 7.92 46.69 15.87 47.39 23.78 C 45.15 24.78 42.93 25.83 40.71 26.86 C 38.61 26.29 36.48 25.91 34.35 25.51 C 35.38 24.06 36.31 22.54 37.21 21.00 C 35.94 20.90 34.68 20.79 33.41 20.69 C 32.90 18.23 32.69 15.65 31.54 13.37 C 30.22 10.54 27.78 8.39 26.58 5.49 C 25.76 3.72 26.53 1.79 26.89 0.00 M 39.90 22.09 C 39.75 23.93 42.92 24.15 44.26 23.78 C 44.14 22.30 41.22 21.71 39.90 22.09 Z" />
<path fill="#fdfdfd" opacity="1.00" d=" M 14.21 3.00 C 14.87 3.67 14.87 3.67 14.21 3.00 Z" />
<path fill="#fdfdfd" opacity="1.00" d=" M 25.65 10.82 C 22.61 9.22 21.00 5.74 22.21 2.45 C 22.86 5.43 23.87 8.31 25.65 10.82 Z" />
<path fill="#fdfdfd" opacity="1.00" d=" M 14.48 7.71 C 14.90 7.59 15.74 7.36 16.16 7.24 C 16.88 7.92 17.70 10.19 16.36 10.53 C 15.31 9.86 14.68 8.93 14.48 7.71 Z" />
<path fill="#fdfdfd" opacity="1.00" d=" M 18.12 8.68 C 21.35 8.94 16.55 11.68 18.12 8.68 Z" />
<path fill="#fdfdfd" opacity="1.00" d=" M 19.85 16.86 C 19.46 13.84 21.53 11.84 23.81 10.31 L 24.34 12.05 L 24.81 10.56 C 25.84 11.26 26.90 11.92 27.90 12.67 C 27.17 14.38 27.18 16.13 27.89 17.84 C 26.30 17.89 24.71 17.96 23.13 18.03 C 22.73 17.35 21.93 15.98 21.52 15.29 C 21.03 16.25 20.51 17.20 19.96 18.12 C 18.71 18.03 17.49 17.84 16.27 17.57 C 17.17 17.39 18.95 17.03 19.85 16.86 Z" />
<path fill="#fdfdfd" opacity="1.00" d=" M 26.19 21.19 C 27.54 20.40 28.88 19.58 30.20 18.76 C 30.60 22.32 30.18 25.93 29.24 29.38 C 26.50 27.29 23.21 25.15 19.59 26.56 C 18.88 24.90 18.40 23.16 17.88 21.44 C 18.37 21.19 19.33 20.70 19.81 20.45 C 19.81 21.90 19.68 23.37 20.11 24.78 C 21.95 25.67 22.89 23.50 24.14 22.55 C 23.72 21.70 22.88 19.98 22.46 19.13 C 23.71 19.81 24.95 20.49 26.19 21.19 Z" />
<path fill="#fdfdfd" opacity="1.00" d=" M 21.09 20.38 C 24.39 20.54 19.56 23.34 21.09 20.38 Z" />
<path fill="#fdfdfd" opacity="1.00" d=" M 33.91 25.05 C 30.78 25.92 33.07 21.43 35.15 22.26 C 35.43 23.37 35.02 24.30 33.91 25.05 Z" />
<path fill="#fdfdfd" opacity="1.00" d=" M 12.19 24.37 C 12.87 25.04 12.87 25.04 12.19 24.37 Z" />
<path fill="#fdfdfd" opacity="1.00" d=" M 47.49 24.56 L 46.51 26.24 C 46.88 26.49 47.63 27.00 48.00 27.25 L 48.00 27.66 C 47.40 27.64 46.21 27.58 45.61 27.56 C 47.54 34.22 47.06 41.16 47.04 48.00 L 45.24 48.00 C 44.75 46.43 44.31 44.85 43.83 43.28 C 43.76 44.27 43.63 46.25 43.56 47.24 C 41.91 44.53 38.96 41.68 40.48 38.25 C 41.76 38.96 43.07 39.64 44.39 40.27 C 43.16 39.32 41.89 38.43 40.63 37.52 C 40.12 37.88 39.61 38.24 39.09 38.60 C 38.48 37.25 39.06 34.07 36.75 34.44 L 36.38 34.38 C 35.61 33.67 34.86 32.96 34.08 32.26 C 34.84 32.18 36.36 32.00 37.12 31.92 L 36.18 33.18 C 36.89 33.20 38.31 33.24 39.02 33.27 L 37.10 30.14 C 40.30 27.80 43.95 26.26 47.49 24.56 Z" />
<path fill="#fdfdfd" opacity="1.00" d=" M 12.83 25.16 C 15.66 27.90 13.35 31.60 15.28 34.74 C 11.94 32.78 13.88 28.26 12.83 25.16 Z" />
<path fill="#fdfdfd" opacity="1.00" d=" M 16.07 28.72 C 16.44 28.23 17.19 27.25 17.56 26.76 C 18.62 27.56 17.15 29.90 16.07 28.72 Z" />
<path fill="#fdfdfd" opacity="1.00" d=" M 20.39 27.53 C 22.83 26.84 25.03 28.35 27.24 29.09 C 26.89 29.54 26.54 30.00 26.18 30.44 C 23.97 27.64 20.67 29.50 17.98 30.07 C 15.91 28.87 19.45 28.11 20.39 27.53 Z" />
<path fill="#fdfdfd" opacity="1.00" d=" M 32.76 26.24 C 34.78 26.60 36.82 26.86 38.83 27.24 C 38.30 28.24 37.56 29.09 36.59 29.81 C 35.71 29.00 34.84 28.19 33.97 27.38 L 34.02 28.35 C 34.47 29.07 35.37 30.51 35.82 31.23 C 33.21 30.71 32.77 28.53 32.76 26.24 Z" />
<path fill="#fdfdfd" opacity="1.00" d=" M 0.84 31.46 C 3.87 30.38 6.77 28.97 9.70 27.64 C 12.38 30.86 10.18 34.89 6.75 36.39 C 7.56 34.92 8.48 33.51 9.22 32.00 C 6.74 34.40 4.51 37.34 0.74 37.50 C 0.73 35.49 0.78 33.47 0.84 31.46 M 8.48 30.24 C 8.77 30.56 8.77 30.56 8.48 30.24 Z" />
<path fill="#fdfdfd" opacity="1.00" d=" M 16.24 33.80 C 15.25 32.50 16.32 29.99 17.98 30.07 C 18.46 31.34 17.87 33.95 16.24 33.80 Z" />
<path fill="#fdfdfd" opacity="1.00" d=" M 17.96 32.66 C 19.62 29.40 24.14 29.04 26.33 31.91 C 27.00 31.79 28.34 31.54 29.01 31.42 C 28.35 33.72 27.82 36.13 26.44 38.13 C 24.64 36.76 23.22 36.95 22.38 39.09 C 21.86 38.07 21.23 37.12 20.50 36.23 C 20.30 36.97 19.90 38.44 19.70 39.17 L 18.85 39.06 C 17.63 36.34 19.38 34.06 20.76 31.83 L 17.96 32.66 Z" />
<path fill="#fdfdfd" opacity="1.00" d=" M 7.24 48.00 C 9.50 42.89 10.13 37.28 12.07 32.06 C 12.28 32.83 12.72 34.37 12.93 35.14 C 11.55 39.47 9.87 43.71 8.35 48.00 L 7.24 48.00 Z" />
<path fill="#fdfdfd" opacity="1.00" d=" M 0.77 37.95 C 1.98 37.83 3.19 37.72 4.41 37.62 C 3.78 41.10 4.72 44.55 5.12 48.00 L 4.60 48.00 C 3.34 46.70 1.98 45.46 0.93 43.97 C 0.71 41.97 0.81 39.95 0.77 37.95 Z" />
<path fill="#fdfdfd" opacity="1.00" d=" M 28.73 40.72 C 30.57 39.38 32.42 38.04 34.32 36.79 C 36.12 39.14 37.97 41.46 39.77 43.81 C 38.38 45.23 37.00 46.67 35.52 48.00 L 29.33 48.00 C 29.09 45.58 28.92 43.14 28.73 40.72 Z" />
<path fill="#fdfdfd" opacity="1.00" d=" M 20.81 48.00 C 23.46 46.11 25.67 43.70 27.88 41.33 C 27.99 43.56 28.08 45.78 28.34 48.00 L 20.81 48.00 Z" />
<path fill="#fdfdfd" opacity="1.00" d=" M 36.93 48.00 C 38.06 46.96 39.15 45.88 40.24 44.80 C 41.35 45.88 42.45 46.97 43.60 48.00 L 36.93 48.00 Z" />
<path fill="#fdfdfd" opacity="1.00" d=" M 1.23 46.19 L 1.92 46.38 C 1.95 46.79 2.02 47.60 2.05 48.00 L 1.24 48.00 C 1.24 47.55 1.23 46.64 1.23 46.19 Z" />
</g>
</svg>
