<?xml version="1.0" encoding="UTF-8" ?>
<!DOCTYPE svg PUBLIC "-//W3C//DTD SVG 1.1//EN" "http://www.w3.org/Graphics/SVG/1.1/DTD/svg11.dtd">
<svg width="224pt" height="16pt" viewBox="0 0 224 16" version="1.1" xmlns="http://www.w3.org/2000/svg">
<g id="#48a810ff">
<path fill="#48a810" opacity="1.00" d=" M 0.00 0.00 L 3.85 0.00 L 3.86 1.00 C 3.87 1.37 3.89 2.11 3.90 2.49 C 3.39 2.78 2.35 3.38 1.84 3.67 C 1.66 3.99 1.31 4.62 1.13 4.94 L 1.19 5.67 C 1.70 5.89 2.72 6.34 3.23 6.56 C 3.36 6.66 3.61 6.85 3.74 6.95 C 3.94 7.53 4.34 8.68 4.54 9.25 L 4.53 10.29 C 4.50 10.39 4.44 10.57 4.40 10.67 C 3.50 12.08 2.60 13.50 1.74 14.94 C 4.81 14.92 7.96 14.74 10.84 16.00 L 0.00 16.00 L 0.00 0.00 Z" />
<path fill="#48a810" opacity="1.00" d=" M 9.03 0.00 L 20.16 0.00 L 20.09 1.57 L 20.04 2.43 C 19.53 2.51 18.52 2.67 18.01 2.75 C 17.83 3.03 17.48 3.59 17.31 3.86 C 17.36 4.51 17.45 5.81 17.50 6.46 L 17.01 6.46 C 17.14 6.58 17.41 6.83 17.54 6.95 C 19.69 8.14 22.32 9.43 24.67 7.71 C 24.47 8.91 23.83 10.64 21.88 8.92 L 21.79 9.97 C 21.31 10.21 20.35 10.71 19.87 10.96 C 19.14 12.27 18.43 13.58 17.73 14.90 C 20.80 14.91 23.95 14.82 26.84 16.00 L 13.92 16.00 C 15.43 15.23 14.55 13.04 12.98 14.12 C 12.89 12.26 11.62 10.77 10.69 9.25 L 11.53 8.85 C 11.83 9.19 12.43 9.86 12.72 10.20 C 13.00 10.44 13.56 10.91 13.84 11.15 C 15.95 9.37 16.90 6.60 14.45 4.62 C 14.69 3.63 14.93 2.63 15.17 1.63 C 14.35 2.47 13.52 3.30 12.71 4.14 C 12.27 3.85 11.40 3.27 10.97 2.97 C 10.74 2.41 10.28 1.27 10.05 0.70 L 9.03 0.00 Z" />
<path fill="#48a810" opacity="1.00" d=" M 44.86 0.00 L 51.92 0.00 L 51.87 1.21 C 51.85 1.56 51.83 2.25 51.82 2.60 C 51.34 2.86 50.37 3.38 49.88 3.64 C 49.68 3.96 49.29 4.59 49.09 4.90 L 49.01 5.89 C 49.48 5.92 50.41 5.97 50.87 5.99 C 51.15 7.37 51.74 8.83 53.12 9.43 L 52.69 10.08 L 52.22 10.32 C 50.23 10.52 49.20 12.37 49.22 14.22 L 49.72 14.38 C 52.70 15.28 55.94 14.73 58.84 16.00 L 45.86 16.00 C 46.10 15.51 46.57 14.54 46.81 14.06 C 46.46 14.06 45.76 14.06 45.42 14.06 C 44.74 12.85 44.02 11.66 43.29 10.48 C 43.18 9.67 42.96 8.07 42.86 7.27 L 43.32 7.81 C 43.72 8.09 44.52 8.65 44.92 8.92 C 45.09 9.24 45.43 9.86 45.61 10.17 C 46.40 9.31 47.19 8.46 47.98 7.60 C 48.01 6.98 48.07 5.74 48.10 5.12 C 47.51 4.86 46.33 4.34 45.74 4.08 L 44.93 3.67 C 45.20 2.44 45.17 1.22 44.86 0.00 Z" />
<path fill="#48a810" opacity="1.00" d=" M 57.35 0.00 L 68.15 0.00 L 68.02 1.03 L 67.84 2.29 C 67.36 2.41 66.38 2.66 65.89 2.78 C 65.71 3.02 65.34 3.49 65.15 3.73 C 65.23 4.40 65.39 5.74 65.47 6.41 C 65.51 6.50 65.57 6.67 65.61 6.76 C 66.74 7.42 67.91 7.99 69.13 8.48 C 67.30 10.15 65.84 12.18 64.66 14.36 L 65.70 14.50 C 68.75 15.00 71.93 14.87 74.86 16.00 L 61.88 16.00 C 62.11 15.51 62.59 14.52 62.82 14.03 C 62.46 14.10 61.73 14.24 61.36 14.31 C 60.79 13.03 60.17 11.78 59.61 10.49 C 59.62 10.21 59.63 9.65 59.64 9.36 L 60.35 9.86 C 61.62 11.96 63.20 9.78 63.94 8.60 C 64.61 7.07 63.25 5.86 62.55 4.66 C 62.76 3.65 62.97 2.63 63.18 1.62 L 62.47 1.96 C 61.90 2.21 60.75 2.70 60.18 2.95 L 59.04 2.82 C 58.81 2.31 58.36 1.29 58.14 0.78 L 57.35 0.00 Z" />
<path fill="#48a810" opacity="1.00" d=" M 92.87 0.00 L 96.99 0.00 C 96.89 1.34 97.59 2.09 99.07 2.25 C 99.26 2.52 99.64 3.06 99.83 3.32 L 100.27 3.97 C 99.50 4.04 97.97 4.17 97.20 4.24 L 97.19 4.64 C 97.19 5.10 97.20 6.02 97.20 6.48 L 97.36 8.14 C 97.40 8.32 97.46 8.66 97.50 8.83 C 97.43 9.37 97.29 10.44 97.22 10.97 C 99.15 12.16 101.09 13.33 102.95 14.62 L 103.40 15.14 L 102.80 16.00 L 93.88 16.00 C 94.11 15.51 94.59 14.52 94.83 14.03 C 94.48 14.10 93.76 14.24 93.40 14.31 C 92.81 12.94 92.05 11.65 91.19 10.42 C 91.14 9.79 91.03 8.51 90.97 7.88 L 91.67 7.42 C 91.96 7.80 92.53 8.55 92.82 8.92 C 93.01 9.23 93.40 9.86 93.59 10.17 C 94.38 9.32 95.18 8.48 95.98 7.64 C 96.01 7.01 96.06 5.76 96.09 5.13 C 95.51 4.87 94.35 4.34 93.77 4.08 L 92.93 3.67 C 93.20 2.44 93.17 1.21 92.87 0.00 Z" />
<path fill="#48a810" opacity="1.00" d=" M 104.69 0.00 L 114.07 0.00 C 113.91 1.28 114.48 1.99 115.79 2.14 C 115.44 2.51 114.72 3.27 114.37 3.65 C 114.30 4.01 114.17 4.75 114.10 5.11 C 114.40 5.66 114.99 6.77 115.28 7.32 C 115.01 8.73 114.39 9.95 112.99 10.51 C 113.92 11.01 114.85 11.51 115.75 12.06 C 116.32 13.15 117.04 14.14 117.87 15.05 L 117.93 16.00 L 104.88 16.00 C 105.80 14.44 106.59 12.81 107.47 11.23 L 108.24 10.87 C 109.46 9.86 109.20 9.34 107.47 9.31 C 108.32 7.78 109.30 6.31 110.15 4.78 C 109.62 3.80 108.79 3.21 107.65 2.99 L 107.00 2.76 C 106.45 1.68 105.68 0.71 104.69 0.00 Z" />
<path fill="#48a810" opacity="1.00" d=" M 121.69 0.00 L 162.89 0.00 L 162.94 0.99 C 162.96 1.56 163.01 2.70 163.04 3.27 C 162.67 3.80 161.94 4.87 161.58 5.41 C 161.56 5.44 161.52 5.52 161.50 5.56 L 160.83 7.12 C 161.27 7.08 162.15 6.99 162.59 6.95 L 163.53 6.84 C 163.31 8.32 164.59 9.30 165.76 9.88 L 166.32 10.77 C 166.06 11.01 165.52 11.49 165.25 11.73 C 164.44 12.50 163.61 13.26 162.78 14.01 C 163.40 14.19 164.65 14.55 165.27 14.73 L 165.83 14.89 L 166.05 16.00 L 134.79 16.00 C 134.83 15.56 134.92 14.68 134.96 14.24 C 136.73 14.07 138.52 13.94 140.31 13.84 L 140.79 13.82 L 140.81 13.37 L 140.33 13.30 C 139.72 13.21 138.50 13.02 137.89 12.93 C 138.17 12.40 138.73 11.33 139.01 10.80 L 139.86 11.17 L 140.46 12.08 C 142.79 10.73 143.61 8.35 142.30 5.93 C 142.60 4.84 142.90 3.75 143.21 2.66 C 142.28 3.53 141.36 4.40 140.43 5.26 C 139.85 4.05 138.97 3.14 137.78 2.51 C 137.68 2.45 137.48 2.31 137.39 2.24 C 135.74 0.48 133.26 0.96 131.12 1.00 L 130.97 1.99 C 130.93 2.47 130.85 3.42 130.81 3.89 C 130.51 4.12 129.92 4.58 129.62 4.82 C 127.92 5.63 129.22 7.68 130.69 7.70 L 130.34 8.32 C 129.79 9.19 129.23 10.05 128.66 10.90 C 129.25 10.89 130.41 10.87 131.00 10.86 C 131.30 11.55 131.90 12.92 132.20 13.61 L 132.42 14.24 C 132.48 14.42 132.59 14.78 132.65 14.96 L 132.97 16.00 L 120.77 16.00 C 122.08 14.45 123.18 12.74 124.33 11.08 L 125.15 10.75 C 126.45 9.80 126.22 9.30 124.47 9.23 C 125.22 7.98 126.02 6.76 126.75 5.50 C 127.93 4.09 125.62 3.33 124.66 2.99 L 124.01 2.75 C 123.44 1.68 122.68 0.71 121.69 0.00 M 147.37 1.65 L 146.58 1.54 L 146.88 4.40 L 145.80 3.70 L 145.94 5.06 C 144.01 5.13 145.55 7.84 146.68 8.12 L 147.13 7.95 C 146.98 8.29 146.68 8.97 146.53 9.31 L 144.70 9.50 C 146.68 12.30 149.51 15.61 153.37 14.61 C 153.46 14.59 153.65 14.55 153.74 14.53 C 154.64 14.33 156.45 13.91 157.35 13.71 C 157.36 13.58 157.37 13.33 157.37 13.21 C 156.44 13.12 154.57 12.94 153.63 12.85 C 154.95 12.22 155.44 11.21 155.11 9.83 L 156.05 9.68 L 155.88 11.29 C 158.10 10.23 160.14 7.83 158.36 5.42 C 158.58 4.75 159.04 3.41 159.26 2.74 C 158.31 3.53 157.41 4.40 156.39 5.11 C 156.16 3.64 155.31 2.78 153.84 2.52 C 153.72 2.42 153.49 2.20 153.38 2.10 L 152.85 0.96 C 150.66 0.89 148.47 0.91 146.29 1.02 C 146.56 1.18 147.10 1.50 147.37 1.65 Z" />
<path fill="#48a810" opacity="1.00" d=" M 168.28 0.00 L 178.88 0.00 L 178.93 1.00 C 178.95 1.57 179.01 2.70 179.03 3.27 C 178.70 3.75 178.02 4.72 177.69 5.20 C 177.60 5.36 177.42 5.69 177.34 5.86 L 176.98 6.71 C 177.39 6.78 178.21 6.92 178.62 6.99 L 179.60 7.04 C 179.84 7.59 180.34 8.70 180.58 9.25 L 180.72 10.25 L 180.28 10.38 C 179.71 10.59 178.56 11.01 177.99 11.22 C 178.30 11.71 178.92 12.71 179.22 13.20 C 178.82 13.22 178.00 13.24 177.60 13.26 L 177.36 14.08 L 177.98 14.52 C 180.90 15.20 184.02 14.75 186.83 16.00 L 169.58 16.00 L 169.86 15.84 C 170.42 15.60 171.55 15.14 172.11 14.90 C 174.46 15.02 174.33 11.91 171.94 13.24 L 170.70 12.38 C 170.67 12.34 170.60 12.26 170.57 12.22 C 170.34 11.12 170.43 10.02 170.84 8.93 L 171.73 9.93 C 175.93 9.39 174.57 4.74 175.06 1.81 C 174.23 2.48 173.42 3.17 172.55 3.78 C 171.90 3.55 170.61 3.09 169.97 2.86 C 169.77 2.32 169.38 1.25 169.18 0.71 L 168.28 0.00 Z" />
<path fill="#48a810" opacity="1.00" d=" M 183.93 0.00 L 199.18 0.00 L 198.41 0.80 C 198.31 1.40 198.11 2.61 198.01 3.22 C 196.23 2.75 194.45 2.28 192.66 1.83 C 193.74 3.00 194.83 4.16 195.93 5.31 C 195.10 5.50 193.42 5.89 192.59 6.08 C 192.87 7.06 193.18 8.03 193.52 9.00 C 193.83 9.29 194.46 9.86 194.77 10.14 C 195.12 10.60 195.82 11.52 196.17 11.97 C 195.94 12.48 195.46 13.48 195.22 13.98 C 193.59 13.66 193.18 14.16 193.97 15.46 L 194.45 16.00 L 189.88 16.00 C 191.43 15.49 190.99 12.93 189.29 14.14 C 188.93 13.18 188.58 12.22 188.23 11.27 C 189.16 10.39 190.11 9.52 190.96 8.56 C 191.14 7.32 190.55 6.14 190.30 4.95 C 190.59 3.84 190.90 2.73 191.21 1.62 C 190.43 2.41 189.67 3.21 188.86 3.96 C 188.12 3.68 186.65 3.12 185.91 2.84 C 185.69 2.31 185.23 1.25 185.01 0.72 L 183.93 0.00 Z" />
<path fill="#48a810" opacity="1.00" d=" M 204.89 0.00 L 215.19 0.00 L 214.40 0.80 C 214.30 1.41 214.11 2.61 214.01 3.21 C 212.24 2.75 210.48 2.29 208.71 1.85 C 209.47 2.70 210.25 3.54 211.04 4.37 L 209.96 3.84 C 208.03 5.75 208.98 8.27 210.98 9.59 C 211.08 9.59 211.27 9.60 211.36 9.61 C 213.69 8.77 213.90 10.48 213.79 12.30 C 213.69 12.37 213.48 12.50 213.38 12.56 C 212.43 12.76 210.53 13.16 209.58 13.37 C 211.15 14.42 212.79 15.39 214.59 16.00 L 197.57 16.00 L 197.90 15.75 C 200.14 14.79 202.65 14.97 205.04 14.78 C 207.35 15.31 207.06 11.83 204.85 13.09 C 205.12 12.58 205.66 11.55 205.92 11.04 C 205.39 10.88 204.33 10.56 203.79 10.41 C 203.73 9.92 203.60 8.95 203.53 8.47 C 203.56 8.39 203.61 8.24 203.64 8.16 C 204.28 7.80 205.57 7.08 206.21 6.72 L 207.42 6.67 C 206.69 5.61 205.95 4.54 205.22 3.49 C 205.11 2.32 205.00 1.16 204.89 0.00 Z" />
<path fill="#48a810" opacity="1.00" d=" M 220.90 0.00 L 224.00 0.00 L 224.00 16.00 L 217.59 16.00 C 217.98 15.73 218.75 15.19 219.14 14.92 C 221.38 14.98 221.26 11.83 218.97 13.09 C 218.95 12.66 218.90 11.80 218.88 11.36 L 218.14 11.01 C 218.45 10.42 219.08 9.25 219.39 8.66 C 219.48 8.57 219.65 8.37 219.73 8.27 C 220.35 7.87 221.59 7.06 222.21 6.65 L 223.45 6.68 C 222.70 5.61 221.96 4.56 221.21 3.50 C 221.10 2.33 221.00 1.17 220.90 0.00 Z" />
<path fill="#48a810" opacity="1.00" d=" M 28.84 4.37 C 29.86 3.53 30.83 2.63 31.70 1.63 C 31.72 3.51 33.38 4.55 34.93 5.15 C 35.20 5.43 35.73 5.98 35.99 6.26 C 36.20 6.78 36.62 7.84 36.83 8.36 C 36.94 8.66 37.16 9.26 37.27 9.55 C 36.97 9.89 36.35 10.56 36.05 10.89 C 35.27 12.23 34.53 13.58 33.80 14.94 C 36.84 14.91 39.98 14.76 42.84 16.00 L 29.91 16.00 C 31.40 15.22 30.52 13.05 28.95 14.10 C 28.54 12.22 27.58 10.53 26.85 8.77 L 27.32 9.13 C 27.76 9.31 28.63 9.68 29.07 9.86 L 29.27 11.29 C 30.67 9.91 32.80 8.48 31.99 6.19 C 31.43 5.90 30.32 5.30 29.76 5.01 L 28.68 4.52 L 28.84 4.37 Z" />
<path fill="#48a810" opacity="1.00" d=" M 76.84 4.39 C 77.86 3.54 78.84 2.64 79.71 1.64 C 79.65 3.44 81.08 4.90 82.85 4.97 C 83.32 5.91 83.79 6.86 84.27 7.80 C 85.53 7.60 86.79 7.41 88.04 7.18 C 86.21 7.78 85.46 9.19 85.54 11.04 C 85.31 10.98 84.87 10.87 84.65 10.81 C 82.38 9.51 81.34 12.44 81.27 14.21 L 81.73 14.35 C 84.71 15.26 87.93 14.77 90.84 16.00 L 77.94 16.00 C 79.52 15.32 78.60 12.89 77.08 14.24 C 76.94 12.32 75.60 10.85 74.62 9.30 L 75.64 8.53 C 75.95 8.88 76.56 9.58 76.86 9.93 C 77.04 10.22 77.41 10.82 77.59 11.11 C 78.46 10.25 79.35 9.39 80.23 8.54 C 80.11 6.97 79.63 5.32 77.82 5.04 L 76.68 4.54 L 76.84 4.39 Z" />
</g>
<g id="#5b3c40ff">
<path fill="#5b3c40" opacity="1.00" d=" M 3.85 0.00 L 9.03 0.00 L 10.05 0.70 C 10.28 1.27 10.74 2.41 10.97 2.97 C 11.40 3.27 12.27 3.85 12.71 4.14 C 12.29 4.57 11.46 5.41 11.05 5.83 C 10.08 6.78 9.10 7.71 8.10 8.61 C 6.62 8.12 5.16 7.59 3.74 6.95 L 3.51 6.68 L 3.23 6.56 C 2.72 6.34 1.70 5.89 1.19 5.67 L 1.13 4.94 C 1.55 4.92 2.39 4.88 2.80 4.86 C 2.56 4.57 2.08 3.97 1.84 3.67 C 2.35 3.38 3.39 2.78 3.90 2.49 C 3.49 5.07 5.73 6.36 7.99 6.28 C 7.61 5.20 7.26 4.11 6.94 3.02 C 7.45 3.00 8.48 2.95 9.00 2.93 C 9.00 2.45 9.00 1.50 9.00 1.03 C 7.29 1.02 5.58 1.01 3.86 1.00 L 3.85 0.00 Z" />
</g>
<g id="#4b2a32ff">
<path fill="#4b2a32" opacity="1.00" d=" M 20.16 0.00 L 25.78 0.00 L 26.83 1.78 L 26.97 2.03 C 24.76 3.45 22.33 4.55 20.34 6.29 C 24.16 5.51 27.58 3.50 30.69 1.22 C 31.05 1.15 31.77 0.99 32.13 0.91 L 31.70 1.63 C 30.83 2.63 29.86 3.53 28.84 4.37 C 28.80 4.41 28.72 4.48 28.68 4.51 L 28.68 4.52 L 29.76 5.01 L 29.87 6.28 C 29.21 6.30 27.88 6.36 27.21 6.39 L 27.15 7.11 C 27.08 7.53 26.92 8.36 26.85 8.77 C 26.50 9.72 26.14 10.67 25.78 11.61 L 25.05 11.96 C 25.05 11.52 25.03 10.65 25.03 10.22 C 24.69 10.40 24.00 10.76 23.66 10.95 C 23.23 11.31 22.35 12.04 21.91 12.40 C 21.83 12.48 21.65 12.65 21.57 12.73 L 21.97 12.80 C 22.70 12.75 24.18 12.66 24.92 12.61 C 25.62 13.48 26.46 14.20 27.42 14.77 C 27.68 14.66 28.19 14.43 28.45 14.32 L 28.95 14.10 C 29.02 14.58 29.16 15.53 29.24 16.00 L 26.84 16.00 C 23.95 14.82 20.80 14.91 17.73 14.90 C 18.43 13.58 19.14 12.27 19.87 10.96 C 20.33 10.91 21.25 10.80 21.70 10.75 L 21.79 9.97 L 21.88 8.92 C 23.83 10.64 24.47 8.91 24.67 7.71 C 22.32 9.43 19.69 8.14 17.54 6.95 L 17.50 6.46 C 17.45 5.81 17.36 4.51 17.31 3.86 C 18.16 4.75 19.71 5.11 20.38 3.81 C 20.50 3.68 20.75 3.43 20.88 3.30 L 21.98 2.93 C 22.23 2.81 22.74 2.58 22.99 2.46 C 23.46 2.16 24.42 1.54 24.89 1.24 C 23.33 0.96 21.48 0.53 20.09 1.57 L 20.16 0.00 M 19.75 6.24 C 20.30 6.80 20.30 6.80 19.75 6.24 Z" />
</g>
<g id="#49a813ff">
<path fill="#49a813" opacity="1.00" d=" M 25.78 0.00 L 33.33 0.00 L 32.65 0.77 L 32.13 0.91 C 31.77 0.99 31.05 1.15 30.69 1.22 C 29.45 1.45 28.21 1.71 26.99 2.02 C 26.95 1.96 26.87 1.84 26.83 1.78 L 25.78 0.00 Z" />
<path fill="#49a813" opacity="1.00" d=" M 73.78 0.00 L 81.31 0.00 L 80.65 0.86 L 80.16 0.98 C 79.79 1.04 79.07 1.18 78.71 1.24 L 77.53 1.44 C 76.94 1.55 75.76 1.78 75.17 1.89 C 75.08 1.85 74.91 1.78 74.82 1.74 L 73.78 0.00 Z" />
</g>
<g id="#4e2525ff">
<path fill="#4e2525" opacity="1.00" d=" M 33.33 0.00 L 38.98 0.00 L 40.55 0.93 C 38.36 0.99 36.18 1.00 34.00 1.00 L 34.00 2.04 C 35.82 2.02 37.63 1.98 39.45 1.86 C 40.80 1.24 42.27 1.02 43.71 0.69 C 43.45 2.03 43.86 3.02 44.93 3.67 L 45.74 4.08 L 45.88 5.27 C 45.21 5.28 43.88 5.29 43.21 5.29 L 43.13 5.96 C 43.06 6.29 42.92 6.94 42.86 7.27 C 42.44 8.71 42.00 10.15 41.49 11.57 L 40.96 11.97 C 40.98 11.53 41.02 10.67 41.04 10.23 C 40.69 10.40 39.99 10.75 39.64 10.92 C 39.21 11.29 38.35 12.03 37.91 12.39 C 37.83 12.48 37.66 12.64 37.57 12.72 L 37.97 12.80 C 38.70 12.76 40.16 12.68 40.89 12.64 C 41.59 13.48 42.40 14.21 43.30 14.84 C 43.52 14.76 43.97 14.58 44.19 14.49 L 45.42 14.06 C 45.36 14.55 45.24 15.52 45.18 16.00 L 42.84 16.00 C 39.98 14.76 36.84 14.91 33.80 14.94 C 34.53 13.58 35.27 12.23 36.05 10.89 C 36.48 10.92 37.34 10.97 37.77 11.00 C 37.65 10.64 37.40 9.92 37.27 9.55 C 37.16 9.26 36.94 8.66 36.83 8.36 C 38.21 8.71 39.65 8.65 41.06 8.64 C 40.04 6.80 37.83 6.64 35.99 6.26 C 35.73 5.98 35.20 5.43 34.93 5.15 C 34.33 3.61 33.57 2.14 32.65 0.77 L 33.33 0.00 M 41.24 2.12 C 41.47 5.32 44.34 0.60 41.24 2.12 M 36.09 3.22 C 34.60 6.41 39.24 3.43 36.09 3.22 M 37.53 5.22 C 37.98 5.40 38.87 5.75 39.32 5.93 C 39.73 4.95 39.49 4.08 38.60 3.32 C 38.33 3.79 37.80 4.75 37.53 5.22 Z" />
<path fill="#4e2525" opacity="1.00" d=" M 68.15 0.00 L 73.78 0.00 L 74.82 1.74 L 74.96 2.01 C 72.70 3.55 70.10 4.60 68.07 6.48 C 71.96 5.54 75.50 3.59 78.71 1.24 C 79.07 1.18 79.79 1.04 80.16 0.98 L 79.71 1.64 C 78.84 2.64 77.86 3.54 76.84 4.39 C 76.80 4.43 76.71 4.50 76.66 4.53 L 76.68 4.54 L 77.82 5.04 L 77.94 6.37 C 77.07 5.32 73.60 6.56 76.02 7.35 C 76.50 7.26 77.48 7.10 77.96 7.01 C 77.80 7.56 77.47 8.64 77.30 9.19 C 77.04 8.91 76.51 8.37 76.24 8.09 L 75.64 8.53 L 74.62 9.30 L 74.32 9.52 C 74.27 10.11 74.16 11.29 74.10 11.89 C 73.43 11.10 72.74 10.33 72.05 9.56 L 72.02 11.02 C 71.47 11.35 70.36 12.01 69.80 12.33 L 69.49 12.65 C 69.64 12.68 69.93 12.73 70.08 12.75 C 70.56 12.75 71.50 12.76 71.98 12.76 C 73.50 13.24 74.89 14.45 76.57 14.27 L 77.08 14.24 C 77.12 14.68 77.20 15.56 77.24 16.00 L 74.86 16.00 C 71.93 14.87 68.75 15.00 65.70 14.50 C 67.91 12.35 70.25 10.36 72.80 8.64 C 72.84 7.91 72.92 6.45 72.96 5.72 C 71.65 6.60 70.35 7.48 69.13 8.48 C 67.91 7.99 66.74 7.42 65.61 6.76 L 65.47 6.41 C 65.39 5.74 65.23 4.40 65.15 3.73 C 66.00 4.06 66.85 4.39 67.70 4.72 C 69.56 3.55 71.45 2.41 73.34 1.29 C 71.57 1.20 69.79 1.12 68.02 1.03 L 68.15 0.00 Z" />
<path fill="#4e2525" opacity="1.00" d=" M 81.31 0.00 L 86.98 0.00 L 88.55 0.93 C 86.37 0.99 84.18 1.00 82.00 1.00 L 82.00 2.05 C 83.81 2.02 85.61 1.98 87.42 1.86 C 88.79 1.29 90.27 1.02 91.71 0.69 C 91.45 2.02 91.86 3.02 92.93 3.67 L 93.77 4.08 L 93.94 5.36 C 93.07 4.33 89.60 5.56 92.02 6.34 C 92.51 6.26 93.49 6.09 93.99 6.00 C 93.81 6.56 93.47 7.67 93.30 8.23 C 93.05 7.93 92.54 7.33 92.29 7.03 L 91.67 7.42 L 90.97 7.88 L 89.99 8.52 C 90.02 9.69 90.09 10.86 90.20 12.02 C 89.44 11.13 88.66 10.25 87.88 9.38 L 88.02 11.01 C 87.47 11.34 86.36 12.01 85.81 12.34 L 85.49 12.66 C 85.64 12.68 85.94 12.73 86.09 12.75 C 86.57 12.75 87.52 12.74 88.00 12.73 C 89.42 13.28 90.72 14.26 92.27 14.42 L 93.40 14.31 C 93.34 14.73 93.21 15.58 93.15 16.00 L 90.84 16.00 C 87.93 14.77 84.71 15.26 81.73 14.35 C 83.20 13.67 84.09 12.27 84.65 10.81 C 84.87 10.87 85.31 10.98 85.54 11.04 C 85.46 9.19 86.21 7.78 88.04 7.18 C 86.79 7.41 85.53 7.60 84.27 7.80 C 83.79 6.86 83.32 5.91 82.85 4.97 C 82.20 3.55 81.45 2.19 80.65 0.86 L 81.31 0.00 M 89.26 2.12 C 89.49 5.38 92.29 0.55 89.26 2.12 M 84.11 3.24 C 82.64 6.42 87.27 3.45 84.11 3.24 Z" />
<path fill="#4e2525" opacity="1.00" d=" M 97.80 0.00 L 104.04 0.00 L 103.69 0.59 C 103.50 0.91 103.12 1.54 102.93 1.86 C 101.98 1.50 101.03 1.15 100.08 0.81 C 100.02 1.44 99.89 2.70 99.83 3.32 C 99.64 3.06 99.26 2.52 99.07 2.25 C 98.76 1.69 98.12 0.56 97.80 0.00 Z" />
<path fill="#4e2525" opacity="1.00" d=" M 162.89 0.00 L 168.28 0.00 L 169.18 0.71 C 169.19 1.18 169.21 2.12 169.22 2.58 L 169.97 2.86 C 170.61 3.09 171.90 3.55 172.55 3.78 L 171.99 4.07 C 169.07 4.43 170.33 7.06 170.84 8.93 C 170.43 10.02 170.34 11.12 170.57 12.22 C 170.60 12.26 170.67 12.34 170.70 12.38 L 171.94 13.24 C 171.98 13.65 172.07 14.49 172.11 14.90 C 171.55 15.14 170.42 15.60 169.86 15.84 C 169.73 15.88 169.48 15.96 169.35 16.00 L 166.05 16.00 L 165.83 14.89 L 165.75 14.32 L 165.26 14.23 L 165.27 14.73 C 164.65 14.55 163.40 14.19 162.78 14.01 C 163.61 13.26 164.44 12.50 165.25 11.73 C 165.51 12.18 166.02 13.08 166.28 13.53 C 167.21 12.77 167.23 11.85 166.32 10.77 L 165.76 9.88 C 165.84 8.45 165.31 7.36 164.17 6.61 C 164.73 6.35 165.87 5.82 166.43 5.55 L 167.16 5.16 C 167.38 4.67 167.82 3.69 168.04 3.20 C 167.99 2.65 167.91 1.55 167.86 1.00 C 166.22 1.00 164.58 0.99 162.94 0.99 L 162.89 0.00 M 168.27 12.25 C 168.85 12.81 168.85 12.81 168.27 12.25 Z" />
<path fill="#4e2525" opacity="1.00" d=" M 199.18 0.00 L 203.76 0.00 C 203.95 1.75 204.14 3.50 204.44 5.24 L 204.47 5.44 L 204.63 5.56 C 205.03 5.85 205.82 6.43 206.21 6.72 C 205.57 7.08 204.28 7.80 203.64 8.16 L 203.50 8.24 L 203.53 8.47 C 203.60 8.95 203.73 9.92 203.79 10.41 L 203.78 10.96 C 203.45 10.96 202.80 10.94 202.47 10.93 L 201.89 10.33 C 201.53 10.45 200.80 10.69 200.43 10.81 L 199.85 11.24 C 199.76 11.44 199.56 11.84 199.47 12.04 C 199.94 13.14 200.85 13.33 202.20 12.63 L 203.19 13.04 L 203.09 13.60 L 203.57 13.79 L 203.87 13.34 L 204.85 13.09 C 204.90 13.51 204.99 14.35 205.04 14.78 C 202.65 14.97 200.14 14.79 197.90 15.75 C 197.73 15.82 197.40 15.94 197.23 16.00 L 194.45 16.00 L 193.97 15.46 C 194.28 15.09 194.91 14.35 195.22 13.98 C 195.58 13.64 196.28 12.96 196.63 12.62 L 196.17 11.97 C 195.82 11.52 195.12 10.60 194.77 10.14 L 195.21 9.36 C 195.47 8.84 196.00 7.80 196.26 7.28 L 198.43 7.94 C 197.80 7.28 196.56 5.97 195.93 5.31 C 194.83 4.16 193.74 3.00 192.66 1.83 C 194.45 2.28 196.23 2.75 198.01 3.22 L 197.71 4.02 C 198.00 4.30 198.56 4.85 198.84 5.13 L 199.56 5.52 C 200.17 5.87 201.37 6.56 201.98 6.90 C 201.52 7.41 200.60 8.42 200.14 8.93 C 201.44 9.17 202.25 8.61 202.58 7.26 C 202.66 7.03 202.81 6.57 202.89 6.33 C 202.47 5.89 201.63 4.99 201.20 4.54 C 201.15 4.16 201.03 3.39 200.97 3.00 C 201.48 2.99 202.50 2.97 203.01 2.96 C 203.01 2.49 203.03 1.56 203.04 1.09 C 201.49 1.00 199.95 0.90 198.41 0.80 L 199.18 0.00 M 197.03 10.19 C 195.62 13.33 200.24 10.44 197.03 10.19 Z" />
<path fill="#4e2525" opacity="1.00" d=" M 215.19 0.00 L 219.77 0.00 C 219.95 1.71 220.13 3.42 220.37 5.12 L 220.42 5.51 L 220.75 5.72 C 221.11 5.95 221.84 6.42 222.21 6.65 C 221.59 7.06 220.35 7.87 219.73 8.27 C 219.65 8.37 219.48 8.57 219.39 8.66 C 219.08 9.25 218.45 10.42 218.14 11.01 C 218.35 11.53 218.76 12.57 218.97 13.09 C 219.01 13.55 219.10 14.46 219.14 14.92 C 218.75 15.19 217.98 15.73 217.59 16.00 L 214.59 16.00 C 212.79 15.39 211.15 14.42 209.58 13.37 C 210.53 13.16 212.43 12.76 213.38 12.56 L 213.80 12.49 L 213.79 12.30 C 213.90 10.48 213.69 8.77 211.36 9.61 L 210.98 9.59 C 211.37 7.40 212.55 6.88 214.53 8.01 C 213.38 6.78 212.22 5.56 211.04 4.37 C 210.25 3.54 209.47 2.70 208.71 1.85 C 210.48 2.29 212.24 2.75 214.01 3.21 L 213.72 4.01 C 214.00 4.29 214.56 4.85 214.84 5.13 L 215.56 5.52 C 216.17 5.86 217.39 6.56 217.99 6.90 C 217.53 7.40 216.59 8.40 216.12 8.90 C 217.48 9.17 218.31 8.62 218.59 7.26 C 219.13 6.07 217.72 5.37 217.26 4.44 C 217.19 4.08 217.06 3.36 216.99 3.00 C 217.49 2.99 218.51 2.97 219.01 2.96 C 219.01 2.50 219.02 1.56 219.02 1.09 C 217.48 1.00 215.94 0.90 214.40 0.80 L 215.19 0.00 M 215.70 13.40 C 215.94 13.01 216.43 12.24 216.67 11.85 C 216.47 9.18 213.44 13.30 215.70 13.40 M 216.23 14.21 C 216.82 14.85 216.82 14.85 216.23 14.21 Z" />
<path fill="#4e2525" opacity="1.00" d=" M 131.12 1.00 C 133.26 0.96 135.74 0.48 137.39 2.24 C 137.48 2.31 137.68 2.45 137.78 2.51 C 138.97 3.14 139.85 4.05 140.43 5.26 C 139.76 3.87 135.73 3.29 137.27 5.56 C 137.74 5.69 138.68 5.94 139.16 6.07 L 138.57 6.33 C 138.11 6.53 137.20 6.94 136.74 7.14 C 137.20 7.86 138.12 9.30 138.58 10.02 L 139.01 10.80 C 137.45 10.78 136.83 11.44 137.17 12.78 L 137.89 12.93 C 138.50 13.02 139.72 13.21 140.33 13.30 L 140.31 13.84 C 138.52 13.94 136.73 14.07 134.96 14.24 L 134.23 14.32 C 134.18 14.74 134.07 15.58 134.01 16.00 L 132.97 16.00 L 132.65 14.96 C 132.59 14.78 132.48 14.42 132.42 14.24 L 132.20 13.61 C 133.99 12.65 132.93 10.14 131.00 10.86 C 130.41 10.87 129.25 10.89 128.66 10.90 C 129.23 10.05 129.79 9.19 130.34 8.32 L 130.69 7.70 C 131.14 6.53 130.78 5.57 129.62 4.82 C 129.92 4.58 130.51 4.12 130.81 3.89 C 130.98 4.22 131.32 4.88 131.50 5.21 C 131.92 4.78 132.77 3.94 133.19 3.52 C 132.67 5.27 131.85 6.87 130.73 8.33 C 132.49 7.53 134.30 6.83 136.00 5.91 L 136.03 4.92 C 136.03 4.20 136.03 2.74 136.03 2.01 C 134.34 2.01 132.65 2.00 130.97 1.99 L 131.12 1.00 M 132.06 8.42 C 131.30 10.52 136.05 11.92 135.84 9.33 C 134.56 9.13 133.35 8.39 132.06 8.42 Z" />
<path fill="#4e2525" opacity="1.00" d=" M 147.37 1.65 C 147.10 1.50 146.56 1.18 146.29 1.02 C 148.47 0.91 150.66 0.89 152.85 0.96 L 153.38 2.10 C 153.49 2.20 153.72 2.42 153.84 2.52 C 155.31 2.78 156.16 3.64 156.39 5.11 L 155.87 5.41 C 155.53 5.59 154.84 5.96 154.50 6.14 C 154.58 6.67 154.73 7.72 154.81 8.25 C 154.89 8.65 155.03 9.43 155.11 9.83 C 153.78 10.13 152.95 11.47 153.04 12.78 L 153.63 12.85 C 154.57 12.94 156.44 13.12 157.37 13.21 L 157.35 13.71 C 156.45 13.91 154.64 14.33 153.74 14.53 C 153.65 14.55 153.46 14.59 153.37 14.61 C 149.51 15.61 146.68 12.30 144.70 9.50 L 146.53 9.31 C 146.68 8.97 146.98 8.29 147.13 7.95 L 147.36 7.41 C 147.01 6.82 146.29 5.65 145.94 5.06 L 145.80 3.70 L 146.88 4.40 C 147.08 4.60 147.48 5.00 147.68 5.20 C 148.05 4.75 148.78 3.86 149.15 3.42 C 148.72 4.20 147.86 5.76 147.44 6.54 C 149.03 7.09 152.07 7.57 151.95 5.01 C 152.97 1.87 149.46 1.83 147.37 1.65 M 153.51 4.55 C 153.99 5.14 153.99 5.14 153.51 4.55 M 147.85 7.51 C 147.89 8.08 147.98 9.21 148.03 9.78 C 149.63 10.05 150.73 11.25 151.89 12.27 C 152.13 11.18 152.59 8.98 152.83 7.88 C 152.21 8.35 150.96 9.27 150.34 9.73 C 149.72 9.18 148.47 8.07 147.85 7.51 M 151.23 13.23 C 151.83 13.86 151.83 13.86 151.23 13.23 Z" />
<path fill="#4e2525" opacity="1.00" d=" M 18.01 2.75 C 18.52 2.67 19.53 2.51 20.04 2.43 L 20.16 3.23 C 19.62 3.11 18.55 2.87 18.01 2.75 Z" />
<path fill="#4e2525" opacity="1.00" d=" M 65.89 2.78 C 66.38 2.66 67.36 2.41 67.84 2.29 L 67.66 3.08 C 67.22 3.01 66.34 2.85 65.89 2.78 Z" />
<path fill="#4e2525" opacity="1.00" d=" M 5.21 3.74 L 5.73 3.99 L 5.60 4.36 L 5.24 4.21 L 5.21 3.74 Z" />
<path fill="#4e2525" opacity="1.00" d=" M 53.20 3.22 C 53.76 3.78 53.76 3.78 53.20 3.22 Z" />
<path fill="#4e2525" opacity="1.00" d=" M 166.22 3.07 L 167.09 3.23 C 167.11 3.71 167.14 4.68 167.16 5.16 L 166.43 4.89 C 166.38 4.43 166.27 3.52 166.22 3.07 Z" />
<path fill="#4e2525" opacity="1.00" d=" M 182.21 3.04 L 183.07 3.20 C 183.08 3.68 183.10 4.64 183.11 5.12 L 182.40 4.86 C 182.35 4.41 182.26 3.50 182.21 3.04 Z" />
<path fill="#4e2525" opacity="1.00" d=" M 198.91 3.25 L 199.77 3.07 C 199.72 3.52 199.63 4.42 199.58 4.87 L 198.84 5.13 C 198.86 4.66 198.90 3.72 198.91 3.25 Z" />
<path fill="#4e2525" opacity="1.00" d=" M 214.92 3.24 L 215.77 3.06 C 215.73 3.52 215.63 4.42 215.58 4.87 L 214.84 5.13 C 214.86 4.66 214.90 3.71 214.92 3.24 Z" />
<path fill="#4e2525" opacity="1.00" d=" M 97.20 4.24 C 97.97 4.17 99.50 4.04 100.27 3.97 C 102.44 6.59 98.31 5.93 97.19 4.64 L 97.20 4.24 Z" />
<path fill="#4e2525" opacity="1.00" d=" M 134.16 3.96 C 134.48 4.26 135.12 4.88 135.44 5.18 C 135.08 5.31 134.36 5.58 134.00 5.71 C 134.04 5.27 134.12 4.40 134.16 3.96 Z" />
<path fill="#4e2525" opacity="1.00" d=" M 150.53 3.98 C 150.78 4.24 151.28 4.77 151.53 5.03 C 151.23 5.23 150.62 5.63 150.31 5.83 C 150.37 5.36 150.48 4.44 150.53 3.98 Z" />
<path fill="#4e2525" opacity="1.00" d=" M 8.10 8.61 C 9.10 7.71 10.08 6.78 11.05 5.83 C 10.96 6.69 10.78 8.39 10.69 9.25 C 10.40 10.04 10.10 10.83 9.78 11.62 L 9.05 11.95 C 9.03 11.51 9.00 10.64 8.98 10.20 C 8.64 10.41 7.96 10.81 7.62 11.01 L 6.96 11.30 C 4.58 10.64 4.55 13.91 6.97 12.98 C 7.44 12.89 8.37 12.70 8.84 12.61 C 9.57 13.49 10.44 14.22 11.44 14.79 C 11.68 14.68 12.18 14.46 12.43 14.36 L 12.98 14.12 C 13.04 14.59 13.18 15.53 13.25 16.00 L 10.84 16.00 C 7.96 14.74 4.81 14.92 1.74 14.94 C 2.60 13.50 3.50 12.08 4.40 10.67 L 4.53 10.48 L 4.53 10.29 L 4.54 9.25 C 5.74 10.14 7.25 9.75 8.10 8.61 Z" />
<path fill="#4e2525" opacity="1.00" d=" M 183.98 8.66 C 184.32 8.16 184.99 7.17 185.33 6.67 C 185.66 7.31 186.33 8.58 186.67 9.21 L 187.09 9.96 L 186.08 10.09 C 186.26 10.65 186.61 11.77 186.79 12.34 C 186.33 12.24 185.42 12.05 184.97 11.95 C 184.98 11.52 184.99 10.66 185.00 10.22 C 184.65 10.41 183.95 10.79 183.60 10.98 L 182.93 11.28 C 180.57 10.66 180.50 13.89 182.94 12.98 C 183.40 12.89 184.32 12.71 184.78 12.62 C 185.34 12.98 186.47 13.71 187.03 14.08 L 187.27 14.66 L 187.81 14.62 L 187.66 14.08 L 189.29 14.14 C 189.26 14.60 189.22 15.53 189.20 16.00 L 186.83 16.00 C 184.02 14.75 180.90 15.20 177.98 14.52 C 178.29 14.19 178.91 13.53 179.22 13.20 C 179.56 12.63 180.25 11.49 180.59 10.91 C 180.62 10.75 180.68 10.42 180.72 10.25 L 180.58 9.25 C 181.68 9.77 183.31 9.92 183.98 8.66 Z" />
</g>
<g id="#d2e2e4ff">
<path fill="#d2e2e4" opacity="1.00" d=" M 38.98 0.00 L 44.31 0.00 L 43.71 0.69 C 42.27 1.02 40.80 1.24 39.45 1.86 C 37.63 1.98 35.82 2.02 34.00 2.04 L 34.00 1.00 C 36.18 1.00 38.36 0.99 40.55 0.93 L 38.98 0.00 Z" />
<path fill="#d2e2e4" opacity="1.00" d=" M 86.98 0.00 L 92.31 0.00 L 91.71 0.69 C 90.27 1.02 88.79 1.29 87.42 1.86 C 85.61 1.98 83.81 2.02 82.00 2.05 L 82.00 1.00 C 84.18 1.00 86.37 0.99 88.55 0.93 L 86.98 0.00 Z" />
</g>
<g id="#000000ff">
<path fill="#000000" opacity="1.00" d=" M 44.31 0.00 L 44.86 0.00 C 45.17 1.22 45.20 2.44 44.93 3.67 C 43.86 3.02 43.45 2.03 43.71 0.69 L 44.31 0.00 Z" />
<path fill="#000000" opacity="1.00" d=" M 92.31 0.00 L 92.87 0.00 C 93.17 1.21 93.20 2.44 92.93 3.67 C 91.86 3.02 91.45 2.02 91.71 0.69 L 92.31 0.00 Z" />
<path fill="#000000" opacity="1.00" d=" M 10.05 0.70 C 10.28 1.27 10.74 2.41 10.97 2.97 C 10.74 2.41 10.28 1.27 10.05 0.70 Z" />
<path fill="#000000" opacity="1.00" d=" M 26.83 1.78 C 26.87 1.84 26.95 1.96 26.99 2.02 L 26.97 2.03 L 26.83 1.78 Z" />
<path fill="#000000" opacity="1.00" d=" M 58.14 0.78 C 58.36 1.29 58.81 2.31 59.04 2.82 L 58.26 2.70 C 58.23 2.22 58.17 1.26 58.14 0.78 Z" />
<path fill="#000000" opacity="1.00" d=" M 74.82 1.74 C 74.91 1.78 75.08 1.85 75.17 1.89 L 74.96 2.01 L 74.82 1.74 Z" />
<path fill="#000000" opacity="1.00" d=" M 169.18 0.71 C 169.38 1.25 169.77 2.32 169.97 2.86 L 169.22 2.58 C 169.21 2.12 169.19 1.18 169.18 0.71 Z" />
<path fill="#000000" opacity="1.00" d=" M 185.01 0.72 C 185.23 1.25 185.69 2.31 185.91 2.84 L 185.17 2.55 C 185.13 2.09 185.05 1.17 185.01 0.72 Z" />
<path fill="#000000" opacity="1.00" d=" M 137.39 2.24 C 137.48 2.31 137.68 2.45 137.78 2.51 C 137.68 2.45 137.48 2.31 137.39 2.24 Z" />
<path fill="#000000" opacity="1.00" d=" M 153.38 2.10 C 153.49 2.20 153.72 2.42 153.84 2.52 C 153.72 2.42 153.49 2.20 153.38 2.10 Z" />
<path fill="#000000" opacity="1.00" d=" M 28.68 4.51 C 28.72 4.48 28.80 4.41 28.84 4.37 L 28.68 4.52 L 28.68 4.51 Z" />
<path fill="#000000" opacity="1.00" d=" M 76.66 4.53 C 76.71 4.50 76.80 4.43 76.84 4.39 L 76.68 4.54 L 76.66 4.53 Z" />
<path fill="#000000" opacity="1.00" d=" M 203.50 8.24 L 203.64 8.16 C 203.61 8.24 203.56 8.39 203.53 8.47 L 203.50 8.24 Z" />
<path fill="#000000" opacity="1.00" d=" M 219.39 8.66 C 219.48 8.57 219.65 8.37 219.73 8.27 C 219.65 8.37 219.48 8.57 219.39 8.66 Z" />
<path fill="#000000" opacity="1.00" d=" M 107.47 9.31 C 109.20 9.34 109.46 9.86 108.24 10.87 C 108.05 10.48 107.66 9.70 107.47 9.31 Z" />
<path fill="#000000" opacity="1.00" d=" M 124.47 9.23 C 126.22 9.30 126.45 9.80 125.15 10.75 C 124.98 10.37 124.64 9.61 124.47 9.23 Z" />
<path fill="#000000" opacity="1.00" d=" M 210.98 9.59 L 211.36 9.61 C 211.27 9.60 211.08 9.59 210.98 9.59 Z" />
<path fill="#000000" opacity="1.00" d=" M 199.47 12.04 C 199.56 11.84 199.76 11.44 199.85 11.24 C 199.76 11.44 199.56 11.84 199.47 12.04 Z" />
<path fill="#000000" opacity="1.00" d=" M 218.14 11.01 L 218.88 11.36 C 218.90 11.80 218.95 12.66 218.97 13.09 C 218.76 12.57 218.35 11.53 218.14 11.01 Z" />
<path fill="#000000" opacity="1.00" d=" M 21.57 12.73 C 21.65 12.65 21.83 12.48 21.91 12.40 L 21.97 12.80 L 21.57 12.73 Z" />
<path fill="#000000" opacity="1.00" d=" M 37.57 12.72 C 37.66 12.64 37.83 12.48 37.91 12.39 L 37.97 12.80 L 37.57 12.72 Z" />
<path fill="#000000" opacity="1.00" d=" M 69.49 12.65 L 69.80 12.33 L 70.08 12.75 C 69.93 12.73 69.64 12.68 69.49 12.65 Z" />
<path fill="#000000" opacity="1.00" d=" M 85.49 12.66 L 85.81 12.34 L 86.09 12.75 C 85.94 12.73 85.64 12.68 85.49 12.66 Z" />
<path fill="#000000" opacity="1.00" d=" M 170.57 12.22 C 170.60 12.26 170.67 12.34 170.70 12.38 C 170.67 12.34 170.60 12.26 170.57 12.22 Z" />
<path fill="#000000" opacity="1.00" d=" M 140.33 13.30 L 140.81 13.37 L 140.79 13.82 L 140.31 13.84 L 140.33 13.30 Z" />
<path fill="#000000" opacity="1.00" d=" M 157.37 13.21 C 157.37 13.33 157.36 13.58 157.35 13.71 L 157.37 13.21 Z" />
<path fill="#000000" opacity="1.00" d=" M 134.23 14.32 L 134.96 14.24 C 134.92 14.68 134.83 15.56 134.79 16.00 L 134.01 16.00 C 134.07 15.58 134.18 14.74 134.23 14.32 Z" />
<path fill="#000000" opacity="1.00" d=" M 153.37 14.61 C 153.46 14.59 153.65 14.55 153.74 14.53 C 153.65 14.55 153.46 14.59 153.37 14.61 Z" />
<path fill="#000000" opacity="1.00" d=" M 169.35 16.00 C 169.48 15.96 169.73 15.88 169.86 15.84 L 169.58 16.00 L 169.35 16.00 Z" />
<path fill="#000000" opacity="1.00" d=" M 197.23 16.00 C 197.40 15.94 197.73 15.82 197.90 15.75 L 197.57 16.00 L 197.23 16.00 Z" />
</g>
<g id="#4e2727ff">
<path fill="#4e2727" opacity="1.00" d=" M 51.92 0.00 L 57.35 0.00 L 58.14 0.78 C 58.17 1.26 58.23 2.22 58.26 2.70 L 59.04 2.82 L 60.18 2.95 C 58.15 5.06 56.04 7.11 54.33 9.50 C 55.75 8.69 57.03 7.58 58.62 7.12 C 58.38 8.75 58.11 10.37 57.87 12.00 C 57.57 11.43 56.97 10.30 56.66 9.73 C 56.43 10.03 55.96 10.63 55.72 10.93 L 54.91 11.09 C 52.53 10.68 52.63 13.99 55.00 12.81 L 55.80 12.72 C 57.30 13.29 58.73 14.10 60.29 14.50 L 61.36 14.31 C 61.31 14.74 61.21 15.58 61.16 16.00 L 58.84 16.00 C 55.94 14.73 52.70 15.28 49.72 14.38 C 51.23 13.76 51.99 12.29 52.49 10.83 L 52.66 10.49 L 52.69 10.08 L 53.12 9.43 C 53.29 9.18 53.63 8.67 53.80 8.41 C 53.29 7.35 52.52 6.55 51.47 6.00 L 50.87 5.99 C 50.41 5.97 49.48 5.92 49.01 5.89 L 49.09 4.90 C 49.50 4.90 50.33 4.89 50.74 4.88 C 50.53 4.57 50.10 3.95 49.88 3.64 C 50.37 3.38 51.34 2.86 51.82 2.60 C 51.30 5.34 53.83 6.43 56.12 6.25 C 55.71 5.31 55.36 4.35 55.09 3.37 C 55.66 2.92 56.82 2.03 57.40 1.59 C 55.55 1.47 53.71 1.34 51.87 1.21 L 51.92 0.00 Z" />
</g>
<g id="#afdbb1ff">
<path fill="#afdbb1" opacity="1.00" d=" M 96.99 0.00 L 97.80 0.00 C 98.12 0.56 98.76 1.69 99.07 2.25 C 97.59 2.09 96.89 1.34 96.99 0.00 Z" />
<path fill="#afdbb1" opacity="1.00" d=" M 114.07 0.00 L 114.86 0.00 C 115.09 0.53 115.56 1.60 115.79 2.14 C 114.48 1.99 113.91 1.28 114.07 0.00 Z" />
</g>
<g id="#1f0f0fff">
<path fill="#1f0f0f" opacity="1.00" d=" M 104.04 0.00 L 104.69 0.00 C 105.68 0.71 106.45 1.68 107.00 2.76 C 106.63 2.78 105.89 2.81 105.51 2.83 C 105.06 2.27 104.15 1.15 103.69 0.59 L 104.04 0.00 Z" />
<path fill="#1f0f0f" opacity="1.00" d=" M 121.05 0.00 L 121.69 0.00 C 122.68 0.71 123.44 1.68 124.01 2.75 C 123.64 2.77 122.89 2.80 122.51 2.82 C 122.06 2.27 121.15 1.15 120.70 0.59 L 121.05 0.00 Z" />
<path fill="#1f0f0f" opacity="1.00" d=" M 45.74 4.08 C 46.33 4.34 47.51 4.86 48.10 5.12 C 48.07 5.74 48.01 6.98 47.98 7.60 C 47.19 8.46 46.40 9.31 45.61 10.17 C 45.43 9.86 45.09 9.24 44.92 8.92 L 45.42 8.11 C 45.55 7.58 45.81 6.52 45.94 5.99 L 45.88 5.27 L 45.74 4.08 Z" />
<path fill="#1f0f0f" opacity="1.00" d=" M 93.77 4.08 C 94.35 4.34 95.51 4.87 96.09 5.13 C 96.06 5.76 96.01 7.01 95.98 7.64 C 95.18 8.48 94.38 9.32 93.59 10.17 C 93.40 9.86 93.01 9.23 92.82 8.92 L 93.30 8.23 C 93.47 7.67 93.81 6.56 93.99 6.00 L 93.94 5.36 L 93.77 4.08 Z" />
<path fill="#1f0f0f" opacity="1.00" d=" M 29.76 5.01 C 30.32 5.30 31.43 5.90 31.99 6.19 C 32.80 8.48 30.67 9.91 29.27 11.29 L 29.07 9.86 L 29.47 9.00 C 29.58 8.50 29.81 7.49 29.92 6.99 L 29.87 6.28 L 29.76 5.01 Z" />
<path fill="#1f0f0f" opacity="1.00" d=" M 77.82 5.04 C 79.63 5.32 80.11 6.97 80.23 8.54 C 79.35 9.39 78.46 10.25 77.59 11.11 C 77.41 10.82 77.04 10.22 76.86 9.93 L 77.30 9.19 C 77.47 8.64 77.80 7.56 77.96 7.01 L 77.94 6.37 L 77.82 5.04 Z" />
<path fill="#1f0f0f" opacity="1.00" d=" M 203.79 10.41 C 204.33 10.56 205.39 10.88 205.92 11.04 C 205.66 11.55 205.12 12.58 204.85 13.09 L 203.87 13.34 L 203.19 13.04 C 203.34 12.52 203.63 11.48 203.78 10.96 L 203.79 10.41 Z" />
</g>
<g id="#4e2729ff">
<path fill="#4e2729" opacity="1.00" d=" M 114.86 0.00 L 121.05 0.00 L 120.70 0.59 C 120.50 0.92 120.11 1.57 119.92 1.89 C 118.87 1.50 117.81 1.12 116.76 0.74 C 117.11 2.35 117.52 3.96 117.98 5.54 C 117.20 6.34 116.41 7.15 115.63 7.95 C 117.47 8.87 119.50 9.07 121.53 9.07 C 122.09 8.03 122.68 7.01 123.30 6.00 L 124.29 6.22 C 123.80 7.06 123.33 7.91 122.86 8.76 C 123.26 8.88 124.07 9.11 124.47 9.23 C 124.64 9.61 124.98 10.37 125.15 10.75 L 124.33 11.08 C 121.80 11.57 120.89 14.13 119.57 16.00 L 117.93 16.00 L 117.87 15.05 C 117.89 14.24 117.93 12.61 117.94 11.80 L 118.28 10.91 C 118.97 10.88 120.34 10.82 121.03 10.79 C 120.28 9.77 119.28 9.55 118.01 10.14 L 117.13 10.31 L 116.60 11.00 C 116.39 11.26 115.96 11.80 115.75 12.06 C 114.85 11.51 113.92 11.01 112.99 10.51 C 114.39 9.95 115.01 8.73 115.28 7.32 C 116.41 6.34 115.71 4.33 114.10 5.11 C 114.17 4.75 114.30 4.01 114.37 3.65 C 114.72 3.27 115.44 2.51 115.79 2.14 C 115.56 1.60 115.09 0.53 114.86 0.00 Z" />
</g>
<g id="#5f4448ff">
<path fill="#5f4448" opacity="1.00" d=" M 178.88 0.00 L 183.93 0.00 L 185.01 0.72 C 185.05 1.17 185.13 2.09 185.17 2.55 L 185.91 2.84 C 186.65 3.12 188.12 3.68 188.86 3.96 C 188.32 4.31 187.23 5.00 186.69 5.35 C 186.35 5.68 185.67 6.34 185.33 6.67 C 184.99 7.17 184.32 8.16 183.98 8.66 C 182.61 8.13 181.25 7.56 179.92 6.95 C 180.54 6.59 181.78 5.88 182.41 5.52 L 183.11 5.12 C 183.34 4.63 183.79 3.66 184.02 3.17 C 183.98 2.64 183.90 1.56 183.86 1.02 C 182.21 1.02 180.57 1.01 178.93 1.00 L 178.88 0.00 Z" />
</g>
<g id="#110808ff">
<path fill="#110808" opacity="1.00" d=" M 203.76 0.00 L 204.89 0.00 C 205.00 1.16 205.11 2.32 205.22 3.49 C 205.95 4.54 206.69 5.61 207.42 6.67 L 206.21 6.72 C 205.82 6.43 205.03 5.85 204.63 5.56 C 204.58 5.48 204.49 5.32 204.44 5.24 C 204.14 3.50 203.95 1.75 203.76 0.00 Z" />
<path fill="#110808" opacity="1.00" d=" M 219.77 0.00 L 220.90 0.00 C 221.00 1.17 221.10 2.33 221.21 3.50 C 221.96 4.56 222.70 5.61 223.45 6.68 L 222.21 6.65 C 221.84 6.42 221.11 5.95 220.75 5.72 L 220.57 5.41 L 220.37 5.12 C 220.13 3.42 219.95 1.71 219.77 0.00 Z" />
</g>
<g id="#5080ffff">
<path fill="#5080ff" opacity="1.00" d=" M 3.86 1.00 C 5.58 1.01 7.29 1.02 9.00 1.03 C 9.00 1.50 9.00 2.45 9.00 2.93 C 8.48 2.95 7.45 3.00 6.94 3.02 L 6.55 1.60 C 6.35 2.20 5.93 3.39 5.73 3.99 L 5.21 3.74 L 3.90 2.49 C 3.89 2.11 3.87 1.37 3.86 1.00 Z" />
<path fill="#5080ff" opacity="1.00" d=" M 20.09 1.57 C 21.48 0.53 23.33 0.96 24.89 1.24 C 24.42 1.54 23.46 2.16 22.99 2.46 L 22.42 2.50 L 21.98 2.93 L 20.88 3.30 L 20.16 3.23 L 20.04 2.43 L 20.09 1.57 Z" />
<path fill="#5080ff" opacity="1.00" d=" M 162.94 0.99 C 164.58 0.99 166.22 1.00 167.86 1.00 C 167.91 1.55 167.99 2.65 168.04 3.20 L 167.09 3.23 L 166.22 3.07 C 165.98 2.73 165.49 2.06 165.25 1.73 L 165.10 2.63 C 164.58 2.79 163.55 3.11 163.04 3.27 C 163.01 2.70 162.96 1.56 162.94 0.99 Z" />
<path fill="#5080ff" opacity="1.00" d=" M 178.93 1.00 C 180.57 1.01 182.21 1.02 183.86 1.02 C 183.90 1.56 183.98 2.64 184.02 3.17 L 183.07 3.20 L 182.21 3.04 C 181.97 2.72 181.48 2.08 181.24 1.76 L 181.09 2.64 C 180.57 2.80 179.55 3.11 179.03 3.27 C 179.01 2.70 178.95 1.57 178.93 1.00 Z" />
<path fill="#5080ff" opacity="1.00" d=" M 198.01 3.22 C 198.11 2.61 198.31 1.40 198.41 0.80 C 199.95 0.90 201.49 1.00 203.04 1.09 C 203.03 1.56 203.01 2.49 203.01 2.96 C 202.50 2.97 201.48 2.99 200.97 3.00 L 200.81 1.76 C 200.55 2.09 200.03 2.74 199.77 3.07 L 198.91 3.25 L 198.01 3.22 Z" />
<path fill="#5080ff" opacity="1.00" d=" M 214.01 3.21 C 214.11 2.61 214.30 1.41 214.40 0.80 C 215.94 0.90 217.48 1.00 219.02 1.09 C 219.02 1.56 219.01 2.50 219.01 2.96 C 218.51 2.97 217.49 2.99 216.99 3.00 L 216.79 1.75 C 216.54 2.08 216.03 2.74 215.77 3.06 L 214.92 3.24 L 214.01 3.21 Z" />
<path fill="#5080ff" opacity="1.00" d=" M 41.24 2.12 C 44.34 0.60 41.47 5.32 41.24 2.12 Z" />
<path fill="#5080ff" opacity="1.00" d=" M 130.97 1.99 C 132.65 2.00 134.34 2.01 136.03 2.01 C 136.03 2.74 136.03 4.20 136.03 4.92 L 135.44 5.18 C 135.12 4.88 134.48 4.26 134.16 3.96 C 133.98 3.67 133.63 3.08 133.45 2.79 L 133.19 3.52 C 132.77 3.94 131.92 4.78 131.50 5.21 C 131.32 4.88 130.98 4.22 130.81 3.89 C 130.85 3.42 130.93 2.47 130.97 1.99 Z" />
<path fill="#5080ff" opacity="1.00" d=" M 147.37 1.65 C 149.46 1.83 152.97 1.87 151.95 5.01 L 151.53 5.03 C 151.28 4.77 150.78 4.24 150.53 3.98 C 150.24 3.71 149.64 3.16 149.35 2.89 L 149.15 3.42 C 148.78 3.86 148.05 4.75 147.68 5.20 C 147.48 5.00 147.08 4.60 146.88 4.40 L 146.58 1.54 L 147.37 1.65 Z" />
<path fill="#5080ff" opacity="1.00" d=" M 1.13 4.94 C 1.31 4.62 1.66 3.99 1.84 3.67 C 2.08 3.97 2.56 4.57 2.80 4.86 C 2.39 4.88 1.55 4.92 1.13 4.94 Z" />
<path fill="#5080ff" opacity="1.00" d=" M 106.31 6.01 C 105.71 4.42 106.27 3.74 107.99 3.95 C 107.81 4.52 107.47 5.66 107.30 6.22 L 106.31 6.01 Z" />
<path fill="#5080ff" opacity="1.00" d=" M 123.30 6.00 C 122.71 4.42 123.27 3.74 124.99 3.95 C 124.81 4.52 124.47 5.65 124.29 6.22 L 123.30 6.00 Z" />
<path fill="#5080ff" opacity="1.00" d=" M 153.51 4.55 C 153.99 5.14 153.99 5.14 153.51 4.55 Z" />
<path fill="#5080ff" opacity="1.00" d=" M 114.10 5.11 C 115.71 4.33 116.41 6.34 115.28 7.32 C 114.99 6.77 114.40 5.66 114.10 5.11 Z" />
<path fill="#5080ff" opacity="1.00" d=" M 161.50 5.56 C 161.52 5.52 161.56 5.44 161.58 5.41 C 161.56 5.44 161.52 5.52 161.50 5.56 Z" />
<path fill="#5080ff" opacity="1.00" d=" M 177.34 5.86 C 177.42 5.69 177.60 5.36 177.69 5.20 C 177.60 5.36 177.42 5.69 177.34 5.86 Z" />
<path fill="#5080ff" opacity="1.00" d=" M 204.44 5.24 C 204.49 5.32 204.58 5.48 204.63 5.56 L 204.47 5.44 L 204.44 5.24 Z" />
<path fill="#5080ff" opacity="1.00" d=" M 220.37 5.12 L 220.57 5.41 L 220.75 5.72 L 220.42 5.51 L 220.37 5.12 Z" />
<path fill="#5080ff" opacity="1.00" d=" M 17.01 6.46 L 17.50 6.46 L 17.54 6.95 C 17.41 6.83 17.14 6.58 17.01 6.46 Z" />
<path fill="#5080ff" opacity="1.00" d=" M 19.75 6.24 C 20.30 6.80 20.30 6.80 19.75 6.24 Z" />
<path fill="#5080ff" opacity="1.00" d=" M 43.13 5.96 C 43.83 5.97 45.24 5.98 45.94 5.99 C 45.81 6.52 45.55 7.58 45.42 8.11 C 44.90 8.04 43.84 7.89 43.32 7.81 L 42.86 7.27 C 42.92 6.94 43.06 6.29 43.13 5.96 Z" />
<path fill="#5080ff" opacity="1.00" d=" M 27.15 7.11 C 27.84 7.08 29.23 7.02 29.92 6.99 C 29.81 7.49 29.58 8.50 29.47 9.00 C 28.93 9.04 27.86 9.10 27.32 9.13 L 26.85 8.77 C 26.92 8.36 27.08 7.53 27.15 7.11 Z" />
<path fill="#5080ff" opacity="1.00" d=" M 201.98 6.90 L 202.58 7.26 C 202.25 8.61 201.44 9.17 200.14 8.93 C 200.60 8.42 201.52 7.41 201.98 6.90 Z" />
<path fill="#5080ff" opacity="1.00" d=" M 217.99 6.90 L 218.59 7.26 C 218.31 8.62 217.48 9.17 216.12 8.90 C 216.59 8.40 217.53 7.40 217.99 6.90 Z" />
<path fill="#5080ff" opacity="1.00" d=" M 97.36 8.14 L 97.55 8.48 L 97.50 8.83 C 97.46 8.66 97.40 8.32 97.36 8.14 Z" />
<path fill="#5080ff" opacity="1.00" d=" M 101.55 10.13 C 104.84 8.64 101.91 13.18 101.55 10.13 Z" />
<path fill="#5080ff" opacity="1.00" d=" M 118.01 10.14 C 119.28 9.55 120.28 9.77 121.03 10.79 C 120.34 10.82 118.97 10.88 118.28 10.91 L 118.01 10.14 Z" />
<path fill="#5080ff" opacity="1.00" d=" M 102.95 14.62 C 102.61 13.16 103.32 10.78 105.24 11.44 C 104.92 12.80 104.23 14.03 103.40 15.14 L 102.95 14.62 Z" />
<path fill="#5080ff" opacity="1.00" d=" M 115.75 12.06 C 115.96 11.80 116.39 11.26 116.60 11.00 C 116.94 11.20 117.61 11.60 117.94 11.80 C 117.93 12.61 117.89 14.24 117.87 15.05 C 117.04 14.14 116.32 13.15 115.75 12.06 Z" />
<path fill="#5080ff" opacity="1.00" d=" M 165.25 11.73 C 165.52 11.49 166.06 11.01 166.32 10.77 C 167.23 11.85 167.21 12.77 166.28 13.53 C 166.02 13.08 165.51 12.18 165.25 11.73 Z" />
<path fill="#5080ff" opacity="1.00" d=" M 202.47 10.93 C 202.80 10.94 203.45 10.96 203.78 10.96 C 203.63 11.48 203.34 12.52 203.19 13.04 L 202.20 12.63 L 201.98 11.72 L 202.47 10.93 Z" />
<path fill="#5080ff" opacity="1.00" d=" M 215.70 13.40 C 213.44 13.30 216.47 9.18 216.67 11.85 C 216.43 12.24 215.94 13.01 215.70 13.40 Z" />
<path fill="#5080ff" opacity="1.00" d=" M 168.27 12.25 C 168.85 12.81 168.85 12.81 168.27 12.25 Z" />
<path fill="#5080ff" opacity="1.00" d=" M 184.97 11.95 C 185.42 12.05 186.33 12.24 186.79 12.34 C 186.85 12.77 186.97 13.64 187.03 14.08 C 186.47 13.71 185.34 12.98 184.78 12.62 L 184.97 11.95 Z" />
<path fill="#5080ff" opacity="1.00" d=" M 195.22 13.98 C 195.46 13.48 195.94 12.48 196.17 11.97 L 196.63 12.62 C 196.28 12.96 195.58 13.64 195.22 13.98 Z" />
<path fill="#5080ff" opacity="1.00" d=" M 213.38 12.56 C 213.48 12.50 213.69 12.37 213.79 12.30 L 213.80 12.49 L 213.38 12.56 Z" />
</g>
<g id="#b2bfb5ff">
<path fill="#b2bfb5" opacity="1.00" d=" M 26.99 2.02 C 28.21 1.71 29.45 1.45 30.69 1.22 C 27.58 3.50 24.16 5.51 20.34 6.29 C 22.33 4.55 24.76 3.45 26.97 2.03 L 26.99 2.02 Z" />
<path fill="#b2bfb5" opacity="1.00" d=" M 75.17 1.89 C 75.76 1.78 76.94 1.55 77.53 1.44 L 78.71 1.24 C 75.50 3.59 71.96 5.54 68.07 6.48 C 70.10 4.60 72.70 3.55 74.96 2.01 L 75.17 1.89 Z" />
</g>
<g id="#4f8db6ff">
<path fill="#4f8db6" opacity="1.00" d=" M 32.13 0.91 L 32.65 0.77 C 33.57 2.14 34.33 3.61 34.93 5.15 C 33.38 4.55 31.72 3.51 31.70 1.63 L 32.13 0.91 Z" />
</g>
<g id="#a7afb0ff">
<path fill="#a7afb0" opacity="1.00" d=" M 51.87 1.21 C 53.71 1.34 55.55 1.47 57.40 1.59 C 56.82 2.03 55.66 2.92 55.09 3.37 C 55.36 4.35 55.71 5.31 56.12 6.25 C 53.83 6.43 51.30 5.34 51.82 2.60 C 51.83 2.25 51.85 1.56 51.87 1.21 M 53.20 3.22 C 53.76 3.78 53.76 3.78 53.20 3.22 Z" />
</g>
<g id="#8b8b8bff">
<path fill="#8b8b8b" opacity="1.00" d=" M 68.02 1.03 C 69.79 1.12 71.57 1.20 73.34 1.29 C 71.45 2.41 69.56 3.55 67.70 4.72 C 66.85 4.39 66.00 4.06 65.15 3.73 C 65.34 3.49 65.71 3.02 65.89 2.78 C 66.34 2.85 67.22 3.01 67.66 3.08 L 67.84 2.29 L 68.02 1.03 Z" />
</g>
<g id="#6f8d62ff">
<path fill="#6f8d62" opacity="1.00" d=" M 80.16 0.98 L 80.65 0.86 C 81.45 2.19 82.20 3.55 82.85 4.97 C 81.08 4.90 79.65 3.44 79.71 1.64 L 80.16 0.98 Z" />
</g>
<g id="#507bf4ff">
<path fill="#507bf4" opacity="1.00" d=" M 100.08 0.81 C 101.03 1.15 101.98 1.50 102.93 1.86 C 103.12 1.54 103.50 0.91 103.69 0.59 C 104.15 1.15 105.06 2.27 105.51 2.83 C 104.96 3.87 104.40 4.91 103.84 5.94 C 102.99 6.02 101.28 6.17 100.43 6.25 C 102.23 7.69 104.36 6.27 106.31 6.01 C 105.69 6.99 105.10 7.99 104.54 9.01 C 103.18 8.98 101.83 8.94 100.48 8.90 C 99.39 8.09 98.28 7.31 97.20 6.48 C 97.20 6.02 97.19 5.10 97.19 4.64 C 98.31 5.93 102.44 6.59 100.27 3.97 L 99.83 3.32 C 99.89 2.70 100.02 1.44 100.08 0.81 Z" />
</g>
<g id="#507df9ff">
<path fill="#507df9" opacity="1.00" d=" M 116.76 0.74 C 117.81 1.12 118.87 1.50 119.92 1.89 C 120.11 1.57 120.50 0.92 120.70 0.59 C 121.15 1.15 122.06 2.27 122.51 2.82 C 121.95 3.88 121.39 4.94 120.83 6.00 C 120.12 6.00 118.69 6.00 117.98 6.00 L 118.03 7.22 C 119.79 6.81 121.54 6.38 123.30 6.00 C 122.68 7.01 122.09 8.03 121.53 9.07 C 119.50 9.07 117.47 8.87 115.63 7.95 C 116.41 7.15 117.20 6.34 117.98 5.54 C 117.52 3.96 117.11 2.35 116.76 0.74 Z" />
</g>
<g id="#cfdee0ff">
<path fill="#cfdee0" opacity="1.00" d=" M 5.73 3.99 C 5.93 3.39 6.35 2.20 6.55 1.60 L 6.94 3.02 C 7.26 4.11 7.61 5.20 7.99 6.28 C 5.73 6.36 3.49 5.07 3.90 2.49 L 5.21 3.74 L 5.24 4.21 L 5.60 4.36 L 5.73 3.99 Z" />
</g>
<g id="#271313ff">
<path fill="#271313" opacity="1.00" d=" M 12.71 4.14 C 13.52 3.30 14.35 2.47 15.17 1.63 C 14.93 2.63 14.69 3.63 14.45 4.62 C 16.90 6.60 15.95 9.37 13.84 11.15 C 13.56 10.91 13.00 10.44 12.72 10.20 L 13.29 9.55 C 13.69 8.37 14.06 7.17 14.40 5.98 C 13.56 5.94 11.88 5.87 11.05 5.83 C 11.46 5.41 12.29 4.57 12.71 4.14 Z" />
</g>
<g id="#dff5f7ff">
<path fill="#dff5f7" opacity="1.00" d=" M 22.42 2.50 L 22.99 2.46 C 22.74 2.58 22.23 2.81 21.98 2.93 L 22.42 2.50 Z" />
<path fill="#dff5f7" opacity="1.00" d=" M 20.16 3.23 L 20.88 3.30 C 20.75 3.43 20.50 3.68 20.38 3.81 L 20.16 3.23 Z" />
<path fill="#dff5f7" opacity="1.00" d=" M 36.09 3.22 C 39.24 3.43 34.60 6.41 36.09 3.22 Z" />
<path fill="#dff5f7" opacity="1.00" d=" M 37.53 5.22 C 37.80 4.75 38.33 3.79 38.60 3.32 C 39.49 4.08 39.73 4.95 39.32 5.93 C 38.87 5.75 37.98 5.40 37.53 5.22 Z" />
<path fill="#dff5f7" opacity="1.00" d=" M 84.11 3.24 C 87.27 3.45 82.64 6.42 84.11 3.24 Z" />
<path fill="#dff5f7" opacity="1.00" d=" M 167.09 3.23 L 168.04 3.20 C 167.82 3.69 167.38 4.67 167.16 5.16 C 167.14 4.68 167.11 3.71 167.09 3.23 Z" />
<path fill="#dff5f7" opacity="1.00" d=" M 183.07 3.20 L 184.02 3.17 C 183.79 3.66 183.34 4.63 183.11 5.12 C 183.10 4.64 183.08 3.68 183.07 3.20 Z" />
<path fill="#dff5f7" opacity="1.00" d=" M 198.01 3.22 L 198.91 3.25 C 198.90 3.72 198.86 4.66 198.84 5.13 C 198.56 4.85 198.00 4.30 197.71 4.02 L 198.01 3.22 Z" />
<path fill="#dff5f7" opacity="1.00" d=" M 214.01 3.21 L 214.92 3.24 C 214.90 3.71 214.86 4.66 214.84 5.13 C 214.56 4.85 214.00 4.29 213.72 4.01 L 214.01 3.21 Z" />
<path fill="#dff5f7" opacity="1.00" d=" M 43.21 5.29 C 43.88 5.29 45.21 5.28 45.88 5.27 L 45.94 5.99 C 45.24 5.98 43.83 5.97 43.13 5.96 L 43.21 5.29 Z" />
<path fill="#dff5f7" opacity="1.00" d=" M 92.02 6.34 C 89.60 5.56 93.07 4.33 93.94 5.36 L 93.99 6.00 C 93.49 6.09 92.51 6.26 92.02 6.34 Z" />
<path fill="#dff5f7" opacity="1.00" d=" M 3.23 6.56 L 3.51 6.68 L 3.74 6.95 C 3.61 6.85 3.36 6.66 3.23 6.56 Z" />
<path fill="#dff5f7" opacity="1.00" d=" M 27.21 6.39 C 27.88 6.36 29.21 6.30 29.87 6.28 L 29.92 6.99 C 29.23 7.02 27.84 7.08 27.15 7.11 L 27.21 6.39 Z" />
<path fill="#dff5f7" opacity="1.00" d=" M 76.02 7.35 C 73.60 6.56 77.07 5.32 77.94 6.37 L 77.96 7.01 C 77.48 7.10 76.50 7.26 76.02 7.35 Z" />
<path fill="#dff5f7" opacity="1.00" d=" M 43.32 7.81 C 43.84 7.89 44.90 8.04 45.42 8.11 L 44.92 8.92 C 44.52 8.65 43.72 8.09 43.32 7.81 Z" />
<path fill="#dff5f7" opacity="1.00" d=" M 92.29 7.03 C 92.54 7.33 93.05 7.93 93.30 8.23 L 92.82 8.92 C 92.53 8.55 91.96 7.80 91.67 7.42 L 92.29 7.03 Z" />
<path fill="#dff5f7" opacity="1.00" d=" M 11.53 8.85 C 11.90 8.82 12.63 8.78 13.00 8.76 L 13.29 9.55 L 12.72 10.20 C 12.43 9.86 11.83 9.19 11.53 8.85 Z" />
<path fill="#dff5f7" opacity="1.00" d=" M 27.32 9.13 C 27.86 9.10 28.93 9.04 29.47 9.00 L 29.07 9.86 C 28.63 9.68 27.76 9.31 27.32 9.13 Z" />
<path fill="#dff5f7" opacity="1.00" d=" M 59.64 9.36 C 59.20 6.86 62.62 8.69 60.35 9.86 L 59.64 9.36 Z" />
<path fill="#dff5f7" opacity="1.00" d=" M 76.24 8.09 C 76.51 8.37 77.04 8.91 77.30 9.19 L 76.86 9.93 C 76.56 9.58 75.95 8.88 75.64 8.53 L 76.24 8.09 Z" />
<path fill="#dff5f7" opacity="1.00" d=" M 154.81 8.25 C 155.20 8.40 155.98 8.69 156.37 8.84 L 156.05 9.68 L 155.11 9.83 C 155.03 9.43 154.89 8.65 154.81 8.25 Z" />
<path fill="#dff5f7" opacity="1.00" d=" M 187.17 8.60 C 187.51 8.73 188.18 9.00 188.51 9.13 C 188.16 9.34 187.44 9.75 187.09 9.96 L 186.67 9.21 L 187.17 8.60 Z" />
<path fill="#dff5f7" opacity="1.00" d=" M 193.52 9.00 C 193.84 8.91 194.49 8.72 194.81 8.63 L 195.21 9.36 L 194.77 10.14 C 194.46 9.86 193.83 9.29 193.52 9.00 Z" />
<path fill="#dff5f7" opacity="1.00" d=" M 138.58 10.02 C 138.91 9.93 139.58 9.76 139.91 9.67 L 140.29 10.41 L 139.86 11.17 L 139.01 10.80 L 138.58 10.02 Z" />
<path fill="#dff5f7" opacity="1.00" d=" M 4.40 10.67 C 4.44 10.57 4.50 10.39 4.53 10.29 L 4.53 10.48 L 4.40 10.67 Z" />
<path fill="#dff5f7" opacity="1.00" d=" M 7.62 11.01 C 7.96 10.81 8.64 10.41 8.98 10.20 C 9.00 10.64 9.03 11.51 9.05 11.95 C 8.69 11.71 7.98 11.24 7.62 11.01 Z" />
<path fill="#dff5f7" opacity="1.00" d=" M 19.87 10.96 C 20.35 10.71 21.31 10.21 21.79 9.97 L 21.70 10.75 C 21.25 10.80 20.33 10.91 19.87 10.96 Z" />
<path fill="#dff5f7" opacity="1.00" d=" M 23.66 10.95 C 24.00 10.76 24.69 10.40 25.03 10.22 C 25.03 10.65 25.05 11.52 25.05 11.96 C 24.70 11.70 24.01 11.20 23.66 10.95 Z" />
<path fill="#dff5f7" opacity="1.00" d=" M 36.05 10.89 C 36.35 10.56 36.97 9.89 37.27 9.55 C 37.40 9.92 37.65 10.64 37.77 11.00 C 37.34 10.97 36.48 10.92 36.05 10.89 Z" />
<path fill="#dff5f7" opacity="1.00" d=" M 39.64 10.92 C 39.99 10.75 40.69 10.40 41.04 10.23 C 41.02 10.67 40.98 11.53 40.96 11.97 C 40.63 11.71 39.97 11.18 39.64 10.92 Z" />
<path fill="#dff5f7" opacity="1.00" d=" M 52.22 10.32 L 52.69 10.08 L 52.66 10.49 L 52.49 10.83 L 52.22 10.32 Z" />
<path fill="#dff5f7" opacity="1.00" d=" M 117.13 10.31 L 118.01 10.14 L 118.28 10.91 L 117.94 11.80 C 117.61 11.60 116.94 11.20 116.60 11.00 L 117.13 10.31 Z" />
<path fill="#dff5f7" opacity="1.00" d=" M 180.28 10.38 L 180.72 10.25 C 180.68 10.42 180.62 10.75 180.59 10.91 L 180.28 10.38 Z" />
<path fill="#dff5f7" opacity="1.00" d=" M 183.60 10.98 C 183.95 10.79 184.65 10.41 185.00 10.22 C 184.99 10.66 184.98 11.52 184.97 11.95 C 184.62 11.71 183.94 11.22 183.60 10.98 Z" />
<path fill="#dff5f7" opacity="1.00" d=" M 197.03 10.19 C 200.24 10.44 195.62 13.33 197.03 10.19 Z" />
<path fill="#dff5f7" opacity="1.00" d=" M 151.23 13.23 C 151.83 13.86 151.83 13.86 151.23 13.23 Z" />
<path fill="#dff5f7" opacity="1.00" d=" M 203.19 13.04 L 203.87 13.34 L 203.57 13.79 L 203.09 13.60 L 203.19 13.04 Z" />
<path fill="#dff5f7" opacity="1.00" d=" M 132.42 14.24 C 132.48 14.42 132.59 14.78 132.65 14.96 C 132.59 14.78 132.48 14.42 132.42 14.24 Z" />
<path fill="#dff5f7" opacity="1.00" d=" M 165.26 14.23 L 165.75 14.32 L 165.83 14.89 L 165.27 14.73 L 165.26 14.23 Z" />
<path fill="#dff5f7" opacity="1.00" d=" M 187.03 14.08 L 187.66 14.08 L 187.81 14.62 L 187.27 14.66 L 187.03 14.08 Z" />
<path fill="#dff5f7" opacity="1.00" d=" M 216.23 14.21 C 216.82 14.85 216.82 14.85 216.23 14.21 Z" />
</g>
<g id="#a9afa8ff">
<path fill="#a9afa8" opacity="1.00" d=" M 60.18 2.95 C 60.75 2.70 61.90 2.21 62.47 1.96 C 61.28 3.29 60.12 4.64 58.96 5.99 C 59.72 5.99 61.25 5.99 62.02 5.99 L 62.23 7.70 C 61.33 7.55 59.52 7.27 58.62 7.12 C 57.03 7.58 55.75 8.69 54.33 9.50 C 56.04 7.11 58.15 5.06 60.18 2.95 Z" />
</g>
<g id="#312723ff">
<path fill="#312723" opacity="1.00" d=" M 62.47 1.96 L 63.18 1.62 C 62.97 2.63 62.76 3.65 62.55 4.66 C 63.25 5.86 64.61 7.07 63.94 8.60 C 63.20 9.78 61.62 11.96 60.35 9.86 C 62.62 8.69 59.20 6.86 59.64 9.36 C 59.63 9.65 59.62 10.21 59.61 10.49 C 60.17 11.78 60.79 13.03 61.36 14.31 L 60.29 14.50 C 59.45 13.70 58.64 12.86 57.87 12.00 C 58.11 10.37 58.38 8.75 58.62 7.12 C 59.52 7.27 61.33 7.55 62.23 7.70 L 62.02 5.99 C 61.25 5.99 59.72 5.99 58.96 5.99 C 60.12 4.64 61.28 3.29 62.47 1.96 Z" />
</g>
<g id="#808080ff">
<path fill="#808080" opacity="1.00" d=" M 89.26 2.12 C 92.29 0.55 89.49 5.38 89.26 2.12 Z" />
<path fill="#808080" opacity="1.00" d=" M 49.09 4.90 C 49.29 4.59 49.68 3.96 49.88 3.64 C 50.10 3.95 50.53 4.57 50.74 4.88 C 50.33 4.89 49.50 4.90 49.09 4.90 Z" />
<path fill="#808080" opacity="1.00" d=" M 65.61 6.76 C 65.57 6.67 65.51 6.50 65.47 6.41 L 65.61 6.76 Z" />
</g>
<g id="#cddbddff">
<path fill="#cddbdd" opacity="1.00" d=" M 165.25 1.73 C 165.49 2.06 165.98 2.73 166.22 3.07 C 166.27 3.52 166.38 4.43 166.43 4.89 L 167.16 5.16 L 166.43 5.55 C 165.87 5.82 164.73 6.35 164.17 6.61 L 163.53 6.84 L 162.59 6.95 C 163.36 6.18 164.09 5.39 164.81 4.57 C 164.88 4.09 165.02 3.11 165.10 2.63 L 165.25 1.73 Z" />
<path fill="#cddbdd" opacity="1.00" d=" M 181.24 1.76 C 181.48 2.08 181.97 2.72 182.21 3.04 C 182.26 3.50 182.35 4.41 182.40 4.86 L 183.11 5.12 L 182.41 5.52 C 181.78 5.88 180.54 6.59 179.92 6.95 L 179.60 7.04 L 178.62 6.99 C 179.37 6.21 180.10 5.41 180.80 4.58 C 180.87 4.09 181.02 3.13 181.09 2.64 L 181.24 1.76 Z" />
<path fill="#cddbdd" opacity="1.00" d=" M 199.77 3.07 C 200.03 2.74 200.55 2.09 200.81 1.76 L 200.97 3.00 C 201.03 3.39 201.15 4.16 201.20 4.54 C 201.63 4.99 202.47 5.89 202.89 6.33 C 202.81 6.57 202.66 7.03 202.58 7.26 L 201.98 6.90 C 201.37 6.56 200.17 5.87 199.56 5.52 L 198.84 5.13 L 199.58 4.87 C 199.63 4.42 199.72 3.52 199.77 3.07 Z" />
<path fill="#cddbdd" opacity="1.00" d=" M 215.77 3.06 C 216.03 2.74 216.54 2.08 216.79 1.75 L 216.99 3.00 C 217.06 3.36 217.19 4.08 217.26 4.44 C 217.72 5.37 219.13 6.07 218.59 7.26 L 217.99 6.90 C 217.39 6.56 216.17 5.86 215.56 5.52 L 214.84 5.13 L 215.58 4.87 C 215.63 4.42 215.73 3.52 215.77 3.06 Z" />
<path fill="#cddbdd" opacity="1.00" d=" M 133.45 2.79 C 133.63 3.08 133.98 3.67 134.16 3.96 C 134.12 4.40 134.04 5.27 134.00 5.71 C 134.36 5.58 135.08 5.31 135.44 5.18 L 136.03 4.92 L 136.00 5.91 C 134.30 6.83 132.49 7.53 130.73 8.33 C 131.85 6.87 132.67 5.27 133.19 3.52 L 133.45 2.79 Z" />
<path fill="#cddbdd" opacity="1.00" d=" M 149.35 2.89 C 149.64 3.16 150.24 3.71 150.53 3.98 C 150.48 4.44 150.37 5.36 150.31 5.83 C 150.62 5.63 151.23 5.23 151.53 5.03 L 151.95 5.01 C 152.07 7.57 149.03 7.09 147.44 6.54 C 147.86 5.76 148.72 4.20 149.15 3.42 L 149.35 2.89 Z" />
</g>
<g id="#211010ff">
<path fill="#211010" opacity="1.00" d=" M 172.55 3.78 C 173.42 3.17 174.23 2.48 175.06 1.81 C 174.57 4.74 175.93 9.39 171.73 9.93 C 172.46 7.97 174.43 5.69 171.99 4.07 L 172.55 3.78 Z" />
<path fill="#211010" opacity="1.00" d=" M 156.39 5.11 C 157.41 4.40 158.31 3.53 159.26 2.74 C 159.04 3.41 158.58 4.75 158.36 5.42 C 160.14 7.83 158.10 10.23 155.88 11.29 L 156.05 9.68 L 156.37 8.84 C 157.15 7.78 157.31 6.04 155.87 5.41 L 156.39 5.11 Z" />
</g>
<g id="#241611ff">
<path fill="#241611" opacity="1.00" d=" M 188.86 3.96 C 189.67 3.21 190.43 2.41 191.21 1.62 C 190.90 2.73 190.59 3.84 190.30 4.95 C 190.55 6.14 191.14 7.32 190.96 8.56 C 190.11 9.52 189.16 10.39 188.23 11.27 C 188.58 12.22 188.93 13.18 189.29 14.14 L 187.66 14.08 L 187.03 14.08 C 186.97 13.64 186.85 12.77 186.79 12.34 C 186.61 11.77 186.26 10.65 186.08 10.09 L 187.09 9.96 C 187.44 9.75 188.16 9.34 188.51 9.13 C 188.85 8.14 189.13 7.14 189.35 6.12 C 188.68 5.93 187.36 5.54 186.69 5.35 C 187.23 5.00 188.32 4.31 188.86 3.96 Z" />
</g>
<g id="#5069c8ff">
<path fill="#5069c8" opacity="1.00" d=" M 17.31 3.86 C 17.48 3.59 17.83 3.03 18.01 2.75 C 18.55 2.87 19.62 3.11 20.16 3.23 L 20.38 3.81 C 19.71 5.11 18.16 4.75 17.31 3.86 Z" />
<path fill="#5069c8" opacity="1.00" d=" M 130.69 7.70 C 129.22 7.68 127.92 5.63 129.62 4.82 C 130.78 5.57 131.14 6.53 130.69 7.70 Z" />
<path fill="#5069c8" opacity="1.00" d=" M 146.68 8.12 C 145.55 7.84 144.01 5.13 145.94 5.06 C 146.29 5.65 147.01 6.82 147.36 7.41 L 147.13 7.95 L 146.68 8.12 Z" />
<path fill="#5069c8" opacity="1.00" d=" M 163.53 6.84 L 164.17 6.61 C 165.31 7.36 165.84 8.45 165.76 9.88 C 164.59 9.30 163.31 8.32 163.53 6.84 Z" />
<path fill="#5069c8" opacity="1.00" d=" M 131.00 10.86 C 132.93 10.14 133.99 12.65 132.20 13.61 C 131.90 12.92 131.30 11.55 131.00 10.86 Z" />
</g>
<g id="#4e2e3bff">
<path fill="#4e2e3b" opacity="1.00" d=" M 105.51 2.83 C 105.89 2.81 106.63 2.78 107.00 2.76 L 107.65 2.99 L 107.99 3.95 C 106.27 3.74 105.71 4.42 106.31 6.01 C 104.36 6.27 102.23 7.69 100.43 6.25 C 101.28 6.17 102.99 6.02 103.84 5.94 C 104.40 4.91 104.96 3.87 105.51 2.83 Z" />
<path fill="#4e2e3b" opacity="1.00" d=" M 122.51 2.82 C 122.89 2.80 123.64 2.77 124.01 2.75 L 124.66 2.99 L 124.99 3.95 C 123.27 3.74 122.71 4.42 123.30 6.00 C 121.54 6.38 119.79 6.81 118.03 7.22 L 117.98 6.00 C 118.69 6.00 120.12 6.00 120.83 6.00 C 121.39 4.94 121.95 3.88 122.51 2.82 Z" />
</g>
<g id="#1f1c0dff">
<path fill="#1f1c0d" opacity="1.00" d=" M 107.65 2.99 C 108.79 3.21 109.62 3.80 110.15 4.78 C 109.30 6.31 108.32 7.78 107.47 9.31 C 107.08 9.16 106.29 8.87 105.89 8.73 C 106.35 7.89 106.82 7.05 107.30 6.22 C 107.47 5.66 107.81 4.52 107.99 3.95 L 107.65 2.99 Z" />
<path fill="#1f1c0d" opacity="1.00" d=" M 124.66 2.99 C 125.62 3.33 127.93 4.09 126.75 5.50 C 126.02 6.76 125.22 7.98 124.47 9.23 C 124.07 9.11 123.26 8.88 122.86 8.76 C 123.33 7.91 123.80 7.06 124.29 6.22 C 124.47 5.65 124.81 4.52 124.99 3.95 L 124.66 2.99 Z" />
</g>
<g id="#251111ff">
<path fill="#251111" opacity="1.00" d=" M 140.43 5.26 C 141.36 4.40 142.28 3.53 143.21 2.66 C 142.90 3.75 142.60 4.84 142.30 5.93 C 143.61 8.35 142.79 10.73 140.46 12.08 L 139.86 11.17 L 140.29 10.41 C 141.78 8.62 141.34 6.12 138.57 6.33 L 139.16 6.07 C 139.48 5.87 140.11 5.46 140.43 5.26 Z" />
</g>
<g id="#4e2f3dff">
<path fill="#4e2f3d" opacity="1.00" d=" M 163.04 3.27 C 163.55 3.11 164.58 2.79 165.10 2.63 C 165.02 3.11 164.88 4.09 164.81 4.57 C 164.09 5.39 163.36 6.18 162.59 6.95 C 162.15 6.99 161.27 7.08 160.83 7.12 L 161.50 5.56 C 161.52 5.52 161.56 5.44 161.58 5.41 C 161.94 4.87 162.67 3.80 163.04 3.27 Z" />
<path fill="#4e2f3d" opacity="1.00" d=" M 179.03 3.27 C 179.55 3.11 180.57 2.80 181.09 2.64 C 181.02 3.13 180.87 4.09 180.80 4.58 C 180.10 5.41 179.37 6.21 178.62 6.99 C 178.21 6.92 177.39 6.78 176.98 6.71 L 177.34 5.86 C 177.42 5.69 177.60 5.36 177.69 5.20 C 178.02 4.72 178.70 3.75 179.03 3.27 Z" />
</g>
<g id="#6c85d2ff">
<path fill="#6c85d2" opacity="1.00" d=" M 137.27 5.56 C 135.73 3.29 139.76 3.87 140.43 5.26 C 140.11 5.46 139.48 5.87 139.16 6.07 C 138.68 5.94 137.74 5.69 137.27 5.56 Z" />
</g>
<g id="#7f93ccff">
<path fill="#7f93cc" opacity="1.00" d=" M 170.84 8.93 C 170.33 7.06 169.07 4.43 171.99 4.07 C 174.43 5.69 172.46 7.97 171.73 9.93 L 170.84 8.93 Z" />
</g>
<g id="#91a5d4ff">
<path fill="#91a5d4" opacity="1.00" d=" M 210.98 9.59 C 208.98 8.27 208.03 5.75 209.96 3.84 L 211.04 4.37 C 212.22 5.56 213.38 6.78 214.53 8.01 C 212.55 6.88 211.37 7.40 210.98 9.59 Z" />
</g>
<g id="#86acfcff">
<path fill="#86acfc" opacity="1.00" d=" M 11.05 5.83 C 11.88 5.87 13.56 5.94 14.40 5.98 C 14.06 7.17 13.69 8.37 13.29 9.55 L 13.00 8.76 C 12.63 8.78 11.90 8.82 11.53 8.85 L 10.69 9.25 C 10.78 8.39 10.96 6.69 11.05 5.83 Z" />
</g>
<g id="#4f66c1ff">
<path fill="#4f66c1" opacity="1.00" d=" M 35.99 6.26 C 37.83 6.64 40.04 6.80 41.06 8.64 C 39.65 8.65 38.21 8.71 36.83 8.36 C 36.62 7.84 36.20 6.78 35.99 6.26 Z" />
</g>
<g id="#899f86ff">
<path fill="#899f86" opacity="1.00" d=" M 50.87 5.99 L 51.47 6.00 C 52.52 6.55 53.29 7.35 53.80 8.41 C 53.63 8.67 53.29 9.18 53.12 9.43 C 51.74 8.83 51.15 7.37 50.87 5.99 Z" />
</g>
<g id="#78726bff">
<path fill="#78726b" opacity="1.00" d=" M 69.13 8.48 C 70.35 7.48 71.65 6.60 72.96 5.72 C 72.92 6.45 72.84 7.91 72.80 8.64 C 70.25 10.36 67.91 12.35 65.70 14.50 L 64.66 14.36 C 65.84 12.18 67.30 10.15 69.13 8.48 Z" />
</g>
<g id="#4e272bff">
<path fill="#4e272b" opacity="1.00" d=" M 106.31 6.01 L 107.30 6.22 C 106.82 7.05 106.35 7.89 105.89 8.73 C 106.29 8.87 107.08 9.16 107.47 9.31 C 107.66 9.70 108.05 10.48 108.24 10.87 L 107.47 11.23 C 106.91 11.28 105.80 11.39 105.24 11.44 C 103.32 10.78 102.61 13.16 102.95 14.62 C 101.09 13.33 99.15 12.16 97.22 10.97 C 97.29 10.44 97.43 9.37 97.50 8.83 L 97.55 8.48 L 97.36 8.14 L 97.20 6.48 C 98.28 7.31 99.39 8.09 100.48 8.90 C 101.83 8.94 103.18 8.98 104.54 9.01 C 105.10 7.99 105.69 6.99 106.31 6.01 M 101.55 10.13 C 101.91 13.18 104.84 8.64 101.55 10.13 Z" />
</g>
<g id="#6775b5ff">
<path fill="#6775b5" opacity="1.00" d=" M 154.50 6.14 C 154.84 5.96 155.53 5.59 155.87 5.41 C 157.31 6.04 157.15 7.78 156.37 8.84 C 155.98 8.69 155.20 8.40 154.81 8.25 C 154.73 7.72 154.58 6.67 154.50 6.14 Z" />
</g>
<g id="#7492e2ff">
<path fill="#7492e2" opacity="1.00" d=" M 185.33 6.67 C 185.67 6.34 186.35 5.68 186.69 5.35 C 187.36 5.54 188.68 5.93 189.35 6.12 C 189.13 7.14 188.85 8.14 188.51 9.13 C 188.18 9.00 187.51 8.73 187.17 8.60 L 186.67 9.21 C 186.33 8.58 185.66 7.31 185.33 6.67 Z" />
<path fill="#7492e2" opacity="1.00" d=" M 136.74 7.14 C 137.20 6.94 138.11 6.53 138.57 6.33 C 141.34 6.12 141.78 8.62 140.29 10.41 L 139.91 9.67 C 139.58 9.76 138.91 9.93 138.58 10.02 C 138.12 9.30 137.20 7.86 136.74 7.14 Z" />
</g>
<g id="#7f9de4ff">
<path fill="#7f9de4" opacity="1.00" d=" M 192.59 6.08 C 193.42 5.89 195.10 5.50 195.93 5.31 C 196.56 5.97 197.80 7.28 198.43 7.94 L 196.26 7.28 C 196.00 7.80 195.47 8.84 195.21 9.36 L 194.81 8.63 C 194.49 8.72 193.84 8.91 193.52 9.00 C 193.18 8.03 192.87 7.06 192.59 6.08 Z" />
</g>
<g id="#6884d9ff">
<path fill="#6884d9" opacity="1.00" d=" M 3.74 6.95 C 5.16 7.59 6.62 8.12 8.10 8.61 C 7.25 9.75 5.74 10.14 4.54 9.25 C 4.34 8.68 3.94 7.53 3.74 6.95 Z" />
<path fill="#6884d9" opacity="1.00" d=" M 179.60 7.04 L 179.92 6.95 C 181.25 7.56 182.61 8.13 183.98 8.66 C 183.31 9.92 181.68 9.77 180.58 9.25 C 180.34 8.70 179.84 7.59 179.60 7.04 Z" />
<path fill="#6884d9" opacity="1.00" d=" M 132.06 8.42 C 133.35 8.39 134.56 9.13 135.84 9.33 C 136.05 11.92 131.30 10.52 132.06 8.42 Z" />
</g>
<g id="#140909ff">
<path fill="#140909" opacity="1.00" d=" M 41.49 11.57 C 42.00 10.15 42.44 8.71 42.86 7.27 C 42.96 8.07 43.18 9.67 43.29 10.48 C 44.02 11.66 44.74 12.85 45.42 14.06 L 44.19 14.49 C 43.61 13.20 42.71 12.22 41.49 11.57 Z" />
<path fill="#140909" opacity="1.00" d=" M 89.99 8.52 L 90.97 7.88 C 91.03 8.51 91.14 9.79 91.19 10.42 C 92.05 11.65 92.81 12.94 93.40 14.31 L 92.27 14.42 C 91.57 13.63 90.88 12.83 90.20 12.02 C 90.09 10.86 90.02 9.69 89.99 8.52 Z" />
<path fill="#140909" opacity="1.00" d=" M 153.04 12.78 C 152.95 11.47 153.78 10.13 155.11 9.83 C 155.44 11.21 154.95 12.22 153.63 12.85 L 153.04 12.78 Z" />
</g>
<g id="#6178c8ff">
<path fill="#6178c8" opacity="1.00" d=" M 147.85 7.51 C 148.47 8.07 149.72 9.18 150.34 9.73 C 150.96 9.27 152.21 8.35 152.83 7.88 C 152.59 8.98 152.13 11.18 151.89 12.27 C 150.73 11.25 149.63 10.05 148.03 9.78 C 147.98 9.21 147.89 8.08 147.85 7.51 Z" />
</g>
<g id="#160b0bff">
<path fill="#160b0b" opacity="1.00" d=" M 9.78 11.62 C 10.10 10.83 10.40 10.04 10.69 9.25 C 11.62 10.77 12.89 12.26 12.98 14.12 L 12.43 14.36 C 11.62 13.37 10.73 12.46 9.78 11.62 Z" />
<path fill="#160b0b" opacity="1.00" d=" M 25.78 11.61 C 26.14 10.67 26.50 9.72 26.85 8.77 C 27.58 10.53 28.54 12.22 28.95 14.10 L 28.45 14.32 C 27.66 13.31 26.77 12.41 25.78 11.61 Z" />
<path fill="#160b0b" opacity="1.00" d=" M 74.32 9.52 L 74.62 9.30 C 75.60 10.85 76.94 12.32 77.08 14.24 L 76.57 14.27 C 75.63 13.60 74.81 12.80 74.10 11.89 C 74.16 11.29 74.27 10.11 74.32 9.52 Z" />
</g>
<g id="#6b6c59ff">
<path fill="#6b6c59" opacity="1.00" d=" M 49.22 14.22 C 49.20 12.37 50.23 10.52 52.22 10.32 L 52.49 10.83 C 51.99 12.29 51.23 13.76 49.72 14.38 L 49.22 14.22 Z" />
<path fill="#6b6c59" opacity="1.00" d=" M 81.27 14.21 C 81.34 12.44 82.38 9.51 84.65 10.81 C 84.09 12.27 83.20 13.67 81.73 14.35 L 81.27 14.21 Z" />
</g>
<g id="#8b9787ff">
<path fill="#8b9787" opacity="1.00" d=" M 55.72 10.93 C 55.96 10.63 56.43 10.03 56.66 9.73 C 56.97 10.30 57.57 11.43 57.87 12.00 C 58.64 12.86 59.45 13.70 60.29 14.50 C 58.73 14.10 57.30 13.29 55.80 12.72 C 55.78 12.27 55.74 11.38 55.72 10.93 Z" />
<path fill="#8b9787" opacity="1.00" d=" M 72.05 9.56 C 72.74 10.33 73.43 11.10 74.10 11.89 C 74.81 12.80 75.63 13.60 76.57 14.27 C 74.89 14.45 73.50 13.24 71.98 12.76 C 71.99 12.32 72.01 11.45 72.02 11.02 L 72.05 9.56 Z" />
<path fill="#8b9787" opacity="1.00" d=" M 87.88 9.38 C 88.66 10.25 89.44 11.13 90.20 12.02 C 90.88 12.83 91.57 13.63 92.27 14.42 C 90.72 14.26 89.42 13.28 88.00 12.73 C 88.00 12.30 88.01 11.44 88.02 11.01 L 87.88 9.38 Z" />
</g>
<g id="#5069c9ff">
<path fill="#5069c9" opacity="1.00" d=" M 177.99 11.22 C 178.56 11.01 179.71 10.59 180.28 10.38 L 180.59 10.91 C 180.25 11.49 179.56 12.63 179.22 13.20 C 178.92 12.71 178.30 11.71 177.99 11.22 Z" />
</g>
<g id="#978d8eff">
<path fill="#978d8e" opacity="1.00" d=" M 200.43 10.81 C 200.80 10.69 201.53 10.45 201.89 10.33 L 202.47 10.93 L 201.98 11.72 C 201.60 11.49 200.82 11.03 200.43 10.81 Z" />
<path fill="#978d8e" opacity="1.00" d=" M 177.60 13.26 C 178.00 13.24 178.82 13.22 179.22 13.20 C 178.91 13.53 178.29 14.19 177.98 14.52 L 177.36 14.08 L 177.60 13.26 Z" />
<path fill="#978d8e" opacity="1.00" d=" M 193.97 15.46 C 193.18 14.16 193.59 13.66 195.22 13.98 C 194.91 14.35 194.28 15.09 193.97 15.46 Z" />
</g>
<g id="#183805ff">
<path fill="#183805" opacity="1.00" d=" M 6.97 12.98 C 4.55 13.91 4.58 10.64 6.96 11.30 C 6.96 11.72 6.97 12.56 6.97 12.98 Z" />
<path fill="#183805" opacity="1.00" d=" M 55.00 12.81 C 52.63 13.99 52.53 10.68 54.91 11.09 C 54.93 11.52 54.98 12.38 55.00 12.81 Z" />
<path fill="#183805" opacity="1.00" d=" M 182.94 12.98 C 180.50 13.89 180.57 10.66 182.93 11.28 C 182.94 11.70 182.94 12.55 182.94 12.98 Z" />
</g>
<g id="#4ca81eff">
<path fill="#4ca81e" opacity="1.00" d=" M 6.96 11.30 L 7.62 11.01 C 7.98 11.24 8.69 11.71 9.05 11.95 L 8.84 12.61 C 8.37 12.70 7.44 12.89 6.97 12.98 C 6.97 12.56 6.96 11.72 6.96 11.30 Z" />
<path fill="#4ca81e" opacity="1.00" d=" M 182.93 11.28 L 183.60 10.98 C 183.94 11.22 184.62 11.71 184.97 11.95 L 184.78 12.62 C 184.32 12.71 183.40 12.89 182.94 12.98 C 182.94 12.55 182.94 11.70 182.93 11.28 Z" />
</g>
<g id="#4ba81bff">
<path fill="#4ba81b" opacity="1.00" d=" M 21.91 12.40 C 22.35 12.04 23.23 11.31 23.66 10.95 C 24.01 11.20 24.70 11.70 25.05 11.96 L 24.92 12.61 C 24.18 12.66 22.70 12.75 21.97 12.80 L 21.91 12.40 Z" />
<path fill="#4ba81b" opacity="1.00" d=" M 37.91 12.39 C 38.35 12.03 39.21 11.29 39.64 10.92 C 39.97 11.18 40.63 11.71 40.96 11.97 L 40.89 12.64 C 40.16 12.68 38.70 12.76 37.97 12.80 L 37.91 12.39 Z" />
<path fill="#4ba81b" opacity="1.00" d=" M 54.91 11.09 L 55.72 10.93 C 55.74 11.38 55.78 12.27 55.80 12.72 L 55.00 12.81 C 54.98 12.38 54.93 11.52 54.91 11.09 Z" />
<path fill="#4ba81b" opacity="1.00" d=" M 199.85 11.24 L 200.43 10.81 C 200.82 11.03 201.60 11.49 201.98 11.72 L 202.20 12.63 C 200.85 13.33 199.94 13.14 199.47 12.04 C 199.56 11.84 199.76 11.44 199.85 11.24 Z" />
</g>
<g id="#4aa817ff">
<path fill="#4aa817" opacity="1.00" d=" M 69.80 12.33 C 70.36 12.01 71.47 11.35 72.02 11.02 C 72.01 11.45 71.99 12.32 71.98 12.76 C 71.50 12.76 70.56 12.75 70.08 12.75 L 69.80 12.33 Z" />
<path fill="#4aa817" opacity="1.00" d=" M 85.81 12.34 C 86.36 12.01 87.47 11.34 88.02 11.01 C 88.01 11.44 88.00 12.30 88.00 12.73 C 87.52 12.74 86.57 12.75 86.09 12.75 L 85.81 12.34 Z" />
</g>
<g id="#231010ff">
<path fill="#231010" opacity="1.00" d=" M 105.24 11.44 C 105.80 11.39 106.91 11.28 107.47 11.23 C 106.59 12.81 105.80 14.44 104.88 16.00 L 102.80 16.00 L 103.40 15.14 C 104.23 14.03 104.92 12.80 105.24 11.44 Z" />
</g>
<g id="#1d0e0eff">
<path fill="#1d0e0e" opacity="1.00" d=" M 119.57 16.00 C 120.89 14.13 121.80 11.57 124.33 11.08 C 123.18 12.74 122.08 14.45 120.77 16.00 L 119.57 16.00 Z" />
</g>
<g id="#1a0c0cff">
<path fill="#1a0c0c" opacity="1.00" d=" M 137.17 12.78 C 136.83 11.44 137.45 10.78 139.01 10.80 C 138.73 11.33 138.17 12.40 137.89 12.93 L 137.17 12.78 Z" />
<path fill="#1a0c0c" opacity="1.00" d=" M 171.94 13.24 C 174.33 11.91 174.46 15.02 172.11 14.90 C 172.07 14.49 171.98 13.65 171.94 13.24 Z" />
<path fill="#1a0c0c" opacity="1.00" d=" M 204.85 13.09 C 207.06 11.83 207.35 15.31 205.04 14.78 C 204.99 14.35 204.90 13.51 204.85 13.09 Z" />
<path fill="#1a0c0c" opacity="1.00" d=" M 218.97 13.09 C 221.26 11.83 221.38 14.98 219.14 14.92 C 219.10 14.46 219.01 13.55 218.97 13.09 Z" />
<path fill="#1a0c0c" opacity="1.00" d=" M 12.98 14.12 C 14.55 13.04 15.43 15.23 13.92 16.00 L 13.25 16.00 C 13.18 15.53 13.04 14.59 12.98 14.12 Z" />
<path fill="#1a0c0c" opacity="1.00" d=" M 28.95 14.10 C 30.52 13.05 31.40 15.22 29.91 16.00 L 29.24 16.00 C 29.16 15.53 29.02 14.58 28.95 14.10 Z" />
<path fill="#1a0c0c" opacity="1.00" d=" M 45.42 14.06 C 45.76 14.06 46.46 14.06 46.81 14.06 C 46.57 14.54 46.10 15.51 45.86 16.00 L 45.18 16.00 C 45.24 15.52 45.36 14.55 45.42 14.06 Z" />
<path fill="#1a0c0c" opacity="1.00" d=" M 61.36 14.31 C 61.73 14.24 62.46 14.10 62.82 14.03 C 62.59 14.52 62.11 15.51 61.88 16.00 L 61.16 16.00 C 61.21 15.58 61.31 14.74 61.36 14.31 Z" />
<path fill="#1a0c0c" opacity="1.00" d=" M 77.08 14.24 C 78.60 12.89 79.52 15.32 77.94 16.00 L 77.24 16.00 C 77.20 15.56 77.12 14.68 77.08 14.24 Z" />
<path fill="#1a0c0c" opacity="1.00" d=" M 93.40 14.31 C 93.76 14.24 94.48 14.10 94.83 14.03 C 94.59 14.52 94.11 15.51 93.88 16.00 L 93.15 16.00 C 93.21 15.58 93.34 14.73 93.40 14.31 Z" />
<path fill="#1a0c0c" opacity="1.00" d=" M 189.29 14.14 C 190.99 12.93 191.43 15.49 189.88 16.00 L 189.20 16.00 C 189.22 15.53 189.26 14.60 189.29 14.14 Z" />
</g>
<g id="#506ed3ff">
<path fill="#506ed3" opacity="1.00" d=" M 9.05 11.95 L 9.78 11.62 C 10.73 12.46 11.62 13.37 12.43 14.36 C 12.18 14.46 11.68 14.68 11.44 14.79 C 10.44 14.22 9.57 13.49 8.84 12.61 L 9.05 11.95 Z" />
<path fill="#506ed3" opacity="1.00" d=" M 25.05 11.96 L 25.78 11.61 C 26.77 12.41 27.66 13.31 28.45 14.32 C 28.19 14.43 27.68 14.66 27.42 14.77 C 26.46 14.20 25.62 13.48 24.92 12.61 L 25.05 11.96 Z" />
<path fill="#506ed3" opacity="1.00" d=" M 40.96 11.97 L 41.49 11.57 C 42.71 12.22 43.61 13.20 44.19 14.49 C 43.97 14.58 43.52 14.76 43.30 14.84 C 42.40 14.21 41.59 13.48 40.89 12.64 L 40.96 11.97 Z" />
</g>
</svg>
