<?xml version="1.0" encoding="UTF-8" ?>
<!DOCTYPE svg PUBLIC "-//W3C//DTD SVG 1.1//EN" "http://www.w3.org/Graphics/SVG/1.1/DTD/svg11.dtd">
<svg width="224pt" height="16pt" viewBox="0 0 224 16" version="1.1" xmlns="http://www.w3.org/2000/svg">
<g id="#48a810ff">
<path fill="#48a810" opacity="1.00" d=" M 0.00 0.00 L 5.06 0.00 C 3.41 3.20 2.38 6.66 1.73 10.19 C 1.30 10.84 0.44 12.14 0.01 12.78 L 0.00 12.51 L 0.00 0.00 Z" />
<path fill="#48a810" opacity="1.00" d=" M 10.31 0.00 L 11.29 0.00 C 10.94 0.42 10.24 1.25 9.88 1.66 C 9.99 1.25 10.21 0.42 10.31 0.00 Z" />
<path fill="#48a810" opacity="1.00" d=" M 13.41 0.00 L 20.90 0.00 C 19.14 3.45 18.96 7.34 19.67 11.08 C 19.33 11.57 18.66 12.54 18.33 13.02 C 17.91 13.59 17.07 14.74 16.66 15.31 C 17.15 15.05 18.13 14.54 18.62 14.28 C 19.68 14.87 20.75 15.44 21.82 16.00 L 7.05 16.00 C 9.85 15.18 12.65 14.32 15.46 13.49 C 14.24 11.96 13.00 10.44 11.77 8.92 C 13.43 8.41 16.15 8.04 14.06 6.05 C 13.77 5.70 13.19 5.00 12.90 4.66 C 12.44 4.30 11.53 3.58 11.07 3.22 L 11.89 2.82 C 13.36 2.32 13.86 1.38 13.41 0.00 Z" />
<path fill="#48a810" opacity="1.00" d=" M 25.08 0.00 L 36.99 0.00 C 35.39 3.53 34.41 7.30 33.66 11.09 C 33.63 11.55 33.55 12.47 33.51 12.93 C 32.92 13.82 32.33 14.71 31.75 15.61 C 33.92 13.67 35.94 11.57 37.93 9.45 C 38.09 9.90 38.39 10.80 38.55 11.24 L 38.57 12.13 C 37.27 13.04 35.97 13.95 34.67 14.85 C 35.49 15.14 37.13 15.71 37.95 16.00 L 23.03 16.00 C 25.84 15.18 28.64 14.32 31.45 13.50 C 30.24 11.94 29.00 10.41 27.77 8.87 C 28.63 8.59 30.36 8.03 31.22 7.74 C 30.89 7.28 30.24 6.35 29.92 5.88 C 29.59 5.58 28.93 4.98 28.60 4.69 C 29.52 3.26 30.45 1.84 31.33 0.39 L 30.56 0.91 C 29.23 1.68 27.95 2.52 26.72 3.44 C 26.31 2.58 25.49 0.86 25.08 0.00 Z" />
<path fill="#48a810" opacity="1.00" d=" M 40.95 0.00 L 52.23 0.00 C 51.47 3.28 50.52 6.52 49.93 9.84 C 49.63 10.34 49.02 11.34 48.71 11.84 C 48.39 12.66 48.08 13.48 47.78 14.31 C 50.17 12.26 52.53 10.17 55.12 8.35 C 54.65 9.11 53.72 10.61 53.26 11.36 C 53.44 11.76 53.81 12.55 53.99 12.94 C 52.84 13.52 51.69 14.09 50.55 14.67 C 51.39 15.01 53.08 15.67 53.92 16.00 L 39.04 16.00 C 41.84 15.18 44.63 14.32 47.44 13.51 C 46.23 11.95 45.00 10.41 43.78 8.86 C 44.62 8.59 46.32 8.04 47.17 7.77 C 46.86 7.32 46.25 6.41 45.94 5.96 C 45.69 5.62 45.17 4.94 44.92 4.60 C 44.78 4.33 44.50 3.79 44.37 3.51 C 44.80 2.88 45.67 1.63 46.11 1.00 L 45.03 1.01 C 43.75 0.95 43.00 1.55 42.78 2.82 C 42.15 1.89 41.54 0.95 40.95 0.00 Z" />
<path fill="#48a810" opacity="1.00" d=" M 58.08 0.00 L 59.11 0.00 C 58.79 0.42 58.16 1.25 57.85 1.67 C 57.91 1.25 58.02 0.42 58.08 0.00 Z" />
<path fill="#48a810" opacity="1.00" d=" M 61.29 0.00 L 68.83 0.00 C 67.44 3.32 67.27 6.92 66.85 10.45 C 66.59 11.41 66.34 12.38 66.11 13.35 C 65.75 13.84 65.03 14.82 64.67 15.31 C 65.16 15.05 66.15 14.52 66.65 14.26 C 67.69 14.85 68.75 15.43 69.81 16.00 L 55.03 16.00 C 57.91 15.16 60.78 14.29 63.65 13.42 C 62.88 12.56 62.01 11.81 61.24 10.96 L 60.84 10.47 C 60.55 10.26 59.95 9.84 59.66 9.63 C 61.26 8.73 64.36 7.95 62.07 5.87 C 61.79 5.56 61.23 4.94 60.95 4.63 C 60.49 4.28 59.59 3.56 59.13 3.20 L 59.92 2.81 C 61.37 2.28 61.83 1.34 61.29 0.00 Z" />
<path fill="#48a810" opacity="1.00" d=" M 73.22 0.00 L 84.17 0.00 C 83.56 3.72 82.56 7.36 81.71 11.03 C 81.60 11.46 81.38 12.32 81.27 12.75 C 80.85 13.74 80.41 14.72 79.96 15.70 C 81.91 13.63 83.89 11.59 85.83 9.50 C 85.91 9.86 86.08 10.57 86.17 10.93 L 86.43 12.06 C 85.19 13.00 83.93 13.93 82.67 14.86 C 83.48 15.14 85.10 15.71 85.91 16.00 L 71.02 16.00 C 73.91 15.18 76.78 14.29 79.65 13.41 C 78.80 12.59 77.96 11.76 77.11 10.95 C 76.75 10.60 76.02 9.89 75.66 9.54 C 77.27 8.55 80.92 7.60 77.88 5.65 C 77.56 5.38 76.91 4.84 76.58 4.57 C 77.53 3.18 78.45 1.78 79.35 0.36 L 78.45 0.98 C 77.25 1.84 75.95 2.57 74.82 3.53 C 74.42 2.65 73.62 0.88 73.22 0.00 Z" />
<path fill="#48a810" opacity="1.00" d=" M 88.59 0.00 L 102.43 0.00 C 101.97 0.49 101.04 1.48 100.57 1.98 C 99.26 2.78 97.96 3.61 96.67 4.46 C 97.42 5.72 98.32 6.88 98.95 8.20 C 98.47 8.60 97.50 9.40 97.01 9.79 C 98.39 11.87 99.71 13.98 101.17 16.00 L 87.09 16.00 C 89.95 15.18 92.79 14.31 95.64 13.47 C 94.64 12.51 93.63 11.56 92.68 10.55 C 92.52 10.36 92.19 9.99 92.03 9.80 L 91.54 9.16 C 92.76 8.44 94.07 7.82 95.36 7.21 L 93.89 5.75 C 93.59 5.46 93.00 4.89 92.71 4.60 C 92.64 4.31 92.51 3.73 92.44 3.44 C 92.86 2.83 93.68 1.61 94.09 0.99 L 93.00 1.01 C 91.71 0.92 90.98 1.51 90.79 2.77 C 90.04 1.86 89.31 0.93 88.59 0.00 Z" />
<path fill="#48a810" opacity="1.00" d=" M 104.94 0.00 L 118.38 0.00 C 116.70 3.46 114.34 6.50 111.55 9.14 C 113.04 9.32 114.52 9.49 116.01 9.65 C 114.77 10.64 113.53 11.61 112.31 12.62 C 113.13 12.75 114.79 12.99 115.62 13.12 C 116.04 13.54 116.88 14.37 117.30 14.78 C 118.52 15.20 119.75 15.60 120.97 16.00 L 109.91 16.00 C 111.52 11.47 110.99 6.61 110.99 1.90 L 109.90 2.22 L 109.22 2.41 C 109.20 2.86 109.15 3.76 109.13 4.21 L 108.60 4.96 C 106.28 4.36 105.84 1.87 104.94 0.00 Z" />
<path fill="#48a810" opacity="1.00" d=" M 120.60 0.00 L 128.89 0.00 C 129.00 3.70 129.37 7.39 129.21 11.09 C 128.70 12.49 128.71 13.87 129.26 15.25 L 129.51 16.00 L 121.74 16.00 C 122.79 14.73 123.81 13.43 124.72 12.05 L 124.94 12.82 C 125.11 13.52 125.44 14.92 125.61 15.62 C 127.51 10.93 127.07 5.83 126.99 0.89 L 125.90 1.21 L 125.22 1.41 C 125.19 1.86 125.15 2.76 125.12 3.21 L 124.57 3.98 C 122.83 3.13 121.72 1.52 120.60 0.00 Z" />
<path fill="#48a810" opacity="1.00" d=" M 131.62 0.00 L 133.46 0.00 C 134.05 2.80 129.52 2.54 131.62 0.00 Z" />
<path fill="#48a810" opacity="1.00" d=" M 136.67 0.00 L 150.42 0.00 C 149.29 1.45 148.22 2.95 147.13 4.42 C 147.08 3.56 146.97 1.84 146.92 0.99 L 145.93 0.99 L 144.90 0.99 C 144.99 4.70 145.35 8.40 145.24 12.11 C 144.77 13.41 144.73 14.70 145.13 16.00 L 133.43 16.00 C 136.57 15.04 139.10 12.87 140.79 10.10 C 141.23 10.06 142.12 9.97 142.57 9.93 C 142.67 9.44 142.87 8.46 142.97 7.97 C 141.02 5.20 138.52 2.85 136.67 0.00 Z" />
<path fill="#48a810" opacity="1.00" d=" M 152.29 0.00 L 164.70 0.00 C 164.25 2.32 164.01 4.68 163.77 7.03 C 163.63 7.17 163.36 7.46 163.22 7.60 L 162.28 8.61 C 162.23 9.63 162.20 10.65 162.19 11.68 C 160.78 11.82 160.06 12.60 160.04 14.00 L 160.01 14.67 C 162.06 15.10 164.11 15.55 166.16 16.00 L 153.93 16.00 C 156.72 13.68 155.44 10.32 154.86 7.35 C 155.34 7.04 156.31 6.41 156.80 6.10 C 157.25 6.03 158.15 5.89 158.60 5.82 C 160.33 1.91 154.40 1.77 152.29 0.00 Z" />
<path fill="#48a810" opacity="1.00" d=" M 168.77 0.00 L 180.68 0.00 C 180.39 1.89 180.22 3.79 180.07 5.70 C 179.71 7.69 179.38 9.68 179.13 11.69 C 177.72 11.84 177.03 12.61 177.03 14.01 L 177.01 14.68 C 179.07 15.10 181.12 15.55 183.17 16.00 L 170.13 16.00 C 170.85 15.71 172.29 15.12 173.00 14.83 C 173.01 14.17 173.01 12.85 173.01 12.19 C 173.53 12.10 174.58 11.93 175.10 11.84 C 173.86 10.74 172.57 9.71 171.38 8.56 L 172.87 8.33 C 173.29 8.17 174.12 7.84 174.53 7.68 L 174.69 7.50 C 174.87 6.93 175.22 5.78 175.39 5.20 C 174.54 4.83 172.83 4.07 171.98 3.69 C 172.75 2.81 173.53 1.94 174.30 1.06 L 173.03 1.03 C 171.75 0.93 171.00 1.53 170.81 2.81 C 170.11 1.89 169.43 0.95 168.77 0.00 Z" />
<path fill="#48a810" opacity="1.00" d=" M 184.91 0.00 L 199.33 0.00 C 198.55 1.07 197.80 2.17 197.08 3.27 C 196.46 2.21 195.48 0.88 194.11 0.95 C 191.90 0.76 193.37 3.50 194.81 3.43 C 195.22 3.64 196.04 4.05 196.45 4.25 C 196.30 4.71 196.00 5.61 195.84 6.07 C 195.62 6.37 195.19 6.96 194.97 7.26 L 194.54 7.88 C 194.02 9.18 193.58 10.52 193.12 11.84 C 193.52 11.96 194.32 12.20 194.72 12.32 C 194.47 13.24 193.95 15.08 193.70 16.00 L 190.25 16.00 C 189.92 14.68 189.60 13.36 189.27 12.05 L 190.89 11.94 C 190.43 10.59 189.99 9.23 189.47 7.89 L 189.03 7.26 C 188.81 6.96 188.38 6.36 188.16 6.07 C 187.99 5.62 187.66 4.73 187.50 4.29 C 187.92 4.07 188.76 3.63 189.18 3.41 C 189.70 2.96 190.74 2.06 191.25 1.62 C 190.90 1.46 190.20 1.16 189.85 1.01 C 188.48 0.90 187.49 2.22 186.90 3.29 C 186.24 2.19 185.57 1.09 184.91 0.00 Z" />
<path fill="#48a810" opacity="1.00" d=" M 203.70 0.00 L 215.60 0.00 C 214.78 0.92 213.96 1.84 213.14 2.75 C 212.96 1.48 212.23 0.90 210.96 1.02 L 209.69 1.08 C 210.47 1.95 211.26 2.82 212.05 3.68 C 211.18 4.06 209.46 4.82 208.60 5.21 C 208.78 5.78 209.13 6.94 209.31 7.52 L 209.46 7.70 C 209.88 7.85 210.71 8.17 211.12 8.33 L 212.63 8.55 C 211.42 9.71 210.12 10.76 208.87 11.86 C 209.40 11.94 210.47 12.11 211.00 12.19 C 211.00 12.86 211.00 14.18 211.00 14.84 C 211.74 15.13 213.20 15.71 213.94 16.00 L 200.90 16.00 C 202.92 15.55 204.95 15.10 206.98 14.67 L 206.96 14.01 C 206.97 12.62 206.28 11.85 204.90 11.68 C 204.62 9.65 204.26 7.64 203.81 5.65 C 203.78 3.77 203.75 1.88 203.70 0.00 Z" />
<path fill="#48a810" opacity="1.00" d=" M 219.61 0.00 L 224.00 0.00 L 224.00 11.94 C 223.54 11.90 222.61 11.83 222.14 11.79 L 221.95 11.38 C 221.94 10.51 221.93 8.77 221.92 7.90 L 221.40 8.63 C 221.09 8.29 220.47 7.61 220.17 7.27 C 219.92 4.85 219.79 2.42 219.61 0.00 Z" />
<path fill="#48a810" opacity="1.00" d=" M 0.00 14.59 C 2.04 12.15 4.50 10.10 7.16 8.37 C 6.68 9.12 5.72 10.62 5.24 11.37 C 5.44 11.76 5.84 12.55 6.05 12.95 C 4.90 13.47 3.75 14.00 2.60 14.53 C 3.68 15.03 4.77 15.52 5.87 16.00 L 0.00 16.00 L 0.00 14.59 Z" />
<path fill="#48a810" opacity="1.00" d=" M 123.23 9.49 C 123.55 9.26 124.19 8.80 124.51 8.57 L 125.23 9.04 L 124.92 9.76 C 124.50 9.69 123.65 9.56 123.23 9.49 Z" />
<path fill="#48a810" opacity="1.00" d=" M 166.19 9.30 C 166.74 9.84 166.74 9.84 166.19 9.30 Z" />
<path fill="#48a810" opacity="1.00" d=" M 217.41 9.20 C 217.87 9.35 218.79 9.64 219.26 9.79 L 220.03 10.61 L 220.19 11.41 C 220.18 11.82 220.16 12.64 220.15 13.06 C 218.61 12.35 217.40 10.95 217.41 9.20 Z" />
<path fill="#48a810" opacity="1.00" d=" M 108.62 9.81 L 108.95 9.97 L 108.66 10.40 C 108.65 10.25 108.63 9.96 108.62 9.81 Z" />
<path fill="#48a810" opacity="1.00" d=" M 9.41 11.11 C 12.75 11.38 7.65 14.02 9.41 11.11 Z" />
<path fill="#48a810" opacity="1.00" d=" M 25.39 11.12 C 28.74 11.30 23.71 14.09 25.39 11.12 Z" />
<path fill="#48a810" opacity="1.00" d=" M 41.44 11.09 C 44.76 11.50 39.57 13.93 41.44 11.09 Z" />
<path fill="#48a810" opacity="1.00" d=" M 57.16 10.89 C 58.71 11.42 58.73 11.99 57.22 12.59 C 57.21 12.16 57.18 11.31 57.16 10.89 Z" />
<path fill="#48a810" opacity="1.00" d=" M 73.04 10.93 C 74.63 11.32 74.71 11.88 73.28 12.62 C 73.22 12.20 73.10 11.35 73.04 10.93 Z" />
<path fill="#48a810" opacity="1.00" d=" M 89.79 10.17 C 90.61 11.39 90.41 12.19 89.20 12.59 C 89.20 12.16 89.20 11.31 89.21 10.88 Z" />
<path fill="#48a810" opacity="1.00" d=" M 163.44 12.82 C 163.02 11.67 164.68 10.09 165.77 10.77 C 166.24 11.94 164.55 13.52 163.44 12.82 Z" />
<path fill="#48a810" opacity="1.00" d=" M 20.17 12.29 C 23.52 12.45 18.43 15.24 20.17 12.29 Z" />
<path fill="#48a810" opacity="1.00" d=" M 68.16 12.03 C 69.63 12.71 69.58 13.28 68.01 13.74 C 68.05 13.31 68.12 12.46 68.16 12.03 Z" />
<path fill="#48a810" opacity="1.00" d=" M 146.91 16.00 C 147.01 14.15 147.11 12.29 147.23 10.44 C 147.93 11.89 148.62 13.34 149.31 14.79 C 150.53 15.20 151.75 15.60 152.98 16.00 L 146.91 16.00 Z" />
<path fill="#48a810" opacity="1.00" d=" M 106.98 13.23 C 107.50 13.18 108.53 13.09 109.05 13.04 L 109.51 13.93 C 109.26 14.45 108.77 15.48 108.52 16.00 L 102.36 16.00 C 103.95 15.17 105.48 14.22 106.98 13.23 Z" />
<path fill="#48a810" opacity="1.00" d=" M 131.24 15.69 L 131.50 15.69 L 131.63 16.00 L 131.10 16.00 L 131.24 15.69 Z" />
<path fill="#48a810" opacity="1.00" d=" M 218.95 16.00 C 220.25 14.71 222.50 13.97 224.00 15.41 L 224.00 16.00 L 218.95 16.00 Z" />
</g>
<g id="#000000ff">
<path fill="#000000" opacity="1.00" d=" M 5.06 0.00 L 10.31 0.00 C 10.21 0.42 9.99 1.25 9.88 1.66 C 10.18 2.05 10.77 2.83 11.07 3.22 C 11.53 3.58 12.44 4.30 12.90 4.66 C 11.24 5.43 12.60 7.58 13.93 7.81 C 13.96 7.37 14.02 6.49 14.06 6.05 C 16.15 8.04 13.43 8.41 11.77 8.92 C 13.00 10.44 14.24 11.96 15.46 13.49 C 12.65 14.32 9.85 15.18 7.05 16.00 L 5.87 16.00 C 4.77 15.52 3.68 15.03 2.60 14.53 C 3.75 14.00 4.90 13.47 6.05 12.95 C 5.84 12.55 5.44 11.76 5.24 11.37 C 5.72 10.62 6.68 9.12 7.16 8.37 C 4.50 10.10 2.04 12.15 0.00 14.59 L 0.00 12.51 L 0.01 12.78 C 1.56 12.53 2.41 11.66 2.54 10.16 L 1.73 10.19 C 2.38 6.66 3.41 3.20 5.06 0.00 M 5.25 2.09 C 5.43 2.47 5.81 3.24 6.00 3.63 C 5.83 3.92 5.50 4.50 5.34 4.79 C 5.92 4.79 7.09 4.79 7.67 4.79 C 7.47 4.51 7.07 3.96 6.87 3.69 C 8.35 4.03 10.18 1.19 7.95 1.21 C 6.46 0.27 5.56 0.56 5.25 2.09 M 9.52 4.00 C 8.95 5.07 8.33 6.10 7.66 7.10 C 6.24 6.50 4.83 5.87 3.43 5.21 C 4.26 7.91 7.03 8.62 9.51 7.85 C 11.18 7.35 11.06 6.36 10.06 5.25 C 10.39 4.93 11.06 4.30 11.39 3.99 C 10.92 3.99 9.99 4.00 9.52 4.00 M 3.51 8.25 C 3.76 8.53 3.76 8.53 3.51 8.25 M 7.63 10.37 L 7.35 10.98 C 5.09 12.37 9.21 13.72 8.02 11.22 L 8.27 10.62 L 7.63 10.37 M 11.18 10.19 L 11.18 10.82 L 11.82 10.82 L 11.82 10.19 L 11.18 10.19 M 9.41 11.11 C 7.65 14.02 12.75 11.38 9.41 11.11 M 13.23 12.24 C 13.84 12.84 13.84 12.84 13.23 12.24 M 6.20 14.18 L 6.19 14.81 L 6.82 14.82 L 6.83 14.19 L 6.20 14.18 Z" />
<path fill="#000000" opacity="1.00" d=" M 12.63 0.00 L 13.41 0.00 C 13.86 1.38 13.36 2.32 11.89 2.82 C 12.07 2.12 12.44 0.71 12.63 0.00 Z" />
<path fill="#000000" opacity="1.00" d=" M 20.90 0.00 L 25.08 0.00 C 25.49 0.86 26.31 2.58 26.72 3.44 C 26.43 3.71 25.85 4.25 25.56 4.53 C 24.76 5.35 24.00 6.21 23.14 6.98 C 21.94 6.29 20.76 5.57 19.59 4.83 C 19.97 5.70 20.73 7.46 21.11 8.33 C 23.29 8.01 25.47 7.64 27.63 7.17 C 27.21 6.76 26.38 5.93 25.97 5.52 C 27.52 4.01 29.02 2.44 30.56 0.91 L 31.33 0.39 C 30.45 1.84 29.52 3.26 28.60 4.69 C 27.56 5.53 28.54 8.45 29.89 7.57 C 29.90 7.15 29.91 6.30 29.92 5.88 C 30.24 6.35 30.89 7.28 31.22 7.74 C 30.36 8.03 28.63 8.59 27.77 8.87 C 29.00 10.41 30.24 11.94 31.45 13.50 C 28.64 14.32 25.84 15.18 23.03 16.00 L 21.82 16.00 C 20.75 15.44 19.68 14.87 18.62 14.28 C 18.13 14.54 17.15 15.05 16.66 15.31 C 17.07 14.74 17.91 13.59 18.33 13.02 C 18.70 12.74 19.44 12.18 19.81 11.91 L 19.67 11.08 C 18.96 7.34 19.14 3.45 20.90 0.00 M 21.25 2.09 C 21.43 2.48 21.81 3.24 21.99 3.63 C 21.83 3.92 21.50 4.49 21.34 4.78 C 21.92 4.78 23.09 4.79 23.68 4.79 C 23.47 4.51 23.07 3.96 22.87 3.69 C 24.36 4.03 26.18 1.20 23.95 1.21 C 22.45 0.27 21.55 0.57 21.25 2.09 M 20.22 9.71 C 20.84 10.34 20.84 10.34 20.22 9.71 M 23.90 10.22 L 23.43 10.70 C 22.21 11.37 22.16 12.22 23.27 13.25 L 23.84 13.01 C 23.87 12.54 23.92 11.62 23.94 11.15 L 24.40 10.67 L 23.90 10.22 M 27.19 10.19 L 27.19 10.82 L 27.82 10.82 L 27.83 10.19 L 27.19 10.19 M 25.39 11.12 C 23.71 14.09 28.74 11.30 25.39 11.12 M 20.17 12.29 C 18.43 15.24 23.52 12.45 20.17 12.29 M 29.23 12.23 C 29.84 12.84 29.84 12.84 29.23 12.23 M 22.17 14.19 L 22.18 14.82 L 22.81 14.81 L 22.81 14.18 L 22.17 14.19 Z" />
<path fill="#000000" opacity="1.00" d=" M 36.99 0.00 L 40.95 0.00 C 41.54 0.95 42.15 1.89 42.78 2.82 C 44.14 3.22 44.88 2.61 45.03 1.01 L 46.11 1.00 C 45.67 1.63 44.80 2.88 44.37 3.51 C 44.50 3.79 44.78 4.33 44.92 4.60 L 44.47 5.02 C 43.69 5.86 44.62 8.39 45.86 7.62 C 45.88 7.20 45.92 6.37 45.94 5.96 C 46.25 6.41 46.86 7.32 47.17 7.77 C 46.32 8.04 44.62 8.59 43.78 8.86 C 45.00 10.41 46.23 11.95 47.44 13.51 C 44.63 14.32 41.84 15.18 39.04 16.00 L 37.95 16.00 C 37.13 15.71 35.49 15.14 34.67 14.85 C 35.97 13.95 37.27 13.04 38.57 12.13 C 38.78 12.46 39.21 13.13 39.42 13.46 L 39.91 13.08 C 39.94 12.57 39.99 11.55 40.01 11.03 L 40.15 10.43 C 39.94 10.50 39.53 10.65 39.32 10.73 L 38.55 11.24 C 38.39 10.80 38.09 9.90 37.93 9.45 C 35.94 11.57 33.92 13.67 31.75 15.61 C 32.33 14.71 32.92 13.82 33.51 12.93 C 33.77 12.44 34.28 11.45 34.54 10.95 L 33.66 11.09 C 34.41 7.30 35.39 3.53 36.99 0.00 M 37.25 2.09 C 37.43 2.48 37.81 3.24 37.99 3.63 C 37.83 3.92 37.51 4.50 37.34 4.79 C 37.93 4.79 39.10 4.78 39.68 4.78 C 39.48 4.51 39.07 3.96 38.87 3.69 C 40.35 4.03 42.18 1.19 39.95 1.21 C 38.45 0.27 37.55 0.57 37.25 2.09 M 41.53 4.05 C 40.73 5.01 40.44 6.78 39.09 7.10 C 37.89 6.34 36.71 5.56 35.53 4.76 C 35.95 8.96 40.36 8.49 43.14 7.09 C 42.18 6.06 42.18 4.96 43.04 3.87 C 42.66 3.91 41.90 4.00 41.53 4.05 M 35.10 8.26 C 33.59 11.33 38.37 8.43 35.10 8.26 M 43.19 10.19 L 43.19 10.82 L 43.82 10.82 L 43.82 10.19 L 43.19 10.19 M 41.44 11.09 C 39.57 13.93 44.76 11.50 41.44 11.09 M 45.25 12.24 C 45.85 12.85 45.85 12.85 45.25 12.24 M 38.20 14.18 L 38.20 14.81 L 38.83 14.82 L 38.83 14.18 L 38.20 14.18 Z" />
<path fill="#000000" opacity="1.00" d=" M 52.23 0.00 L 58.08 0.00 C 58.02 0.42 57.91 1.25 57.85 1.67 C 58.17 2.05 58.81 2.82 59.13 3.20 C 59.59 3.56 60.49 4.28 60.95 4.63 L 60.46 5.06 C 59.69 5.85 60.68 8.26 61.81 7.45 C 61.88 7.05 62.01 6.27 62.07 5.87 C 64.36 7.95 61.26 8.73 59.66 9.63 C 59.21 9.50 58.32 9.23 57.87 9.10 C 56.57 9.59 55.29 10.16 54.02 10.73 C 54.27 11.64 54.76 13.47 55.00 14.39 L 54.37 14.24 L 54.17 14.86 C 54.38 14.74 54.80 14.51 55.00 14.39 C 55.72 13.22 56.43 12.05 57.16 10.89 C 57.18 11.31 57.21 12.16 57.22 12.59 C 58.73 11.99 58.71 11.42 57.16 10.89 L 57.28 9.51 C 58.87 10.77 60.43 12.07 61.97 13.39 C 61.79 12.78 61.42 11.56 61.24 10.96 C 62.01 11.81 62.88 12.56 63.65 13.42 C 60.78 14.29 57.91 15.16 55.03 16.00 L 53.92 16.00 C 53.08 15.67 51.39 15.01 50.55 14.67 C 51.69 14.09 52.84 13.52 53.99 12.94 C 53.81 12.55 53.44 11.76 53.26 11.36 C 53.72 10.61 54.65 9.11 55.12 8.35 C 52.53 10.17 50.17 12.26 47.78 14.31 C 48.08 13.48 48.39 12.66 48.71 11.84 C 50.13 12.08 50.83 11.49 50.81 10.09 L 49.93 9.84 C 50.52 6.52 51.47 3.28 52.23 0.00 M 53.16 1.17 C 53.13 2.03 53.30 2.86 53.69 3.66 C 53.02 4.41 52.36 5.17 51.70 5.93 C 52.13 6.48 53.01 7.58 53.45 8.13 C 55.24 7.92 57.02 7.66 58.79 7.27 C 58.36 5.98 58.43 4.66 58.71 3.35 C 57.45 4.77 56.20 6.20 54.92 7.60 C 54.35 6.96 53.22 5.67 52.65 5.02 C 53.60 5.01 55.51 5.00 56.47 4.99 C 55.98 4.45 55.01 3.37 54.53 2.83 C 55.27 2.80 56.75 2.76 57.49 2.73 C 56.95 0.78 54.83 0.47 53.16 1.17 M 51.24 7.74 C 51.81 8.32 51.81 8.32 51.24 7.74 Z" />
<path fill="#000000" opacity="1.00" d=" M 60.50 0.00 L 61.29 0.00 C 61.83 1.34 61.37 2.28 59.92 2.81 C 60.07 2.11 60.35 0.70 60.50 0.00 Z" />
<path fill="#000000" opacity="1.00" d=" M 68.83 0.00 L 73.22 0.00 C 73.62 0.88 74.42 2.65 74.82 3.53 C 73.08 4.42 71.80 8.19 69.64 6.55 C 69.82 6.25 70.17 5.63 70.35 5.33 C 70.71 5.13 71.43 4.73 71.79 4.54 C 71.52 4.15 70.99 3.37 70.73 2.98 C 71.52 2.82 73.09 2.51 73.88 2.35 C 72.38 1.15 70.51 0.83 68.66 0.57 C 68.95 1.48 69.26 2.38 69.58 3.28 C 68.37 4.78 67.94 6.53 68.76 8.33 C 70.98 7.98 73.20 7.61 75.40 7.18 C 75.03 6.74 74.28 5.87 73.90 5.43 C 75.41 3.94 76.91 2.44 78.45 0.98 L 79.35 0.36 C 78.45 1.78 77.53 3.18 76.58 4.57 L 76.22 5.09 C 76.04 6.28 76.48 7.24 77.51 7.99 C 77.61 7.40 77.79 6.23 77.88 5.65 C 80.92 7.60 77.27 8.55 75.66 9.54 C 75.17 9.47 74.19 9.33 73.70 9.26 C 72.56 9.64 71.46 10.12 70.35 10.57 C 70.38 12.33 70.29 14.09 70.28 15.85 C 71.24 14.23 72.10 12.56 73.04 10.93 C 73.10 11.35 73.22 12.20 73.28 12.62 C 74.71 11.88 74.63 11.32 73.04 10.93 L 73.69 9.75 C 75.22 10.99 76.73 12.25 78.28 13.46 C 77.99 12.83 77.40 11.57 77.11 10.95 C 77.96 11.76 78.80 12.59 79.65 13.41 C 76.78 14.29 73.91 15.18 71.02 16.00 L 69.81 16.00 C 68.75 15.43 67.69 14.85 66.65 14.26 C 66.15 14.52 65.16 15.05 64.67 15.31 C 65.03 14.82 65.75 13.84 66.11 13.35 C 66.62 13.02 67.65 12.36 68.16 12.03 C 68.12 12.46 68.05 13.31 68.01 13.74 C 69.58 13.28 69.63 12.71 68.16 12.03 C 68.66 11.53 69.99 8.88 68.31 9.37 C 67.94 9.64 67.21 10.18 66.85 10.45 C 67.27 6.92 67.44 3.32 68.83 0.00 Z" />
<path fill="#000000" opacity="1.00" d=" M 84.17 0.00 L 88.59 0.00 C 89.31 0.93 90.04 1.86 90.79 2.77 C 92.13 3.20 92.87 2.62 93.00 1.01 L 94.09 0.99 C 93.68 1.61 92.86 2.83 92.44 3.44 C 92.51 3.73 92.64 4.31 92.71 4.60 L 92.34 5.06 C 91.65 5.94 92.76 8.49 93.90 7.43 C 93.89 7.01 93.89 6.17 93.89 5.75 L 95.36 7.21 C 94.07 7.82 92.76 8.44 91.54 9.16 L 92.03 9.80 C 91.52 9.56 90.51 9.06 90.00 8.82 C 88.69 9.46 87.40 10.14 86.17 10.93 C 86.08 10.57 85.91 9.86 85.83 9.50 C 83.89 11.59 81.91 13.63 79.96 15.70 C 80.41 14.72 80.85 13.74 81.27 12.75 C 81.63 12.54 82.35 12.11 82.71 11.90 L 82.59 11.03 L 81.71 11.03 C 82.56 7.36 83.56 3.72 84.17 0.00 M 85.16 1.17 C 85.11 2.05 85.30 2.88 85.73 3.66 C 85.04 4.40 84.37 5.14 83.70 5.90 C 84.13 6.46 84.99 7.57 85.42 8.12 C 87.42 7.95 89.41 7.64 91.32 7.02 C 90.96 6.64 90.24 5.90 89.88 5.53 C 90.22 5.02 90.90 3.99 91.24 3.48 C 89.38 4.35 88.28 6.14 86.95 7.60 C 86.38 6.96 85.22 5.67 84.65 5.02 C 85.60 5.01 87.51 5.00 88.46 5.00 C 87.99 4.46 87.05 3.39 86.57 2.86 C 87.31 2.82 88.78 2.74 89.51 2.70 C 88.91 0.81 86.81 0.46 85.16 1.17 M 83.11 8.27 C 81.56 11.29 86.40 8.45 83.11 8.27 Z" />
<path fill="#000000" opacity="1.00" d=" M 102.43 0.00 L 104.94 0.00 C 105.84 1.87 106.28 4.36 108.60 4.96 C 107.57 6.45 107.90 8.50 109.79 9.03 C 110.02 7.41 109.95 5.77 109.87 4.15 C 109.88 3.67 109.90 2.70 109.90 2.22 L 110.99 1.90 C 110.99 6.61 111.52 11.47 109.91 16.00 L 108.52 16.00 C 108.77 15.48 109.26 14.45 109.51 13.93 C 110.36 12.76 110.71 10.50 108.95 9.97 L 108.62 9.81 C 108.63 9.96 108.65 10.25 108.66 10.40 C 108.76 11.06 108.96 12.38 109.05 13.04 C 108.53 13.09 107.50 13.18 106.98 13.23 C 105.48 14.22 103.95 15.17 102.36 16.00 L 101.17 16.00 C 99.71 13.98 98.39 11.87 97.01 9.79 C 97.50 9.40 98.47 8.60 98.95 8.20 C 98.32 6.88 97.42 5.72 96.67 4.46 C 97.96 3.61 99.26 2.78 100.57 1.98 C 101.04 1.48 101.97 0.49 102.43 0.00 M 102.12 2.12 L 102.11 3.00 L 102.13 3.89 C 101.49 5.76 105.52 5.76 104.87 3.89 L 104.89 3.00 L 104.88 2.12 C 105.58 0.26 101.41 0.27 102.12 2.12 M 99.18 3.19 L 99.19 3.82 L 99.82 3.82 L 99.82 3.19 L 99.18 3.19 M 98.22 4.72 C 98.84 5.34 98.84 5.34 98.22 4.72 M 100.12 4.84 C 100.34 5.36 100.77 6.39 100.99 6.91 C 101.00 7.61 101.02 9.01 101.03 9.71 L 101.92 8.54 C 102.36 8.65 103.26 8.86 103.70 8.97 C 106.25 9.87 107.16 7.00 107.28 5.05 L 106.03 5.02 L 105.83 6.09 L 105.32 6.00 C 104.44 5.98 102.68 5.95 101.80 5.93 C 101.56 5.59 101.08 4.92 100.83 4.59 L 100.12 4.84 M 102.36 10.18 L 102.36 10.84 L 103.00 10.86 C 105.00 12.62 105.01 8.39 103.00 10.16 L 102.36 10.18 M 106.12 10.24 C 104.50 13.24 109.38 10.55 106.12 10.24 M 101.11 14.47 C 102.14 14.57 102.61 13.89 102.52 12.45 C 101.76 9.85 100.00 13.34 101.11 14.47 Z" />
<path fill="#000000" opacity="1.00" d=" M 118.38 0.00 L 120.60 0.00 C 121.72 1.52 122.83 3.13 124.57 3.98 C 123.58 5.46 123.88 7.51 125.80 7.98 C 126.02 6.38 125.95 4.75 125.88 3.13 C 125.88 2.65 125.89 1.69 125.90 1.21 L 126.99 0.89 C 127.07 5.83 127.51 10.93 125.61 15.62 C 125.44 14.92 125.11 13.52 124.94 12.82 C 126.57 12.45 126.67 9.72 125.23 9.04 L 124.51 8.57 C 124.19 8.80 123.55 9.26 123.23 9.49 C 123.65 9.56 124.50 9.69 124.92 9.76 C 124.87 10.33 124.77 11.48 124.72 12.05 C 123.81 13.43 122.79 14.73 121.74 16.00 L 120.97 16.00 C 119.75 15.60 118.52 15.20 117.30 14.78 C 116.88 14.37 116.04 13.54 115.62 13.12 C 114.79 12.99 113.13 12.75 112.31 12.62 C 113.53 11.61 114.77 10.64 116.01 9.65 C 114.52 9.49 113.04 9.32 111.55 9.14 C 114.34 6.50 116.70 3.46 118.38 0.00 M 118.12 2.12 L 118.11 3.00 L 118.12 3.89 C 117.47 5.76 121.50 5.74 120.87 3.88 L 120.89 3.00 L 120.88 2.12 C 121.58 0.26 117.41 0.27 118.12 2.12 M 122.48 4.62 C 121.30 5.22 120.15 5.84 119.01 6.50 C 118.57 6.39 117.67 6.15 117.22 6.03 L 117.24 5.04 L 115.74 5.04 C 115.87 6.89 116.66 9.96 119.17 8.88 C 119.63 8.83 120.56 8.72 121.02 8.67 L 121.45 9.32 C 123.08 8.11 123.09 6.18 123.01 4.34 C 122.88 4.41 122.61 4.55 122.48 4.62 M 113.56 8.05 L 113.00 8.30 C 113.21 8.40 113.62 8.61 113.83 8.71 C 116.31 9.60 114.53 5.50 113.56 8.05 M 116.10 10.26 C 114.58 13.33 119.37 10.43 116.10 10.26 M 118.36 10.18 C 117.78 11.73 121.16 11.74 120.63 10.19 C 120.06 10.19 118.93 10.18 118.36 10.18 M 120.49 12.45 C 120.39 13.90 120.86 14.57 121.89 14.46 C 123.00 13.33 121.24 9.85 120.49 12.45 Z" />
<path fill="#000000" opacity="1.00" d=" M 129.93 0.00 L 131.62 0.00 C 129.52 2.54 134.05 2.80 133.46 0.00 L 136.67 0.00 C 138.52 2.85 141.02 5.20 142.97 7.97 C 142.87 8.46 142.67 9.44 142.57 9.93 C 142.30 8.34 141.65 6.71 140.14 5.93 C 140.17 7.35 140.51 8.72 140.79 10.10 C 139.10 12.87 136.57 15.04 133.43 16.00 L 131.63 16.00 L 131.50 15.69 L 131.24 15.69 L 131.10 16.00 L 129.51 16.00 L 129.26 15.25 C 130.26 14.08 130.30 12.49 129.93 11.07 C 130.17 9.98 130.43 8.91 130.71 7.83 C 130.13 5.26 130.02 2.62 129.93 0.00 M 134.24 2.96 C 134.47 3.39 134.93 4.25 135.16 4.68 C 133.81 5.08 133.18 5.85 133.25 6.99 C 133.79 8.31 134.71 8.54 136.00 7.70 L 136.65 7.55 L 137.24 7.37 C 137.05 7.27 136.67 7.08 136.48 6.98 L 135.79 7.11 L 134.75 6.68 C 135.24 6.40 136.22 5.85 136.71 5.57 C 136.53 5.35 136.17 4.89 136.00 4.66 C 136.18 4.23 136.55 3.38 136.73 2.95 C 138.78 0.14 132.23 0.13 134.24 2.96 M 131.94 5.43 C 135.14 5.26 130.73 2.11 131.94 5.43 M 138.10 4.26 C 136.54 7.29 141.37 4.48 138.10 4.26 M 131.28 5.53 L 131.35 6.21 L 132.01 6.12 L 131.94 5.43 L 131.28 5.53 M 134.73 9.12 C 135.00 12.30 137.93 7.61 134.73 9.12 M 138.09 9.26 C 136.58 12.32 141.36 9.43 138.09 9.26 M 133.03 10.27 L 132.60 11.11 C 131.34 11.57 132.42 13.49 133.19 13.99 C 133.35 14.15 133.66 14.47 133.81 14.62 L 133.81 13.99 C 134.58 13.49 135.66 11.57 134.40 11.11 L 133.97 10.28 L 133.03 10.27 Z" />
<path fill="#000000" opacity="1.00" d=" M 150.42 0.00 L 152.29 0.00 C 154.40 1.77 160.33 1.91 158.60 5.82 C 158.46 4.57 157.92 3.60 156.98 2.92 C 155.23 2.98 156.20 5.28 156.80 6.10 C 156.31 6.41 155.34 7.04 154.86 7.35 C 155.44 10.32 156.72 13.68 153.93 16.00 L 152.98 16.00 C 151.75 15.60 150.53 15.20 149.31 14.79 C 148.62 13.34 147.93 11.89 147.23 10.44 C 147.11 12.29 147.01 14.15 146.91 16.00 L 145.69 16.00 C 146.17 14.75 146.25 13.46 145.91 12.13 C 146.14 11.02 146.44 9.93 146.71 8.83 C 146.12 6.26 146.02 3.62 145.93 0.99 L 146.92 0.99 C 146.97 1.84 147.08 3.56 147.13 4.42 C 148.22 2.95 149.29 1.45 150.42 0.00 M 150.36 3.11 C 150.40 3.66 150.47 4.76 150.51 5.31 C 151.07 5.56 152.20 6.05 152.76 6.30 L 150.67 7.68 L 150.23 7.20 C 149.86 6.39 149.20 3.98 148.04 4.71 C 147.97 5.11 147.84 5.91 147.77 6.32 L 147.20 6.66 L 147.51 7.27 L 148.08 6.95 C 148.53 7.11 149.42 7.44 149.87 7.60 L 150.20 8.01 C 151.05 7.98 152.76 7.91 153.61 7.88 C 155.40 6.83 154.90 4.68 155.14 2.96 L 154.39 3.02 C 154.26 4.17 153.85 5.16 153.17 5.99 C 152.72 5.19 152.58 4.35 152.77 3.46 L 152.57 3.11 C 154.83 0.22 148.22 0.15 150.36 3.11 M 148.11 9.25 C 146.56 12.30 151.37 9.46 148.11 9.25 M 150.69 9.12 C 150.99 12.30 153.85 7.58 150.69 9.12 M 153.03 10.27 L 152.60 11.11 C 151.34 11.56 152.42 13.49 153.19 13.99 C 153.34 14.15 153.66 14.47 153.81 14.63 L 153.81 13.99 C 154.57 13.49 155.65 11.57 154.40 11.11 L 153.97 10.27 L 153.03 10.27 Z" />
<path fill="#000000" opacity="1.00" d=" M 164.70 0.00 L 168.77 0.00 C 169.43 0.95 170.11 1.89 170.81 2.81 C 172.14 3.21 172.88 2.62 173.03 1.03 L 174.30 1.06 C 173.53 1.94 172.75 2.81 171.98 3.69 C 172.83 4.07 174.54 4.83 175.39 5.20 C 175.22 5.78 174.87 6.93 174.69 7.50 L 174.53 7.68 C 174.34 7.14 173.96 6.06 173.76 5.52 C 173.40 5.40 172.67 5.16 172.31 5.05 C 172.00 4.76 171.37 4.19 171.05 3.91 C 171.24 4.38 171.62 5.33 171.81 5.80 C 172.08 6.43 172.61 7.70 172.87 8.33 L 171.38 8.56 C 172.57 9.71 173.86 10.74 175.10 11.84 C 174.58 11.93 173.53 12.10 173.01 12.19 C 173.01 12.85 173.01 14.17 173.00 14.83 C 172.29 15.12 170.85 15.71 170.13 16.00 L 166.16 16.00 C 164.11 15.55 162.06 15.10 160.01 14.67 L 160.04 14.00 C 161.44 13.86 162.15 13.09 162.19 11.68 C 162.20 10.65 162.23 9.63 162.28 8.61 L 163.22 7.60 C 163.12 8.68 162.93 10.85 162.84 11.93 C 163.82 10.58 164.69 9.15 165.44 7.66 C 167.37 7.93 169.30 7.81 171.18 7.31 C 170.79 6.42 170.00 4.64 169.60 3.75 C 168.92 4.41 168.24 5.06 167.57 5.72 C 167.05 5.87 166.01 6.18 165.49 6.34 C 165.06 6.51 164.20 6.85 163.77 7.03 C 164.01 4.68 164.25 2.32 164.70 0.00 M 165.13 1.52 L 165.30 2.48 L 165.36 3.03 C 163.79 4.45 166.85 6.20 167.75 4.58 L 167.63 3.88 C 169.92 3.57 169.00 -0.26 166.84 1.09 L 165.95 0.82 L 165.13 1.52 M 166.19 9.30 C 166.74 9.84 166.74 9.84 166.19 9.30 M 168.16 10.90 C 166.39 10.99 166.96 13.55 168.17 14.07 L 168.27 14.69 C 168.40 14.51 168.65 14.14 168.78 13.96 C 168.77 13.27 168.76 11.91 168.75 11.23 C 170.05 11.02 170.72 10.32 170.76 9.13 C 169.71 8.44 167.89 9.70 168.16 10.90 M 163.44 12.82 C 164.55 13.52 166.24 11.94 165.77 10.77 C 164.68 10.09 163.02 11.67 163.44 12.82 M 170.22 12.21 C 170.82 12.83 170.82 12.83 170.22 12.21 Z" />
<path fill="#000000" opacity="1.00" d=" M 180.68 0.00 L 184.91 0.00 C 185.57 1.09 186.24 2.19 186.90 3.29 C 187.05 3.54 187.35 4.04 187.50 4.29 C 187.66 4.73 187.99 5.62 188.16 6.07 C 187.65 5.88 186.64 5.51 186.13 5.33 C 186.03 5.79 185.82 6.72 185.71 7.18 C 185.34 6.86 184.61 6.22 184.24 5.90 L 183.58 5.93 L 183.05 5.97 C 182.64 6.00 181.83 6.07 181.42 6.10 C 181.45 8.42 184.35 8.11 185.94 7.89 L 186.63 8.03 C 187.00 8.38 187.74 9.07 188.11 9.42 L 188.37 9.91 L 188.87 9.78 L 188.86 9.23 C 188.90 8.74 188.99 7.75 189.03 7.26 L 189.47 7.89 C 189.99 9.23 190.43 10.59 190.89 11.94 L 189.27 12.05 C 189.60 13.36 189.92 14.68 190.25 16.00 L 183.17 16.00 C 181.12 15.55 179.07 15.10 177.01 14.68 L 177.03 14.01 C 178.43 13.87 179.13 13.10 179.13 11.69 C 179.38 9.68 179.71 7.69 180.07 5.70 C 180.22 3.79 180.39 1.89 180.68 0.00 M 181.14 1.51 L 181.30 2.47 L 181.36 3.03 C 179.80 4.44 182.85 6.22 183.75 4.59 L 183.63 3.89 C 185.91 3.57 185.01 -0.26 182.84 1.09 L 181.96 0.82 L 181.14 1.51 M 180.78 8.32 C 180.68 8.70 180.48 9.46 180.38 9.85 L 180.21 10.47 L 180.84 10.66 L 181.05 10.05 C 181.18 9.68 181.43 8.93 181.56 8.56 L 180.78 8.32 M 182.26 11.34 C 182.37 11.53 182.59 11.92 182.69 12.11 L 182.90 11.54 C 183.07 11.19 183.41 10.48 183.59 10.13 L 182.79 9.88 C 182.66 10.25 182.39 10.98 182.26 11.34 M 186.08 10.27 C 186.12 10.68 186.20 11.48 186.24 11.89 C 186.22 13.05 186.82 13.84 188.03 14.25 C 188.22 14.36 188.59 14.58 188.77 14.69 L 188.59 14.10 C 188.73 13.06 188.45 12.11 187.74 11.24 L 187.32 11.10 L 186.92 10.28 L 186.08 10.27 M 181.17 13.18 L 181.17 13.82 L 181.81 13.82 L 181.81 13.18 L 181.17 13.18 Z" />
<path fill="#000000" opacity="1.00" d=" M 199.33 0.00 L 203.70 0.00 C 203.75 1.88 203.78 3.77 203.81 5.65 C 204.26 7.64 204.62 9.65 204.90 11.68 C 204.86 13.09 205.55 13.87 206.96 14.01 L 206.98 14.67 C 204.95 15.10 202.92 15.55 200.90 16.00 L 193.70 16.00 C 193.95 15.08 194.47 13.24 194.72 12.32 C 194.32 12.20 193.52 11.96 193.12 11.84 C 193.58 10.52 194.02 9.18 194.54 7.88 L 194.97 7.26 C 195.01 7.75 195.10 8.74 195.14 9.23 L 195.13 9.78 L 195.62 9.91 L 195.89 9.42 C 196.26 9.08 196.99 8.38 197.36 8.03 L 198.05 7.90 C 199.64 8.10 202.53 8.43 202.59 6.11 C 202.18 6.07 201.36 6.00 200.96 5.97 L 200.42 5.93 L 199.76 5.90 C 199.39 6.22 198.65 6.86 198.28 7.18 C 198.18 6.72 197.97 5.79 197.87 5.32 C 197.36 5.51 196.35 5.88 195.84 6.07 C 196.00 5.61 196.30 4.71 196.45 4.25 C 196.61 4.01 196.92 3.52 197.08 3.27 C 197.80 2.17 198.55 1.07 199.33 0.00 M 200.38 3.90 L 200.26 4.60 C 201.16 6.22 204.21 4.42 202.64 3.02 L 202.70 2.47 L 202.86 1.51 L 202.04 0.82 L 201.16 1.09 C 198.98 -0.25 198.09 3.58 200.38 3.90 M 202.44 8.56 C 202.57 8.93 202.82 9.68 202.95 10.05 L 203.16 10.66 L 203.79 10.47 L 203.62 9.85 C 203.52 9.46 203.32 8.70 203.22 8.32 L 202.44 8.56 M 197.08 10.27 L 196.68 11.09 L 196.26 11.24 C 195.55 12.11 195.27 13.06 195.41 14.10 L 195.22 14.68 C 195.41 14.58 195.78 14.36 195.97 14.25 C 197.17 13.84 197.77 13.05 197.76 11.89 C 197.80 11.49 197.88 10.68 197.93 10.27 L 197.08 10.27 M 201.12 11.53 L 201.34 12.09 C 201.44 11.89 201.65 11.51 201.75 11.31 C 202.74 8.83 198.50 10.42 201.12 11.53 M 202.20 13.18 L 202.20 13.82 L 202.83 13.82 L 202.83 13.18 L 202.20 13.18 Z" />
<path fill="#000000" opacity="1.00" d=" M 215.60 0.00 L 219.61 0.00 C 219.79 2.42 219.92 4.85 220.17 7.27 C 219.77 7.02 218.99 6.53 218.60 6.28 C 218.05 6.14 216.96 5.87 216.41 5.73 C 215.73 5.07 215.05 4.41 214.37 3.75 C 213.98 4.67 213.20 6.53 212.80 7.45 C 214.81 7.84 216.85 7.86 218.87 7.58 L 219.26 9.79 C 218.79 9.64 217.87 9.35 217.41 9.20 C 217.40 10.95 218.61 12.35 220.15 13.06 C 220.16 12.64 220.18 11.82 220.19 11.41 L 220.03 10.61 C 220.48 9.95 220.94 9.29 221.40 8.63 L 221.92 7.90 C 221.93 8.77 221.94 10.51 221.95 11.38 L 221.81 11.46 C 221.89 11.54 222.06 11.71 222.14 11.79 C 222.40 12.30 222.92 13.32 223.18 13.83 L 224.00 13.52 L 224.00 15.41 C 222.50 13.97 220.25 14.71 218.95 16.00 L 213.94 16.00 C 213.20 15.71 211.74 15.13 211.00 14.84 C 211.00 14.18 211.00 12.86 211.00 12.19 C 210.47 12.11 209.40 11.94 208.87 11.86 C 210.12 10.76 211.42 9.71 212.63 8.55 L 211.12 8.33 C 211.39 7.70 211.92 6.43 212.19 5.80 C 212.38 5.33 212.76 4.38 212.95 3.91 C 212.63 4.19 212.00 4.76 211.69 5.04 C 211.33 5.17 210.60 5.41 210.24 5.53 C 210.05 6.07 209.66 7.15 209.46 7.70 L 209.31 7.52 C 209.13 6.94 208.78 5.78 208.60 5.21 C 209.46 4.82 211.18 4.06 212.05 3.68 C 211.26 2.82 210.47 1.95 209.69 1.08 L 210.96 1.02 C 211.09 2.63 211.82 3.20 213.14 2.75 C 213.96 1.84 214.78 0.92 215.60 0.00 M 216.37 3.88 L 216.24 4.57 C 217.12 6.20 220.20 4.46 218.64 3.03 L 218.70 2.48 L 218.87 1.52 L 218.05 0.82 L 217.17 1.09 C 215.00 -0.26 214.07 3.56 216.37 3.88 M 213.24 9.13 C 213.27 10.32 213.94 11.02 215.25 11.22 C 215.24 11.91 215.22 13.27 215.22 13.95 C 215.34 14.14 215.60 14.50 215.72 14.69 L 215.83 14.07 C 217.03 13.55 217.61 11.00 215.84 10.90 C 216.10 9.70 214.28 8.44 213.24 9.13 M 213.22 12.22 C 213.82 12.82 213.82 12.82 213.22 12.22 Z" />
<path fill="#000000" opacity="1.00" d=" M 189.85 1.01 C 190.20 1.16 190.90 1.46 191.25 1.62 C 190.74 2.06 189.70 2.96 189.18 3.41 C 189.35 2.81 189.68 1.61 189.85 1.01 Z" />
<path fill="#000000" opacity="1.00" d=" M 194.81 3.43 C 193.37 3.50 191.90 0.76 194.11 0.95 C 194.28 1.57 194.63 2.81 194.81 3.43 Z" />
<path fill="#000000" opacity="1.00" d=" M 165.94 3.21 C 166.19 3.31 166.69 3.52 166.94 3.62 C 166.69 3.52 166.19 3.31 165.94 3.21 Z" />
<path fill="#000000" opacity="1.00" d=" M 181.94 3.21 C 182.19 3.32 182.69 3.52 182.94 3.63 C 182.69 3.52 182.19 3.32 181.94 3.21 Z" />
<path fill="#000000" opacity="1.00" d=" M 201.05 3.63 C 201.30 3.53 201.80 3.32 202.05 3.21 C 201.80 3.32 201.30 3.53 201.05 3.63 Z" />
<path fill="#000000" opacity="1.00" d=" M 217.06 3.62 C 217.31 3.52 217.81 3.31 218.06 3.21 C 217.81 3.31 217.31 3.52 217.06 3.62 Z" />
</g>
<g id="#3e6e9cff">
<path fill="#3e6e9c" opacity="1.00" d=" M 11.29 0.00 L 12.63 0.00 C 12.44 0.71 12.07 2.12 11.89 2.82 L 11.07 3.22 C 10.77 2.83 10.18 2.05 9.88 1.66 C 10.24 1.25 10.94 0.42 11.29 0.00 Z" />
<path fill="#3e6e9c" opacity="1.00" d=" M 186.90 3.29 C 187.49 2.22 188.48 0.90 189.85 1.01 C 189.68 1.61 189.35 2.81 189.18 3.41 C 188.76 3.63 187.92 4.07 187.50 4.29 C 187.35 4.04 187.05 3.54 186.90 3.29 Z" />
<path fill="#3e6e9c" opacity="1.00" d=" M 194.11 0.95 C 195.48 0.88 196.46 2.21 197.08 3.27 C 196.92 3.52 196.61 4.01 196.45 4.25 C 196.04 4.05 195.22 3.64 194.81 3.43 C 194.63 2.81 194.28 1.57 194.11 0.95 Z" />
</g>
<g id="#5b6e50ff">
<path fill="#5b6e50" opacity="1.00" d=" M 59.11 0.00 L 60.50 0.00 C 60.35 0.70 60.07 2.11 59.92 2.81 L 59.13 3.20 C 58.81 2.82 58.17 2.05 57.85 1.67 C 58.16 1.25 58.79 0.42 59.11 0.00 Z" />
</g>
<g id="#446cd8ff">
<path fill="#446cd8" opacity="1.00" d=" M 128.89 0.00 L 129.93 0.00 C 130.02 2.62 130.13 5.26 130.71 7.83 C 130.43 8.91 130.17 9.98 129.93 11.07 L 129.21 11.09 C 129.37 7.39 129.00 3.70 128.89 0.00 Z" />
<path fill="#446cd8" opacity="1.00" d=" M 144.90 0.99 L 145.93 0.99 C 146.02 3.62 146.12 6.26 146.71 8.83 C 146.44 9.93 146.14 11.02 145.91 12.13 L 145.24 12.11 C 145.35 8.40 144.99 4.70 144.90 0.99 Z" />
</g>
<g id="#ffffffff">
<path fill="#ffffff" opacity="1.00" d=" M 5.25 2.09 C 5.56 0.56 6.46 0.27 7.95 1.21 C 7.26 2.10 6.36 2.39 5.25 2.09 Z" />
<path fill="#ffffff" opacity="1.00" d=" M 21.25 2.09 C 21.55 0.57 22.45 0.27 23.95 1.21 C 23.26 2.09 22.36 2.39 21.25 2.09 Z" />
<path fill="#ffffff" opacity="1.00" d=" M 37.25 2.09 C 37.55 0.57 38.45 0.27 39.95 1.21 C 39.26 2.09 38.36 2.39 37.25 2.09 Z" />
<path fill="#ffffff" opacity="1.00" d=" M 102.12 2.12 C 101.41 0.27 105.58 0.26 104.88 2.12 C 104.19 2.12 102.81 2.12 102.12 2.12 Z" />
<path fill="#ffffff" opacity="1.00" d=" M 118.12 2.12 C 117.41 0.27 121.58 0.26 120.88 2.12 C 120.19 2.12 118.81 2.12 118.12 2.12 Z" />
<path fill="#ffffff" opacity="1.00" d=" M 125.22 1.41 L 125.90 1.21 C 125.89 1.69 125.88 2.65 125.88 3.13 L 125.12 3.21 C 125.15 2.76 125.19 1.86 125.22 1.41 Z" />
<path fill="#ffffff" opacity="1.00" d=" M 165.13 1.52 L 165.95 0.82 L 166.84 1.09 C 166.45 1.43 165.68 2.13 165.30 2.48 L 165.13 1.52 Z" />
<path fill="#ffffff" opacity="1.00" d=" M 181.14 1.51 L 181.96 0.82 L 182.84 1.09 C 182.46 1.43 181.68 2.13 181.30 2.47 L 181.14 1.51 Z" />
<path fill="#ffffff" opacity="1.00" d=" M 201.16 1.09 L 202.04 0.82 L 202.86 1.51 L 202.70 2.47 C 202.31 2.12 201.54 1.43 201.16 1.09 Z" />
<path fill="#ffffff" opacity="1.00" d=" M 217.17 1.09 L 218.05 0.82 L 218.87 1.52 L 218.70 2.48 C 218.32 2.13 217.55 1.43 217.17 1.09 Z" />
<path fill="#ffffff" opacity="1.00" d=" M 109.22 2.41 L 109.90 2.22 C 109.90 2.70 109.88 3.67 109.87 4.15 L 109.13 4.21 C 109.15 3.76 109.20 2.86 109.22 2.41 Z" />
<path fill="#ffffff" opacity="1.00" d=" M 99.18 3.19 L 99.82 3.19 L 99.82 3.82 L 99.19 3.82 L 99.18 3.19 Z" />
<path fill="#ffffff" opacity="1.00" d=" M 102.11 3.00 C 102.81 3.00 104.19 3.00 104.89 3.00 L 104.87 3.89 C 104.19 3.89 102.82 3.89 102.13 3.89 L 102.11 3.00 Z" />
<path fill="#ffffff" opacity="1.00" d=" M 118.11 3.00 C 118.81 3.00 120.20 3.00 120.89 3.00 L 120.87 3.88 C 120.19 3.88 118.81 3.88 118.12 3.89 L 118.11 3.00 Z" />
<path fill="#ffffff" opacity="1.00" d=" M 165.36 3.03 L 165.94 3.21 C 166.19 3.31 166.69 3.52 166.94 3.62 L 167.63 3.88 L 167.75 4.58 C 166.85 6.20 163.79 4.45 165.36 3.03 Z" />
<path fill="#ffffff" opacity="1.00" d=" M 181.36 3.03 L 181.94 3.21 C 182.19 3.32 182.69 3.52 182.94 3.63 L 183.63 3.89 L 183.75 4.59 C 182.85 6.22 179.80 4.44 181.36 3.03 Z" />
<path fill="#ffffff" opacity="1.00" d=" M 202.05 3.21 L 202.64 3.02 C 204.21 4.42 201.16 6.22 200.26 4.60 L 200.38 3.90 L 201.05 3.63 C 201.30 3.53 201.80 3.32 202.05 3.21 Z" />
<path fill="#ffffff" opacity="1.00" d=" M 218.06 3.21 L 218.64 3.03 C 220.20 4.46 217.12 6.20 216.24 4.57 L 216.37 3.88 L 217.06 3.62 C 217.31 3.52 217.81 3.31 218.06 3.21 Z" />
<path fill="#ffffff" opacity="1.00" d=" M 5.34 4.79 C 5.50 4.50 5.83 3.92 6.00 3.63 L 6.87 3.69 C 7.07 3.96 7.47 4.51 7.67 4.79 C 7.09 4.79 5.92 4.79 5.34 4.79 Z" />
<path fill="#ffffff" opacity="1.00" d=" M 21.34 4.78 C 21.50 4.49 21.83 3.92 21.99 3.63 L 22.87 3.69 C 23.07 3.96 23.47 4.51 23.68 4.79 C 23.09 4.79 21.92 4.78 21.34 4.78 Z" />
<path fill="#ffffff" opacity="1.00" d=" M 37.34 4.79 C 37.51 4.50 37.83 3.92 37.99 3.63 L 38.87 3.69 C 39.07 3.96 39.48 4.51 39.68 4.78 C 39.10 4.78 37.93 4.79 37.34 4.79 Z" />
<path fill="#ffffff" opacity="1.00" d=" M 122.48 4.62 C 122.61 4.55 122.88 4.41 123.01 4.34 L 122.48 4.62 Z" />
<path fill="#ffffff" opacity="1.00" d=" M 171.05 3.91 C 171.37 4.19 172.00 4.76 172.31 5.05 L 171.81 5.80 C 171.62 5.33 171.24 4.38 171.05 3.91 Z" />
<path fill="#ffffff" opacity="1.00" d=" M 211.69 5.04 C 212.00 4.76 212.63 4.19 212.95 3.91 C 212.76 4.38 212.38 5.33 212.19 5.80 L 211.69 5.04 Z" />
<path fill="#ffffff" opacity="1.00" d=" M 131.28 5.53 L 131.94 5.43 L 132.01 6.12 L 131.35 6.21 L 131.28 5.53 Z" />
<path fill="#ffffff" opacity="1.00" d=" M 186.13 5.33 C 186.64 5.51 187.65 5.88 188.16 6.07 C 187.78 6.56 187.02 7.54 186.63 8.03 L 185.94 7.89 L 185.71 7.18 C 185.82 6.72 186.03 5.79 186.13 5.33 Z" />
<path fill="#ffffff" opacity="1.00" d=" M 195.84 6.07 C 196.35 5.88 197.36 5.51 197.87 5.32 C 197.97 5.79 198.18 6.72 198.28 7.18 L 198.05 7.90 L 197.36 8.03 C 196.98 7.54 196.22 6.56 195.84 6.07 Z" />
<path fill="#ffffff" opacity="1.00" d=" M 105.32 6.00 L 105.83 6.09 L 105.74 6.61 L 105.23 6.52 L 105.32 6.00 Z" />
<path fill="#ffffff" opacity="1.00" d=" M 117.22 6.03 C 117.67 6.15 118.57 6.39 119.01 6.50 C 117.95 7.60 117.35 7.44 117.22 6.03 Z" />
<path fill="#ffffff" opacity="1.00" d=" M 147.20 6.66 L 147.77 6.32 L 148.08 6.95 L 147.51 7.27 L 147.20 6.66 Z" />
<path fill="#ffffff" opacity="1.00" d=" M 183.05 5.97 L 183.58 5.93 C 183.50 6.00 183.34 6.13 183.25 6.20 L 183.05 5.97 Z" />
<path fill="#ffffff" opacity="1.00" d=" M 200.42 5.93 L 200.96 5.97 L 200.75 6.20 C 200.67 6.13 200.51 6.00 200.42 5.93 Z" />
<path fill="#ffffff" opacity="1.00" d=" M 135.79 7.11 L 136.48 6.98 L 136.65 7.55 L 136.00 7.70 L 135.79 7.11 Z" />
<path fill="#ffffff" opacity="1.00" d=" M 150.23 7.20 L 150.67 7.68 L 150.20 8.01 L 149.87 7.60 L 150.23 7.20 Z" />
<path fill="#ffffff" opacity="1.00" d=" M 101.92 8.54 C 102.87 7.38 103.46 7.53 103.70 8.97 C 103.26 8.86 102.36 8.65 101.92 8.54 Z" />
<path fill="#ffffff" opacity="1.00" d=" M 113.00 8.30 L 113.56 8.05 L 113.83 8.71 C 113.62 8.61 113.21 8.40 113.00 8.30 Z" />
<path fill="#ffffff" opacity="1.00" d=" M 119.17 8.88 C 119.59 7.49 120.20 7.43 121.02 8.67 C 120.56 8.72 119.63 8.83 119.17 8.88 Z" />
<path fill="#ffffff" opacity="1.00" d=" M 168.16 10.90 C 167.89 9.70 169.71 8.44 170.76 9.13 C 170.72 10.32 170.05 11.02 168.75 11.23 L 168.16 10.90 Z" />
<path fill="#ffffff" opacity="1.00" d=" M 188.11 9.42 L 188.86 9.23 L 188.87 9.78 L 188.37 9.91 L 188.11 9.42 Z" />
<path fill="#ffffff" opacity="1.00" d=" M 195.14 9.23 L 195.89 9.42 L 195.62 9.91 L 195.13 9.78 L 195.14 9.23 Z" />
<path fill="#ffffff" opacity="1.00" d=" M 213.24 9.13 C 214.28 8.44 216.10 9.70 215.84 10.90 L 215.25 11.22 C 213.94 11.02 213.27 10.32 213.24 9.13 Z" />
<path fill="#ffffff" opacity="1.00" d=" M 7.63 10.37 L 8.27 10.62 L 8.02 11.22 L 7.35 10.98 L 7.63 10.37 Z" />
<path fill="#ffffff" opacity="1.00" d=" M 11.18 10.19 L 11.82 10.19 L 11.82 10.82 L 11.18 10.82 L 11.18 10.19 Z" />
<path fill="#ffffff" opacity="1.00" d=" M 23.90 10.22 L 24.40 10.67 L 23.94 11.15 L 23.43 10.70 L 23.90 10.22 Z" />
<path fill="#ffffff" opacity="1.00" d=" M 27.19 10.19 L 27.83 10.19 L 27.82 10.82 L 27.19 10.82 L 27.19 10.19 Z" />
<path fill="#ffffff" opacity="1.00" d=" M 39.32 10.73 C 39.53 10.65 39.94 10.50 40.15 10.43 L 40.01 11.03 L 39.32 10.73 Z" />
<path fill="#ffffff" opacity="1.00" d=" M 43.19 10.19 L 43.82 10.19 L 43.82 10.82 L 43.19 10.82 L 43.19 10.19 Z" />
<path fill="#ffffff" opacity="1.00" d=" M 102.36 10.18 L 103.00 10.16 L 103.00 10.86 L 102.36 10.84 L 102.36 10.18 Z" />
<path fill="#ffffff" opacity="1.00" d=" M 133.03 10.27 L 133.97 10.28 L 134.40 11.11 C 133.95 11.11 133.05 11.11 132.60 11.11 L 133.03 10.27 Z" />
<path fill="#ffffff" opacity="1.00" d=" M 153.03 10.27 L 153.97 10.27 L 154.40 11.11 C 153.95 11.11 153.05 11.11 152.60 11.11 L 153.03 10.27 Z" />
<path fill="#ffffff" opacity="1.00" d=" M 180.38 9.85 L 181.05 10.05 L 180.84 10.66 L 180.21 10.47 L 180.38 9.85 Z" />
<path fill="#ffffff" opacity="1.00" d=" M 182.26 11.34 C 182.39 10.98 182.66 10.25 182.79 9.88 L 183.59 10.13 C 183.41 10.48 183.07 11.19 182.90 11.54 L 182.26 11.34 Z" />
<path fill="#ffffff" opacity="1.00" d=" M 186.08 10.27 L 186.92 10.28 L 187.32 11.10 C 187.05 11.29 186.51 11.69 186.24 11.89 C 186.20 11.48 186.12 10.68 186.08 10.27 Z" />
<path fill="#ffffff" opacity="1.00" d=" M 197.08 10.27 L 197.93 10.27 C 197.88 10.68 197.80 11.49 197.76 11.89 C 197.49 11.69 196.95 11.29 196.68 11.09 L 197.08 10.27 Z" />
<path fill="#ffffff" opacity="1.00" d=" M 201.12 11.53 C 198.50 10.42 202.74 8.83 201.75 11.31 L 201.12 11.53 Z" />
<path fill="#ffffff" opacity="1.00" d=" M 202.95 10.05 L 203.62 9.85 L 203.79 10.47 L 203.16 10.66 L 202.95 10.05 Z" />
<path fill="#ffffff" opacity="1.00" d=" M 129.21 11.09 L 129.93 11.07 C 130.30 12.49 130.26 14.08 129.26 15.25 C 128.71 13.87 128.70 12.49 129.21 11.09 Z" />
<path fill="#ffffff" opacity="1.00" d=" M 145.24 12.11 L 145.91 12.13 C 146.25 13.46 146.17 14.75 145.69 16.00 L 145.13 16.00 C 144.73 14.70 144.77 13.41 145.24 12.11 Z" />
<path fill="#ffffff" opacity="1.00" d=" M 181.17 13.18 L 181.81 13.18 L 181.81 13.82 L 181.17 13.82 L 181.17 13.18 Z" />
<path fill="#ffffff" opacity="1.00" d=" M 202.20 13.18 L 202.83 13.18 L 202.83 13.82 L 202.20 13.82 L 202.20 13.18 Z" />
<path fill="#ffffff" opacity="1.00" d=" M 6.20 14.18 L 6.83 14.19 L 6.82 14.82 L 6.19 14.81 L 6.20 14.18 Z" />
<path fill="#ffffff" opacity="1.00" d=" M 22.17 14.19 L 22.81 14.18 L 22.81 14.81 L 22.18 14.82 L 22.17 14.19 Z" />
<path fill="#ffffff" opacity="1.00" d=" M 38.20 14.18 L 38.83 14.18 L 38.83 14.82 L 38.20 14.81 L 38.20 14.18 Z" />
<path fill="#ffffff" opacity="1.00" d=" M 54.37 14.24 L 55.00 14.39 C 54.80 14.51 54.38 14.74 54.17 14.86 L 54.37 14.24 Z" />
<path fill="#ffffff" opacity="1.00" d=" M 86.46 14.15 L 86.99 14.45 L 86.69 14.99 L 86.16 14.69 L 86.46 14.15 Z" />
<path fill="#ffffff" opacity="1.00" d=" M 133.19 13.99 L 133.81 13.99 L 133.81 14.62 C 133.66 14.47 133.35 14.15 133.19 13.99 Z" />
<path fill="#ffffff" opacity="1.00" d=" M 153.19 13.99 L 153.81 13.99 L 153.81 14.63 C 153.66 14.47 153.34 14.15 153.19 13.99 Z" />
<path fill="#ffffff" opacity="1.00" d=" M 168.17 14.07 L 168.78 13.96 C 168.65 14.14 168.40 14.51 168.27 14.69 L 168.17 14.07 Z" />
<path fill="#ffffff" opacity="1.00" d=" M 188.03 14.25 L 188.59 14.10 L 188.77 14.69 C 188.59 14.58 188.22 14.36 188.03 14.25 Z" />
<path fill="#ffffff" opacity="1.00" d=" M 195.41 14.10 L 195.97 14.25 C 195.78 14.36 195.41 14.58 195.22 14.68 L 195.41 14.10 Z" />
<path fill="#ffffff" opacity="1.00" d=" M 215.22 13.95 L 215.83 14.07 L 215.72 14.69 C 215.60 14.50 215.34 14.14 215.22 13.95 Z" />
</g>
<g id="#5080ffff">
<path fill="#5080ff" opacity="1.00" d=" M 7.95 1.21 C 10.18 1.19 8.35 4.03 6.87 3.69 L 6.00 3.63 C 5.81 3.24 5.43 2.47 5.25 2.09 C 6.36 2.39 7.26 2.10 7.95 1.21 Z" />
<path fill="#5080ff" opacity="1.00" d=" M 23.95 1.21 C 26.18 1.20 24.36 4.03 22.87 3.69 L 21.99 3.63 C 21.81 3.24 21.43 2.48 21.25 2.09 C 22.36 2.39 23.26 2.09 23.95 1.21 Z" />
<path fill="#5080ff" opacity="1.00" d=" M 39.95 1.21 C 42.18 1.19 40.35 4.03 38.87 3.69 L 37.99 3.63 C 37.81 3.24 37.43 2.48 37.25 2.09 C 38.36 2.39 39.26 2.09 39.95 1.21 Z" />
<path fill="#5080ff" opacity="1.00" d=" M 134.24 2.96 C 132.23 0.13 138.78 0.14 136.73 2.95 C 136.11 2.95 134.87 2.95 134.24 2.96 Z" />
<path fill="#5080ff" opacity="1.00" d=" M 150.36 3.11 C 148.22 0.15 154.83 0.22 152.57 3.11 C 152.01 3.11 150.91 3.11 150.36 3.11 Z" />
<path fill="#5080ff" opacity="1.00" d=" M 166.84 1.09 C 169.00 -0.26 169.92 3.57 167.63 3.88 L 166.94 3.62 C 166.69 3.52 166.19 3.31 165.94 3.21 L 165.36 3.03 L 165.30 2.48 C 165.68 2.13 166.45 1.43 166.84 1.09 Z" />
<path fill="#5080ff" opacity="1.00" d=" M 182.84 1.09 C 185.01 -0.26 185.91 3.57 183.63 3.89 L 182.94 3.63 C 182.69 3.52 182.19 3.32 181.94 3.21 L 181.36 3.03 L 181.30 2.47 C 181.68 2.13 182.46 1.43 182.84 1.09 Z" />
<path fill="#5080ff" opacity="1.00" d=" M 200.38 3.90 C 198.09 3.58 198.98 -0.25 201.16 1.09 C 201.54 1.43 202.31 2.12 202.70 2.47 L 202.64 3.02 L 202.05 3.21 C 201.80 3.32 201.30 3.53 201.05 3.63 L 200.38 3.90 Z" />
<path fill="#5080ff" opacity="1.00" d=" M 216.37 3.88 C 214.07 3.56 215.00 -0.26 217.17 1.09 C 217.55 1.43 218.32 2.13 218.70 2.48 L 218.64 3.03 L 218.06 3.21 C 217.81 3.31 217.31 3.52 217.06 3.62 L 216.37 3.88 Z" />
<path fill="#5080ff" opacity="1.00" d=" M 102.12 2.12 C 102.81 2.12 104.19 2.12 104.88 2.12 L 104.89 3.00 C 104.19 3.00 102.81 3.00 102.11 3.00 L 102.12 2.12 Z" />
<path fill="#5080ff" opacity="1.00" d=" M 118.12 2.12 C 118.81 2.12 120.19 2.12 120.88 2.12 L 120.89 3.00 C 120.20 3.00 118.81 3.00 118.11 3.00 L 118.12 2.12 Z" />
<path fill="#5080ff" opacity="1.00" d=" M 131.94 5.43 C 130.73 2.11 135.14 5.26 131.94 5.43 Z" />
<path fill="#5080ff" opacity="1.00" d=" M 9.52 4.00 C 9.99 4.00 10.92 3.99 11.39 3.99 C 11.06 4.30 10.39 4.93 10.06 5.25 C 11.06 6.36 11.18 7.35 9.51 7.85 C 7.03 8.62 4.26 7.91 3.43 5.21 C 4.83 5.87 6.24 6.50 7.66 7.10 C 8.33 6.10 8.95 5.07 9.52 4.00 Z" />
<path fill="#5080ff" opacity="1.00" d=" M 41.53 4.05 C 41.90 4.00 42.66 3.91 43.04 3.87 C 42.18 4.96 42.18 6.06 43.14 7.09 C 40.36 8.49 35.95 8.96 35.53 4.76 C 36.71 5.56 37.89 6.34 39.09 7.10 C 40.44 6.78 40.73 5.01 41.53 4.05 Z" />
<path fill="#5080ff" opacity="1.00" d=" M 102.13 3.89 C 102.82 3.89 104.19 3.89 104.87 3.89 C 105.52 5.76 101.49 5.76 102.13 3.89 Z" />
<path fill="#5080ff" opacity="1.00" d=" M 118.12 3.89 C 118.81 3.88 120.19 3.88 120.87 3.88 C 121.50 5.74 117.47 5.76 118.12 3.89 Z" />
<path fill="#5080ff" opacity="1.00" d=" M 138.10 4.26 C 141.37 4.48 136.54 7.29 138.10 4.26 Z" />
<path fill="#5080ff" opacity="1.00" d=" M 148.04 4.71 C 149.20 3.98 149.86 6.39 150.23 7.20 L 149.87 7.60 C 149.42 7.44 148.53 7.11 148.08 6.95 L 147.77 6.32 C 147.84 5.91 147.97 5.11 148.04 4.71 Z" />
<path fill="#5080ff" opacity="1.00" d=" M 98.22 4.72 C 98.84 5.34 98.84 5.34 98.22 4.72 Z" />
<path fill="#5080ff" opacity="1.00" d=" M 106.03 5.02 L 107.28 5.05 C 107.16 7.00 106.25 9.87 103.70 8.97 C 103.46 7.53 102.87 7.38 101.92 8.54 L 101.03 9.71 C 101.02 9.01 101.00 7.61 100.99 6.91 C 101.19 6.66 101.60 6.17 101.80 5.93 C 102.68 5.95 104.44 5.98 105.32 6.00 L 105.23 6.52 L 105.74 6.61 L 105.83 6.09 L 106.03 5.02 Z" />
<path fill="#5080ff" opacity="1.00" d=" M 115.74 5.04 L 117.24 5.04 L 117.22 6.03 C 117.35 7.44 117.95 7.60 119.01 6.50 C 120.15 5.84 121.30 5.22 122.48 4.62 L 123.01 4.34 C 123.09 6.18 123.08 8.11 121.45 9.32 L 121.02 8.67 C 120.20 7.43 119.59 7.49 119.17 8.88 C 116.66 9.96 115.87 6.89 115.74 5.04 Z" />
<path fill="#5080ff" opacity="1.00" d=" M 181.42 6.10 C 181.83 6.07 182.64 6.00 183.05 5.97 L 183.25 6.20 C 183.34 6.13 183.50 6.00 183.58 5.93 L 184.24 5.90 C 184.61 6.22 185.34 6.86 185.71 7.18 L 185.94 7.89 C 184.35 8.11 181.45 8.42 181.42 6.10 Z" />
<path fill="#5080ff" opacity="1.00" d=" M 199.76 5.90 L 200.42 5.93 C 200.51 6.00 200.67 6.13 200.75 6.20 L 200.96 5.97 C 201.36 6.00 202.18 6.07 202.59 6.11 C 202.53 8.43 199.64 8.10 198.05 7.90 L 198.28 7.18 C 198.65 6.86 199.39 6.22 199.76 5.90 Z" />
<path fill="#5080ff" opacity="1.00" d=" M 113.56 8.05 C 114.53 5.50 116.31 9.60 113.83 8.71 L 113.56 8.05 Z" />
<path fill="#5080ff" opacity="1.00" d=" M 133.25 6.99 C 133.62 6.91 134.38 6.76 134.75 6.68 L 135.79 7.11 L 136.00 7.70 C 134.71 8.54 133.79 8.31 133.25 6.99 Z" />
<path fill="#5080ff" opacity="1.00" d=" M 136.48 6.98 C 136.67 7.08 137.05 7.27 137.24 7.37 L 136.65 7.55 L 136.48 6.98 Z" />
<path fill="#5080ff" opacity="1.00" d=" M 3.51 8.25 C 3.76 8.53 3.76 8.53 3.51 8.25 Z" />
<path fill="#5080ff" opacity="1.00" d=" M 35.10 8.26 C 38.37 8.43 33.59 11.33 35.10 8.26 Z" />
<path fill="#5080ff" opacity="1.00" d=" M 180.78 8.32 L 181.56 8.56 C 181.43 8.93 181.18 9.68 181.05 10.05 L 180.38 9.85 C 180.48 9.46 180.68 8.70 180.78 8.32 Z" />
<path fill="#5080ff" opacity="1.00" d=" M 202.44 8.56 L 203.22 8.32 C 203.32 8.70 203.52 9.46 203.62 9.85 L 202.95 10.05 C 202.82 9.68 202.57 8.93 202.44 8.56 Z" />
<path fill="#5080ff" opacity="1.00" d=" M 20.22 9.71 C 20.84 10.34 20.84 10.34 20.22 9.71 Z" />
<path fill="#5080ff" opacity="1.00" d=" M 125.23 9.04 C 126.67 9.72 126.57 12.45 124.94 12.82 L 124.72 12.05 C 124.77 11.48 124.87 10.33 124.92 9.76 L 125.23 9.04 Z" />
<path fill="#5080ff" opacity="1.00" d=" M 134.73 9.12 C 137.93 7.61 135.00 12.30 134.73 9.12 Z" />
<path fill="#5080ff" opacity="1.00" d=" M 138.09 9.26 C 141.36 9.43 136.58 12.32 138.09 9.26 Z" />
<path fill="#5080ff" opacity="1.00" d=" M 148.11 9.25 C 151.37 9.46 146.56 12.30 148.11 9.25 Z" />
<path fill="#5080ff" opacity="1.00" d=" M 150.69 9.12 C 153.85 7.58 150.99 12.30 150.69 9.12 Z" />
<path fill="#5080ff" opacity="1.00" d=" M 103.00 10.16 C 105.01 8.39 105.00 12.62 103.00 10.86 L 103.00 10.16 Z" />
<path fill="#5080ff" opacity="1.00" d=" M 106.12 10.24 C 109.38 10.55 104.50 13.24 106.12 10.24 Z" />
<path fill="#5080ff" opacity="1.00" d=" M 108.95 9.97 C 110.71 10.50 110.36 12.76 109.51 13.93 L 109.05 13.04 C 108.96 12.38 108.76 11.06 108.66 10.40 L 108.95 9.97 Z" />
<path fill="#5080ff" opacity="1.00" d=" M 116.10 10.26 C 119.37 10.43 114.58 13.33 116.10 10.26 Z" />
<path fill="#5080ff" opacity="1.00" d=" M 7.35 10.98 L 8.02 11.22 C 9.21 13.72 5.09 12.37 7.35 10.98 Z" />
<path fill="#5080ff" opacity="1.00" d=" M 23.27 13.25 C 22.16 12.22 22.21 11.37 23.43 10.70 L 23.94 11.15 C 23.92 11.62 23.87 12.54 23.84 13.01 L 23.27 13.25 Z" />
<path fill="#5080ff" opacity="1.00" d=" M 38.55 11.24 L 39.32 10.73 L 40.01 11.03 C 39.99 11.55 39.94 12.57 39.91 13.08 L 39.42 13.46 C 39.21 13.13 38.78 12.46 38.57 12.13 L 38.55 11.24 Z" />
<path fill="#5080ff" opacity="1.00" d=" M 133.19 13.99 C 132.42 13.49 131.34 11.57 132.60 11.11 C 133.05 11.11 133.95 11.11 134.40 11.11 C 135.66 11.57 134.58 13.49 133.81 13.99 L 133.19 13.99 Z" />
<path fill="#5080ff" opacity="1.00" d=" M 153.19 13.99 C 152.42 13.49 151.34 11.56 152.60 11.11 C 153.05 11.11 153.95 11.11 154.40 11.11 C 155.65 11.57 154.57 13.49 153.81 13.99 L 153.19 13.99 Z" />
<path fill="#5080ff" opacity="1.00" d=" M 168.17 14.07 C 166.96 13.55 166.39 10.99 168.16 10.90 L 168.75 11.23 C 168.76 11.91 168.77 13.27 168.78 13.96 L 168.17 14.07 Z" />
<path fill="#5080ff" opacity="1.00" d=" M 182.26 11.34 L 182.90 11.54 L 182.69 12.11 C 182.59 11.92 182.37 11.53 182.26 11.34 Z" />
<path fill="#5080ff" opacity="1.00" d=" M 187.32 11.10 L 187.74 11.24 C 188.45 12.11 188.73 13.06 188.59 14.10 L 188.03 14.25 C 186.82 13.84 186.22 13.05 186.24 11.89 C 186.51 11.69 187.05 11.29 187.32 11.10 Z" />
<path fill="#5080ff" opacity="1.00" d=" M 196.26 11.24 L 196.68 11.09 C 196.95 11.29 197.49 11.69 197.76 11.89 C 197.77 13.05 197.17 13.84 195.97 14.25 L 195.41 14.10 C 195.27 13.06 195.55 12.11 196.26 11.24 Z" />
<path fill="#5080ff" opacity="1.00" d=" M 201.12 11.53 L 201.75 11.31 C 201.65 11.51 201.44 11.89 201.34 12.09 L 201.12 11.53 Z" />
<path fill="#5080ff" opacity="1.00" d=" M 215.25 11.22 L 215.84 10.90 C 217.61 11.00 217.03 13.55 215.83 14.07 L 215.22 13.95 C 215.22 13.27 215.24 11.91 215.25 11.22 Z" />
<path fill="#5080ff" opacity="1.00" d=" M 221.81 11.46 L 221.95 11.38 L 222.14 11.79 C 222.06 11.71 221.89 11.54 221.81 11.46 Z" />
<path fill="#5080ff" opacity="1.00" d=" M 13.23 12.24 C 13.84 12.84 13.84 12.84 13.23 12.24 Z" />
<path fill="#5080ff" opacity="1.00" d=" M 29.23 12.23 C 29.84 12.84 29.84 12.84 29.23 12.23 Z" />
<path fill="#5080ff" opacity="1.00" d=" M 45.25 12.24 C 45.85 12.85 45.85 12.85 45.25 12.24 Z" />
<path fill="#5080ff" opacity="1.00" d=" M 101.11 14.47 C 100.00 13.34 101.76 9.85 102.52 12.45 C 102.61 13.89 102.14 14.57 101.11 14.47 Z" />
<path fill="#5080ff" opacity="1.00" d=" M 120.49 12.45 C 121.24 9.85 123.00 13.33 121.89 14.46 C 120.86 14.57 120.39 13.90 120.49 12.45 Z" />
<path fill="#5080ff" opacity="1.00" d=" M 170.22 12.21 C 170.82 12.83 170.82 12.83 170.22 12.21 Z" />
<path fill="#5080ff" opacity="1.00" d=" M 213.22 12.22 C 213.82 12.82 213.82 12.82 213.22 12.22 Z" />
</g>
<g id="#4b7dd8ff">
<path fill="#4b7dd8" opacity="1.00" d=" M 26.72 3.44 C 27.95 2.52 29.23 1.68 30.56 0.91 C 29.02 2.44 27.52 4.01 25.97 5.52 C 26.38 5.93 27.21 6.76 27.63 7.17 C 25.47 7.64 23.29 8.01 21.11 8.33 C 20.73 7.46 19.97 5.70 19.59 4.83 C 20.76 5.57 21.94 6.29 23.14 6.98 C 24.00 6.21 24.76 5.35 25.56 4.53 C 25.85 4.25 26.43 3.71 26.72 3.44 Z" />
</g>
<g id="#4d8dafff">
<path fill="#4d8daf" opacity="1.00" d=" M 42.78 2.82 C 43.00 1.55 43.75 0.95 45.03 1.01 C 44.88 2.61 44.14 3.22 42.78 2.82 Z" />
<path fill="#4d8daf" opacity="1.00" d=" M 170.81 2.81 C 171.00 1.53 171.75 0.93 173.03 1.03 C 172.88 2.62 172.14 3.21 170.81 2.81 Z" />
<path fill="#4d8daf" opacity="1.00" d=" M 210.96 1.02 C 212.23 0.90 212.96 1.48 213.14 2.75 C 211.82 3.20 211.09 2.63 210.96 1.02 Z" />
</g>
<g id="#979797ff">
<path fill="#979797" opacity="1.00" d=" M 53.16 1.17 C 54.83 0.47 56.95 0.78 57.49 2.73 C 56.75 2.76 55.27 2.80 54.53 2.83 C 55.01 3.37 55.98 4.45 56.47 4.99 C 55.51 5.00 53.60 5.01 52.65 5.02 C 53.22 5.67 54.35 6.96 54.92 7.60 C 56.20 6.20 57.45 4.77 58.71 3.35 C 58.43 4.66 58.36 5.98 58.79 7.27 C 57.02 7.66 55.24 7.92 53.45 8.13 C 53.01 7.58 52.13 6.48 51.70 5.93 C 52.36 5.17 53.02 4.41 53.69 3.66 C 53.30 2.86 53.13 2.03 53.16 1.17 Z" />
<path fill="#979797" opacity="1.00" d=" M 85.16 1.17 C 86.81 0.46 88.91 0.81 89.51 2.70 C 88.78 2.74 87.31 2.82 86.57 2.86 C 87.05 3.39 87.99 4.46 88.46 5.00 C 87.51 5.00 85.60 5.01 84.65 5.02 C 85.22 5.67 86.38 6.96 86.95 7.60 C 88.28 6.14 89.38 4.35 91.24 3.48 C 90.90 3.99 90.22 5.02 89.88 5.53 C 90.24 5.90 90.96 6.64 91.32 7.02 C 89.41 7.64 87.42 7.95 85.42 8.12 C 84.99 7.57 84.13 6.46 83.70 5.90 C 84.37 5.14 85.04 4.40 85.73 3.66 C 85.30 2.88 85.11 2.05 85.16 1.17 Z" />
</g>
<g id="#8c9289ff">
<path fill="#8c9289" opacity="1.00" d=" M 68.66 0.57 C 70.51 0.83 72.38 1.15 73.88 2.35 C 73.09 2.51 71.52 2.82 70.73 2.98 C 70.99 3.37 71.52 4.15 71.79 4.54 C 71.43 4.73 70.71 5.13 70.35 5.33 C 70.17 5.63 69.82 6.25 69.64 6.55 C 71.80 8.19 73.08 4.42 74.82 3.53 C 75.95 2.57 77.25 1.84 78.45 0.98 C 76.91 2.44 75.41 3.94 73.90 5.43 C 74.28 5.87 75.03 6.74 75.40 7.18 C 73.20 7.61 70.98 7.98 68.76 8.33 C 67.94 6.53 68.37 4.78 69.58 3.28 C 69.26 2.38 68.95 1.48 68.66 0.57 Z" />
</g>
<g id="#6d8d5bff">
<path fill="#6d8d5b" opacity="1.00" d=" M 90.79 2.77 C 90.98 1.51 91.71 0.92 93.00 1.01 C 92.87 2.62 92.13 3.20 90.79 2.77 Z" />
</g>
<g id="#456edbff">
<path fill="#456edb" opacity="1.00" d=" M 125.12 3.21 L 125.88 3.13 C 125.95 4.75 126.02 6.38 125.80 7.98 C 123.88 7.51 123.58 5.46 124.57 3.98 L 125.12 3.21 Z" />
<path fill="#456edb" opacity="1.00" d=" M 109.13 4.21 L 109.87 4.15 C 109.95 5.77 110.02 7.41 109.79 9.03 C 107.90 8.50 107.57 6.45 108.60 4.96 L 109.13 4.21 Z" />
</g>
<g id="#d3dfffff">
<path fill="#d3dfff" opacity="1.00" d=" M 134.24 2.96 C 134.87 2.95 136.11 2.95 136.73 2.95 C 136.55 3.38 136.18 4.23 136.00 4.66 L 135.16 4.68 C 134.93 4.25 134.47 3.39 134.24 2.96 Z" />
</g>
<g id="#c2c8dbff">
<path fill="#c2c8db" opacity="1.00" d=" M 150.36 3.11 C 150.91 3.11 152.01 3.11 152.57 3.11 L 152.77 3.46 C 152.58 4.35 152.72 5.19 153.17 5.99 C 153.07 6.07 152.86 6.22 152.76 6.30 C 152.20 6.05 151.07 5.56 150.51 5.31 C 150.47 4.76 150.40 3.66 150.36 3.11 Z" />
</g>
<g id="#6690ffff">
<path fill="#6690ff" opacity="1.00" d=" M 154.39 3.02 L 155.14 2.96 C 154.90 4.68 155.40 6.83 153.61 7.88 C 152.76 7.91 151.05 7.98 150.20 8.01 L 150.67 7.68 L 152.76 6.30 C 152.86 6.22 153.07 6.07 153.17 5.99 C 153.85 5.16 154.26 4.17 154.39 3.02 Z" />
</g>
<g id="#6080d5ff">
<path fill="#6080d5" opacity="1.00" d=" M 156.80 6.10 C 156.20 5.28 155.23 2.98 156.98 2.92 C 157.92 3.60 158.46 4.57 158.60 5.82 C 158.15 5.89 157.25 6.03 156.80 6.10 Z" />
<path fill="#6080d5" opacity="1.00" d=" M 172.31 5.05 C 172.67 5.16 173.40 5.40 173.76 5.52 C 173.96 6.06 174.34 7.14 174.53 7.68 C 174.12 7.84 173.29 8.17 172.87 8.33 C 172.61 7.70 172.08 6.43 171.81 5.80 L 172.31 5.05 Z" />
<path fill="#6080d5" opacity="1.00" d=" M 210.24 5.53 C 210.60 5.41 211.33 5.17 211.69 5.04 L 212.19 5.80 C 211.92 6.43 211.39 7.70 211.12 8.33 C 210.71 8.17 209.88 7.85 209.46 7.70 C 209.66 7.15 210.05 6.07 210.24 5.53 Z" />
<path fill="#6080d5" opacity="1.00" d=" M 140.14 5.93 C 141.65 6.71 142.30 8.34 142.57 9.93 C 142.12 9.97 141.23 10.06 140.79 10.10 C 140.51 8.72 140.17 7.35 140.14 5.93 Z" />
</g>
<g id="#5179e3ff">
<path fill="#5179e3" opacity="1.00" d=" M 167.57 5.72 C 168.24 5.06 168.92 4.41 169.60 3.75 C 170.00 4.64 170.79 6.42 171.18 7.31 C 169.30 7.81 167.37 7.93 165.44 7.66 C 164.69 9.15 163.82 10.58 162.84 11.93 C 162.93 10.85 163.12 8.68 163.22 7.60 C 163.36 7.46 163.63 7.17 163.77 7.03 C 164.20 6.85 165.06 6.51 165.49 6.34 C 166.01 6.18 167.05 5.87 167.57 5.72 Z" />
<path fill="#5179e3" opacity="1.00" d=" M 214.37 3.75 C 215.05 4.41 215.73 5.07 216.41 5.73 C 216.96 5.87 218.05 6.14 218.60 6.28 C 218.99 6.53 219.77 7.02 220.17 7.27 C 220.47 7.61 221.09 8.29 221.40 8.63 C 220.94 9.29 220.48 9.95 220.03 10.61 L 219.26 9.79 L 218.87 7.58 C 216.85 7.86 214.81 7.84 212.80 7.45 C 213.20 6.53 213.98 4.67 214.37 3.75 Z" />
</g>
<g id="#6880bfff">
<path fill="#6880bf" opacity="1.00" d=" M 13.93 7.81 C 12.60 7.58 11.24 5.43 12.90 4.66 C 13.19 5.00 13.77 5.70 14.06 6.05 C 14.02 6.49 13.96 7.37 13.93 7.81 Z" />
<path fill="#6880bf" opacity="1.00" d=" M 29.89 7.57 C 28.54 8.45 27.56 5.53 28.60 4.69 C 28.93 4.98 29.59 5.58 29.92 5.88 C 29.91 6.30 29.90 7.15 29.89 7.57 Z" />
<path fill="#6880bf" opacity="1.00" d=" M 44.47 5.02 L 44.92 4.60 C 45.17 4.94 45.69 5.62 45.94 5.96 C 45.92 6.37 45.88 7.20 45.86 7.62 C 44.62 8.39 43.69 5.86 44.47 5.02 Z" />
</g>
<g id="#808080ff">
<path fill="#808080" opacity="1.00" d=" M 60.46 5.06 L 60.95 4.63 C 61.23 4.94 61.79 5.56 62.07 5.87 C 62.01 6.27 61.88 7.05 61.81 7.45 C 60.68 8.26 59.69 5.85 60.46 5.06 Z" />
<path fill="#808080" opacity="1.00" d=" M 76.22 5.09 L 76.58 4.57 C 76.91 4.84 77.56 5.38 77.88 5.65 C 77.79 6.23 77.61 7.40 77.51 7.99 C 76.48 7.24 76.04 6.28 76.22 5.09 Z" />
<path fill="#808080" opacity="1.00" d=" M 92.34 5.06 L 92.71 4.60 C 93.00 4.89 93.59 5.46 93.89 5.75 C 93.89 6.17 93.89 7.01 93.90 7.43 C 92.76 8.49 91.65 5.94 92.34 5.06 Z" />
<path fill="#808080" opacity="1.00" d=" M 51.24 7.74 C 51.81 8.32 51.81 8.32 51.24 7.74 Z" />
<path fill="#808080" opacity="1.00" d=" M 83.11 8.27 C 86.40 8.45 81.56 11.29 83.11 8.27 Z" />
</g>
<g id="#c5d5ffff">
<path fill="#c5d5ff" opacity="1.00" d=" M 100.12 4.84 L 100.83 4.59 C 101.08 4.92 101.56 5.59 101.80 5.93 C 101.60 6.17 101.19 6.66 100.99 6.91 C 100.77 6.39 100.34 5.36 100.12 4.84 Z" />
</g>
<g id="#ccccccff">
<path fill="#cccccc" opacity="1.00" d=" M 133.25 6.99 C 133.18 5.85 133.81 5.08 135.16 4.68 L 136.00 4.66 C 136.17 4.89 136.53 5.35 136.71 5.57 C 136.22 5.85 135.24 6.40 134.75 6.68 C 134.38 6.76 133.62 6.91 133.25 6.99 Z" />
</g>
<g id="#4066ccff">
<path fill="#4066cc" opacity="1.00" d=" M 188.16 6.07 C 188.38 6.36 188.81 6.96 189.03 7.26 C 188.99 7.75 188.90 8.74 188.86 9.23 L 188.11 9.42 C 187.74 9.07 187.00 8.38 186.63 8.03 C 187.02 7.54 187.78 6.56 188.16 6.07 Z" />
<path fill="#4066cc" opacity="1.00" d=" M 194.97 7.26 C 195.19 6.96 195.62 6.37 195.84 6.07 C 196.22 6.56 196.98 7.54 197.36 8.03 C 196.99 8.38 196.26 9.08 195.89 9.42 L 195.14 9.23 C 195.10 8.74 195.01 7.75 194.97 7.26 Z" />
</g>
<g id="#777777ff">
<path fill="#777777" opacity="1.00" d=" M 54.02 10.73 C 55.29 10.16 56.57 9.59 57.87 9.10 C 58.32 9.23 59.21 9.50 59.66 9.63 C 59.95 9.84 60.55 10.26 60.84 10.47 L 61.24 10.96 C 61.42 11.56 61.79 12.78 61.97 13.39 C 60.43 12.07 58.87 10.77 57.28 9.51 L 57.16 10.89 C 56.43 12.05 55.72 13.22 55.00 14.39 C 54.76 13.47 54.27 11.64 54.02 10.73 Z" />
<path fill="#777777" opacity="1.00" d=" M 86.17 10.93 C 87.40 10.14 88.69 9.46 90.00 8.82 C 90.51 9.06 91.52 9.56 92.03 9.80 C 92.19 9.99 92.52 10.36 92.68 10.55 C 93.11 11.25 93.97 12.64 94.39 13.33 C 92.87 12.27 91.37 11.16 89.79 10.17 L 89.21 10.88 L 88.57 11.71 C 88.03 12.61 87.51 13.53 86.99 14.45 C 86.85 13.85 86.57 12.65 86.43 12.06 L 86.17 10.93 Z" />
</g>
<g id="#8c9c82ff">
<path fill="#8c9c82" opacity="1.00" d=" M 68.31 9.37 C 69.99 8.88 68.66 11.53 68.16 12.03 C 67.65 12.36 66.62 13.02 66.11 13.35 C 66.34 12.38 66.59 11.41 66.85 10.45 C 67.21 10.18 67.94 9.64 68.31 9.37 Z" />
</g>
<g id="#787878ff">
<path fill="#787878" opacity="1.00" d=" M 70.35 10.57 C 71.46 10.12 72.56 9.64 73.70 9.26 C 74.19 9.33 75.17 9.47 75.66 9.54 C 76.02 9.89 76.75 10.60 77.11 10.95 C 77.40 11.57 77.99 12.83 78.28 13.46 C 76.73 12.25 75.22 10.99 73.69 9.75 L 73.04 10.93 C 72.10 12.56 71.24 14.23 70.28 15.85 C 70.29 14.09 70.38 12.33 70.35 10.57 Z" />
</g>
<g id="#c2e2afff">
<path fill="#c2e2af" opacity="1.00" d=" M 0.01 12.78 C 0.44 12.14 1.30 10.84 1.73 10.19 L 2.54 10.16 C 2.41 11.66 1.56 12.53 0.01 12.78 Z" />
<path fill="#c2e2af" opacity="1.00" d=" M 48.71 11.84 C 49.02 11.34 49.63 10.34 49.93 9.84 L 50.81 10.09 C 50.83 11.49 50.13 12.08 48.71 11.84 Z" />
<path fill="#c2e2af" opacity="1.00" d=" M 160.04 14.00 C 160.06 12.60 160.78 11.82 162.19 11.68 C 162.15 13.09 161.44 13.86 160.04 14.00 Z" />
<path fill="#c2e2af" opacity="1.00" d=" M 177.03 14.01 C 177.03 12.61 177.72 11.84 179.13 11.69 C 179.13 13.10 178.43 13.87 177.03 14.01 Z" />
<path fill="#c2e2af" opacity="1.00" d=" M 204.90 11.68 C 206.28 11.85 206.97 12.62 206.96 14.01 C 205.55 13.87 204.86 13.09 204.90 11.68 Z" />
<path fill="#c2e2af" opacity="1.00" d=" M 222.14 11.79 C 222.61 11.83 223.54 11.90 224.00 11.94 L 224.00 13.52 L 223.18 13.83 C 222.92 13.32 222.40 12.30 222.14 11.79 Z" />
</g>
<g id="#050b01ff">
<path fill="#050b01" opacity="1.00" d=" M 89.79 10.17 C 91.37 11.16 92.87 12.27 94.39 13.33 C 93.97 12.64 93.11 11.25 92.68 10.55 C 93.63 11.56 94.64 12.51 95.64 13.47 C 92.79 14.31 89.95 15.18 87.09 16.00 L 85.91 16.00 C 85.10 15.71 83.48 15.14 82.67 14.86 C 83.93 13.93 85.19 13.00 86.43 12.06 C 86.57 12.65 86.85 13.85 86.99 14.45 L 86.46 14.15 L 86.16 14.69 L 86.69 14.99 L 86.99 14.45 C 87.51 13.53 88.03 12.61 88.57 11.71 L 89.21 10.88 C 89.20 11.31 89.20 12.16 89.20 12.59 C 90.41 12.19 90.61 11.39 89.79 10.17 Z" />
</g>
<g id="#8aaaffff">
<path fill="#8aaaff" opacity="1.00" d=" M 118.36 10.18 C 118.93 10.18 120.06 10.19 120.63 10.19 C 121.16 11.74 117.78 11.73 118.36 10.18 Z" />
</g>
<g id="#a3d387ff">
<path fill="#a3d387" opacity="1.00" d=" M 18.33 13.02 C 18.66 12.54 19.33 11.57 19.67 11.08 L 19.81 11.91 C 19.44 12.18 18.70 12.74 18.33 13.02 Z" />
<path fill="#a3d387" opacity="1.00" d=" M 33.51 12.93 C 33.55 12.47 33.63 11.55 33.66 11.09 L 34.54 10.95 C 34.28 11.45 33.77 12.44 33.51 12.93 Z" />
<path fill="#a3d387" opacity="1.00" d=" M 81.27 12.75 C 81.38 12.32 81.60 11.46 81.71 11.03 L 82.59 11.03 L 82.71 11.90 C 82.35 12.11 81.63 12.54 81.27 12.75 Z" />
</g>
</svg>
