<?xml version="1.0" encoding="UTF-8" ?>
<!DOCTYPE svg PUBLIC "-//W3C//DTD SVG 1.1//EN" "http://www.w3.org/Graphics/SVG/1.1/DTD/svg11.dtd">
<svg width="224pt" height="16pt" viewBox="0 0 224 16" version="1.1" xmlns="http://www.w3.org/2000/svg">
<g id="#48a810ff">
<path fill="#48a810" opacity="1.00" d=" M 0.00 0.00 L 5.03 0.00 C 5.01 1.56 4.99 3.11 4.97 4.67 C 4.30 4.94 2.95 5.49 2.28 5.77 C 1.69 4.67 0.93 3.70 0.00 2.86 L 0.00 0.00 Z" />
<path fill="#48a810" opacity="1.00" d=" M 11.73 0.00 L 21.07 0.00 C 20.96 2.16 21.53 4.85 19.18 6.04 C 19.14 5.28 19.05 3.76 19.01 3.00 L 17.88 3.00 C 17.98 4.44 18.03 5.90 18.43 7.30 C 17.01 9.65 18.88 10.89 21.20 10.74 C 20.28 12.20 19.14 13.50 17.88 14.67 C 18.26 15.00 19.04 15.67 19.43 16.00 L 6.23 16.00 C 8.93 14.34 12.19 15.13 15.18 15.04 C 14.04 13.57 13.00 12.03 12.05 10.44 C 12.79 10.02 14.27 9.16 15.00 8.74 C 15.17 6.57 12.64 5.41 11.44 3.90 C 11.54 2.60 11.64 1.30 11.73 0.00 Z" />
<path fill="#48a810" opacity="1.00" d=" M 27.65 0.00 L 37.00 0.00 C 36.97 0.74 36.92 2.21 36.90 2.95 C 35.96 3.64 35.59 4.65 35.79 5.97 C 34.08 5.65 32.68 8.51 34.74 9.05 C 35.12 9.24 35.87 9.63 36.24 9.82 C 36.38 10.29 36.64 11.23 36.77 11.70 C 35.84 12.68 34.88 13.63 33.96 14.61 C 34.30 14.96 34.98 15.65 35.32 16.00 L 22.25 16.00 C 24.94 14.31 28.22 15.14 31.20 15.05 C 30.02 13.60 29.00 12.04 28.10 10.41 C 28.83 9.99 30.28 9.17 31.01 8.76 C 31.27 6.90 29.19 5.98 28.27 4.66 C 26.87 3.53 27.86 1.51 27.65 0.00 Z" />
<path fill="#48a810" opacity="1.00" d=" M 43.78 0.00 L 53.02 0.00 C 53.01 1.55 53.00 3.10 52.98 4.65 C 52.31 4.93 50.98 5.48 50.31 5.76 C 49.89 5.06 49.03 3.67 48.61 2.98 C 47.09 3.82 48.91 5.86 49.02 7.11 C 49.17 8.31 49.74 9.36 50.55 10.24 C 51.44 9.86 53.21 9.11 54.10 8.73 C 53.26 10.99 51.84 12.92 49.98 14.43 C 50.31 14.83 50.96 15.61 51.29 16.00 L 38.25 16.00 C 40.94 14.32 44.22 15.14 47.20 15.04 C 46.03 13.59 44.99 12.04 44.09 10.41 C 44.80 10.00 46.24 9.18 46.96 8.77 C 47.20 6.57 44.47 5.30 43.34 3.63 C 43.45 2.72 43.67 0.91 43.78 0.00 Z" />
<path fill="#48a810" opacity="1.00" d=" M 59.73 0.00 L 69.07 0.00 C 68.95 2.12 69.56 4.80 67.22 5.97 C 67.17 5.23 67.06 3.74 67.00 3.00 L 65.90 2.99 C 65.95 4.18 66.05 5.36 66.19 6.53 L 66.45 7.37 C 65.04 9.55 66.98 11.15 69.28 10.67 C 68.42 12.13 67.22 13.33 65.94 14.43 C 66.29 14.82 66.97 15.61 67.31 16.00 L 54.23 16.00 C 56.93 14.34 60.20 15.13 63.19 15.04 C 62.03 13.59 61.00 12.04 60.07 10.42 C 60.82 10.00 62.32 9.14 63.07 8.71 C 63.02 6.53 60.76 5.42 59.47 3.97 C 59.55 2.64 59.64 1.32 59.73 0.00 Z" />
<path fill="#48a810" opacity="1.00" d=" M 75.74 0.00 L 85.01 0.00 C 84.97 0.74 84.91 2.22 84.88 2.96 C 84.17 3.69 83.82 4.60 83.84 5.68 C 83.09 6.45 82.35 7.23 81.61 8.00 C 82.73 9.21 83.87 10.41 85.02 11.60 C 83.95 12.61 82.89 13.62 81.84 14.64 C 82.24 14.98 83.04 15.66 83.44 16.00 L 70.23 16.00 C 72.94 14.33 76.22 15.13 79.21 15.04 C 78.10 13.61 77.05 12.14 76.05 10.63 C 77.04 9.78 78.87 9.45 79.09 7.96 C 78.29 6.30 76.70 5.21 75.44 3.92 C 75.54 2.61 75.64 1.31 75.74 0.00 Z" />
<path fill="#48a810" opacity="1.00" d=" M 91.74 0.00 L 100.51 0.00 C 98.66 0.63 96.90 1.53 95.50 2.91 C 96.60 4.10 97.74 5.25 98.93 6.34 C 98.69 7.98 99.89 10.57 97.73 11.28 C 97.76 10.80 97.83 9.84 97.87 9.36 L 97.17 9.00 C 97.31 9.57 97.59 10.71 97.73 11.28 C 98.19 12.87 98.66 14.47 99.30 16.00 L 86.24 16.00 C 88.94 14.33 92.21 15.14 95.19 15.04 C 94.10 13.59 93.05 12.11 92.03 10.61 C 92.94 9.69 95.02 9.48 95.06 7.96 C 94.32 6.27 92.68 5.22 91.45 3.92 C 91.54 2.62 91.64 1.31 91.74 0.00 Z" />
<path fill="#48a810" opacity="1.00" d=" M 104.35 0.00 L 116.51 0.00 C 114.93 0.85 112.66 1.07 111.79 2.86 C 112.59 4.45 114.30 5.39 115.00 7.03 C 115.29 8.82 113.50 9.89 112.60 11.16 C 114.42 12.62 116.66 13.73 117.60 16.00 L 103.54 16.00 C 104.10 12.83 107.11 12.66 109.72 12.99 C 110.64 11.95 111.51 10.87 112.34 9.76 C 110.72 11.01 108.98 12.15 106.86 12.25 C 107.11 11.67 107.63 10.53 107.88 9.95 C 109.45 8.25 111.26 6.74 112.46 4.73 C 110.63 5.28 109.36 6.71 108.26 8.18 C 107.60 7.32 106.96 6.46 106.31 5.59 C 106.07 3.60 105.36 1.73 104.35 0.00 Z" />
<path fill="#48a810" opacity="1.00" d=" M 120.38 0.00 L 133.93 0.00 C 133.05 2.67 132.27 5.38 131.53 8.09 C 130.30 6.92 129.38 4.39 127.28 5.05 C 126.10 5.94 125.12 7.08 124.18 8.21 C 122.04 5.90 121.91 2.64 120.38 0.00 Z" />
<path fill="#48a810" opacity="1.00" d=" M 139.71 0.00 L 149.90 0.00 C 149.08 2.52 148.74 5.25 147.10 7.42 C 146.15 6.26 145.00 5.27 143.58 4.73 C 144.81 6.73 146.46 8.43 148.33 9.84 C 147.97 11.51 147.46 13.14 146.81 14.72 C 145.59 15.13 144.37 15.55 143.17 16.00 L 139.37 16.00 C 140.69 15.01 142.00 14.00 143.32 13.02 C 141.87 13.00 140.42 12.99 138.98 12.97 C 138.51 9.29 139.10 4.94 143.19 3.68 C 143.29 1.27 141.08 0.87 139.10 0.76 L 139.71 0.00 Z" />
<path fill="#48a810" opacity="1.00" d=" M 155.80 0.00 L 159.34 0.00 C 160.59 2.19 161.52 4.55 162.82 6.72 C 164.14 6.90 165.46 7.01 166.78 7.12 C 167.30 9.07 167.78 11.04 168.19 13.01 C 165.25 13.23 162.35 12.77 159.54 11.94 C 161.19 13.95 164.75 13.24 165.53 16.00 L 151.45 16.00 C 153.88 14.41 156.90 14.51 159.44 13.24 C 158.62 13.15 156.99 12.98 156.17 12.90 C 156.03 11.13 155.73 9.37 154.96 7.75 C 155.79 5.87 157.34 4.56 159.17 3.70 C 159.30 1.18 156.98 0.91 154.96 0.74 L 155.80 0.00 Z" />
<path fill="#48a810" opacity="1.00" d=" M 160.78 0.00 L 165.04 0.00 C 164.33 1.53 163.68 3.08 163.08 4.65 C 162.17 3.18 161.37 1.63 160.78 0.00 Z" />
<path fill="#48a810" opacity="1.00" d=" M 170.30 0.00 L 175.35 0.00 C 176.57 2.21 177.54 4.54 178.82 6.71 C 180.27 6.92 181.73 7.05 183.19 7.19 C 182.90 8.73 182.45 10.23 181.86 11.69 C 180.95 12.11 180.04 12.53 179.14 12.96 C 177.97 12.55 176.79 12.18 175.60 11.85 C 178.32 14.61 182.49 14.43 185.83 16.00 L 170.44 16.00 C 172.20 14.81 174.39 15.03 176.40 14.78 C 175.01 14.08 173.22 13.94 172.15 12.73 C 171.84 10.93 171.98 9.10 171.99 7.29 C 173.59 7.08 175.21 6.74 176.20 5.34 C 174.89 3.84 173.08 3.04 171.15 2.69 C 170.94 2.01 170.51 0.67 170.30 0.00 Z" />
<path fill="#48a810" opacity="1.00" d=" M 176.78 0.00 L 181.04 0.00 C 180.32 1.53 179.68 3.09 179.08 4.66 C 178.18 3.17 177.35 1.64 176.78 0.00 Z" />
<path fill="#48a810" opacity="1.00" d=" M 186.32 0.00 L 198.10 0.00 C 197.75 0.66 197.05 1.98 196.70 2.65 C 195.45 2.89 194.39 3.47 193.52 4.38 C 192.79 4.65 192.04 4.81 191.26 4.86 C 190.91 4.44 190.20 3.60 189.84 3.18 C 189.17 3.10 187.82 2.94 187.14 2.86 C 186.94 2.15 186.53 0.72 186.32 0.00 Z" />
<path fill="#48a810" opacity="1.00" d=" M 203.29 0.00 L 207.43 0.00 C 206.58 1.57 205.74 3.15 204.86 4.71 C 204.29 3.16 203.76 1.59 203.29 0.00 Z" />
<path fill="#48a810" opacity="1.00" d=" M 208.32 0.00 L 214.11 0.00 C 213.75 0.67 213.04 2.00 212.68 2.66 C 210.62 3.01 208.84 4.07 207.71 5.85 C 209.06 6.55 210.51 7.01 212.00 7.32 C 212.02 9.11 212.15 10.91 211.87 12.68 C 211.06 14.07 209.35 13.93 208.01 14.26 L 208.00 14.98 C 209.45 14.80 210.86 14.95 212.23 15.44 L 212.49 16.00 L 198.23 16.00 C 201.49 14.36 205.78 14.70 208.32 11.81 C 207.16 12.17 206.01 12.55 204.87 12.97 C 203.97 12.55 203.07 12.13 202.18 11.71 C 201.56 10.26 201.05 8.76 200.83 7.19 C 202.28 7.05 203.73 6.92 205.17 6.70 C 206.50 4.61 207.50 2.33 208.32 0.00 Z" />
<path fill="#48a810" opacity="1.00" d=" M 219.28 0.00 L 223.41 0.00 C 222.58 1.58 221.74 3.16 220.86 4.72 C 220.30 3.16 219.76 1.59 219.28 0.00 Z" />
<path fill="#48a810" opacity="1.00" d=" M 221.18 6.69 C 222.14 5.00 223.06 3.29 224.00 1.58 L 224.00 11.69 C 221.53 13.22 218.59 13.08 215.80 13.00 C 216.21 11.03 216.69 9.08 217.21 7.14 C 218.53 7.02 219.86 6.90 221.18 6.69 Z" />
<path fill="#48a810" opacity="1.00" d=" M 0.00 5.17 L 0.52 6.06 L 0.94 6.86 C 1.04 8.18 1.68 9.28 2.58 10.21 C 3.47 9.85 5.25 9.12 6.13 8.76 C 5.23 11.07 3.70 13.01 1.89 14.68 C 2.27 15.01 3.03 15.67 3.41 16.00 L 0.00 16.00 L 0.00 5.17 Z" />
<path fill="#48a810" opacity="1.00" d=" M 191.08 6.29 C 191.53 6.33 192.45 6.40 192.91 6.44 C 194.01 6.73 195.11 7.03 196.21 7.33 C 195.93 10.23 194.22 12.62 192.04 14.44 C 189.79 12.69 188.04 10.27 187.81 7.35 C 188.94 7.12 190.03 6.77 191.08 6.29 Z" />
<path fill="#48a810" opacity="1.00" d=" M 123.89 9.95 C 125.22 8.53 126.55 7.12 128.00 5.82 C 129.44 7.23 130.85 8.67 132.38 9.99 C 131.81 11.10 131.25 12.21 130.70 13.33 C 132.17 14.58 133.93 15.39 135.74 16.00 L 132.11 16.00 C 131.31 14.25 128.65 14.22 127.87 16.00 L 121.81 16.00 C 122.35 15.05 122.88 14.10 123.39 13.13 C 123.97 13.08 125.15 12.97 125.74 12.92 C 126.68 11.92 127.56 10.85 128.30 9.68 C 127.35 10.40 126.42 11.13 125.51 11.88 C 124.25 11.94 123.00 12.00 121.75 12.06 C 122.48 11.37 123.19 10.67 123.89 9.95 Z" />
<path fill="#48a810" opacity="1.00" d=" M 185.27 12.43 L 185.77 12.43 C 185.64 12.43 185.39 12.43 185.27 12.43 Z" />
<path fill="#48a810" opacity="1.00" d=" M 198.29 12.40 L 198.70 12.52 C 198.60 12.49 198.39 12.43 198.29 12.40 Z" />
<path fill="#48a810" opacity="1.00" d=" M 218.51 16.00 C 219.14 13.50 222.10 13.69 224.00 12.70 L 224.00 16.00 L 218.51 16.00 Z" />
</g>
<g id="#000000ff">
<path fill="#000000" opacity="1.00" d=" M 5.03 0.00 L 11.73 0.00 C 11.64 1.30 11.54 2.60 11.44 3.90 C 12.64 5.41 15.17 6.57 15.00 8.74 C 14.27 9.16 12.79 10.02 12.05 10.44 C 13.00 12.03 14.04 13.57 15.18 15.04 C 12.19 15.13 8.93 14.34 6.23 16.00 L 3.41 16.00 C 3.03 15.67 2.27 15.01 1.89 14.68 C 3.70 13.01 5.23 11.07 6.13 8.76 C 5.25 9.12 3.47 9.85 2.58 10.21 C 1.68 9.28 1.04 8.18 0.94 6.86 C 1.27 6.59 1.94 6.04 2.28 5.77 C 2.95 5.49 4.30 4.94 4.97 4.67 C 4.99 3.11 5.01 1.56 5.03 0.00 M 5.91 1.00 C 5.97 1.54 6.11 2.62 6.18 3.16 C 6.31 3.48 6.57 4.13 6.70 4.46 C 5.15 5.42 3.56 6.30 1.92 7.11 C 2.15 7.38 2.61 7.92 2.84 8.19 C 4.37 9.24 5.64 7.44 7.00 6.88 L 7.10 8.21 L 7.13 8.86 C 6.44 10.50 4.99 11.91 4.97 13.77 C 2.24 14.40 6.54 16.37 5.83 14.02 L 6.78 14.16 C 6.87 12.87 7.39 11.79 8.35 10.93 C 9.30 11.64 9.96 12.81 11.16 13.16 C 10.62 15.48 14.76 13.22 12.01 12.80 C 12.29 11.11 10.57 10.19 9.80 8.93 L 9.88 8.26 L 10.04 6.75 C 11.05 7.59 11.96 8.64 13.26 9.04 C 13.38 8.82 13.62 8.37 13.73 8.14 C 14.35 6.77 12.21 6.01 11.53 5.07 C 10.01 4.99 8.83 6.51 7.17 6.09 L 7.09 5.05 C 7.76 5.00 9.12 4.91 9.80 4.86 C 9.63 4.28 9.29 3.10 9.12 2.52 C 9.58 2.68 10.51 3.01 10.97 3.18 C 10.98 2.64 10.99 1.55 11.00 1.00 C 9.30 1.00 7.60 1.00 5.91 1.00 M 2.84 8.19 C 2.43 8.59 2.43 8.59 2.84 8.19 Z" />
<path fill="#000000" opacity="1.00" d=" M 21.07 0.00 L 27.65 0.00 C 27.86 1.51 26.87 3.53 28.27 4.66 C 29.19 5.98 31.27 6.90 31.01 8.76 C 30.28 9.17 28.83 9.99 28.10 10.41 C 29.00 12.04 30.02 13.60 31.20 15.05 C 28.22 15.14 24.94 14.31 22.25 16.00 L 19.43 16.00 C 19.04 15.67 18.26 15.00 17.88 14.67 C 19.14 13.50 20.28 12.20 21.20 10.74 C 18.88 10.89 17.01 9.65 18.43 7.30 C 18.62 7.98 19.00 9.32 19.19 9.99 L 20.13 10.00 C 20.25 8.67 19.90 7.51 19.09 6.53 C 19.11 6.41 19.16 6.17 19.18 6.04 C 21.53 4.85 20.96 2.16 21.07 0.00 M 21.90 1.01 C 21.97 1.54 22.11 2.61 22.18 3.15 C 22.30 3.47 22.55 4.10 22.68 4.42 C 21.97 4.91 20.55 5.87 19.84 6.36 C 20.29 6.81 21.18 7.72 21.62 8.18 C 21.95 7.82 22.60 7.11 22.93 6.76 L 23.09 8.23 L 23.14 8.87 C 22.44 10.50 20.98 11.92 20.97 13.77 C 18.24 14.39 22.53 16.37 21.83 14.02 L 22.79 14.16 C 22.87 12.87 23.39 11.79 24.34 10.93 C 25.30 11.64 25.97 12.80 27.16 13.17 C 26.63 15.48 30.76 13.22 28.01 12.80 C 28.31 11.10 26.53 10.20 25.81 8.90 L 25.87 8.22 L 26.07 6.75 C 27.11 7.29 27.82 9.29 29.15 8.73 C 29.37 8.61 29.82 8.37 30.04 8.26 C 29.49 6.91 28.44 5.21 26.91 5.00 C 25.78 5.76 24.54 6.14 23.17 6.10 L 23.08 5.03 C 23.76 4.99 25.11 4.91 25.79 4.87 C 25.62 4.28 25.28 3.10 25.11 2.51 C 25.58 2.67 26.51 3.01 26.97 3.17 C 26.98 2.63 26.99 1.55 27.00 1.00 C 25.30 1.00 23.60 1.00 21.90 1.01 Z" />
<path fill="#000000" opacity="1.00" d=" M 37.00 0.00 L 43.78 0.00 C 43.67 0.91 43.45 2.72 43.34 3.63 C 44.47 5.30 47.20 6.57 46.96 8.77 C 46.24 9.18 44.80 10.00 44.09 10.41 C 44.99 12.04 46.03 13.59 47.20 15.04 C 44.22 15.14 40.94 14.32 38.25 16.00 L 35.32 16.00 C 34.98 15.65 34.30 14.96 33.96 14.61 C 34.88 13.63 35.84 12.68 36.77 11.70 C 36.64 11.23 36.38 10.29 36.24 9.82 L 36.64 9.94 C 36.79 9.55 37.07 8.77 37.22 8.37 C 37.66 7.93 38.54 7.06 38.98 6.62 L 39.06 8.20 L 39.05 8.81 C 38.28 10.42 37.46 12.02 36.98 13.75 C 36.73 14.05 36.23 14.65 35.98 14.94 C 36.49 14.79 37.50 14.48 38.00 14.33 C 38.82 13.20 39.57 12.02 40.31 10.83 C 41.20 11.67 42.11 12.50 43.03 13.30 C 43.53 13.46 44.52 13.79 45.01 13.96 C 44.77 13.65 44.30 13.04 44.06 12.74 C 43.91 11.43 42.95 10.52 42.22 9.51 L 41.94 8.82 L 41.93 8.20 L 41.94 6.75 C 43.01 7.42 43.83 8.79 45.19 8.82 L 45.91 8.90 L 45.96 8.23 C 45.51 6.89 44.63 5.32 43.11 5.11 C 41.81 5.48 40.54 5.89 39.23 6.20 L 38.99 5.23 C 39.72 5.15 41.18 5.01 41.91 4.94 C 41.74 4.37 41.40 3.21 41.23 2.64 C 41.67 2.77 42.55 3.04 42.99 3.17 C 42.99 2.63 43.00 1.54 43.00 0.99 C 41.27 0.99 39.54 0.99 37.82 1.00 C 37.92 1.53 38.12 2.58 38.22 3.11 C 38.32 3.48 38.52 4.23 38.61 4.60 L 37.14 4.96 C 37.08 4.46 36.96 3.45 36.90 2.95 C 36.92 2.21 36.97 0.74 37.00 0.00 Z" />
<path fill="#000000" opacity="1.00" d=" M 53.02 0.00 L 59.73 0.00 C 59.64 1.32 59.55 2.64 59.47 3.97 C 60.76 5.42 63.02 6.53 63.07 8.71 C 62.32 9.14 60.82 10.00 60.07 10.42 C 61.00 12.04 62.03 13.59 63.19 15.04 C 60.20 15.13 56.93 14.34 54.23 16.00 L 51.29 16.00 C 50.96 15.61 50.31 14.83 49.98 14.43 C 51.84 12.92 53.26 10.99 54.10 8.73 C 53.21 9.11 51.44 9.86 50.55 10.24 C 49.74 9.36 49.17 8.31 49.02 7.11 C 49.35 6.77 49.99 6.10 50.31 5.76 C 50.98 5.48 52.31 4.93 52.98 4.65 C 53.00 3.10 53.01 1.55 53.02 0.00 M 53.97 1.01 C 54.01 1.57 54.09 2.68 54.13 3.23 C 54.07 4.85 56.56 5.50 57.79 4.83 C 57.60 4.29 57.22 3.21 57.02 2.66 C 57.51 2.79 58.49 3.05 58.97 3.18 C 58.98 2.63 58.99 1.54 59.00 1.00 C 57.32 1.00 55.65 1.00 53.97 1.01 M 50.84 7.66 L 51.00 8.96 C 52.35 8.30 53.69 7.61 55.01 6.89 L 55.10 8.20 L 55.11 8.85 C 54.42 10.48 52.98 11.96 53.01 13.80 C 50.25 14.20 54.36 16.49 53.85 14.16 C 55.35 13.86 55.35 11.82 56.23 10.81 C 57.17 11.63 57.95 12.71 59.14 13.19 C 58.70 15.52 62.75 13.14 59.98 12.80 C 60.28 11.11 58.56 10.15 57.81 8.87 L 57.85 8.20 C 58.01 7.85 58.33 7.15 58.49 6.80 C 59.17 8.15 60.06 8.80 61.15 8.73 C 61.37 8.60 61.81 8.35 62.03 8.22 C 61.42 6.88 60.56 5.43 59.05 4.98 C 57.47 6.17 55.58 6.19 53.97 5.03 C 52.83 5.61 50.47 5.88 50.84 7.66 M 50.18 7.68 L 50.21 8.37 L 50.88 8.35 L 50.84 7.66 L 50.18 7.68 Z" />
<path fill="#000000" opacity="1.00" d=" M 69.07 0.00 L 75.74 0.00 C 75.64 1.31 75.54 2.61 75.44 3.92 C 76.70 5.21 78.29 6.30 79.09 7.96 C 78.87 9.45 77.04 9.78 76.05 10.63 C 77.05 12.14 78.10 13.61 79.21 15.04 C 76.22 15.13 72.94 14.33 70.23 16.00 L 67.31 16.00 C 66.97 15.61 66.29 14.82 65.94 14.43 C 67.22 13.33 68.42 12.13 69.28 10.67 C 66.98 11.15 65.04 9.55 66.45 7.37 C 66.63 8.02 67.01 9.33 67.20 9.99 L 68.13 10.01 C 68.24 8.66 67.89 7.50 67.07 6.51 C 67.11 6.38 67.19 6.10 67.22 5.97 C 69.56 4.80 68.95 2.12 69.07 0.00 M 69.97 1.01 C 70.01 1.56 70.09 2.67 70.13 3.23 C 70.06 4.84 72.56 5.50 73.79 4.84 C 73.59 4.29 73.21 3.20 73.02 2.65 C 73.51 2.78 74.48 3.04 74.96 3.17 C 74.97 2.63 74.99 1.54 75.00 1.00 C 73.33 1.00 71.65 1.00 69.97 1.01 M 69.64 8.21 L 70.38 6.73 C 70.57 7.09 70.97 7.80 71.17 8.15 L 71.13 8.81 C 70.44 10.46 68.98 11.93 69.01 13.79 C 66.25 14.19 70.34 16.50 69.85 14.16 C 71.35 13.84 71.27 11.69 72.52 10.85 C 73.20 11.90 74.07 12.68 75.14 13.18 C 74.68 15.51 78.75 13.16 75.98 12.80 C 76.27 11.12 74.58 10.16 73.80 8.90 L 73.82 8.22 C 74.41 4.92 75.69 9.80 77.15 8.73 C 77.37 8.60 77.81 8.35 78.03 8.23 C 77.42 6.89 76.55 5.39 75.04 4.99 C 73.42 6.22 71.49 6.19 69.88 4.94 C 67.65 5.48 67.87 7.23 69.64 8.21 Z" />
<path fill="#000000" opacity="1.00" d=" M 85.01 0.00 L 91.74 0.00 C 91.64 1.31 91.54 2.62 91.45 3.92 C 92.68 5.22 94.32 6.27 95.06 7.96 C 95.02 9.48 92.94 9.69 92.03 10.61 C 93.05 12.11 94.10 13.59 95.19 15.04 C 92.21 15.14 88.94 14.33 86.24 16.00 L 83.44 16.00 C 83.04 15.66 82.24 14.98 81.84 14.64 C 82.89 13.62 83.95 12.61 85.02 11.60 C 83.87 10.41 82.73 9.21 81.61 8.00 C 82.35 7.23 83.09 6.45 83.84 5.68 C 83.73 7.14 83.20 9.07 84.69 10.06 C 84.79 9.66 84.99 8.85 85.09 8.45 C 85.44 8.03 86.13 7.18 86.48 6.75 C 86.64 7.08 86.96 7.73 87.12 8.06 L 87.05 8.72 C 86.29 10.36 85.49 12.00 85.00 13.75 C 84.75 14.05 84.24 14.64 83.98 14.94 C 84.49 14.79 85.50 14.48 86.01 14.33 C 86.81 13.21 87.55 12.05 88.26 10.87 C 89.17 11.68 90.10 12.47 91.05 13.22 C 91.54 13.41 92.52 13.78 93.01 13.96 C 92.79 13.66 92.35 13.04 92.13 12.73 C 91.51 11.36 90.72 10.08 89.91 8.81 L 89.90 8.19 C 90.01 7.88 90.23 7.25 90.34 6.93 C 91.17 7.80 92.13 8.46 93.22 8.93 L 93.94 8.95 L 93.93 8.23 C 93.59 6.74 92.33 5.83 91.28 4.84 C 89.34 6.55 86.96 5.77 84.94 4.69 C 84.92 4.26 84.90 3.39 84.88 2.96 C 84.91 2.22 84.97 0.74 85.01 0.00 M 85.97 1.01 C 86.01 1.56 86.09 2.66 86.12 3.22 C 86.05 4.84 88.56 5.50 89.80 4.84 C 89.60 4.29 89.20 3.19 89.00 2.65 C 89.49 2.78 90.47 3.03 90.97 3.16 C 90.98 2.62 90.99 1.54 91.00 1.00 C 89.32 1.00 87.65 1.00 85.97 1.01 Z" />
<path fill="#000000" opacity="1.00" d=" M 100.51 0.00 L 104.35 0.00 C 105.36 1.73 106.07 3.60 106.31 5.59 C 106.96 6.46 107.60 7.32 108.26 8.18 C 107.21 7.49 106.25 6.64 105.11 6.09 C 103.40 6.96 101.51 7.04 99.64 6.76 C 99.97 9.22 100.02 11.71 100.19 14.19 L 100.22 14.72 L 100.76 14.82 L 102.00 15.07 C 101.99 13.50 101.99 11.92 101.98 10.34 L 102.82 9.86 C 102.89 10.40 103.03 11.47 103.11 12.01 C 103.63 12.00 104.67 11.98 105.19 11.98 C 105.04 10.45 104.59 8.99 103.85 7.65 C 104.82 8.47 105.79 9.29 106.81 10.06 L 107.88 9.95 C 107.63 10.53 107.11 11.67 106.86 12.25 C 108.98 12.15 110.72 11.01 112.34 9.76 C 111.51 10.87 110.64 11.95 109.72 12.99 C 107.11 12.66 104.10 12.83 103.54 16.00 L 99.30 16.00 C 98.66 14.47 98.19 12.87 97.73 11.28 C 99.89 10.57 98.69 7.98 98.93 6.34 C 97.74 5.25 96.60 4.10 95.50 2.91 C 96.90 1.53 98.66 0.63 100.51 0.00 M 99.98 0.97 C 99.61 3.24 100.12 5.52 102.44 6.46 C 103.11 6.02 104.44 5.13 105.11 4.69 C 105.74 1.48 102.61 0.37 99.98 0.97 M 97.19 2.79 C 97.10 4.15 97.67 4.81 98.88 4.78 C 98.80 4.14 98.63 2.85 98.54 2.21 L 97.88 2.13 C 97.70 2.30 97.36 2.63 97.19 2.79 Z" />
<path fill="#000000" opacity="1.00" d=" M 116.51 0.00 L 120.38 0.00 C 121.91 2.64 122.04 5.90 124.18 8.21 C 123.13 7.57 122.27 6.42 121.07 6.13 C 119.34 6.95 117.45 7.04 115.60 6.73 C 116.05 8.55 114.98 10.21 114.81 11.98 C 115.33 11.99 116.38 12.00 116.90 12.01 C 116.97 11.47 117.11 10.40 117.17 9.87 L 118.02 10.34 C 118.01 11.91 118.00 13.49 118.00 15.07 L 119.23 14.82 L 119.78 14.72 L 119.82 14.20 C 120.04 12.04 120.03 9.86 120.00 7.69 C 120.90 8.49 121.80 9.30 122.74 10.06 L 123.89 9.95 C 123.19 10.67 122.48 11.37 121.75 12.06 C 123.00 12.00 124.25 11.94 125.51 11.88 C 126.42 11.13 127.35 10.40 128.30 9.68 C 127.56 10.85 126.68 11.92 125.74 12.92 C 125.15 12.97 123.97 13.08 123.39 13.13 C 122.88 14.10 122.35 15.05 121.81 16.00 L 117.60 16.00 C 116.66 13.73 114.42 12.62 112.60 11.16 C 113.50 9.89 115.29 8.82 115.00 7.03 C 114.30 5.39 112.59 4.45 111.79 2.86 C 112.66 1.07 114.93 0.85 116.51 0.00 M 115.97 0.97 C 116.05 2.64 115.51 4.72 117.27 5.72 C 118.62 7.04 119.94 5.40 121.11 4.71 C 121.74 1.49 118.62 0.38 115.97 0.97 M 113.00 2.81 L 113.54 3.07 C 113.85 3.48 114.47 4.31 114.78 4.73 C 114.71 4.11 114.57 2.87 114.50 2.25 L 113.84 2.40 C 113.63 2.50 113.21 2.71 113.00 2.81 Z" />
<path fill="#000000" opacity="1.00" d=" M 133.93 0.00 L 139.71 0.00 L 139.10 0.76 C 141.08 0.87 143.29 1.27 143.19 3.68 C 139.10 4.94 138.51 9.29 138.98 12.97 C 140.42 12.99 141.87 13.00 143.32 13.02 C 142.00 14.00 140.69 15.01 139.37 16.00 L 135.74 16.00 C 133.93 15.39 132.17 14.58 130.70 13.33 C 131.25 12.21 131.81 11.10 132.38 9.99 L 133.43 10.02 L 133.97 10.05 C 133.99 9.58 134.01 8.64 134.02 8.17 L 134.98 8.03 L 135.14 8.67 C 135.76 10.42 136.08 12.24 136.13 14.09 L 136.19 14.81 C 136.62 14.84 137.48 14.89 137.91 14.91 L 137.93 14.15 C 137.97 12.34 137.96 10.53 137.95 8.72 L 137.96 8.05 L 139.34 5.80 C 137.24 7.91 134.70 7.09 133.40 4.80 C 132.93 5.62 132.00 7.27 131.53 8.09 C 132.27 5.38 133.05 2.67 133.93 0.00 M 133.97 1.04 C 134.02 1.84 134.10 3.44 134.14 4.23 C 134.31 4.38 134.64 4.68 134.81 4.83 L 134.79 4.23 L 135.88 4.24 C 135.81 4.64 135.67 5.45 135.61 5.85 C 136.05 5.86 136.95 5.89 137.40 5.90 C 137.32 5.32 137.17 4.16 137.10 3.58 C 138.16 3.97 139.16 4.48 140.12 5.09 L 140.05 4.03 C 140.58 4.01 141.63 3.96 142.16 3.94 L 141.55 2.84 C 141.41 2.65 141.12 2.25 140.98 2.06 L 139.88 3.96 C 139.37 2.94 138.87 1.91 138.39 0.88 C 136.91 0.94 135.44 0.99 133.97 1.04 M 133.48 10.90 C 132.78 12.70 133.21 13.25 134.77 12.57 C 135.39 10.63 134.97 10.08 133.48 10.90 Z" />
<path fill="#000000" opacity="1.00" d=" M 149.90 0.00 L 155.80 0.00 L 154.96 0.74 C 156.98 0.91 159.30 1.18 159.17 3.70 C 157.34 4.56 155.79 5.87 154.96 7.75 C 155.73 9.37 156.03 11.13 156.17 12.90 C 156.99 12.98 158.62 13.15 159.44 13.24 C 156.90 14.51 153.88 14.41 151.45 16.00 L 143.17 16.00 C 144.37 15.55 145.59 15.13 146.81 14.72 C 147.46 13.14 147.97 11.51 148.33 9.84 L 149.41 10.05 L 149.94 10.16 C 149.96 9.67 150.00 8.69 150.03 8.20 L 151.13 8.05 L 150.97 8.76 C 150.09 10.41 149.81 12.25 150.05 14.10 L 150.11 14.81 C 150.55 14.83 151.43 14.88 151.88 14.90 L 151.90 14.15 C 151.95 12.62 152.03 11.09 152.15 9.56 C 152.45 10.16 153.04 11.37 153.33 11.97 C 153.77 11.98 154.64 12.00 155.07 12.01 C 155.02 11.35 154.93 10.02 154.88 9.36 L 154.03 8.69 L 153.93 8.03 L 155.34 5.84 C 153.04 8.05 150.85 6.84 149.21 4.84 C 148.87 5.69 148.18 7.40 147.83 8.26 C 147.65 8.05 147.28 7.63 147.10 7.42 C 148.74 5.25 149.08 2.52 149.90 0.00 M 149.97 1.00 C 150.01 1.81 150.10 3.42 150.14 4.23 C 150.31 4.38 150.64 4.68 150.81 4.83 L 150.79 4.23 L 151.91 4.23 C 151.83 4.64 151.68 5.47 151.61 5.89 C 152.07 5.89 152.99 5.90 153.45 5.90 C 153.35 5.35 153.14 4.26 153.04 3.71 C 154.14 4.08 155.17 4.58 156.13 5.21 L 155.94 4.01 C 156.50 4.00 157.61 3.99 158.17 3.98 L 157.72 2.81 C 157.59 2.68 157.33 2.42 157.20 2.29 L 156.12 1.83 L 155.86 3.68 L 155.04 4.22 C 155.02 3.41 155.00 1.80 154.99 1.00 C 153.32 1.00 151.64 1.00 149.97 1.00 Z" />
<path fill="#000000" opacity="1.00" d=" M 165.04 0.00 L 170.30 0.00 C 170.51 0.67 170.94 2.01 171.15 2.69 C 173.08 3.04 174.89 3.84 176.20 5.34 C 175.21 6.74 173.59 7.08 171.99 7.29 C 171.98 9.10 171.84 10.93 172.15 12.73 C 173.22 13.94 175.01 14.08 176.40 14.78 C 174.39 15.03 172.20 14.81 170.44 16.00 L 165.53 16.00 C 164.75 13.24 161.19 13.95 159.54 11.94 C 162.35 12.77 165.25 13.23 168.19 13.01 C 167.78 11.04 167.30 9.07 166.78 7.12 C 165.46 7.01 164.14 6.90 162.82 6.72 C 162.89 6.20 163.01 5.17 163.08 4.65 C 163.68 3.08 164.33 1.53 165.04 0.00 M 164.99 1.00 C 165.01 1.56 165.04 2.67 165.05 3.23 L 165.75 2.62 C 165.86 3.16 166.07 4.23 166.17 4.77 C 167.01 4.65 168.69 4.41 169.52 4.29 L 168.96 5.87 C 168.40 5.93 167.27 6.05 166.71 6.11 C 167.09 6.56 167.86 7.47 168.24 7.92 L 168.02 8.76 C 168.93 10.28 169.07 12.01 169.05 13.73 L 168.17 14.07 L 168.17 14.89 C 168.63 14.85 169.55 14.78 170.01 14.75 L 170.96 15.25 C 171.03 12.22 170.99 9.19 171.00 6.16 C 171.50 6.07 172.51 5.89 173.01 5.80 C 173.46 5.82 174.36 5.86 174.81 5.88 L 174.79 5.06 L 173.88 4.71 L 174.24 4.11 C 172.87 4.01 171.51 3.90 170.14 3.79 L 169.94 3.35 C 169.96 2.77 169.99 1.59 170.01 1.00 C 168.33 1.00 166.66 1.00 164.99 1.00 M 164.22 4.45 L 163.88 5.16 C 164.22 5.36 164.89 5.77 165.22 5.97 L 165.56 5.26 C 165.23 5.06 164.55 4.65 164.22 4.45 Z" />
<path fill="#000000" opacity="1.00" d=" M 181.04 0.00 L 186.32 0.00 C 186.53 0.72 186.94 2.15 187.14 2.86 C 187.82 2.94 189.17 3.10 189.84 3.18 C 190.20 3.60 190.91 4.44 191.26 4.86 L 190.40 4.85 C 189.07 4.07 187.56 3.77 186.05 3.64 L 186.03 3.26 C 186.01 2.70 185.97 1.57 185.95 1.00 C 184.24 1.00 182.54 1.00 180.83 1.01 C 181.02 1.54 181.39 2.60 181.58 3.13 C 181.73 3.58 182.05 4.47 182.20 4.92 C 183.02 4.84 184.65 4.67 185.46 4.59 L 184.74 5.72 C 184.26 5.82 183.31 6.04 182.83 6.14 C 183.14 6.64 183.77 7.63 184.08 8.13 C 184.41 8.46 185.06 9.14 185.38 9.47 C 184.91 10.21 184.43 10.95 183.94 11.68 L 183.66 9.35 C 183.07 10.58 182.56 11.86 182.15 13.17 L 182.11 13.95 C 182.54 13.81 183.40 13.52 183.83 13.38 L 183.86 12.55 C 184.21 12.52 184.92 12.46 185.27 12.43 C 185.39 12.43 185.64 12.43 185.77 12.43 C 186.87 12.50 187.60 13.11 187.98 14.27 C 188.51 14.39 189.57 14.65 190.10 14.77 L 189.87 14.03 C 188.35 11.57 186.48 9.14 186.90 6.05 C 187.49 6.00 188.66 5.90 189.25 5.85 C 189.71 5.96 190.62 6.18 191.08 6.29 C 190.03 6.77 188.94 7.12 187.81 7.35 C 188.04 10.27 189.79 12.69 192.04 14.44 C 194.22 12.62 195.93 10.23 196.21 7.33 C 195.11 7.03 194.01 6.73 192.91 6.44 C 193.39 6.29 194.36 6.01 194.84 5.86 C 195.38 5.91 196.47 6.00 197.01 6.04 C 196.99 7.22 196.97 8.39 196.95 9.56 C 195.96 11.01 194.94 12.45 194.11 14.01 L 193.97 14.71 L 194.77 15.17 C 195.10 14.96 195.76 14.55 196.09 14.35 C 196.37 13.76 196.94 12.58 197.22 11.99 C 197.48 12.09 198.02 12.30 198.29 12.40 C 198.39 12.43 198.60 12.49 198.70 12.52 C 199.07 12.58 199.82 12.71 200.19 12.77 L 200.18 13.63 C 200.61 13.68 201.46 13.78 201.89 13.83 L 201.92 13.11 C 201.45 11.85 200.94 10.60 200.40 9.37 L 200.04 11.67 C 199.56 10.94 199.09 10.21 198.62 9.48 C 198.95 9.14 199.59 8.46 199.92 8.12 C 200.23 7.63 200.86 6.64 201.17 6.15 C 200.51 5.76 199.20 4.98 198.54 4.59 C 199.36 4.67 200.99 4.84 201.80 4.92 C 201.96 4.47 202.27 3.58 202.43 3.14 C 202.61 2.60 202.98 1.54 203.17 1.01 C 201.46 1.00 199.75 1.00 198.05 1.00 C 198.03 1.56 197.99 2.69 197.98 3.26 L 197.95 3.66 C 196.47 3.89 194.99 4.13 193.52 4.38 C 194.39 3.47 195.45 2.89 196.70 2.65 C 197.05 1.98 197.75 0.66 198.10 0.00 L 203.29 0.00 C 203.76 1.59 204.29 3.16 204.86 4.71 C 204.94 5.21 205.10 6.20 205.17 6.70 C 203.73 6.92 202.28 7.05 200.83 7.19 C 201.05 8.76 201.56 10.26 202.18 11.71 C 203.07 12.13 203.97 12.55 204.87 12.97 C 206.01 12.55 207.16 12.17 208.32 11.81 C 205.78 14.70 201.49 14.36 198.23 16.00 L 185.83 16.00 C 182.49 14.43 178.32 14.61 175.60 11.85 C 176.79 12.18 177.97 12.55 179.14 12.96 C 180.04 12.53 180.95 12.11 181.86 11.69 C 182.45 10.23 182.90 8.73 183.19 7.19 C 181.73 7.05 180.27 6.92 178.82 6.71 C 178.89 6.20 179.02 5.17 179.08 4.66 C 179.68 3.09 180.32 1.53 181.04 0.00 M 180.22 4.45 L 179.88 5.16 C 180.22 5.36 180.89 5.77 181.22 5.97 L 181.56 5.26 C 181.22 5.06 180.55 4.65 180.22 4.45 M 203.04 4.96 L 202.87 5.63 L 203.49 5.77 L 203.65 5.08 L 203.78 4.44 C 203.59 4.57 203.23 4.83 203.04 4.96 Z" />
<path fill="#000000" opacity="1.00" d=" M 214.11 0.00 L 219.28 0.00 C 219.76 1.59 220.30 3.16 220.86 4.72 C 220.94 5.21 221.10 6.20 221.18 6.69 C 219.86 6.90 218.53 7.02 217.21 7.14 C 216.69 9.08 216.21 11.03 215.80 13.00 C 218.59 13.08 221.53 13.22 224.00 11.69 L 224.00 12.70 C 222.10 13.69 219.14 13.50 218.51 16.00 L 212.49 16.00 L 212.23 15.44 C 210.86 14.95 209.45 14.80 208.00 14.98 L 208.01 14.26 C 209.35 13.93 211.06 14.07 211.87 12.68 C 212.15 10.91 212.02 9.11 212.00 7.32 C 210.51 7.01 209.06 6.55 207.71 5.85 C 208.84 4.07 210.62 3.01 212.68 2.66 C 213.04 2.00 213.75 0.67 214.11 0.00 M 213.99 1.00 C 214.01 1.58 214.05 2.72 214.07 3.30 L 213.88 3.67 C 212.51 3.83 211.13 3.99 209.76 4.15 L 210.12 4.71 L 209.21 5.06 L 209.20 5.88 C 209.65 5.86 210.55 5.82 211.00 5.80 C 211.50 5.89 212.50 6.07 213.00 6.16 C 213.15 9.06 212.69 12.02 213.20 14.88 L 213.91 14.89 C 214.39 14.89 215.33 14.88 215.81 14.88 L 215.82 14.08 L 214.95 13.74 C 214.93 12.01 215.07 10.27 215.98 8.74 L 215.76 7.90 C 216.13 7.46 216.89 6.58 217.27 6.13 C 216.74 6.06 215.69 5.91 215.17 5.84 L 214.47 4.47 C 215.31 4.54 216.99 4.67 217.83 4.74 C 217.93 4.21 218.13 3.15 218.23 2.63 L 218.94 3.23 C 218.96 2.67 218.99 1.56 219.01 1.00 C 217.33 1.00 215.66 1.00 213.99 1.00 M 219.04 4.96 L 218.87 5.63 L 219.49 5.77 L 219.65 5.08 L 219.78 4.44 C 219.59 4.57 219.22 4.83 219.04 4.96 Z" />
<path fill="#000000" opacity="1.00" d=" M 167.35 2.93 C 167.49 3.10 167.77 3.43 167.91 3.60 L 167.44 3.47 L 167.35 2.93 Z" />
<path fill="#000000" opacity="1.00" d=" M 183.29 2.89 C 183.44 3.07 183.75 3.44 183.91 3.62 L 183.41 3.47 L 183.29 2.89 Z" />
<path fill="#000000" opacity="1.00" d=" M 200.09 3.62 C 200.25 3.44 200.56 3.07 200.72 2.89 L 200.60 3.47 L 200.09 3.62 Z" />
<path fill="#000000" opacity="1.00" d=" M 216.10 3.65 C 216.25 3.47 216.53 3.11 216.68 2.93 L 216.59 3.49 L 216.10 3.65 Z" />
<path fill="#000000" opacity="1.00" d=" M 34.74 9.05 C 32.68 8.51 34.08 5.65 35.79 5.97 L 35.91 6.87 C 35.62 7.42 35.04 8.50 34.74 9.05 Z" />
<path fill="#000000" opacity="1.00" d=" M 97.17 9.00 L 97.87 9.36 C 97.83 9.84 97.76 10.80 97.73 11.28 C 97.59 10.71 97.31 9.57 97.17 9.00 Z" />
<path fill="#000000" opacity="1.00" d=" M 127.87 16.00 C 128.65 14.22 131.31 14.25 132.11 16.00 L 127.87 16.00 Z" />
</g>
<g id="#d1e9c3ff">
<path fill="#d1e9c3" opacity="1.00" d=" M 159.34 0.00 L 160.78 0.00 C 161.37 1.63 162.17 3.18 163.08 4.65 C 163.01 5.17 162.89 6.20 162.82 6.72 C 161.52 4.55 160.59 2.19 159.34 0.00 Z" />
<path fill="#d1e9c3" opacity="1.00" d=" M 175.35 0.00 L 176.78 0.00 C 177.35 1.64 178.18 3.17 179.08 4.66 C 179.02 5.17 178.89 6.20 178.82 6.71 C 177.54 4.54 176.57 2.21 175.35 0.00 Z" />
<path fill="#d1e9c3" opacity="1.00" d=" M 207.43 0.00 L 208.32 0.00 C 207.50 2.33 206.50 4.61 205.17 6.70 C 205.10 6.20 204.94 5.21 204.86 4.71 C 205.74 3.15 206.58 1.57 207.43 0.00 Z" />
<path fill="#d1e9c3" opacity="1.00" d=" M 223.41 0.00 L 224.00 0.00 L 224.00 1.58 C 223.06 3.29 222.14 5.00 221.18 6.69 C 221.10 6.20 220.94 5.21 220.86 4.72 C 221.74 3.16 222.58 1.58 223.41 0.00 Z" />
</g>
<g id="#5080ffff">
<path fill="#5080ff" opacity="1.00" d=" M 5.91 1.00 C 7.60 1.00 9.30 1.00 11.00 1.00 C 10.99 1.55 10.98 2.64 10.97 3.18 C 10.51 3.01 9.58 2.68 9.12 2.52 C 8.33 2.08 7.84 2.39 7.66 3.45 C 7.29 3.37 6.55 3.23 6.18 3.16 C 6.11 2.62 5.97 1.54 5.91 1.00 Z" />
<path fill="#5080ff" opacity="1.00" d=" M 21.90 1.01 C 23.60 1.00 25.30 1.00 27.00 1.00 C 26.99 1.55 26.98 2.63 26.97 3.17 C 26.51 3.01 25.58 2.67 25.11 2.51 C 24.33 2.09 23.84 2.41 23.64 3.47 C 23.28 3.39 22.55 3.23 22.18 3.15 C 22.11 2.61 21.97 1.54 21.90 1.01 Z" />
<path fill="#5080ff" opacity="1.00" d=" M 99.98 0.97 C 102.61 0.37 105.74 1.48 105.11 4.69 C 104.44 5.13 103.11 6.02 102.44 6.46 C 100.12 5.52 99.61 3.24 99.98 0.97 Z" />
<path fill="#5080ff" opacity="1.00" d=" M 115.97 0.97 C 118.62 0.38 121.74 1.49 121.11 4.71 C 119.94 5.40 118.62 7.04 117.27 5.72 C 115.51 4.72 116.05 2.64 115.97 0.97 Z" />
<path fill="#5080ff" opacity="1.00" d=" M 133.97 1.04 C 135.44 0.99 136.91 0.94 138.39 0.88 C 138.87 1.91 139.37 2.94 139.88 3.96 L 140.98 2.06 C 141.12 2.25 141.41 2.65 141.55 2.84 L 142.16 3.94 C 141.63 3.96 140.58 4.01 140.05 4.03 L 140.12 5.09 C 139.16 4.48 138.16 3.97 137.10 3.58 C 136.79 3.74 136.18 4.07 135.88 4.24 L 134.79 4.23 L 134.14 4.23 C 134.10 3.44 134.02 1.84 133.97 1.04 Z" />
<path fill="#5080ff" opacity="1.00" d=" M 164.99 1.00 C 166.66 1.00 168.33 1.00 170.01 1.00 C 169.99 1.59 169.96 2.77 169.94 3.35 C 169.43 3.42 168.41 3.54 167.91 3.60 C 167.77 3.43 167.49 3.10 167.35 2.93 C 166.95 2.85 166.15 2.70 165.75 2.62 L 165.05 3.23 C 165.04 2.67 165.01 1.56 164.99 1.00 Z" />
<path fill="#5080ff" opacity="1.00" d=" M 180.83 1.01 C 182.54 1.00 184.24 1.00 185.95 1.00 C 185.97 1.57 186.01 2.70 186.03 3.26 C 185.50 3.35 184.44 3.53 183.91 3.62 C 183.75 3.44 183.44 3.07 183.29 2.89 C 182.98 2.78 182.35 2.55 182.04 2.44 L 181.58 3.13 C 181.39 2.60 181.02 1.54 180.83 1.01 Z" />
<path fill="#5080ff" opacity="1.00" d=" M 198.05 1.00 C 199.75 1.00 201.46 1.00 203.17 1.01 C 202.98 1.54 202.61 2.60 202.43 3.14 L 201.96 2.44 C 201.65 2.56 201.03 2.78 200.72 2.89 C 200.56 3.07 200.25 3.44 200.09 3.62 C 199.56 3.53 198.51 3.35 197.98 3.26 C 197.99 2.69 198.03 1.56 198.05 1.00 Z" />
<path fill="#5080ff" opacity="1.00" d=" M 213.99 1.00 C 215.66 1.00 217.33 1.00 219.01 1.00 C 218.99 1.56 218.96 2.67 218.94 3.23 L 218.23 2.63 L 217.73 2.20 C 217.47 2.39 216.94 2.75 216.68 2.93 C 216.53 3.11 216.25 3.47 216.10 3.65 C 215.60 3.56 214.58 3.38 214.07 3.30 C 214.05 2.72 214.01 1.58 213.99 1.00 Z" />
<path fill="#5080ff" opacity="1.00" d=" M 97.88 2.13 L 98.54 2.21 C 98.63 2.85 98.80 4.14 98.88 4.78 C 97.67 4.81 97.10 4.15 97.19 2.79 C 97.36 2.63 97.70 2.30 97.88 2.13 Z" />
<path fill="#5080ff" opacity="1.00" d=" M 113.84 2.40 L 114.50 2.25 C 114.57 2.87 114.71 4.11 114.78 4.73 C 114.47 4.31 113.85 3.48 113.54 3.07 L 113.84 2.40 Z" />
<path fill="#5080ff" opacity="1.00" d=" M 170.14 3.79 C 171.51 3.90 172.87 4.01 174.24 4.11 L 173.88 4.71 C 173.66 4.98 173.23 5.53 173.01 5.80 C 172.51 5.89 171.50 6.07 171.00 6.16 C 170.99 9.19 171.03 12.22 170.96 15.25 L 170.01 14.75 C 169.77 14.49 169.29 13.99 169.05 13.73 C 169.07 12.01 168.93 10.28 168.02 8.76 C 168.45 8.79 169.29 8.84 169.72 8.87 L 170.00 8.23 C 169.56 8.15 168.68 8.00 168.24 7.92 C 167.86 7.47 167.09 6.56 166.71 6.11 C 167.27 6.05 168.40 5.93 168.96 5.87 L 169.52 4.29 L 170.03 3.78 L 170.14 3.79 Z" />
<path fill="#5080ff" opacity="1.00" d=" M 203.04 4.96 C 203.23 4.83 203.59 4.57 203.78 4.44 L 203.65 5.08 L 203.04 4.96 Z" />
<path fill="#5080ff" opacity="1.00" d=" M 209.76 4.15 C 211.13 3.99 212.51 3.83 213.88 3.67 C 214.03 3.87 214.33 4.27 214.47 4.47 L 215.17 5.84 C 215.69 5.91 216.74 6.06 217.27 6.13 C 216.89 6.58 216.13 7.46 215.76 7.90 C 215.32 7.99 214.44 8.16 214.00 8.24 L 214.29 8.88 C 214.71 8.84 215.56 8.77 215.98 8.74 C 215.07 10.27 214.93 12.01 214.95 13.74 C 214.69 14.03 214.17 14.61 213.91 14.89 L 213.20 14.88 C 212.69 12.02 213.15 9.06 213.00 6.16 C 212.50 6.07 211.50 5.89 211.00 5.80 C 210.78 5.52 210.34 4.98 210.12 4.71 L 209.76 4.15 Z" />
<path fill="#5080ff" opacity="1.00" d=" M 219.04 4.96 C 219.22 4.83 219.59 4.57 219.78 4.44 L 219.65 5.08 L 219.04 4.96 Z" />
<path fill="#5080ff" opacity="1.00" d=" M 1.92 7.11 C 3.56 6.30 5.15 5.42 6.70 4.46 L 7.09 5.05 L 7.17 6.09 C 8.83 6.51 10.01 4.99 11.53 5.07 C 12.21 6.01 14.35 6.77 13.73 8.14 C 13.62 8.37 13.38 8.82 13.26 9.04 C 11.96 8.64 11.05 7.59 10.04 6.75 L 9.88 8.26 C 9.19 8.25 7.80 8.23 7.10 8.21 L 7.00 6.88 C 5.64 7.44 4.37 9.24 2.84 8.19 C 2.61 7.92 2.15 7.38 1.92 7.11 Z" />
<path fill="#5080ff" opacity="1.00" d=" M 19.84 6.36 C 20.55 5.87 21.97 4.91 22.68 4.42 L 23.08 5.03 L 23.17 6.10 C 24.54 6.14 25.78 5.76 26.91 5.00 C 28.44 5.21 29.49 6.91 30.04 8.26 C 29.82 8.37 29.37 8.61 29.15 8.73 C 27.82 9.29 27.11 7.29 26.07 6.75 L 25.87 8.22 C 25.18 8.23 23.79 8.23 23.09 8.23 L 22.93 6.76 C 22.60 7.11 21.95 7.82 21.62 8.18 C 21.18 7.72 20.29 6.81 19.84 6.36 Z" />
<path fill="#5080ff" opacity="1.00" d=" M 37.14 4.96 L 38.61 4.60 L 38.99 5.23 L 39.23 6.20 C 40.54 5.89 41.81 5.48 43.11 5.11 C 44.63 5.32 45.51 6.89 45.96 8.23 C 45.77 8.38 45.38 8.68 45.19 8.82 C 43.83 8.79 43.01 7.42 41.94 6.75 L 41.93 8.20 C 41.21 8.20 39.78 8.20 39.06 8.20 L 38.98 6.62 C 38.54 7.06 37.66 7.93 37.22 8.37 C 37.20 7.52 37.16 5.81 37.14 4.96 Z" />
<path fill="#5080ff" opacity="1.00" d=" M 105.11 6.09 C 106.25 6.64 107.21 7.49 108.26 8.18 C 107.89 8.65 107.17 9.59 106.81 10.06 C 105.79 9.29 104.82 8.47 103.85 7.65 C 104.59 8.99 105.04 10.45 105.19 11.98 C 104.67 11.98 103.63 12.00 103.11 12.01 C 103.03 11.47 102.89 10.40 102.82 9.86 C 103.10 7.64 99.59 9.41 101.98 10.34 C 101.99 11.92 101.99 13.50 102.00 15.07 L 100.76 14.82 C 100.62 14.66 100.33 14.35 100.19 14.19 C 100.02 11.71 99.97 9.22 99.64 6.76 C 101.51 7.04 103.40 6.96 105.11 6.09 Z" />
<path fill="#5080ff" opacity="1.00" d=" M 121.07 6.13 C 122.27 6.42 123.13 7.57 124.18 8.21 C 123.82 8.68 123.10 9.60 122.74 10.06 C 121.80 9.30 120.90 8.49 120.00 7.69 C 120.03 9.86 120.04 12.04 119.82 14.20 C 119.68 14.35 119.38 14.66 119.23 14.82 L 118.00 15.07 C 118.00 13.49 118.01 11.91 118.02 10.34 C 120.40 9.39 116.87 7.66 117.17 9.87 C 117.11 10.40 116.97 11.47 116.90 12.01 C 116.38 12.00 115.33 11.99 114.81 11.98 C 114.98 10.21 116.05 8.55 115.60 6.73 C 117.45 7.04 119.34 6.95 121.07 6.13 Z" />
<path fill="#5080ff" opacity="1.00" d=" M 131.53 8.09 C 132.00 7.27 132.93 5.62 133.40 4.80 C 134.70 7.09 137.24 7.91 139.34 5.80 L 137.96 8.05 C 137.21 8.05 135.72 8.04 134.98 8.03 L 134.02 8.17 C 134.01 8.64 133.99 9.58 133.97 10.05 L 133.43 10.02 C 132.76 9.41 132.13 8.76 131.53 8.09 Z" />
<path fill="#5080ff" opacity="1.00" d=" M 149.21 4.84 C 150.85 6.84 153.04 8.05 155.34 5.84 L 153.93 8.03 C 153.23 8.03 151.83 8.05 151.13 8.05 L 150.03 8.20 C 150.00 8.69 149.96 9.67 149.94 10.16 L 149.41 10.05 C 149.01 9.60 148.23 8.71 147.83 8.26 C 148.18 7.40 148.87 5.69 149.21 4.84 Z" />
<path fill="#5080ff" opacity="1.00" d=" M 34.74 9.05 C 35.04 8.50 35.62 7.42 35.91 6.87 C 36.00 7.61 36.16 9.08 36.24 9.82 C 35.87 9.63 35.12 9.24 34.74 9.05 Z" />
<path fill="#5080ff" opacity="1.00" d=" M 7.13 8.86 C 7.80 8.88 9.13 8.91 9.80 8.93 C 10.57 10.19 12.29 11.11 12.01 12.80 L 11.16 13.16 C 9.96 12.81 9.30 11.64 8.35 10.93 C 7.39 11.79 6.87 12.87 6.78 14.16 L 5.83 14.02 L 4.97 13.77 C 4.99 11.91 6.44 10.50 7.13 8.86 Z" />
<path fill="#5080ff" opacity="1.00" d=" M 23.14 8.87 C 23.81 8.88 25.14 8.89 25.81 8.90 C 26.53 10.20 28.31 11.10 28.01 12.80 L 27.16 13.17 C 25.97 12.80 25.30 11.64 24.34 10.93 C 23.39 11.79 22.87 12.87 22.79 14.16 L 21.83 14.02 L 20.97 13.77 C 20.98 11.92 22.44 10.50 23.14 8.87 Z" />
<path fill="#5080ff" opacity="1.00" d=" M 39.05 8.81 C 39.77 8.81 41.22 8.82 41.94 8.82 L 42.22 9.51 C 42.95 10.52 43.91 11.43 44.06 12.74 L 43.03 13.30 C 42.11 12.50 41.20 11.67 40.31 10.83 C 39.57 12.02 38.82 13.20 38.00 14.33 L 36.98 13.75 C 37.46 12.02 38.28 10.42 39.05 8.81 Z" />
<path fill="#5080ff" opacity="1.00" d=" M 135.14 8.67 C 135.85 8.68 137.25 8.70 137.95 8.72 C 137.96 10.53 137.97 12.34 137.93 14.15 C 137.48 14.13 136.58 14.11 136.13 14.09 C 136.08 12.24 135.76 10.42 135.14 8.67 Z" />
<path fill="#5080ff" opacity="1.00" d=" M 150.97 8.76 C 151.73 8.74 153.26 8.70 154.03 8.69 L 154.88 9.36 C 154.93 10.02 155.02 11.35 155.07 12.01 C 154.64 12.00 153.77 11.98 153.33 11.97 C 153.04 11.37 152.45 10.16 152.15 9.56 C 152.03 11.09 151.95 12.62 151.90 14.15 C 151.44 14.14 150.52 14.11 150.05 14.10 C 149.81 12.25 150.09 10.41 150.97 8.76 Z" />
<path fill="#5080ff" opacity="1.00" d=" M 133.48 10.90 C 134.97 10.08 135.39 10.63 134.77 12.57 C 133.21 13.25 132.78 12.70 133.48 10.90 Z" />
</g>
<g id="#4873e6ff">
<path fill="#4873e6" opacity="1.00" d=" M 37.82 1.00 C 39.54 0.99 41.27 0.99 43.00 0.99 C 43.00 1.54 42.99 2.63 42.99 3.17 C 42.55 3.04 41.67 2.77 41.23 2.64 C 40.97 2.53 40.46 2.30 40.20 2.18 C 40.07 2.54 39.81 3.25 39.68 3.60 C 39.32 3.48 38.59 3.23 38.22 3.11 C 38.12 2.58 37.92 1.53 37.82 1.00 Z" />
</g>
<g id="#808080ff">
<path fill="#808080" opacity="1.00" d=" M 53.97 1.01 C 55.65 1.00 57.32 1.00 59.00 1.00 C 58.99 1.54 58.98 2.63 58.97 3.18 C 58.49 3.05 57.51 2.79 57.02 2.66 L 56.53 2.31 C 55.71 2.58 54.91 2.88 54.13 3.23 C 54.09 2.68 54.01 1.57 53.97 1.01 Z" />
<path fill="#808080" opacity="1.00" d=" M 69.97 1.01 C 71.65 1.00 73.33 1.00 75.00 1.00 C 74.99 1.54 74.97 2.63 74.96 3.17 C 74.48 3.04 73.51 2.78 73.02 2.65 C 72.02 2.13 71.03 2.84 70.13 3.23 C 70.09 2.67 70.01 1.56 69.97 1.01 Z" />
<path fill="#808080" opacity="1.00" d=" M 85.97 1.01 C 87.65 1.00 89.32 1.00 91.00 1.00 C 90.99 1.54 90.98 2.62 90.97 3.16 C 90.47 3.03 89.49 2.78 89.00 2.65 C 88.00 2.16 87.02 2.84 86.12 3.22 C 86.09 2.66 86.01 1.56 85.97 1.01 Z" />
<path fill="#808080" opacity="1.00" d=" M 50.84 7.66 C 50.47 5.88 52.83 5.61 53.97 5.03 C 55.58 6.19 57.47 6.17 59.05 4.98 C 60.56 5.43 61.42 6.88 62.03 8.22 C 61.81 8.35 61.37 8.60 61.15 8.73 C 60.06 8.80 59.17 8.15 58.49 6.80 C 58.33 7.15 58.01 7.85 57.85 8.20 C 57.16 8.20 55.78 8.20 55.10 8.20 L 55.01 6.89 C 53.69 7.61 52.35 8.30 51.00 8.96 L 50.84 7.66 Z" />
<path fill="#808080" opacity="1.00" d=" M 69.64 8.21 C 67.87 7.23 67.65 5.48 69.88 4.94 C 71.49 6.19 73.42 6.22 75.04 4.99 C 76.55 5.39 77.42 6.89 78.03 8.23 C 77.81 8.35 77.37 8.60 77.15 8.73 C 75.69 9.80 74.41 4.92 73.82 8.22 C 73.16 8.20 71.83 8.17 71.17 8.15 C 70.97 7.80 70.57 7.09 70.38 6.73 L 69.64 8.21 Z" />
<path fill="#808080" opacity="1.00" d=" M 84.94 4.69 C 86.96 5.77 89.34 6.55 91.28 4.84 C 92.33 5.83 93.59 6.74 93.93 8.23 C 93.75 8.41 93.40 8.75 93.22 8.93 C 92.13 8.46 91.17 7.80 90.34 6.93 C 90.23 7.25 90.01 7.88 89.90 8.19 C 89.21 8.16 87.82 8.09 87.12 8.06 C 86.96 7.73 86.64 7.08 86.48 6.75 C 86.13 7.18 85.44 8.03 85.09 8.45 C 85.05 7.51 84.97 5.63 84.94 4.69 Z" />
<path fill="#808080" opacity="1.00" d=" M 55.11 8.85 C 55.79 8.86 57.13 8.87 57.81 8.87 C 58.56 10.15 60.28 11.11 59.98 12.80 L 59.14 13.19 C 57.95 12.71 57.17 11.63 56.23 10.81 C 55.35 11.82 55.35 13.86 53.85 14.16 L 53.01 13.80 C 52.98 11.96 54.42 10.48 55.11 8.85 Z" />
<path fill="#808080" opacity="1.00" d=" M 71.13 8.81 C 71.79 8.84 73.13 8.88 73.80 8.90 C 74.58 10.16 76.27 11.12 75.98 12.80 L 75.14 13.18 C 74.07 12.68 73.20 11.90 72.52 10.85 C 71.27 11.69 71.35 13.84 69.85 14.16 L 69.01 13.79 C 68.98 11.93 70.44 10.46 71.13 8.81 Z" />
<path fill="#808080" opacity="1.00" d=" M 87.05 8.72 C 87.77 8.74 89.19 8.79 89.91 8.81 C 90.72 10.08 91.51 11.36 92.13 12.73 L 91.05 13.22 C 90.10 12.47 89.17 11.68 88.26 10.87 C 87.55 12.05 86.81 13.21 86.01 14.33 L 85.00 13.75 C 85.49 12.00 86.29 10.36 87.05 8.72 Z" />
</g>
<g id="#4c79f2ff">
<path fill="#4c79f2" opacity="1.00" d=" M 149.97 1.00 C 151.64 1.00 153.32 1.00 154.99 1.00 C 155.00 1.80 155.02 3.41 155.04 4.22 L 155.86 3.68 L 156.12 1.83 L 157.20 2.29 C 157.33 2.42 157.59 2.68 157.72 2.81 L 158.17 3.98 C 157.61 3.99 156.50 4.00 155.94 4.01 L 156.13 5.21 C 155.17 4.58 154.14 4.08 153.04 3.71 L 152.62 3.35 L 152.34 3.48 L 151.91 4.23 L 150.79 4.23 L 150.14 4.23 C 150.10 3.42 150.01 1.81 149.97 1.00 Z" />
</g>
<g id="#dbdbdbff">
<path fill="#dbdbdb" opacity="1.00" d=" M 7.66 3.45 C 7.84 2.39 8.33 2.08 9.12 2.52 C 9.29 3.10 9.63 4.28 9.80 4.86 C 9.12 4.91 7.76 5.00 7.09 5.05 L 6.70 4.46 C 6.57 4.13 6.31 3.48 6.18 3.16 C 6.55 3.23 7.29 3.37 7.66 3.45 Z" />
<path fill="#dbdbdb" opacity="1.00" d=" M 23.64 3.47 C 23.84 2.41 24.33 2.09 25.11 2.51 C 25.28 3.10 25.62 4.28 25.79 4.87 C 25.11 4.91 23.76 4.99 23.08 5.03 L 22.68 4.42 C 22.55 4.10 22.30 3.47 22.18 3.15 C 22.55 3.23 23.28 3.39 23.64 3.47 Z" />
<path fill="#dbdbdb" opacity="1.00" d=" M 40.20 2.18 C 40.46 2.30 40.97 2.53 41.23 2.64 C 41.40 3.21 41.74 4.37 41.91 4.94 C 41.18 5.01 39.72 5.15 38.99 5.23 L 38.61 4.60 C 38.52 4.23 38.32 3.48 38.22 3.11 C 38.59 3.23 39.32 3.48 39.68 3.60 C 39.81 3.25 40.07 2.54 40.20 2.18 Z" />
<path fill="#dbdbdb" opacity="1.00" d=" M 54.13 3.23 C 54.91 2.88 55.71 2.58 56.53 2.31 L 57.02 2.66 C 57.22 3.21 57.60 4.29 57.79 4.83 C 56.56 5.50 54.07 4.85 54.13 3.23 Z" />
<path fill="#dbdbdb" opacity="1.00" d=" M 70.13 3.23 C 71.03 2.84 72.02 2.13 73.02 2.65 C 73.21 3.20 73.59 4.29 73.79 4.84 C 72.56 5.50 70.06 4.84 70.13 3.23 Z" />
<path fill="#dbdbdb" opacity="1.00" d=" M 86.12 3.22 C 87.02 2.84 88.00 2.16 89.00 2.65 C 89.20 3.19 89.60 4.29 89.80 4.84 C 88.56 5.50 86.05 4.84 86.12 3.22 Z" />
<path fill="#dbdbdb" opacity="1.00" d=" M 165.75 2.62 C 166.15 2.70 166.95 2.85 167.35 2.93 L 167.44 3.47 L 167.91 3.60 C 168.41 3.54 169.43 3.42 169.94 3.35 L 170.14 3.79 L 170.03 3.78 L 169.52 4.29 C 168.69 4.41 167.01 4.65 166.17 4.77 C 166.07 4.23 165.86 3.16 165.75 2.62 Z" />
<path fill="#dbdbdb" opacity="1.00" d=" M 182.04 2.44 C 182.35 2.55 182.98 2.78 183.29 2.89 L 183.41 3.47 L 183.91 3.62 C 184.44 3.53 185.50 3.35 186.03 3.26 L 186.05 3.64 C 185.91 3.88 185.61 4.35 185.46 4.59 C 184.65 4.67 183.02 4.84 182.20 4.92 C 182.05 4.47 181.73 3.58 181.58 3.13 L 182.04 2.44 Z" />
<path fill="#dbdbdb" opacity="1.00" d=" M 200.72 2.89 C 201.03 2.78 201.65 2.56 201.96 2.44 L 202.43 3.14 C 202.27 3.58 201.96 4.47 201.80 4.92 C 200.99 4.84 199.36 4.67 198.54 4.59 C 198.39 4.36 198.10 3.89 197.95 3.66 L 197.98 3.26 C 198.51 3.35 199.56 3.53 200.09 3.62 L 200.60 3.47 L 200.72 2.89 Z" />
<path fill="#dbdbdb" opacity="1.00" d=" M 216.68 2.93 C 216.94 2.75 217.47 2.39 217.73 2.20 L 218.23 2.63 C 218.13 3.15 217.93 4.21 217.83 4.74 C 216.99 4.67 215.31 4.54 214.47 4.47 C 214.33 4.27 214.03 3.87 213.88 3.67 L 214.07 3.30 C 214.58 3.38 215.60 3.56 216.10 3.65 L 216.59 3.49 L 216.68 2.93 Z" />
</g>
<g id="#ffffffff">
<path fill="#ffffff" opacity="1.00" d=" M 97.19 2.79 C 97.36 2.63 97.70 2.30 97.88 2.13 C 97.70 2.30 97.36 2.63 97.19 2.79 Z" />
<path fill="#ffffff" opacity="1.00" d=" M 113.00 2.81 C 113.21 2.71 113.63 2.50 113.84 2.40 L 113.54 3.07 L 113.00 2.81 Z" />
<path fill="#ffffff" opacity="1.00" d=" M 140.98 2.06 C 141.12 2.25 141.41 2.65 141.55 2.84 C 141.41 2.65 141.12 2.25 140.98 2.06 Z" />
<path fill="#ffffff" opacity="1.00" d=" M 157.20 2.29 C 157.33 2.42 157.59 2.68 157.72 2.81 C 157.59 2.68 157.33 2.42 157.20 2.29 Z" />
<path fill="#ffffff" opacity="1.00" d=" M 35.79 5.97 C 35.59 4.65 35.96 3.64 36.90 2.95 C 36.96 3.45 37.08 4.46 37.14 4.96 C 37.16 5.81 37.20 7.52 37.22 8.37 C 37.07 8.77 36.79 9.55 36.64 9.94 L 36.24 9.82 C 36.16 9.08 36.00 7.61 35.91 6.87 L 35.79 5.97 Z" />
<path fill="#ffffff" opacity="1.00" d=" M 83.84 5.68 C 83.82 4.60 84.17 3.69 84.88 2.96 C 84.90 3.39 84.92 4.26 84.94 4.69 C 84.97 5.63 85.05 7.51 85.09 8.45 C 84.99 8.85 84.79 9.66 84.69 10.06 C 83.20 9.07 83.73 7.14 83.84 5.68 Z" />
<path fill="#ffffff" opacity="1.00" d=" M 135.88 4.24 C 136.18 4.07 136.79 3.74 137.10 3.58 C 137.17 4.16 137.32 5.32 137.40 5.90 C 136.95 5.89 136.05 5.86 135.61 5.85 C 135.67 5.45 135.81 4.64 135.88 4.24 Z" />
<path fill="#ffffff" opacity="1.00" d=" M 152.34 3.48 L 152.62 3.35 L 153.04 3.71 C 153.14 4.26 153.35 5.35 153.45 5.90 C 152.99 5.90 152.07 5.89 151.61 5.89 C 151.68 5.47 151.83 4.64 151.91 4.23 L 152.34 3.48 Z" />
<path fill="#ffffff" opacity="1.00" d=" M 134.14 4.23 L 134.79 4.23 L 134.81 4.83 C 134.64 4.68 134.31 4.38 134.14 4.23 Z" />
<path fill="#ffffff" opacity="1.00" d=" M 150.14 4.23 L 150.79 4.23 L 150.81 4.83 C 150.64 4.68 150.31 4.38 150.14 4.23 Z" />
<path fill="#ffffff" opacity="1.00" d=" M 173.01 5.80 C 173.23 5.53 173.66 4.98 173.88 4.71 L 174.79 5.06 L 174.81 5.88 C 174.36 5.86 173.46 5.82 173.01 5.80 Z" />
<path fill="#ffffff" opacity="1.00" d=" M 203.04 4.96 L 203.65 5.08 L 203.49 5.77 L 202.87 5.63 L 203.04 4.96 Z" />
<path fill="#ffffff" opacity="1.00" d=" M 209.21 5.06 L 210.12 4.71 C 210.34 4.98 210.78 5.52 211.00 5.80 C 210.55 5.82 209.65 5.86 209.20 5.88 L 209.21 5.06 Z" />
<path fill="#ffffff" opacity="1.00" d=" M 219.04 4.96 L 219.65 5.08 L 219.49 5.77 L 218.87 5.63 L 219.04 4.96 Z" />
<path fill="#ffffff" opacity="1.00" d=" M 2.84 8.19 C 2.43 8.59 2.43 8.59 2.84 8.19 Z" />
<path fill="#ffffff" opacity="1.00" d=" M 7.10 8.21 C 7.80 8.23 9.19 8.25 9.88 8.26 L 9.80 8.93 C 9.13 8.91 7.80 8.88 7.13 8.86 L 7.10 8.21 Z" />
<path fill="#ffffff" opacity="1.00" d=" M 13.26 9.04 C 13.38 8.82 13.62 8.37 13.73 8.14 C 13.62 8.37 13.38 8.82 13.26 9.04 Z" />
<path fill="#ffffff" opacity="1.00" d=" M 23.09 8.23 C 23.79 8.23 25.18 8.23 25.87 8.22 L 25.81 8.90 C 25.14 8.89 23.81 8.88 23.14 8.87 L 23.09 8.23 Z" />
<path fill="#ffffff" opacity="1.00" d=" M 29.15 8.73 C 29.37 8.61 29.82 8.37 30.04 8.26 C 29.82 8.37 29.37 8.61 29.15 8.73 Z" />
<path fill="#ffffff" opacity="1.00" d=" M 39.06 8.20 C 39.78 8.20 41.21 8.20 41.93 8.20 L 41.94 8.82 C 41.22 8.82 39.77 8.81 39.05 8.81 L 39.06 8.20 Z" />
<path fill="#ffffff" opacity="1.00" d=" M 45.19 8.82 C 45.38 8.68 45.77 8.38 45.96 8.23 L 45.91 8.90 L 45.19 8.82 Z" />
<path fill="#ffffff" opacity="1.00" d=" M 50.18 7.68 L 50.84 7.66 L 50.88 8.35 L 50.21 8.37 L 50.18 7.68 Z" />
<path fill="#ffffff" opacity="1.00" d=" M 55.10 8.20 C 55.78 8.20 57.16 8.20 57.85 8.20 L 57.81 8.87 C 57.13 8.87 55.79 8.86 55.11 8.85 L 55.10 8.20 Z" />
<path fill="#ffffff" opacity="1.00" d=" M 61.15 8.73 C 61.37 8.60 61.81 8.35 62.03 8.22 C 61.81 8.35 61.37 8.60 61.15 8.73 Z" />
<path fill="#ffffff" opacity="1.00" d=" M 71.17 8.15 C 71.83 8.17 73.16 8.20 73.82 8.22 L 73.80 8.90 C 73.13 8.88 71.79 8.84 71.13 8.81 L 71.17 8.15 Z" />
<path fill="#ffffff" opacity="1.00" d=" M 77.15 8.73 C 77.37 8.60 77.81 8.35 78.03 8.23 C 77.81 8.35 77.37 8.60 77.15 8.73 Z" />
<path fill="#ffffff" opacity="1.00" d=" M 87.12 8.06 C 87.82 8.09 89.21 8.16 89.90 8.19 L 89.91 8.81 C 89.19 8.79 87.77 8.74 87.05 8.72 L 87.12 8.06 Z" />
<path fill="#ffffff" opacity="1.00" d=" M 93.22 8.93 C 93.40 8.75 93.75 8.41 93.93 8.23 L 93.94 8.95 L 93.22 8.93 Z" />
<path fill="#ffffff" opacity="1.00" d=" M 134.98 8.03 C 135.72 8.04 137.21 8.05 137.96 8.05 L 137.95 8.72 C 137.25 8.70 135.85 8.68 135.14 8.67 L 134.98 8.03 Z" />
<path fill="#ffffff" opacity="1.00" d=" M 151.13 8.05 C 151.83 8.05 153.23 8.03 153.93 8.03 L 154.03 8.69 C 153.26 8.70 151.73 8.74 150.97 8.76 L 151.13 8.05 Z" />
<path fill="#ffffff" opacity="1.00" d=" M 168.24 7.92 C 168.68 8.00 169.56 8.15 170.00 8.23 L 169.72 8.87 C 169.29 8.84 168.45 8.79 168.02 8.76 L 168.24 7.92 Z" />
<path fill="#ffffff" opacity="1.00" d=" M 184.08 8.13 C 184.51 8.11 185.36 8.08 185.79 8.07 C 185.69 8.42 185.48 9.12 185.38 9.47 C 185.06 9.14 184.41 8.46 184.08 8.13 Z" />
<path fill="#ffffff" opacity="1.00" d=" M 198.21 8.07 C 198.64 8.08 199.49 8.11 199.92 8.12 C 199.59 8.46 198.95 9.14 198.62 9.48 C 198.52 9.13 198.31 8.42 198.21 8.07 Z" />
<path fill="#ffffff" opacity="1.00" d=" M 214.00 8.24 C 214.44 8.16 215.32 7.99 215.76 7.90 L 215.98 8.74 C 215.56 8.77 214.71 8.84 214.29 8.88 L 214.00 8.24 Z" />
<path fill="#ffffff" opacity="1.00" d=" M 101.98 10.34 C 99.59 9.41 103.10 7.64 102.82 9.86 L 101.98 10.34 Z" />
<path fill="#ffffff" opacity="1.00" d=" M 117.17 9.87 C 116.87 7.66 120.40 9.39 118.02 10.34 L 117.17 9.87 Z" />
<path fill="#ffffff" opacity="1.00" d=" M 11.16 13.16 L 12.01 12.80 C 14.76 13.22 10.62 15.48 11.16 13.16 Z" />
<path fill="#ffffff" opacity="1.00" d=" M 27.16 13.17 L 28.01 12.80 C 30.76 13.22 26.63 15.48 27.16 13.17 Z" />
<path fill="#ffffff" opacity="1.00" d=" M 43.03 13.30 L 44.06 12.74 C 44.30 13.04 44.77 13.65 45.01 13.96 C 44.52 13.79 43.53 13.46 43.03 13.30 Z" />
<path fill="#ffffff" opacity="1.00" d=" M 59.14 13.19 L 59.98 12.80 C 62.75 13.14 58.70 15.52 59.14 13.19 Z" />
<path fill="#ffffff" opacity="1.00" d=" M 75.14 13.18 L 75.98 12.80 C 78.75 13.16 74.68 15.51 75.14 13.18 Z" />
<path fill="#ffffff" opacity="1.00" d=" M 91.05 13.22 L 92.13 12.73 C 92.35 13.04 92.79 13.66 93.01 13.96 C 92.52 13.78 91.54 13.41 91.05 13.22 Z" />
<path fill="#ffffff" opacity="1.00" d=" M 182.15 13.17 C 182.58 13.01 183.44 12.70 183.86 12.55 L 183.83 13.38 C 183.40 13.52 182.54 13.81 182.11 13.95 L 182.15 13.17 Z" />
<path fill="#ffffff" opacity="1.00" d=" M 200.19 12.77 C 200.63 12.86 201.49 13.03 201.92 13.11 L 201.89 13.83 C 201.46 13.78 200.61 13.68 200.18 13.63 L 200.19 12.77 Z" />
<path fill="#ffffff" opacity="1.00" d=" M 5.83 14.02 C 6.54 16.37 2.24 14.40 4.97 13.77 L 5.83 14.02 Z" />
<path fill="#ffffff" opacity="1.00" d=" M 21.83 14.02 C 22.53 16.37 18.24 14.39 20.97 13.77 L 21.83 14.02 Z" />
<path fill="#ffffff" opacity="1.00" d=" M 35.98 14.94 C 36.23 14.65 36.73 14.05 36.98 13.75 L 38.00 14.33 C 37.50 14.48 36.49 14.79 35.98 14.94 Z" />
<path fill="#ffffff" opacity="1.00" d=" M 53.85 14.16 C 54.36 16.49 50.25 14.20 53.01 13.80 L 53.85 14.16 Z" />
<path fill="#ffffff" opacity="1.00" d=" M 69.85 14.16 C 70.34 16.50 66.25 14.19 69.01 13.79 L 69.85 14.16 Z" />
<path fill="#ffffff" opacity="1.00" d=" M 83.98 14.94 C 84.24 14.64 84.75 14.05 85.00 13.75 L 86.01 14.33 C 85.50 14.48 84.49 14.79 83.98 14.94 Z" />
<path fill="#ffffff" opacity="1.00" d=" M 100.19 14.19 C 100.33 14.35 100.62 14.66 100.76 14.82 L 100.22 14.72 L 100.19 14.19 Z" />
<path fill="#ffffff" opacity="1.00" d=" M 119.23 14.82 C 119.38 14.66 119.68 14.35 119.82 14.20 L 119.78 14.72 L 119.23 14.82 Z" />
<path fill="#ffffff" opacity="1.00" d=" M 136.13 14.09 C 136.58 14.11 137.48 14.13 137.93 14.15 L 137.91 14.91 C 137.48 14.89 136.62 14.84 136.19 14.81 L 136.13 14.09 Z" />
<path fill="#ffffff" opacity="1.00" d=" M 150.05 14.10 C 150.52 14.11 151.44 14.14 151.90 14.15 L 151.88 14.90 C 151.43 14.88 150.55 14.83 150.11 14.81 L 150.05 14.10 Z" />
<path fill="#ffffff" opacity="1.00" d=" M 168.17 14.07 L 169.05 13.73 C 169.29 13.99 169.77 14.49 170.01 14.75 C 169.55 14.78 168.63 14.85 168.17 14.89 L 168.17 14.07 Z" />
<path fill="#ffffff" opacity="1.00" d=" M 187.98 14.27 C 188.45 14.21 189.40 14.09 189.87 14.03 L 190.10 14.77 C 189.57 14.65 188.51 14.39 187.98 14.27 Z" />
<path fill="#ffffff" opacity="1.00" d=" M 194.11 14.01 C 194.60 14.09 195.59 14.26 196.09 14.35 C 195.76 14.55 195.10 14.96 194.77 15.17 L 193.97 14.71 L 194.11 14.01 Z" />
<path fill="#ffffff" opacity="1.00" d=" M 213.91 14.89 C 214.17 14.61 214.69 14.03 214.95 13.74 L 215.82 14.08 L 215.81 14.88 C 215.33 14.88 214.39 14.89 213.91 14.89 Z" />
</g>
<g id="#daeecfff">
<path fill="#daeecf" opacity="1.00" d=" M 0.00 2.86 C 0.93 3.70 1.69 4.67 2.28 5.77 C 1.94 6.04 1.27 6.59 0.94 6.86 L 0.52 6.06 L 0.00 5.17 L 0.00 2.86 Z" />
<path fill="#daeecf" opacity="1.00" d=" M 49.02 7.11 C 48.91 5.86 47.09 3.82 48.61 2.98 C 49.03 3.67 49.89 5.06 50.31 5.76 C 49.99 6.10 49.35 6.77 49.02 7.11 Z" />
</g>
<g id="#e8f4e1ff">
<path fill="#e8f4e1" opacity="1.00" d=" M 17.88 3.00 L 19.01 3.00 C 19.05 3.76 19.14 5.28 19.18 6.04 C 19.16 6.17 19.11 6.41 19.09 6.53 C 19.90 7.51 20.25 8.67 20.13 10.00 L 19.19 9.99 C 19.00 9.32 18.62 7.98 18.43 7.30 C 18.03 5.90 17.98 4.44 17.88 3.00 Z" />
<path fill="#e8f4e1" opacity="1.00" d=" M 65.90 2.99 L 67.00 3.00 C 67.06 3.74 67.17 5.23 67.22 5.97 C 67.19 6.10 67.11 6.38 67.07 6.51 C 67.89 7.50 68.24 8.66 68.13 10.01 L 67.20 9.99 C 67.01 9.33 66.63 8.02 66.45 7.37 L 66.19 6.53 C 66.05 5.36 65.95 4.18 65.90 2.99 Z" />
</g>
<g id="#a7bfffff">
<path fill="#a7bfff" opacity="1.00" d=" M 164.22 4.45 C 164.55 4.65 165.23 5.06 165.56 5.26 L 165.22 5.97 C 164.89 5.77 164.22 5.36 163.88 5.16 L 164.22 4.45 Z" />
<path fill="#a7bfff" opacity="1.00" d=" M 180.22 4.45 C 180.55 4.65 181.22 5.06 181.56 5.26 L 181.22 5.97 C 180.89 5.77 180.22 5.36 179.88 5.16 L 180.22 4.45 Z" />
</g>
<g id="#4e7cf8ff">
<path fill="#4e7cf8" opacity="1.00" d=" M 186.05 3.64 C 187.56 3.77 189.07 4.07 190.40 4.85 C 190.11 5.10 189.54 5.60 189.25 5.85 C 188.66 5.90 187.49 6.00 186.90 6.05 C 186.48 9.14 188.35 11.57 189.87 14.03 C 189.40 14.09 188.45 14.21 187.98 14.27 C 187.60 13.11 186.87 12.50 185.77 12.43 L 185.27 12.43 C 184.92 12.46 184.21 12.52 183.86 12.55 C 183.44 12.70 182.58 13.01 182.15 13.17 C 182.56 11.86 183.07 10.58 183.66 9.35 L 183.94 11.68 C 184.43 10.95 184.91 10.21 185.38 9.47 C 185.48 9.12 185.69 8.42 185.79 8.07 C 185.36 8.08 184.51 8.11 184.08 8.13 C 183.77 7.63 183.14 6.64 182.83 6.14 C 183.31 6.04 184.26 5.82 184.74 5.72 L 185.46 4.59 C 185.61 4.35 185.91 3.88 186.05 3.64 Z" />
<path fill="#4e7cf8" opacity="1.00" d=" M 193.52 4.38 C 194.99 4.13 196.47 3.89 197.95 3.66 C 198.10 3.89 198.39 4.36 198.54 4.59 C 199.20 4.98 200.51 5.76 201.17 6.15 C 200.86 6.64 200.23 7.63 199.92 8.12 C 199.49 8.11 198.64 8.08 198.21 8.07 C 198.31 8.42 198.52 9.13 198.62 9.48 C 199.09 10.21 199.56 10.94 200.04 11.67 L 200.40 9.37 C 200.94 10.60 201.45 11.85 201.92 13.11 C 201.49 13.03 200.63 12.86 200.19 12.77 C 199.82 12.71 199.07 12.58 198.70 12.52 L 198.29 12.40 C 198.02 12.30 197.48 12.09 197.22 11.99 C 196.94 12.58 196.37 13.76 196.09 14.35 C 195.59 14.26 194.60 14.09 194.11 14.01 C 194.94 12.45 195.96 11.01 196.95 9.56 C 196.97 8.39 196.99 7.22 197.01 6.04 C 196.47 6.00 195.38 5.91 194.84 5.86 C 194.51 5.49 193.85 4.75 193.52 4.38 Z" />
</g>
<g id="#929292ff">
<path fill="#929292" opacity="1.00" d=" M 191.26 4.86 C 192.04 4.81 192.79 4.65 193.52 4.38 C 193.85 4.75 194.51 5.49 194.84 5.86 C 194.36 6.01 193.39 6.29 192.91 6.44 C 192.45 6.40 191.53 6.33 191.08 6.29 C 190.62 6.18 189.71 5.96 189.25 5.85 C 189.54 5.60 190.11 5.10 190.40 4.85 L 191.26 4.86 Z" />
</g>
<g id="#a6c693ff">
<path fill="#a6c693" opacity="1.00" d=" M 108.26 8.18 C 109.36 6.71 110.63 5.28 112.46 4.73 C 111.26 6.74 109.45 8.25 107.88 9.95 L 106.81 10.06 C 107.17 9.59 107.89 8.65 108.26 8.18 Z" />
</g>
<g id="#a6c3a0ff">
<path fill="#a6c3a0" opacity="1.00" d=" M 127.28 5.05 C 129.38 4.39 130.30 6.92 131.53 8.09 C 132.13 8.76 132.76 9.41 133.43 10.02 L 132.38 9.99 C 130.85 8.67 129.44 7.23 128.00 5.82 C 126.55 7.12 125.22 8.53 123.89 9.95 L 122.74 10.06 C 123.10 9.60 123.82 8.68 124.18 8.21 C 125.12 7.08 126.10 5.94 127.28 5.05 Z" />
</g>
<g id="#afd4afff">
<path fill="#afd4af" opacity="1.00" d=" M 143.58 4.73 C 145.00 5.27 146.15 6.26 147.10 7.42 C 147.28 7.63 147.65 8.05 147.83 8.26 C 148.23 8.71 149.01 9.60 149.41 10.05 L 148.33 9.84 C 146.46 8.43 144.81 6.73 143.58 4.73 Z" />
</g>
</svg>
