<?xml version="1.0" encoding="UTF-8" ?>
<!DOCTYPE svg PUBLIC "-//W3C//DTD SVG 1.1//EN" "http://www.w3.org/Graphics/SVG/1.1/DTD/svg11.dtd">
<svg width="48pt" height="16pt" viewBox="0 0 48 16" version="1.1" xmlns="http://www.w3.org/2000/svg">
<g id="#48a810ff">
<path fill="#48a810" opacity="1.00" d=" M 8.30 12.32 C 8.75 12.84 8.75 12.84 8.30 12.32 Z" />
<path fill="#48a810" opacity="1.00" d=" M 39.26 12.10 C 42.29 10.58 39.44 15.37 39.26 12.10 Z" />
</g>
<g id="#1a190fff">
<path fill="#1a190f" opacity="1.00" d=" M 6.12 0.00 L 10.63 0.00 C 10.81 1.22 10.99 2.43 11.17 3.65 C 12.46 4.88 13.75 6.12 15.04 7.35 C 15.03 7.93 15.03 9.10 15.02 9.69 C 14.32 10.35 13.61 11.01 12.91 11.67 C 13.38 12.78 13.85 13.88 14.32 14.99 C 11.27 14.87 8.18 14.90 5.29 16.00 L 2.97 16.00 C 3.14 13.56 4.11 11.29 5.20 9.14 C 4.43 9.09 2.90 9.01 2.13 8.97 C 1.60 8.38 0.53 7.22 0.00 6.63 L 0.00 4.64 L 1.43 4.68 C 1.54 5.25 1.75 6.40 1.85 6.97 L 2.32 7.63 C 2.65 7.34 3.31 6.76 3.65 6.47 L 3.26 5.77 L 2.90 5.02 C 2.63 4.53 2.09 3.55 1.81 3.06 C 2.72 3.00 3.63 2.93 4.53 2.87 C 4.93 2.15 5.72 0.72 6.12 0.00 M 6.31 1.58 L 5.77 4.22 C 6.28 3.86 7.29 3.14 7.80 2.78 L 8.29 3.96 L 7.00 4.02 L 7.00 4.94 C 7.73 4.94 9.20 4.93 9.93 4.93 C 9.72 4.51 9.28 3.67 9.07 3.24 C 9.19 2.69 9.44 1.59 9.56 1.04 L 8.64 1.35 L 8.24 1.39 L 6.99 1.37 C 6.82 1.42 6.48 1.53 6.31 1.58 M 4.36 4.41 C 4.14 5.73 4.78 6.21 6.28 5.84 C 6.46 4.53 5.82 4.05 4.36 4.41 M 4.21 7.68 C 5.52 8.10 6.87 8.30 8.26 8.27 L 7.85 9.06 C 7.23 9.01 5.97 8.92 5.34 8.87 C 6.30 10.41 7.82 11.19 9.58 11.09 C 10.36 10.31 11.16 9.55 11.98 8.80 L 11.88 9.43 C 13.33 10.24 13.96 9.84 13.76 8.23 L 13.07 7.77 L 12.86 7.27 C 11.84 7.48 10.83 7.74 9.83 8.05 C 9.54 7.78 8.98 7.23 8.69 6.96 C 7.45 7.22 4.57 6.29 4.21 7.68 M 5.49 11.72 C 5.41 12.20 5.25 13.15 5.18 13.62 C 2.53 14.15 6.22 16.51 5.89 14.04 C 7.44 13.22 7.52 12.35 6.13 11.41 C 5.97 11.49 5.65 11.64 5.49 11.72 M 11.14 13.13 C 10.78 15.57 14.51 13.11 11.87 12.71 C 11.89 12.35 11.92 11.64 11.94 11.28 C 10.63 10.24 9.17 13.30 11.14 13.13 M 8.30 12.32 C 8.75 12.84 8.75 12.84 8.30 12.32 Z" />
</g>
<g id="#1c1c0fff">
<path fill="#1c1c0f" opacity="1.00" d=" M 21.98 0.00 L 26.71 0.00 C 26.86 1.16 27.02 2.33 27.18 3.49 C 28.52 4.32 29.83 5.21 31.12 6.13 C 31.09 6.78 31.03 8.10 31.01 8.75 C 30.09 9.56 29.17 10.37 28.25 11.17 C 29.00 12.43 29.74 13.69 30.49 14.96 C 27.39 14.88 24.24 14.89 21.30 16.00 L 18.85 16.00 C 19.13 13.96 19.81 12.02 20.78 10.22 C 18.15 10.51 16.79 8.64 16.60 6.28 C 17.93 5.36 19.26 4.43 20.59 3.51 C 21.03 2.33 21.49 1.16 21.98 0.00 M 21.81 2.09 C 22.31 2.43 23.31 3.10 23.81 3.44 C 23.68 3.79 23.42 4.50 23.29 4.85 C 24.47 5.20 25.52 5.01 26.43 4.28 L 24.89 3.98 C 25.70 3.10 25.94 2.12 25.61 1.05 L 24.63 1.37 L 24.22 1.47 L 22.85 1.74 C 22.59 1.83 22.07 2.00 21.81 2.09 M 19.21 5.24 C 19.81 5.82 19.81 5.82 19.21 5.24 M 21.07 5.05 C 20.54 7.83 26.47 7.84 26.95 5.74 C 24.96 5.87 22.90 6.14 21.07 5.05 M 28.25 5.25 C 28.83 5.83 28.83 5.83 28.25 5.25 M 18.06 6.73 C 17.65 8.46 18.21 9.12 19.76 8.71 C 20.15 7.03 19.58 6.37 18.06 6.73 M 29.82 8.57 C 29.86 8.10 29.92 7.16 29.95 6.69 L 29.26 6.39 C 27.29 6.59 28.10 10.36 29.82 8.57 M 21.11 8.69 C 22.48 9.07 23.89 9.22 25.35 9.15 C 24.93 9.47 24.10 10.10 23.68 10.41 L 23.81 11.00 C 24.19 13.55 29.63 11.03 27.01 9.86 L 26.98 9.20 C 26.59 7.30 21.80 7.41 21.11 8.69 M 21.16 11.23 L 21.19 12.03 C 21.16 12.46 21.09 13.31 21.06 13.73 C 18.47 14.18 22.25 16.54 21.86 14.16 L 22.81 13.78 C 22.82 13.34 22.82 12.47 22.83 12.04 L 22.84 11.23 C 22.42 11.23 21.58 11.23 21.16 11.23 M 27.12 12.76 L 27.11 13.58 C 28.89 15.60 29.14 11.28 27.12 12.76 Z" />
</g>
<g id="#14130bff">
<path fill="#14130b" opacity="1.00" d=" M 36.84 0.00 L 40.82 0.00 C 42.12 1.41 43.86 2.21 45.60 2.93 C 44.95 2.95 43.64 3.00 42.99 3.02 L 42.99 3.97 C 43.54 3.99 44.66 4.02 45.21 4.03 C 44.94 4.54 44.40 5.56 44.13 6.07 C 44.13 6.54 44.13 7.49 44.12 7.96 C 45.69 8.28 46.30 7.60 45.96 5.90 C 45.95 5.44 45.93 4.53 45.92 4.07 L 47.00 4.11 C 47.02 5.34 47.04 6.57 47.07 7.80 C 46.02 8.54 44.96 9.27 43.93 10.04 L 43.86 9.36 L 43.57 8.89 L 43.06 7.96 C 41.75 6.18 38.52 6.42 36.90 7.69 C 38.28 8.06 39.68 8.20 41.12 8.13 L 40.44 8.87 C 40.09 8.97 39.40 9.16 39.05 9.26 C 39.48 10.95 41.35 11.48 42.86 10.92 C 43.85 12.18 44.73 13.53 45.50 14.95 C 42.38 14.88 39.22 14.88 36.26 16.00 L 34.14 16.00 C 34.24 14.57 34.47 13.16 34.78 11.77 C 33.83 10.46 33.05 9.05 32.68 7.46 C 33.71 6.55 34.72 5.62 35.73 4.69 C 36.05 3.11 36.39 1.54 36.84 0.00 M 37.29 1.59 L 36.80 4.18 C 37.28 3.85 38.24 3.20 38.72 2.87 L 39.24 3.44 C 38.27 4.42 36.31 6.39 35.34 7.38 C 36.80 6.75 39.73 5.50 41.19 4.88 C 40.88 4.50 40.26 3.75 39.94 3.38 L 40.84 2.57 C 40.77 2.19 40.62 1.44 40.54 1.07 L 39.62 1.33 L 39.23 1.38 L 37.98 1.40 C 37.81 1.44 37.46 1.54 37.29 1.59 M 41.96 5.01 C 42.47 5.43 42.47 5.43 41.96 5.01 M 34.17 7.05 C 34.18 7.52 34.20 8.47 34.22 8.95 L 34.20 9.73 L 35.05 10.15 C 35.27 9.83 35.71 9.19 35.93 8.87 C 36.35 7.30 35.76 6.69 34.17 7.05 M 36.28 11.85 C 36.24 12.31 36.16 13.22 36.12 13.68 C 33.51 14.12 37.19 16.56 36.86 14.13 C 38.43 13.45 38.46 12.63 36.95 11.65 C 36.78 11.70 36.45 11.80 36.28 11.85 M 39.26 12.10 C 39.44 15.37 42.29 10.58 39.26 12.10 M 42.13 12.75 L 42.11 13.58 C 43.88 15.61 44.15 11.29 42.13 12.75 Z" />
</g>
<g id="#ff60b0ff">
<path fill="#ff60b0" opacity="1.00" d=" M 6.31 1.58 C 6.48 1.53 6.82 1.42 6.99 1.37 C 6.82 1.42 6.48 1.53 6.31 1.58 Z" />
<path fill="#ff60b0" opacity="1.00" d=" M 8.24 1.39 L 8.64 1.35 C 8.54 1.36 8.34 1.38 8.24 1.39 Z" />
<path fill="#ff60b0" opacity="1.00" d=" M 21.81 2.09 C 22.07 2.00 22.59 1.83 22.85 1.74 C 22.59 1.83 22.07 2.00 21.81 2.09 Z" />
<path fill="#ff60b0" opacity="1.00" d=" M 24.22 1.47 L 24.63 1.37 C 24.53 1.39 24.33 1.44 24.22 1.47 Z" />
<path fill="#ff60b0" opacity="1.00" d=" M 37.29 1.59 C 37.46 1.54 37.81 1.44 37.98 1.40 C 37.81 1.44 37.46 1.54 37.29 1.59 Z" />
<path fill="#ff60b0" opacity="1.00" d=" M 39.23 1.38 L 39.62 1.33 C 39.52 1.35 39.33 1.37 39.23 1.38 Z" />
<path fill="#ff60b0" opacity="1.00" d=" M 4.36 4.41 C 5.82 4.05 6.46 4.53 6.28 5.84 C 4.78 6.21 4.14 5.73 4.36 4.41 Z" />
<path fill="#ff60b0" opacity="1.00" d=" M 45.21 4.03 L 45.92 4.07 C 45.93 4.53 45.95 5.44 45.96 5.90 C 45.50 5.95 44.59 6.03 44.13 6.07 C 44.40 5.56 44.94 4.54 45.21 4.03 Z" />
<path fill="#ff60b0" opacity="1.00" d=" M 1.43 4.68 C 1.80 4.76 2.54 4.93 2.90 5.02 L 3.26 5.77 C 2.91 6.07 2.20 6.67 1.85 6.97 C 1.75 6.40 1.54 5.25 1.43 4.68 Z" />
<path fill="#ff60b0" opacity="1.00" d=" M 21.07 5.05 C 22.90 6.14 24.96 5.87 26.95 5.74 C 26.47 7.84 20.54 7.83 21.07 5.05 Z" />
<path fill="#ff60b0" opacity="1.00" d=" M 41.96 5.01 C 42.47 5.43 42.47 5.43 41.96 5.01 Z" />
<path fill="#ff60b0" opacity="1.00" d=" M 8.26 8.27 C 8.66 8.22 9.44 8.11 9.83 8.05 C 9.59 8.57 9.11 9.61 8.87 10.13 C 8.62 9.86 8.11 9.32 7.85 9.06 L 8.26 8.27 Z" />
<path fill="#ff60b0" opacity="1.00" d=" M 13.07 7.77 L 13.76 8.23 C 13.96 9.84 13.33 10.24 11.88 9.43 L 11.98 8.80 C 12.25 8.54 12.80 8.03 13.07 7.77 Z" />
<path fill="#ff60b0" opacity="1.00" d=" M 41.12 8.13 C 41.60 8.09 42.57 8.00 43.06 7.96 L 43.57 8.89 C 42.52 9.89 41.48 9.89 40.44 8.87 L 41.12 8.13 Z" />
<path fill="#ff60b0" opacity="1.00" d=" M 25.35 9.15 C 25.76 9.16 26.57 9.19 26.98 9.20 L 27.01 9.86 C 26.04 10.52 24.98 10.90 23.81 11.00 L 23.68 10.41 C 24.10 10.10 24.93 9.47 25.35 9.15 Z" />
<path fill="#ff60b0" opacity="1.00" d=" M 34.22 8.95 C 34.64 8.93 35.50 8.89 35.93 8.87 C 35.71 9.19 35.27 9.83 35.05 10.15 L 34.20 9.73 L 34.22 8.95 Z" />
<path fill="#ff60b0" opacity="1.00" d=" M 11.14 13.13 C 9.17 13.30 10.63 10.24 11.94 11.28 C 11.92 11.64 11.89 12.35 11.87 12.71 L 11.14 13.13 Z" />
<path fill="#ff60b0" opacity="1.00" d=" M 5.49 11.72 L 6.13 11.41 C 7.52 12.35 7.44 13.22 5.89 14.04 L 5.18 13.62 C 5.25 13.15 5.41 12.20 5.49 11.72 Z" />
<path fill="#ff60b0" opacity="1.00" d=" M 21.19 12.03 C 21.60 12.03 22.42 12.04 22.83 12.04 C 22.82 12.47 22.82 13.34 22.81 13.78 L 21.86 14.16 L 21.06 13.73 C 21.09 13.31 21.16 12.46 21.19 12.03 Z" />
<path fill="#ff60b0" opacity="1.00" d=" M 36.28 11.85 L 36.95 11.65 C 38.46 12.63 38.43 13.45 36.86 14.13 L 36.12 13.68 C 36.16 13.22 36.24 12.31 36.28 11.85 Z" />
</g>
<g id="#ffc8b8ff">
<path fill="#ffc8b8" opacity="1.00" d=" M 6.99 1.37 L 8.24 1.39 C 8.34 1.38 8.54 1.36 8.64 1.35 L 9.56 1.04 C 9.44 1.59 9.19 2.69 9.07 3.24 C 9.28 3.67 9.72 4.51 9.93 4.93 C 9.20 4.93 7.73 4.94 7.00 4.94 L 7.00 4.02 L 8.29 3.96 L 7.80 2.78 C 7.29 3.14 6.28 3.86 5.77 4.22 L 6.31 1.58 C 6.48 1.53 6.82 1.42 6.99 1.37 Z" />
<path fill="#ffc8b8" opacity="1.00" d=" M 22.85 1.74 L 24.22 1.47 C 24.33 1.44 24.53 1.39 24.63 1.37 L 25.61 1.05 C 25.94 2.12 25.70 3.10 24.89 3.98 L 26.43 4.28 C 25.52 5.01 24.47 5.20 23.29 4.85 C 23.42 4.50 23.68 3.79 23.81 3.44 C 23.31 3.10 22.31 2.43 21.81 2.09 C 22.07 2.00 22.59 1.83 22.85 1.74 Z" />
<path fill="#ffc8b8" opacity="1.00" d=" M 37.98 1.40 L 39.23 1.38 C 39.33 1.37 39.52 1.35 39.62 1.33 L 40.54 1.07 C 40.62 1.44 40.77 2.19 40.84 2.57 L 39.94 3.38 C 40.26 3.75 40.88 4.50 41.19 4.88 C 39.73 5.50 36.80 6.75 35.34 7.38 C 36.31 6.39 38.27 4.42 39.24 3.44 L 38.72 2.87 C 38.24 3.20 37.28 3.85 36.80 4.18 L 37.29 1.59 C 37.46 1.54 37.81 1.44 37.98 1.40 Z" />
<path fill="#ffc8b8" opacity="1.00" d=" M 19.21 5.24 C 19.81 5.82 19.81 5.82 19.21 5.24 Z" />
<path fill="#ffc8b8" opacity="1.00" d=" M 28.25 5.25 C 28.83 5.83 28.83 5.83 28.25 5.25 Z" />
<path fill="#ffc8b8" opacity="1.00" d=" M 1.85 6.97 C 2.20 6.67 2.91 6.07 3.26 5.77 L 3.65 6.47 C 3.31 6.76 2.65 7.34 2.32 7.63 L 1.85 6.97 Z" />
<path fill="#ffc8b8" opacity="1.00" d=" M 44.13 6.07 C 44.59 6.03 45.50 5.95 45.96 5.90 C 46.30 7.60 45.69 8.28 44.12 7.96 C 44.13 7.49 44.13 6.54 44.13 6.07 Z" />
<path fill="#ffc8b8" opacity="1.00" d=" M 4.21 7.68 C 4.57 6.29 7.45 7.22 8.69 6.96 C 8.98 7.23 9.54 7.78 9.83 8.05 C 9.44 8.11 8.66 8.22 8.26 8.27 C 6.87 8.30 5.52 8.10 4.21 7.68 Z" />
<path fill="#ffc8b8" opacity="1.00" d=" M 18.06 6.73 C 19.58 6.37 20.15 7.03 19.76 8.71 C 18.21 9.12 17.65 8.46 18.06 6.73 Z" />
<path fill="#ffc8b8" opacity="1.00" d=" M 34.17 7.05 C 35.76 6.69 36.35 7.30 35.93 8.87 C 35.50 8.89 34.64 8.93 34.22 8.95 C 34.20 8.47 34.18 7.52 34.17 7.05 Z" />
<path fill="#ffc8b8" opacity="1.00" d=" M 36.90 7.69 C 38.52 6.42 41.75 6.18 43.06 7.96 C 42.57 8.00 41.60 8.09 41.12 8.13 C 39.68 8.20 38.28 8.06 36.90 7.69 Z" />
<path fill="#ffc8b8" opacity="1.00" d=" M 21.11 8.69 C 21.80 7.41 26.59 7.30 26.98 9.20 C 26.57 9.19 25.76 9.16 25.35 9.15 C 23.89 9.22 22.48 9.07 21.11 8.69 Z" />
<path fill="#ffc8b8" opacity="1.00" d=" M 5.49 11.72 C 5.65 11.64 5.97 11.49 6.13 11.41 L 5.49 11.72 Z" />
<path fill="#ffc8b8" opacity="1.00" d=" M 21.16 11.23 C 21.58 11.23 22.42 11.23 22.84 11.23 L 22.83 12.04 C 22.42 12.04 21.60 12.03 21.19 12.03 L 21.16 11.23 Z" />
<path fill="#ffc8b8" opacity="1.00" d=" M 36.28 11.85 C 36.45 11.80 36.78 11.70 36.95 11.65 L 36.28 11.85 Z" />
<path fill="#ffc8b8" opacity="1.00" d=" M 11.14 13.13 L 11.87 12.71 C 14.51 13.11 10.78 15.57 11.14 13.13 Z" />
<path fill="#ffc8b8" opacity="1.00" d=" M 27.12 12.76 C 29.14 11.28 28.89 15.60 27.11 13.58 L 27.12 12.76 Z" />
<path fill="#ffc8b8" opacity="1.00" d=" M 42.13 12.75 C 44.15 11.29 43.88 15.61 42.11 13.58 L 42.13 12.75 Z" />
<path fill="#ffc8b8" opacity="1.00" d=" M 5.89 14.04 C 6.22 16.51 2.53 14.15 5.18 13.62 L 5.89 14.04 Z" />
<path fill="#ffc8b8" opacity="1.00" d=" M 21.86 14.16 C 22.25 16.54 18.47 14.18 21.06 13.73 L 21.86 14.16 Z" />
<path fill="#ffc8b8" opacity="1.00" d=" M 36.86 14.13 C 37.19 16.56 33.51 14.12 36.12 13.68 L 36.86 14.13 Z" />
</g>
<g id="#e8a3a6ff">
<path fill="#e8a3a6" opacity="1.00" d=" M 9.83 8.05 C 10.83 7.74 11.84 7.48 12.86 7.27 L 13.07 7.77 C 12.80 8.03 12.25 8.54 11.98 8.80 C 11.16 9.55 10.36 10.31 9.58 11.09 C 7.82 11.19 6.30 10.41 5.34 8.87 C 5.97 8.92 7.23 9.01 7.85 9.06 C 8.11 9.32 8.62 9.86 8.87 10.13 C 9.11 9.61 9.59 8.57 9.83 8.05 Z" />
</g>
<g id="#ffaeb6ff">
<path fill="#ffaeb6" opacity="1.00" d=" M 29.82 8.57 C 28.10 10.36 27.29 6.59 29.26 6.39 L 29.95 6.69 C 29.92 7.16 29.86 8.10 29.82 8.57 Z" />
</g>
<g id="#db9d9dff">
<path fill="#db9d9d" opacity="1.00" d=" M 39.05 9.26 C 39.40 9.16 40.09 8.97 40.44 8.87 C 41.48 9.89 42.52 9.89 43.57 8.89 L 43.86 9.36 L 43.93 10.04 C 43.66 10.26 43.12 10.70 42.86 10.92 C 41.35 11.48 39.48 10.95 39.05 9.26 Z" />
</g>
<g id="#ffb3b6ff">
<path fill="#ffb3b6" opacity="1.00" d=" M 23.81 11.00 C 24.98 10.90 26.04 10.52 27.01 9.86 C 29.63 11.03 24.19 13.55 23.81 11.00 Z" />
</g>
</svg>
