<?xml version="1.0" encoding="UTF-8" ?>
<!DOCTYPE svg PUBLIC "-//W3C//DTD SVG 1.1//EN" "http://www.w3.org/Graphics/SVG/1.1/DTD/svg11.dtd">
<svg width="16pt" height="16pt" viewBox="0 0 16 16" version="1.1" xmlns="http://www.w3.org/2000/svg">
<g id="#ffa000ff">
<path fill="#ffa000" opacity="1.00" d=" M 0.00 0.00 L 2.13 0.00 C 1.60 0.24 0.53 0.72 0.00 0.96 L 0.00 0.00 Z" />
<path fill="#ffa000" opacity="1.00" d=" M 4.81 0.00 L 6.47 0.00 C 6.62 0.56 6.91 1.67 7.05 2.23 C 6.51 1.83 5.43 1.04 4.89 0.64 L 4.81 0.00 Z" />
<path fill="#ffa000" opacity="1.00" d=" M 8.92 0.00 L 10.69 0.00 C 10.41 0.31 9.85 0.92 9.57 1.23 L 8.75 0.83 L 8.92 0.00 Z" />
<path fill="#ffa000" opacity="1.00" d=" M 3.09 1.82 C 6.59 1.97 1.42 4.69 3.09 1.82 Z" />
<path fill="#ffa000" opacity="1.00" d=" M 11.08 1.83 C 14.57 1.98 9.43 4.70 11.08 1.83 Z" />
<path fill="#ffa000" opacity="1.00" d=" M 7.05 2.23 L 7.37 2.56 C 7.29 2.48 7.13 2.31 7.05 2.23 Z" />
<path fill="#ffa000" opacity="1.00" d=" M 0.00 4.17 C 0.47 3.90 1.40 3.37 1.87 3.10 C 2.56 4.12 3.09 5.22 3.44 6.40 C 2.22 6.03 1.08 5.50 0.00 4.82 L 0.00 4.17 Z" />
<path fill="#ffa000" opacity="1.00" d=" M 5.50 3.48 C 5.76 3.74 6.27 4.25 6.53 4.51 C 6.27 4.76 5.76 5.27 5.50 5.53 C 5.25 5.27 4.73 4.76 4.47 4.50 C 4.73 4.24 5.25 3.73 5.50 3.48 Z" />
<path fill="#ffa000" opacity="1.00" d=" M 8.60 4.21 C 8.79 4.08 9.16 3.81 9.35 3.68 C 10.63 4.08 11.26 4.89 11.23 6.11 C 9.86 6.16 8.98 5.52 8.60 4.21 Z" />
<path fill="#ffa000" opacity="1.00" d=" M 13.51 3.49 C 13.77 3.75 14.28 4.25 14.54 4.51 C 14.28 4.76 13.75 5.26 13.49 5.52 C 13.23 5.26 12.72 4.75 12.46 4.49 C 12.72 4.24 13.25 3.74 13.51 3.49 Z" />
<path fill="#ffa000" opacity="1.00" d=" M 7.08 5.81 C 10.56 5.98 5.42 8.69 7.08 5.81 Z" />
<path fill="#ffa000" opacity="1.00" d=" M 15.16 5.74 L 16.00 5.91 L 16.00 7.68 C 15.69 7.40 15.08 6.84 14.77 6.56 L 15.16 5.74 Z" />
<path fill="#ffa000" opacity="1.00" d=" M 3.44 6.40 C 3.56 6.38 3.79 6.34 3.90 6.32 L 3.83 6.57 L 3.44 6.40 Z" />
<path fill="#ffa000" opacity="1.00" d=" M 11.23 6.11 C 11.78 6.53 11.78 6.53 11.23 6.11 Z" />
<path fill="#ffa000" opacity="1.00" d=" M 0.00 8.01 C 0.83 6.72 3.71 8.67 1.68 9.21 C 1.26 9.10 0.42 8.89 0.00 8.78 L 0.00 8.01 Z" />
<path fill="#ffa000" opacity="1.00" d=" M 4.59 8.21 C 4.78 8.08 5.15 7.82 5.34 7.69 C 6.63 8.09 7.26 8.89 7.24 10.11 C 5.87 10.15 4.99 9.52 4.59 8.21 Z" />
<path fill="#ffa000" opacity="1.00" d=" M 9.51 7.48 C 9.76 7.74 10.28 8.25 10.53 8.51 C 10.28 8.76 9.77 9.28 9.51 9.54 C 9.25 9.28 8.74 8.76 8.48 8.51 C 8.74 8.25 9.25 7.74 9.51 7.48 Z" />
<path fill="#ffa000" opacity="1.00" d=" M 3.08 9.81 C 6.58 9.94 1.46 12.71 3.08 9.81 Z" />
<path fill="#ffa000" opacity="1.00" d=" M 11.08 9.82 C 14.57 9.95 9.42 12.70 11.08 9.82 Z" />
<path fill="#ffa000" opacity="1.00" d=" M 7.24 10.11 C 7.79 10.53 7.79 10.53 7.24 10.11 Z" />
<path fill="#ffa000" opacity="1.00" d=" M 0.00 12.73 C 0.46 12.33 1.37 11.55 1.82 11.15 C 2.75 12.04 3.03 13.07 2.65 14.23 C 2.18 14.16 1.24 14.02 0.77 13.96 C 0.58 13.84 0.19 13.61 0.00 13.50 L 0.00 12.73 Z" />
<path fill="#ffa000" opacity="1.00" d=" M 5.51 11.47 C 5.76 11.73 6.27 12.24 6.53 12.49 C 6.27 12.75 5.75 13.26 5.49 13.52 C 5.23 13.26 4.72 12.75 4.47 12.50 C 4.73 12.24 5.25 11.73 5.51 11.47 Z" />
<path fill="#ffa000" opacity="1.00" d=" M 13.50 11.47 C 13.76 11.72 14.27 12.23 14.52 12.49 C 14.27 12.75 13.76 13.27 13.50 13.53 C 13.25 13.28 12.74 12.77 12.48 12.51 C 12.74 12.25 13.25 11.73 13.50 11.47 Z" />
<path fill="#ffa000" opacity="1.00" d=" M 7.37 13.11 C 9.00 13.28 8.99 15.38 7.65 16.00 L 6.93 16.00 C 6.71 15.63 6.27 14.89 6.05 14.53 C 6.38 14.17 7.04 13.46 7.37 13.11 Z" />
<path fill="#ffa000" opacity="1.00" d=" M 14.01 15.65 C 14.29 14.48 14.95 13.62 16.00 13.07 L 16.00 16.00 L 14.81 16.00 C 14.61 15.91 14.21 15.74 14.01 15.65 Z" />
<path fill="#ffa000" opacity="1.00" d=" M 2.65 14.23 L 3.38 14.26 C 3.46 14.69 3.62 15.56 3.69 16.00 L 2.78 16.00 C 2.74 15.56 2.68 14.67 2.65 14.23 Z" />
<path fill="#ffa000" opacity="1.00" d=" M 13.83 16.00 C 13.88 15.91 13.97 15.74 14.01 15.65 L 14.17 16.00 L 13.83 16.00 Z" />
</g>
<g id="#653f00ff">
<path fill="#653f00" opacity="1.00" d=" M 2.13 0.00 L 4.81 0.00 L 4.89 0.64 C 5.43 1.04 6.51 1.83 7.05 2.23 C 7.13 2.31 7.29 2.48 7.37 2.56 L 7.05 2.23 C 6.91 1.67 6.62 0.56 6.47 0.00 L 8.92 0.00 L 8.75 0.83 L 9.57 1.23 C 9.85 0.92 10.41 0.31 10.69 0.00 L 13.37 0.00 L 13.07 0.19 C 13.70 1.36 14.76 2.19 16.00 2.67 L 16.00 5.91 L 15.16 5.74 L 14.77 6.56 C 15.08 6.84 15.69 7.40 16.00 7.68 L 16.00 11.03 C 15.35 9.71 14.53 8.50 13.55 7.42 C 13.24 7.66 12.64 8.14 12.34 8.39 C 13.20 9.85 14.63 10.79 16.00 11.71 L 16.00 13.07 C 14.95 13.62 14.29 14.48 14.01 15.65 C 13.97 15.74 13.88 15.91 13.83 16.00 L 11.90 16.00 C 11.86 15.67 11.79 15.02 11.75 14.69 C 11.46 13.25 10.67 11.86 9.21 11.34 C 9.05 11.64 8.74 12.24 8.58 12.54 C 9.41 13.84 10.45 14.99 11.61 16.00 L 7.65 16.00 C 8.99 15.38 9.00 13.28 7.37 13.11 C 7.04 13.46 6.38 14.17 6.05 14.53 C 5.83 14.89 5.37 15.63 5.15 16.00 L 3.69 16.00 C 3.62 15.56 3.46 14.69 3.38 14.26 L 2.65 14.23 C 3.03 13.07 2.75 12.04 1.82 11.15 C 1.37 11.55 0.46 12.33 0.00 12.73 L 0.00 8.78 C 0.42 8.89 1.26 9.10 1.68 9.21 C 3.71 8.67 0.83 6.72 0.00 8.01 L 0.00 4.82 C 1.08 5.50 2.22 6.03 3.44 6.40 L 3.83 6.57 L 3.90 6.32 C 3.79 6.34 3.56 6.38 3.44 6.40 C 3.09 5.22 2.56 4.12 1.87 3.10 C 1.40 3.37 0.47 3.90 0.00 4.17 L 0.00 0.96 C 0.53 0.72 1.60 0.24 2.13 0.00 M 3.09 1.82 C 1.42 4.69 6.59 1.97 3.09 1.82 M 11.08 1.83 C 9.43 4.70 14.57 1.98 11.08 1.83 M 5.50 3.48 C 5.25 3.73 4.73 4.24 4.47 4.50 C 4.73 4.76 5.25 5.27 5.50 5.53 C 5.76 5.27 6.27 4.76 6.53 4.51 C 6.27 4.25 5.76 3.74 5.50 3.48 M 8.60 4.21 C 8.98 5.52 9.86 6.16 11.23 6.11 C 11.26 4.89 10.63 4.08 9.35 3.68 C 9.16 3.81 8.79 4.08 8.60 4.21 M 13.51 3.49 C 13.25 3.74 12.72 4.24 12.46 4.49 C 12.72 4.75 13.23 5.26 13.49 5.52 C 13.75 5.26 14.28 4.76 14.54 4.51 C 14.28 4.25 13.77 3.75 13.51 3.49 M 7.08 5.81 C 5.42 8.69 10.56 5.98 7.08 5.81 M 11.23 6.11 C 11.78 6.53 11.78 6.53 11.23 6.11 M 4.59 8.21 C 4.99 9.52 5.87 10.15 7.24 10.11 C 7.26 8.89 6.63 8.09 5.34 7.69 C 5.15 7.82 4.78 8.08 4.59 8.21 M 9.51 7.48 C 9.25 7.74 8.74 8.25 8.48 8.51 C 8.74 8.76 9.25 9.28 9.51 9.54 C 9.77 9.28 10.28 8.76 10.53 8.51 C 10.28 8.25 9.76 7.74 9.51 7.48 M 3.08 9.81 C 1.46 12.71 6.58 9.94 3.08 9.81 M 11.08 9.82 C 9.42 12.70 14.57 9.95 11.08 9.82 M 7.24 10.11 C 7.79 10.53 7.79 10.53 7.24 10.11 M 5.51 11.47 C 5.25 11.73 4.73 12.24 4.47 12.50 C 4.72 12.75 5.23 13.26 5.49 13.52 C 5.75 13.26 6.27 12.75 6.53 12.49 C 6.27 12.24 5.76 11.73 5.51 11.47 M 13.50 11.47 C 13.25 11.73 12.74 12.25 12.48 12.51 C 12.74 12.77 13.25 13.28 13.50 13.53 C 13.76 13.27 14.27 12.75 14.52 12.49 C 14.27 12.23 13.76 11.72 13.50 11.47 Z" />
</g>
<g id="#cc8000ff">
<path fill="#cc8000" opacity="1.00" d=" M 13.37 0.00 L 15.54 0.00 C 15.65 0.08 15.88 0.25 16.00 0.34 L 16.00 2.67 C 14.76 2.19 13.70 1.36 13.07 0.19 L 13.37 0.00 Z" />
</g>
<g id="#000000ff">
<path fill="#000000" opacity="1.00" d=" M 15.54 0.00 L 16.00 0.00 L 16.00 0.34 C 15.88 0.25 15.65 0.08 15.54 0.00 Z" />
<path fill="#000000" opacity="1.00" d=" M 0.00 13.50 C 0.19 13.61 0.58 13.84 0.77 13.96 L 0.00 14.08 L 0.00 13.50 Z" />
<path fill="#000000" opacity="1.00" d=" M 0.77 13.96 C 1.24 14.02 2.18 14.16 2.65 14.23 C 2.68 14.67 2.74 15.56 2.78 16.00 L 1.85 16.00 C 1.58 15.49 1.04 14.47 0.77 13.96 Z" />
<path fill="#000000" opacity="1.00" d=" M 14.01 15.65 C 14.21 15.74 14.61 15.91 14.81 16.00 L 14.17 16.00 L 14.01 15.65 Z" />
</g>
<g id="#d58500ff">
<path fill="#d58500" opacity="1.00" d=" M 12.34 8.39 C 12.64 8.14 13.24 7.66 13.55 7.42 C 14.53 8.50 15.35 9.71 16.00 11.03 L 16.00 11.71 C 14.63 10.79 13.20 9.85 12.34 8.39 Z" />
</g>
<g id="#db8900ff">
<path fill="#db8900" opacity="1.00" d=" M 8.58 12.54 C 8.74 12.24 9.05 11.64 9.21 11.34 C 10.67 11.86 11.46 13.25 11.75 14.69 C 11.79 15.02 11.86 15.67 11.90 16.00 L 11.61 16.00 C 10.45 14.99 9.41 13.84 8.58 12.54 Z" />
</g>
<g id="#aa6b00ff">
<path fill="#aa6b00" opacity="1.00" d=" M 0.00 14.08 L 0.77 13.96 C 1.04 14.47 1.58 15.49 1.85 16.00 L 0.00 16.00 L 0.00 14.08 Z" />
</g>
<g id="#805000ff">
<path fill="#805000" opacity="1.00" d=" M 5.15 16.00 C 5.37 15.63 5.83 14.89 6.05 14.53 C 6.27 14.89 6.71 15.63 6.93 16.00 L 5.15 16.00 Z" />
</g>
</svg>
