<?xml version="1.0" encoding="UTF-8" ?>
<!DOCTYPE svg PUBLIC "-//W3C//DTD SVG 1.1//EN" "http://www.w3.org/Graphics/SVG/1.1/DTD/svg11.dtd">
<svg width="16pt" height="16pt" viewBox="0 0 16 16" version="1.1" xmlns="http://www.w3.org/2000/svg">
<g id="#48a810ff">
<path fill="#48a810" opacity="1.00" d=" M 0.00 0.00 L 3.11 0.00 C 2.90 0.47 2.47 1.41 2.25 1.88 C 2.69 1.77 3.57 1.56 4.01 1.45 C 4.99 4.96 4.58 8.58 4.50 12.16 C 3.46 12.40 2.42 12.62 1.37 12.82 C 1.85 13.22 2.81 14.02 3.29 14.41 L 3.36 14.70 L 3.38 16.00 L 0.00 16.00 L 0.00 10.62 L 0.48 10.54 L 0.48 10.14 L 0.00 10.03 L 0.00 8.63 L 0.48 8.54 L 0.48 8.14 L 0.00 8.04 L 0.00 6.63 L 0.48 6.55 L 0.48 6.15 L 0.00 6.04 L 0.00 0.00 M 1.27 3.25 C 1.77 3.79 1.77 3.79 1.27 3.25 Z" />
<path fill="#48a810" opacity="1.00" d=" M 3.87 0.00 L 11.11 0.00 C 10.90 0.47 10.47 1.41 10.25 1.88 C 10.69 1.77 11.57 1.56 12.01 1.45 C 12.95 4.96 12.61 8.59 12.49 12.17 C 11.45 12.39 10.40 12.61 9.35 12.82 C 9.89 13.23 10.96 14.06 11.50 14.48 L 11.58 14.62 L 10.73 16.00 L 7.54 16.00 C 6.95 14.82 6.03 14.00 4.79 13.54 C 5.57 12.89 6.34 12.23 7.12 11.57 C 7.21 7.71 6.30 3.88 4.21 0.61 L 3.87 0.00 M 9.25 3.25 C 9.77 3.78 9.77 3.78 9.25 3.25 M 8.26 6.26 C 8.77 6.79 8.77 6.79 8.26 6.26 M 8.26 8.26 C 8.78 8.78 8.78 8.78 8.26 8.26 M 8.25 10.26 C 8.78 10.78 8.78 10.78 8.25 10.26 Z" />
<path fill="#48a810" opacity="1.00" d=" M 11.87 0.00 L 16.00 0.00 L 16.00 16.00 L 15.53 16.00 C 14.95 14.82 14.04 14.00 12.79 13.54 C 13.57 12.89 14.34 12.23 15.12 11.57 C 15.22 7.70 14.29 3.89 12.21 0.61 L 11.87 0.00 Z" />
</g>
<g id="#c2a305ff">
<path fill="#c2a305" opacity="1.00" d=" M 3.11 0.00 L 3.87 0.00 L 4.21 0.61 L 4.01 1.45 C 3.57 1.56 2.69 1.77 2.25 1.88 C 2.47 1.41 2.90 0.47 3.11 0.00 Z" />
<path fill="#c2a305" opacity="1.00" d=" M 11.11 0.00 L 11.87 0.00 L 12.21 0.61 L 12.01 1.45 C 11.57 1.56 10.69 1.77 10.25 1.88 C 10.47 1.41 10.90 0.47 11.11 0.00 Z" />
</g>
<g id="#000000ff">
<path fill="#000000" opacity="1.00" d=" M 4.21 0.61 C 6.30 3.88 7.21 7.71 7.12 11.57 C 6.34 12.23 5.57 12.89 4.79 13.54 C 6.03 14.00 6.95 14.82 7.54 16.00 L 3.38 16.00 L 3.36 14.70 L 3.68 14.65 C 3.58 14.59 3.39 14.47 3.29 14.41 C 2.81 14.02 1.85 13.22 1.37 12.82 C 2.42 12.62 3.46 12.40 4.50 12.16 C 4.58 8.58 4.99 4.96 4.01 1.45 L 4.21 0.61 Z" />
<path fill="#000000" opacity="1.00" d=" M 12.21 0.61 C 14.29 3.89 15.22 7.70 15.12 11.57 C 14.34 12.23 13.57 12.89 12.79 13.54 C 14.04 14.00 14.95 14.82 15.53 16.00 L 10.73 16.00 L 11.58 14.62 C 11.56 14.59 11.52 14.51 11.50 14.48 C 10.96 14.06 9.89 13.23 9.35 12.82 C 10.40 12.61 11.45 12.39 12.49 12.17 C 12.61 8.59 12.95 4.96 12.01 1.45 L 12.21 0.61 Z" />
</g>
<g id="#ffa000ff">
<path fill="#ffa000" opacity="1.00" d=" M 1.27 3.25 C 1.77 3.79 1.77 3.79 1.27 3.25 Z" />
<path fill="#ffa000" opacity="1.00" d=" M 9.25 3.25 C 9.77 3.78 9.77 3.78 9.25 3.25 Z" />
<path fill="#ffa000" opacity="1.00" d=" M 0.00 6.04 L 0.48 6.15 L 0.48 6.55 L 0.00 6.63 L 0.00 6.04 Z" />
<path fill="#ffa000" opacity="1.00" d=" M 8.26 6.26 C 8.77 6.79 8.77 6.79 8.26 6.26 Z" />
<path fill="#ffa000" opacity="1.00" d=" M 0.00 8.04 L 0.48 8.14 L 0.48 8.54 L 0.00 8.63 L 0.00 8.04 Z" />
<path fill="#ffa000" opacity="1.00" d=" M 8.26 8.26 C 8.78 8.78 8.78 8.78 8.26 8.26 Z" />
<path fill="#ffa000" opacity="1.00" d=" M 0.00 10.03 L 0.48 10.14 L 0.48 10.54 L 0.00 10.62 L 0.00 10.03 Z" />
<path fill="#ffa000" opacity="1.00" d=" M 8.25 10.26 C 8.78 10.78 8.78 10.78 8.25 10.26 Z" />
<path fill="#ffa000" opacity="1.00" d=" M 3.29 14.41 C 3.39 14.47 3.58 14.59 3.68 14.65 L 3.36 14.70 L 3.29 14.41 Z" />
<path fill="#ffa000" opacity="1.00" d=" M 11.50 14.48 C 11.52 14.51 11.56 14.59 11.58 14.62 L 11.50 14.48 Z" />
</g>
</svg>
