<?xml version="1.0" encoding="UTF-8" ?>
<!DOCTYPE svg PUBLIC "-//W3C//DTD SVG 1.1//EN" "http://www.w3.org/Graphics/SVG/1.1/DTD/svg11.dtd">
<svg width="16pt" height="16pt" viewBox="0 0 16 16" version="1.1" xmlns="http://www.w3.org/2000/svg">
<g id="#000000ff">
<path fill="#000000" opacity="1.00" d=" M 0.00 0.00 L 0.46 0.00 L 0.26 0.29 L 0.00 0.31 L 0.00 0.00 Z" />
<path fill="#000000" opacity="1.00" d=" M 2.28 0.00 L 2.71 0.00 L 2.44 0.34 L 2.11 0.29 L 2.28 0.00 Z" />
<path fill="#000000" opacity="1.00" d=" M 4.28 0.00 L 4.71 0.00 L 4.44 0.33 L 4.11 0.28 L 4.28 0.00 Z" />
<path fill="#000000" opacity="1.00" d=" M 10.29 0.00 L 10.72 0.00 L 10.44 0.34 L 10.11 0.28 L 10.29 0.00 Z" />
<path fill="#000000" opacity="1.00" d=" M 12.29 0.00 L 12.72 0.00 L 12.44 0.34 L 12.11 0.29 L 12.29 0.00 Z" />
<path fill="#000000" opacity="1.00" d=" M 0.00 2.28 L 0.34 2.56 L 0.29 2.89 L 0.00 2.71 L 0.00 2.28 Z" />
<path fill="#000000" opacity="1.00" d=" M 7.46 3.58 C 7.54 3.59 7.71 3.61 7.79 3.62 L 7.60 3.75 L 7.46 3.58 Z" />
<path fill="#000000" opacity="1.00" d=" M 15.72 3.11 L 16.00 3.29 L 16.00 3.72 L 15.66 3.44 L 15.72 3.11 Z" />
<path fill="#000000" opacity="1.00" d=" M 0.00 4.47 C 0.06 4.52 0.18 4.61 0.24 4.66 L 0.00 4.68 L 0.00 4.47 Z" />
<path fill="#000000" opacity="1.00" d=" M 16.00 5.50 C 16.00 5.45 16.00 5.35 16.00 5.30 L 16.00 5.50 Z" />
<path fill="#000000" opacity="1.00" d=" M 4.48 8.37 L 4.86 8.14 L 4.79 8.27 L 4.59 8.35 L 4.48 8.37 Z" />
<path fill="#000000" opacity="1.00" d=" M 12.23 8.15 C 12.26 8.22 12.31 8.35 12.33 8.42 L 12.27 8.32 L 12.23 8.15 Z" />
<path fill="#000000" opacity="1.00" d=" M 0.00 10.28 L 0.34 10.56 L 0.29 10.89 L 0.00 10.71 L 0.00 10.28 Z" />
<path fill="#000000" opacity="1.00" d=" M 7.85 10.93 L 8.24 11.26 L 7.78 11.74 L 7.51 11.30 L 7.85 10.93 Z" />
<path fill="#000000" opacity="1.00" d=" M 15.72 11.11 L 16.00 11.29 L 16.00 11.72 L 15.66 11.44 L 15.72 11.11 Z" />
<path fill="#000000" opacity="1.00" d=" M 0.00 12.28 L 0.34 12.55 L 0.28 12.89 L 0.00 12.71 L 0.00 12.28 Z" />
<path fill="#000000" opacity="1.00" d=" M 15.75 13.33 L 16.00 13.31 L 16.00 13.53 C 15.94 13.48 15.81 13.38 15.75 13.33 Z" />
<path fill="#000000" opacity="1.00" d=" M 3.56 15.66 L 3.89 15.71 L 3.71 16.00 L 3.28 16.00 L 3.56 15.66 Z" />
<path fill="#000000" opacity="1.00" d=" M 5.56 15.66 L 5.89 15.71 L 5.72 16.00 L 5.29 16.00 L 5.56 15.66 Z" />
<path fill="#000000" opacity="1.00" d=" M 11.55 15.66 L 11.89 15.71 L 11.71 16.00 L 11.28 16.00 L 11.55 15.66 Z" />
<path fill="#000000" opacity="1.00" d=" M 13.56 15.66 L 13.89 15.71 L 13.72 16.00 L 13.29 16.00 L 13.56 15.66 Z" />
<path fill="#000000" opacity="1.00" d=" M 15.74 15.72 L 16.00 15.70 L 16.00 16.00 L 15.54 16.00 L 15.74 15.72 Z" />
</g>
<g id="#ff60b0ff">
<path fill="#ff60b0" opacity="1.00" d=" M 0.46 0.00 L 2.28 0.00 L 2.11 0.29 L 2.44 0.34 L 2.71 0.00 L 4.28 0.00 L 4.11 0.28 L 4.44 0.33 L 4.71 0.00 L 10.29 0.00 L 10.11 0.28 L 10.44 0.34 L 10.72 0.00 L 12.29 0.00 L 12.11 0.29 L 12.44 0.34 L 12.72 0.00 L 14.26 0.00 C 14.03 1.41 14.61 1.95 16.00 1.61 L 16.00 3.29 L 15.72 3.11 L 15.66 3.44 L 16.00 3.72 L 16.00 5.30 C 16.00 5.35 16.00 5.45 16.00 5.50 L 16.00 11.29 L 15.72 11.11 L 15.66 11.44 L 16.00 11.72 L 16.00 13.31 L 15.75 13.33 C 15.81 13.38 15.94 13.48 16.00 13.53 L 16.00 15.70 L 15.74 15.72 L 15.54 16.00 L 13.72 16.00 L 13.89 15.71 L 13.56 15.66 L 13.29 16.00 L 11.71 16.00 L 11.89 15.71 L 11.55 15.66 L 11.28 16.00 L 9.65 16.00 C 9.54 15.38 9.32 14.13 9.21 13.50 C 8.85 13.06 8.13 12.18 7.78 11.74 L 8.24 11.26 L 8.79 11.81 C 8.87 10.79 9.03 8.75 9.11 7.73 C 9.42 8.05 10.02 8.69 10.32 9.01 C 10.80 8.79 11.75 8.36 12.23 8.15 L 12.27 8.32 L 12.33 8.42 C 12.31 8.35 12.26 8.22 12.23 8.15 L 12.37 7.67 C 11.88 7.67 10.89 7.68 10.39 7.68 C 9.81 7.14 8.65 6.08 8.07 5.55 C 8.43 5.13 9.17 4.31 9.53 3.90 L 7.79 3.62 C 7.71 3.61 7.54 3.59 7.46 3.58 L 7.60 3.75 L 7.79 3.62 C 7.53 4.01 7.03 4.81 6.77 5.20 C 7.56 6.04 8.34 6.88 9.11 7.73 L 7.12 8.94 C 6.98 8.21 6.70 6.76 6.55 6.03 C 6.13 6.55 5.28 7.61 4.86 8.14 L 4.48 8.37 C 3.98 7.99 2.96 7.23 2.45 6.84 C 1.83 6.74 0.61 6.53 0.00 6.43 L 0.00 4.68 L 0.24 4.66 C 0.18 4.61 0.06 4.52 0.00 4.47 L 0.00 2.71 L 0.29 2.89 L 0.34 2.56 L 0.00 2.28 L 0.00 0.31 L 0.26 0.29 L 0.46 0.00 Z" />
<path fill="#ff60b0" opacity="1.00" d=" M 0.00 8.36 C 1.37 9.21 3.02 8.53 4.48 8.37 L 4.59 8.35 L 4.79 8.27 L 4.86 8.14 C 6.05 9.11 7.18 10.15 8.24 11.26 L 7.85 10.93 L 7.51 11.30 L 7.78 11.74 C 7.35 13.12 7.01 14.60 7.55 16.00 L 5.72 16.00 L 5.89 15.71 L 5.56 15.66 L 5.29 16.00 L 3.71 16.00 L 3.89 15.71 L 3.56 15.66 L 3.28 16.00 L 1.69 16.00 C 1.44 15.50 0.93 14.50 0.68 13.99 L 0.00 14.38 L 0.00 12.71 L 0.28 12.89 L 0.34 12.55 L 0.00 12.28 L 0.00 10.71 L 0.29 10.89 L 0.34 10.56 L 0.00 10.28 L 0.00 8.36 Z" />
</g>
<g id="#55203bff">
<path fill="#55203b" opacity="1.00" d=" M 14.26 0.00 L 16.00 0.00 L 16.00 1.61 C 14.61 1.95 14.03 1.41 14.26 0.00 Z" />
<path fill="#55203b" opacity="1.00" d=" M 7.79 3.62 L 9.53 3.90 C 9.17 4.31 8.43 5.13 8.07 5.55 C 8.65 6.08 9.81 7.14 10.39 7.68 C 10.89 7.68 11.88 7.67 12.37 7.67 L 12.23 8.15 C 11.75 8.36 10.80 8.79 10.32 9.01 C 10.02 8.69 9.42 8.05 9.11 7.73 C 8.34 6.88 7.56 6.04 6.77 5.20 C 7.03 4.81 7.53 4.01 7.79 3.62 Z" />
<path fill="#55203b" opacity="1.00" d=" M 0.00 14.38 L 0.68 13.99 C 0.93 14.50 1.44 15.50 1.69 16.00 L 0.00 16.00 L 0.00 14.38 Z" />
</g>
<g id="#491b32ff">
<path fill="#491b32" opacity="1.00" d=" M 0.00 6.43 C 0.61 6.53 1.83 6.74 2.45 6.84 C 2.96 7.23 3.98 7.99 4.48 8.37 C 3.02 8.53 1.37 9.21 0.00 8.36 L 0.00 6.43 Z" />
<path fill="#491b32" opacity="1.00" d=" M 7.78 11.74 C 8.13 12.18 8.85 13.06 9.21 13.50 C 9.32 14.13 9.54 15.38 9.65 16.00 L 7.55 16.00 C 7.01 14.60 7.35 13.12 7.78 11.74 Z" />
</g>
<g id="#602442ff">
<path fill="#602442" opacity="1.00" d=" M 4.86 8.14 C 5.28 7.61 6.13 6.55 6.55 6.03 C 6.70 6.76 6.98 8.21 7.12 8.94 L 9.11 7.73 C 9.03 8.75 8.87 10.79 8.79 11.81 L 8.24 11.26 C 7.18 10.15 6.05 9.11 4.86 8.14 Z" />
</g>
</svg>
