<?xml version="1.0" encoding="UTF-8" ?>
<!DOCTYPE svg PUBLIC "-//W3C//DTD SVG 1.1//EN" "http://www.w3.org/Graphics/SVG/1.1/DTD/svg11.dtd">
<svg width="16pt" height="16pt" viewBox="0 0 16 16" version="1.1" xmlns="http://www.w3.org/2000/svg">
<g id="#45a20ffe">
<path fill="#45a20f" opacity="1.00" d=" M 0.00 0.00 L 16.00 0.00 L 16.00 16.00 L 7.02 16.00 C 7.05 13.15 7.08 10.31 7.11 7.47 C 6.31 10.31 5.59 13.17 4.74 16.00 L 4.62 16.00 C 3.33 12.56 1.87 9.20 0.00 6.04 L 0.00 0.00 Z" />
</g>
<g id="#091502ff">
<path fill="#091502" opacity="1.00" d=" M 0.00 6.04 C 1.87 9.20 3.33 12.56 4.62 16.00 L 0.00 16.00 L 0.00 6.04 Z" />
</g>
<g id="#214f07ff">
<path fill="#214f07" opacity="1.00" d=" M 4.74 16.00 C 5.59 13.17 6.31 10.31 7.11 7.47 C 7.08 10.31 7.05 13.15 7.02 16.00 L 4.74 16.00 Z" />
</g>
</svg>
